<svg xmlns="http://www.w3.org/2000/svg" width="900" height="600" viewBox="0 0 9 6"><path fill="#ff671f" d="M0 0h9v2H0z"/><path fill="#fff" d="M0 2h9v2H0z"/><path fill="#046a38" d="M0 4h9v2H0z"/><g transform="translate(3.522 2.022) scale(.00391)"><circle cx="250" cy="250" r="215" fill="none" stroke="#06038d" stroke-width="30"/><g fill="#06038d"><circle cx="450" cy="250" r="10" transform="rotate(7.5 250 250)"/><circle cx="450" cy="250" r="10" transform="rotate(22.5 250 250)"/><circle cx="450" cy="250" r="10" transform="rotate(37.5 250 250)"/><circle cx="450" cy="250" r="10" transform="rotate(52.5 250 250)"/><circle cx="450" cy="250" r="10" transform="rotate(67.5 250 250)"/><circle cx="450" cy="250" r="10" transform="rotate(82.5 250 250)"/><circle cx="450" cy="250" r="10" transform="rotate(97.5 250 250)"/><circle cx="450" cy="250" r="10" transform="rotate(112.5 250 250)"/><circle cx="450" cy="250" r="10" transform="rotate(127.5 250 250)"/><circle cx="450" cy="250" r="10" transform="rotate(142.5 250 250)"/><circle cx="450" cy="250" r="10" transform="rotate(157.5 250 250)"/><circle cx="450" cy="250" r="10" transform="rotate(172.5 250 250)"/><circle cx="450" cy="250" r="10" transform="rotate(187.5 250 250)"/><circle cx="450" cy="250" r="10" transform="rotate(202.5 250 250)"/><circle cx="450" cy="250" r="10" transform="rotate(217.5 250 250)"/><circle cx="450" cy="250" r="10" transform="rotate(232.5 250 250)"/><circle cx="450" cy="250" r="10" transform="rotate(247.5 250 250)"/><circle cx="450" cy="250" r="10" transform="rotate(262.5 250 250)"/><circle cx="450" cy="250" r="10" transform="rotate(277.5 250 250)"/><circle cx="450" cy="250" r="10" transform="rotate(292.5 250 250)"/><circle cx="450" cy="250" r="10" transform="rotate(307.5 250 250)"/><circle cx="450" cy="250" r="10" transform="rotate(322.5 250 250)"/><circle cx="450" cy="250" r="10" transform="rotate(337.5 250 250)"/><circle cx="450" cy="250" r="10" transform="rotate(352.5 250 250)"/><path d="m250 230-6.972-59.696L250 40l6.972 130.304zm5.176.681 8.716-59.466 40.46-124.06-26.99 127.67zM260 232.68l23.81-55.185L355 68.135l-59.114 116.333zm4.142 3.178 37.281-47.142 97.07-87.208-87.21 97.069zM267.32 240l48.212-35.886L431.865 145l-109.36 71.19zm1.999 4.824 55.856-22.186 127.67-26.99-124.06 40.46zM270 250l59.696-6.972L460 250l-130.304 6.972zm-.681 5.176 59.466 8.716 124.06 40.46-127.67-26.99zM267.32 260l55.185 23.81L431.865 355l-116.333-59.114zm-3.178 4.142 47.142 37.281 87.208 97.07-97.069-87.21zM260 267.32l35.886 48.212L355 431.865l-71.19-109.36zm-4.824 1.999 22.186 55.856 26.99 127.67-40.46-124.06zM250 270l6.972 59.696L250 460l-6.972-130.304zm-5.176-.681-8.716 59.466-40.46 124.06 26.99-127.67zM240 267.32l-23.81 55.185L145 431.865l59.114-116.333zm-4.142-3.178-37.281 47.142-97.07 87.208 87.21-97.069zM232.68 260l-48.212 35.886L68.135 355l109.36-71.19zm-1.999-4.824-55.856 22.186-127.67 26.99 124.06-40.46zM230 250l-59.696 6.972L40 250l130.304-6.972zm.681-5.176-59.466-8.716-124.06-40.46 127.67 26.99zM232.68 240l-55.185-23.81L68.135 145l116.333 59.114zm3.178-4.142-47.142-37.281-87.208-97.07 97.069 87.21zM240 232.68l-35.886-48.212L145 68.135l71.19 109.36zm4.824-1.999-22.186-55.856-26.99-127.67 40.46 124.06z"/><circle cx="250" cy="250" r="40"/></g></g></svg>