<svg xmlns="http://www.w3.org/2000/svg" version="1.1" xmlns:xlink="http://www.w3.org/1999/xlink" xmlns:svgjs="http://svgjs.dev/svgjs" width="1000" height="1000"><g clip-path="url(#SvgjsClipPath1154)"><rect width="1000" height="1000" fill="#ffffff"></rect><g transform="matrix(1.1111111111111112,0,0,1.1111111111111112,0,166.66666666666663)"><svg xmlns="http://www.w3.org/2000/svg" version="1.1" xmlns:xlink="http://www.w3.org/1999/xlink" xmlns:svgjs="http://svgjs.dev/svgjs" width="900" height="600"><svg xmlns="http://www.w3.org/2000/svg" width="900" height="600"><path fill="#fff" d="M0 0h900v600H0z" data-darkreader-inline-fill="" style="--darkreader-inline-fill: #181a1b;"></path><g fill="none" stroke="#000" stroke-width="17.7" data-darkreader-inline-stroke="" style="--darkreader-inline-stroke: #e8e6e3;"><circle cx="232.3" cy="253.5" r="91.6" stroke="#0081C8" data-darkreader-inline-stroke="" style="--darkreader-inline-stroke: #40bbff;"></circle><circle cx="450" cy="253.5" r="91.6"></circle><circle cx="667.7" cy="253.5" r="91.6" stroke="#EE334E" data-darkreader-inline-stroke="" style="--darkreader-inline-stroke: #ef415a;"></circle><circle cx="341.2" cy="346.5" r="91.6" stroke="#FCB131" data-darkreader-inline-stroke="" style="--darkreader-inline-stroke: #fcb53d;"></circle><circle cx="558.8" cy="346.5" r="91.6" stroke="#00a651" data-darkreader-inline-stroke="" style="--darkreader-inline-stroke: #58ffa9;"></circle><path d="M305.6 198.5a91.6 91.6 0 0 1 0 109.9" stroke="#0081C8" data-darkreader-inline-stroke="" style="--darkreader-inline-stroke: #40bbff;"></path><path d="M523.3 198.5a91.6 91.6 0 0 1 0 109.9M450 345a91.6 91.6 0 0 1-55-18.3"></path><path d="M667.7 345a91.6 91.6 0 0 1-55-18.3" stroke="#EE334E" data-darkreader-inline-stroke="" style="--darkreader-inline-stroke: #ef415a;"></path></g></svg></svg></g></g><defs><clipPath id="SvgjsClipPath1154"><rect width="1000" height="1000" x="0" y="0" rx="250" ry="250"></rect></clipPath></defs></svg>