<?xml version="1.0" encoding="UTF-8" standalone="no"?>
<svg xmlns="http://www.w3.org/2000/svg" width="300" height="300" version="1.0">
  <path d="M246.53125 8.46875c-11.84169 0-21.46875 9.595806-21.46875 21.4375S234.68955 51.375 246.53125 51.375c11.84169 0 21.43751-9.627055 21.4375-21.46875 0-11.841694-9.59581-21.4375-21.4375-21.4375zm.15625 5.625c8.63861 0 15.65625 7.017637 15.65625 15.65625-.00001 8.638613-7.01764 15.625-15.65625 15.625-8.63861.000001-15.625-6.986387-15.625-15.625s6.98639-15.65625 15.625-15.65625zM142.20725714 50.20089603a22.11636247 22.11636247 0 1 1-44.23272493 0 22.11636247 22.11636247 0 1 1 44.23272493 0z"/>
  <path fill="#050505" d="M165.26756 54.30809c24.35659-13.460022 44.58319-32.777649 64.92591-51.456314-5.42722 12.071106-11.57697 23.988098-20.17771 34.144409-13.31006 16.174073-27.26274 32.94542-46.0755 42.8788-6.01948 3.773269-15.6214-1.371247-14.0031-8.928452.62098-8.365387 9.16031-12.576614 15.3304-16.638443zm-48.85847 108.1909c7.03776-2.08207 12.75712 6.09973 11.50305 12.52439-.27771 19.37153-10.90973 36.58093-19.74617 53.17325-13.504273 21.31372-25.218094 43.83471-40.404175 64.03562 4.481079-17.34384 10.423752-34.27934 14.727142-51.67297 5.837265-22.55189 10.917954-45.65839 21.483213-66.5941 2.5703-5.00572 6.24611-10.91141 12.43694-11.46619zm47.25868-37.87526c4.42119-1.76883 9.96106-1.31961 12.96463 2.70937 4.44971 5.96609 5.05855 13.93275 4.90726 21.11551-3.98596 31.86854-24.32405 58.22816-44.60898 81.82472 5.13724-15.29176 13.70819-29.35718 17.03284-45.26645 1.50316-6.2639 2.19545-12.67338 3.13557-19.034-2.75694 2.64374-5.15159 5.81569-8.50557 7.72861-4.7904 1.86113-9.91508-1.15822-11.49512-5.71808-3.14811-6.30081-1.55453-13.67224 1.05643-19.86424 5.2337-10.50755 14.01087-20.03761 25.51294-23.49544zm-95.312835-24.25167c7.654632-6.522664 15.899887-14.562459 26.703048-14.34403 5.555127-.393676 10.217817 5.928574 8.244887 11.130768-1.20396 4.690732-5.997099 6.881302-9.444945 9.720262-16.221969 10.87163-33.071258 21.1365-47.094513 34.88324-9.297882 8.94159-16.651428 19.89105-27.268524 27.43342 10.23227-26.50088 28.09433-49.65347 48.860047-68.82366zM221.28677 54.863342c20.32589-1.387115 40.75248-1.309601 61.08974-.136398-1.44615 7.137924-3.80928 14.044159-5.37776 21.150833-1.44435 7.698685-1.99518 15.536438-3.48039 23.227921-1.68201-.043717-3.36058-.088242-5.03572-.133591-.60866-13.236832 2.13923-26.267853 5.86166-38.888168-15.04537-.126908-30.08815-.097535-45.13011-.116471 3.3663 11.71666 6.01614 23.764603 5.75354 36.02861.22262 2.594193-3.17054 2.74379-4.78917 3.920334-1.35605-9.276184-1.80666-18.730499-4.33002-27.799759-1.51706-5.746826-3.81006-11.322982-4.56177-17.253311z"/>
  <path fill-rule="evenodd" d="m184.03506 224.01741-3.75452 15.96113h6.30502l33.70198 52.25371h20.50791l3.75529-15.97113h-6.30383l-33.70434-52.24371zm77.83204.10001-3.70688 15.78112h8.08408l-2.2374 9.20065h-10.48547l-3.8806 16.80119h10.59282l-2.41386 10.27073h-8.20707l-3.75452 15.97113h22.30962l12.94267-9.8507 3.87592-16.32115-6.89062-8.28059 10.52332-8.4606 3.61242-15.15108-8.28475-9.9607zm-104.25536 0-12.94342 9.8607-3.71354 15.39109 6.89064 8.28059-10.52412 8.4506-3.7713 16.08114 8.28475 9.9607h22.0785l3.70611-15.77112h-8.08486l2.40371-10.13071h10.4839l3.88022-16.8012h-10.59517l2.25302-9.35066h7.18109l3.75216-15.97113zm78.66675.1-16.45513 14.62104 10.25277 15.90113 16.59489-14.75105h6.41121l3.70495-15.77112zm-58.11863 52.0537h-5.51445l-3.70649 15.78112h19.61349l16.37588-14.66104-10.25669-15.90113Z"/>
</svg>