<?xml version="1.0" encoding="UTF-8"?>
<!-- Generator: Adobe Illustrator 14.0.0, SVG Export Plug-In . SVG Version: 6.00 Build 43363)  -->
<svg width="331.99" height="331.99" enable-background="new 0 0 300 300" version="1.1" viewBox="0 0 331.99 331.99" xml:space="preserve" xmlns="http://www.w3.org/2000/svg" xmlns:cc="http://creativecommons.org/ns#" xmlns:dc="http://purl.org/dc/elements/1.1/" xmlns:rdf="http://www.w3.org/1999/02/22-rdf-syntax-ns#"><metadata><rdf:RDF><cc:Work rdf:about=""><dc:format>image/svg+xml</dc:format><dc:type rdf:resource="http://purl.org/dc/dcmitype/StillImage"/><dc:title/></cc:Work></rdf:RDF></metadata>
<path d="m208.93 145.1-31.1-145.1 51.987 139.56c2.0831 5.5921-1.9035 11.685-7.6712 13.216-5.7677 1.531-12.255-1.7816-13.216-7.6712zm18.41-118.46s-12.559 5.1333-27.074 13.623l1.6016 4.3008c12.753-10.689 25.473-17.924 25.473-17.924zm-45.398 25.811c-12.576 9.6402-23.273 21.298-24.893 33.785-2.1763 16.779 29.639 51.895 29.639 51.895 3.88 4.5339 11.144 3.9956 15.277-0.30859s3.4309-10.628-0.31055-15.277c1e-5 0-25.765-26.828-25.465-39.619 0.15838-6.7545 3.3225-13.575 7.9922-20.029zm-23.997 130.53-56.34-95.242 73.776 82.476c3.9786 4.4477 2.4797 11.576-2.3352 15.101-4.8149 3.5252-12.063 2.801-15.101-2.3352zm-4.4308 35.668a23.517 23.517 0 0 1-23.517 23.517 23.517 23.517 0 0 1-23.517-23.517 23.517 23.517 0 0 1 23.517-23.517 23.517 23.517 0 0 1 23.517 23.517zm44.809 3.2052-10.805 110.13-10.805-110.13c-0.58269-5.939 4.8376-10.805 10.805-10.805 5.9675 0 11.388 4.8661 10.805 10.805z" fill-rule="evenodd"/></svg>
