<?xml version="1.0" encoding="UTF-8" standalone="no"?>
<svg
   version="1.0"
   width="300"
   height="300"
   viewBox="0 0 224.99999 224.99999"
   preserveAspectRatio="xMidYMid meet"
   id="svg16"
   sodipodi:docname="BMX_freestyle_pictogram.svg"
   inkscape:version="1.1 (c68e22c387, 2021-05-23)"
   xmlns:inkscape="http://www.inkscape.org/namespaces/inkscape"
   xmlns:sodipodi="http://sodipodi.sourceforge.net/DTD/sodipodi-0.dtd"
   xmlns="http://www.w3.org/2000/svg"
   xmlns:svg="http://www.w3.org/2000/svg"
   xmlns:rdf="http://www.w3.org/1999/02/22-rdf-syntax-ns#"
   xmlns:cc="http://creativecommons.org/ns#"
   xmlns:dc="http://purl.org/dc/elements/1.1/">
  <defs
     id="defs20" />
  <sodipodi:namedview
     inkscape:guide-bbox="true"
     showguides="true"
     inkscape:document-rotation="0"
     pagecolor="#ffffff"
     bordercolor="#666666"
     borderopacity="1"
     objecttolerance="10"
     gridtolerance="10"
     guidetolerance="10"
     inkscape:pageopacity="0"
     inkscape:pageshadow="2"
     inkscape:window-width="1920"
     inkscape:window-height="1001"
     id="namedview18"
     showgrid="false"
     units="px"
     fit-margin-top="0"
     fit-margin-left="0"
     fit-margin-right="0"
     fit-margin-bottom="0"
     inkscape:zoom="1.0521749"
     inkscape:cx="232.85102"
     inkscape:cy="197.21056"
     inkscape:window-x="-9"
     inkscape:window-y="-9"
     inkscape:window-maximized="1"
     inkscape:current-layer="svg16"
     inkscape:pagecheckerboard="0"
     inkscape:snap-nodes="true" />
  <metadata
     id="metadata2">
Created by potrace 1.11, written by Peter Selinger 2001-2013
<rdf:RDF>
  <cc:Work
     rdf:about="">
    <dc:format>image/svg+xml</dc:format>
    <dc:type
       rdf:resource="http://purl.org/dc/dcmitype/StillImage" />
  </cc:Work>
</rdf:RDF>
</metadata>
  <path
     id="path6-4"
     style="fill:#000000;stroke-width:1"
     inkscape:transform-center-x="-29.944851"
     inkscape:transform-center-y="23.337955"
     d="M 53.839844 7.5507812 C 46.085507 7.4772279 38.149962 10.384809 33.751953 17.027344 C 27.834198 25.413051 28.383641 38.081331 36.058594 45.208984 C 41.742575 51.045398 50.923566 52.635654 58.449219 49.867188 C 66.195656 46.503587 73.858189 42.845727 81.228516 38.751953 C 82.183273 35.3741 82.294176 31.775697 82.226562 28.275391 C 79.141492 29.266391 76.072197 30.298793 73.041016 31.4375 C 73.337982 26.652006 72.551703 21.785527 70.072266 17.619141 C 73.921655 15.846287 78.458599 15.303342 81.734375 12.478516 C 74.304096 10.534449 66.641946 9.6674928 59.134766 8.0683594 C 57.410324 7.7432119 55.629306 7.5677551 53.839844 7.5507812 z M 122.18555 20.626953 C 118.35905 22.08842 115.28399 24.961234 112.0332 27.369141 C 101.55946 36.723914 91.103422 46.100029 80.650391 55.476562 C 76.947646 58.746043 72.641436 61.530864 67.71875 62.458984 C 59.917135 64.364851 52.040473 61.168736 44.197266 62.041016 C 38.074833 62.650322 34.49046 70.28194 37.033203 75.619141 C 38.878442 79.025781 42.643578 80.666348 46.132812 81.859375 C 52.895595 83.908095 60.177812 84.323667 67.167969 83.375 C 76.117029 81.234853 83.156425 74.791533 89.529297 68.503906 C 101.97103 56.410519 110.90746 41.41289 119.78906 26.660156 C 120.9565 24.813196 121.69943 22.75518 122.18555 20.626953 z M 167.81055 21.347656 C 159.02667 21.309381 150.24088 24.171494 143.35547 29.675781 C 136.18079 35.578822 131.60347 44.213626 130.08789 53.318359 C 130.01467 53.758293 129.94721 54.199178 129.88867 54.642578 C 126.67349 83.147566 150.57782 111.32779 179.24023 112.68359 C 191.48422 113.62283 204.03133 108.21138 211.56445 98.486328 C 214.64008 93.773368 217.43989 88.676206 218.37305 83.070312 C 218.45121 82.600792 218.51521 82.122611 218.56641 81.644531 C 218.72541 80.945131 218.8638 80.246255 218.98047 79.544922 C 221.22527 66.059455 215.84028 52.285873 207.71289 41.634766 C 199.19416 31.422352 187.26897 23.48673 173.86719 21.841797 C 171.86372 21.521029 169.8376 21.356489 167.81055 21.347656 z M 167.74414 27.34375 C 169.47377 27.347887 171.20552 27.485291 172.92188 27.759766 L 173.03125 27.775391 L 173.13867 27.789062 C 184.03579 29.127556 194.64418 35.370713 203.02148 45.373047 C 211.13687 56.053567 214.79599 68.139041 213.0625 78.552734 C 212.96465 79.140654 212.84773 79.731174 212.7168 80.310547 L 212.63867 80.652344 L 212.60156 81.001953 C 212.5626 81.359433 212.51286 81.722978 212.45312 82.082031 C 211.6679 86.799138 209.11141 91.242921 206.67773 94.992188 C 200.45535 102.89067 189.89405 107.47956 179.70117 106.69727 L 179.61328 106.69141 L 179.52539 106.6875 C 167.54552 106.12271 155.77436 100.04344 147.22656 90.011719 C 138.6605 79.955665 134.51484 67.334787 135.8457 55.375 C 135.89318 55.017947 135.94693 54.658808 136.00586 54.304688 C 137.32834 46.35998 141.38258 39.084958 147.13477 34.333984 C 152.82117 29.798122 160.24908 27.325822 167.74414 27.34375 z M 79.824219 93.369141 C 77.752352 93.348917 75.480755 93.782767 72.652344 94.683594 C 63.953571 102.53298 55.944055 111.13955 48.359375 120.05859 C 41.885045 128.12739 26.206308 150.77999 41.310547 154.87305 C 43.820897 157.16458 46.98194 158.8761 50.019531 160.19727 C 57.978437 163.65087 65.99297 167.05914 74.255859 169.7207 C 74.513966 169.79878 74.774665 169.86859 75.033203 169.94531 C 69.877915 175.54694 66.541095 182.73446 65.291016 190.24414 C 65.217789 190.68407 65.150326 191.12495 65.091797 191.56836 C 61.876613 220.07332 85.780941 248.25162 114.44336 249.60742 C 125.92208 250.48797 137.66639 245.7877 145.29688 237.18359 C 145.80557 236.60998 146.2968 236.018 146.76758 235.41016 C 149.84322 230.6972 152.64106 225.60003 153.57422 219.99414 C 153.65235 219.52463 153.71834 219.04645 153.76953 218.56836 C 153.92853 217.86897 154.06491 217.17008 154.18164 216.46875 C 156.42645 202.9833 151.04144 189.20775 142.91406 178.55664 C 134.39534 168.34424 122.47211 160.41057 109.07031 158.76562 C 107.03465 158.4397 104.97366 158.27938 102.91406 158.27539 C 96.022394 151.25584 92.891787 148.36331 71.232422 138.59375 C 70.857002 138.49204 70.411428 138.38128 69.990234 138.27344 C 72.773058 135.50515 75.499602 132.68087 78.095703 129.74023 C 80.511018 126.90375 83.103276 123.18166 86.332031 122.03711 C 95.55339 122.1861 105.84735 128.4373 113.41602 132.28711 C 124.73285 138.06558 135.82748 144.62117 145.66406 149.22461 C 147.97949 150.62502 149.23513 149.09198 146.76562 147.53906 C 141.55196 141.72069 136.31773 135.91878 131.21094 130.00586 C 122.33664 121.14429 113.47716 112.07743 102.73828 105.4375 C 90.461374 97.57438 86.039819 93.429812 79.824219 93.369141 z M 247.14648 159.88281 L 243.49805 171.10742 C 238.67298 185.95098 232.13721 199.35476 223.39844 212.32617 C 194.81812 254.74937 154.24532 279.20752 106.93359 282.5332 L 97.199219 283.2168 L 97.199219 287.83398 L 97.199219 292.44922 L 107.63086 291.76562 C 127.99998 290.43076 146.74923 285.40842 165.38086 276.29297 C 190.6961 263.90758 210.33986 246.74245 229.18359 220.54297 C 236.52421 210.33693 247.7269 188.56411 251.42578 177.3125 L 253.95312 169.62305 L 272.97656 169.34375 L 292 169.06445 L 292 164.47461 L 292 159.88281 L 269.57422 159.88281 L 247.14648 159.88281 z M 108.87695 164.79297 C 119.58552 166.26735 129.98468 172.45662 138.22461 182.29492 C 146.34 192.97543 149.99719 205.06287 148.26367 215.47656 C 148.16581 216.0645 148.05084 216.655 147.91992 217.23438 L 147.83984 217.57617 L 147.80469 217.92773 C 147.76575 218.2852 147.71608 218.64485 147.65625 219.00391 C 146.87104 223.72101 144.31453 228.16675 141.88086 231.91602 C 141.49194 232.40964 141.08568 232.89012 140.66406 233.35742 C 134.33918 240.36678 124.46011 244.35452 114.9043 243.62109 L 114.81641 243.61523 L 114.72656 243.61133 C 102.7467 243.04654 90.977483 236.96725 82.429688 226.93555 C 73.863619 216.87948 69.717968 204.25862 71.048828 192.29883 C 71.096361 191.94177 71.148095 191.58068 71.207031 191.22656 C 72.477064 183.59705 76.272937 176.59374 81.666016 171.8418 C 84.75795 172.71471 87.839662 173.61763 90.857422 174.72656 C 96.437315 179.93279 102.46297 185.82507 107.72852 191.69922 C 116.21001 201.16103 124.20366 211.26852 131.72656 219.10156 C 133.38341 221.241 135.10713 220.26289 133.36133 217.92578 C 130.49377 210.28131 127.51707 202.54696 125.15234 195.97266 C 120.39033 185.25853 115.70365 174.38234 108.87695 164.79297 z "
     transform="scale(0.74999997)" />
</svg>
