<?xml version="1.0" encoding="UTF-8" standalone="no"?>
<svg
   width="300"
   height="300"
   viewBox="0 0 225 225"
   version="1.1"
   id="svg2"
   inkscape:version="1.1 (c68e22c387, 2021-05-23)"
   sodipodi:docname="Biathlon pictogram.svg"
   xmlns:inkscape="http://www.inkscape.org/namespaces/inkscape"
   xmlns:sodipodi="http://sodipodi.sourceforge.net/DTD/sodipodi-0.dtd"
   xmlns="http://www.w3.org/2000/svg"
   xmlns:svg="http://www.w3.org/2000/svg"
   xmlns:rdf="http://www.w3.org/1999/02/22-rdf-syntax-ns#"
   xmlns:cc="http://creativecommons.org/ns#"
   xmlns:dc="http://purl.org/dc/elements/1.1/">
  <metadata
     id="metadata18">
    <rdf:RDF>
      <cc:Work
         rdf:about="">
        <dc:format>image/svg+xml</dc:format>
        <dc:type
           rdf:resource="http://purl.org/dc/dcmitype/StillImage" />
      </cc:Work>
    </rdf:RDF>
  </metadata>
  <defs
     id="defs16">
    <inkscape:perspective
       sodipodi:type="inkscape:persp3d"
       inkscape:vp_x="0 : 112.5 : 1"
       inkscape:vp_y="0 : 1000 : 0"
       inkscape:vp_z="375 : 112.5 : 1"
       inkscape:persp3d-origin="187.5 : 50 : 1"
       id="perspective20" />
  </defs>
  <sodipodi:namedview
     pagecolor="#ffffff"
     bordercolor="#666666"
     borderopacity="1"
     objecttolerance="10"
     gridtolerance="10"
     guidetolerance="10"
     inkscape:pageopacity="0"
     inkscape:pageshadow="2"
     inkscape:window-width="1920"
     inkscape:window-height="1001"
     id="namedview14"
     showgrid="false"
     inkscape:zoom="0.77866665"
     inkscape:cx="151.5411"
     inkscape:cy="123.9298"
     inkscape:window-x="-9"
     inkscape:window-y="-9"
     inkscape:window-maximized="1"
     inkscape:current-layer="svg2"
     inkscape:pagecheckerboard="0"
     inkscape:document-units="pt"
     units="px" />
  <path
     fill="#000000"
     d="m 118.68,60.525 c 6.48245,0.881002 15.25113,2.567556 19.35,6.2025 5.87387,5.989368 0.54134,11.545643 -5.3175,11.715 -17.104,-1.645815 -13.61437,-10.261633 -51.93,-3.1875 -6.0225,1.7925 -11.715,4.4925 -17.4,7.14 3.9975,1.95 8.04,3.8025 11.97,5.8725 0.915,0.4875 2.1,1.275 1.8375,2.49 0.195,2.34 -2.8725,2.3325 -4.2975,1.4025 C 48.6075,80.265 24.255,68.49 0,56.5275 V 51.27 C 20.055,61.2975 40.26,71.0475 60.42,80.88 75.3375,65.46 97.68,59.31 118.68,60.525 Z"
     id="path6"
     sodipodi:nodetypes="cccccccccccc"
     style="stroke-width:0.75" />
  <path
     fill="#000000"
     d="m 158.76,45.7125 c 7.755,-1.095 15.6375,4.2825 17.595,11.835 2.025,6.72 -1.23,14.385 -7.1325,18.0075 -4.425,2.6775 -10.1175,3.1725 -14.85,1.02 -7.5675,-3.0225 -11.9175,-12.5475 -8.805,-20.1525 1.8375,-5.7825 7.2825,-9.87 13.1925,-10.71 z"
     id="path8"
     style="stroke-width:0.75" />
  <path
     d="m 100.575,105.675 c -4.365,0.1875 -8.61375,3.08625 -9.99375,7.29375 -1.695,4.6575 -0.83625,9.76875 -2.26875,14.49375 -2.73,10.32 -7.50375,20.50875 -15.58125,27.73125 -7.68,7.3875 -16.90875,13.30125 -27.13125,16.44375 -2.3925,0.6975 -4.8375,2.16 -7.3875,1.3125 C 25.47,169.3425 12.705,165.8175 0,162.075 v 4.8375 c 35.82,10.29 71.73375,20.295 107.56875,30.525 2.2875,0.66 4.60125,1.245 6.95625,1.6125 -21.33,-0.06 -42.66375,-0.004 -63.99375,-0.0188 v 4.5 c 51.405,0.007 102.81375,-0.0112 154.21875,0.0188 4.965,0.1575 10.425,0.11625 14.5875,-2.98125 2.07,-1.3875 3.19875,-3.70125 3.99375,-5.98125 -0.93,-0.615 -1.785,-1.39125 -2.8875,-1.66875 -2.19,1.395 -3.23625,4.27125 -5.86875,5.00625 -2.67,0.8175 -5.4825,0.93 -8.25,1.0875 -23.1825,0.12 -46.36125,-0.0975 -69.54375,0.1125 1.2225,-1.2225 2.53125,-2.46375 3.16875,-4.10625 -0.195,-1.005 -0.49875,-1.97625 -0.91875,-2.90625 -3.2625,-0.3675 -4.2,3.63375 -7.1625,4.14375 -3.78,0.9975 -7.82625,1.03125 -11.64375,0.20625 4.155,-5.025 9.0825,-9.405 12.825,-14.775 5.04,-6.81 9.225,-14.38875 11.475,-22.59375 2.4,-8.3775 0.42,-17.36625 -3.4125,-24.99375 -3.99,-7.3875 -9.84375,-13.5375 -15.88125,-19.275 -2.595,-2.265 -5.535,-4.4625 -9,-5.0625 -2.5725,-0.4725 -4.96875,0.77625 -7.29375,1.66875 -1.32,-3.42 -4.7775,-5.56125 -8.3625,-5.75625 z m 8.55,20.30625 c 6.3975,6.9225 13.85625,13.2375 18.01875,21.9 2.235,4.3575 1.45875,9.42375 1.14375,14.11875 -0.75,8.4975 -5.3025,15.88875 -8.6625,23.53125 -1.5,3.045 -2.835,6.16875 -4.0875,9.31875 -19.725,-5.55 -39.43875,-11.16 -59.15625,-16.725 -4.0275,-1.0875 -7.99125,-2.535 -12.16875,-3 7.77,-0.06 15.435,-1.815 22.65,-4.6125 C 77.505,166.26 88.245,160.91625 95.7,151.93125 c 6.0375,-7.6875 11.4075,-16.26 13.425,-25.95 z"
     id="path10"
     style="stroke-width:0.6" />
  <path
     id="path2"
     style="stroke-width:0.372826"
     d="m 109.03711,75.100343 c -0.33793,-0.03997 -0.67197,-0.08265 -1.02722,-0.113159 -0.52962,-0.04551 -1.07887,-0.07936 -1.65015,-0.102172 -0.57128,-0.02284 -1.16413,-0.03476 -1.78088,-0.03296 -0.61675,0.0017 -1.25658,0.0167 -1.92261,0.04505 -0.37722,0.01609 -0.78265,0.04742 -1.17664,0.07251 -7.633668,6.683046 -15.255954,13.378911 -22.847161,20.108271 -1.824041,1.696522 -4.003802,3.06861 -5.43384,5.149287 2.673922,3.0947 5.519205,6.03663 8.24414,9.0868 4.068726,-4.72375 7.560822,-9.9141 11.37744,-14.841435 1.809698,-2.415645 3.746999,-4.746382 5.289919,-7.348755 -0.34848,-0.341797 -1.045457,-1.02642 -1.395264,-1.3689 4.107676,-3.551385 8.216126,-7.101585 12.322266,-10.654537 z" />
  <path
     id="path2012"
     style="stroke-width:0.372826"
     d="m 164.31592,19.914917 c -14.54382,12.898689 -29.19314,25.67959 -43.84204,38.460939 0.24718,0.05254 0.47937,0.09455 0.73059,0.150514 0.86816,0.193399 1.75874,0.407779 2.65759,0.645992 0.89231,0.236487 1.79248,0.49761 2.68836,0.784423 2.66602,-2.304067 5.32809,-4.612619 7.99585,-6.914793 1.5741,-1.415912 3.47524,-2.598139 4.29455,-4.646118 -0.24128,-0.50203 -0.72486,-1.507033 -0.96679,-2.009399 9.31693,-8.196675 18.71861,-16.299458 27.95251,-24.588501 -0.50304,-0.626247 -1.00659,-1.254641 -1.51062,-1.883057 z" />
</svg>
