<?xml version="1.0" encoding="UTF-8" standalone="no"?>
<!-- Created with Inkscape (http://www.inkscape.org/) -->
<svg
   xmlns:dc="http://purl.org/dc/elements/1.1/"
   xmlns:cc="http://creativecommons.org/ns#"
   xmlns:rdf="http://www.w3.org/1999/02/22-rdf-syntax-ns#"
   xmlns:svg="http://www.w3.org/2000/svg"
   xmlns="http://www.w3.org/2000/svg"
   xmlns:sodipodi="http://sodipodi.sourceforge.net/DTD/sodipodi-0.dtd"
   xmlns:inkscape="http://www.inkscape.org/namespaces/inkscape"
   width="300"
   height="300"
   id="svg2"
   sodipodi:version="0.32"
   inkscape:version="0.46"
   version="1.0"
   sodipodi:docname="Climbing pictogram.svg"
   inkscape:output_extension="org.inkscape.output.svg.inkscape">
  <defs
     id="defs4">
    <inkscape:perspective
       sodipodi:type="inkscape:persp3d"
       inkscape:vp_x="0 : 526.18109 : 1"
       inkscape:vp_y="0 : 1000 : 0"
       inkscape:vp_z="744.09448 : 526.18109 : 1"
       inkscape:persp3d-origin="372.04724 : 350.78739 : 1"
       id="perspective10" />
    <inkscape:perspective
       id="perspective3192"
       inkscape:persp3d-origin="150 : 100 : 1"
       inkscape:vp_z="300 : 150 : 1"
       inkscape:vp_y="0 : 1000 : 0"
       inkscape:vp_x="0 : 150 : 1"
       sodipodi:type="inkscape:persp3d" />
  </defs>
  <sodipodi:namedview
     id="base"
     pagecolor="#ffffff"
     bordercolor="#666666"
     borderopacity="1.0"
     inkscape:pageopacity="0.0"
     inkscape:pageshadow="2"
     inkscape:zoom="1.7866667"
     inkscape:cx="94.527367"
     inkscape:cy="150"
     inkscape:document-units="px"
     inkscape:current-layer="layer1"
     showgrid="false"
     inkscape:window-width="1366"
     inkscape:window-height="749"
     inkscape:window-x="0"
     inkscape:window-y="0" />
  <metadata
     id="metadata7">
    <rdf:RDF>
      <cc:Work
         rdf:about="">
        <dc:format>image/svg+xml</dc:format>
        <dc:type
           rdf:resource="http://purl.org/dc/dcmitype/StillImage" />
      </cc:Work>
    </rdf:RDF>
  </metadata>
  <g
     inkscape:label="Ebene 1"
     inkscape:groupmode="layer"
     id="layer1">
    <path
       id="path3233"
       d="M 113.42099,47.962209 C 120.65699,47.279209 128.31099,50.246209 132.84899,56.005209 C 136.05699,59.596209 137.44199,64.397209 137.98199,69.087209 C 137.74899,76.277209 134.10799,83.302205 128.07699,87.311205 C 122.09999,91.131207 114.30399,92.174207 107.68199,89.436205 C 96.588989,85.608205 90.062989,71.416209 95.628989,60.769209 C 98.700989,53.638209 105.81099,48.886209 113.42099,47.962209 z" />
    <path
       id="path3235"
       d="M 212.19365,77.71586 C 212.00213,77.321136 211.61977,76.532452 211.42825,76.137728 C 208.22961,81.042715 205.70887,86.314784 202.48837,91.203146 C 193.71223,100.91 182.20366,109.65492 168.41582,111.44652 C 156.76649,112.19053 146.58762,105.85964 136.22429,101.86291 C 130.66914,99.887956 124.04389,97.759086 118.45746,100.81185 C 115.60178,103.02976 113.58153,106.73197 114.54071,110.27458 C 115.65511,118.17629 124.04998,122.40667 131.26135,124.8003 C 140.39388,127.45113 149.95464,129.62697 159.58086,128.80788 C 177.60309,126.7165 193.1891,115.52999 203.10429,101.57674 C 207.78195,94.328276 211.79833,86.330154 212.19365,77.71586 z" />
    <path
       id="path3237"
       d="M 81.506096,205.21182 C 79.07851,201.46859 79.963661,196.5166 81.402021,192.32072 C 86.289618,187.70589 93.321145,187.27162 99.171607,188.90689 C 110.45457,191.9015 120.90788,196.98341 131.29118,201.96835 C 141.77842,207.04455 151.26762,213.97079 159.05994,222.50617 C 173.5088,239.32808 183.10793,261.23891 182.35548,284.42797 C 182.11566,284.9676 181.63779,286.04724 181.39886,286.58704 C 177.83358,276.53924 174.26857,266.25733 167.96966,257.65823 C 161.88437,248.94501 154.92171,240.80117 146.76909,233.96179 C 142.25683,230.08043 137.36156,226.41494 131.57604,224.49303 C 119.69868,220.86316 107.26354,218.8847 95.496294,214.94544 C 90.055282,213.02443 84.452387,210.33354 81.506096,205.21182 z" />
    <path
       id="path3239"
       d="M 124.8973,190.70516 C 122.47095,185.62982 124.69866,180.37297 126.97209,175.96721 C 129.57952,170.90067 134.16994,167.26833 138.86842,164.11551 C 148.34659,157.75152 159.69972,153.66028 171.60432,153.4379 C 176.93419,153.28183 182.42021,154.92488 186.82482,158.16127 C 190.76603,161.6019 193.31874,166.18741 195.70764,170.66741 C 199.61522,178.08735 202.21882,185.9905 204.73678,193.86126 C 208.39232,204.28641 209.73402,215.15757 211.3776,225.8816 C 211.16624,226.20411 210.7445,226.84934 210.53219,227.17164 C 201.82623,212.30382 194.62613,196.6271 184.50267,182.50952 C 181.97509,179.1495 179.50862,175.52865 175.79055,173.28798 C 168.8463,172.87883 164.33675,178.29284 159.36665,181.81113 C 152.23166,187.61916 145.11634,194.58389 135.32442,195.97332 C 131.4787,195.90892 126.99852,194.17188 124.8973,190.70516 z" />
    <path
       d="M 134.79112,15.102129 C 135.07982,15.426261 135.65679,16.073632 135.94549,16.397765 C 130.24164,17.185016 124.4589,17.239445 118.76198,18.052253 C 106.54623,21.721536 94.174516,28.136326 87.303753,39.316222 C 82.2033,49.071815 84.137603,60.404919 83.86505,70.958037 C 83.565654,76.547548 83.001211,83.12264 78.087191,86.716155 C 74.973401,88.288573 70.817705,88.542669 67.938402,86.289338 C 61.127322,82.148061 60.439206,73.199975 60.983621,66.012456 C 62.021393,57.06323 63.656459,47.935502 68.058151,39.956338 C 76.809734,25.242201 92.963493,16.29045 109.49885,13.346632 C 117.90918,12.225723 126.75495,11.977227 134.79112,15.102129 z"
       id="path3241" />
    <path
       style="fill:#000000;fill-opacity:1;fill-rule:evenodd;stroke:none;stroke-width:4.92719841;stroke-linecap:butt;stroke-linejoin:miter;stroke-miterlimit:4;stroke-dasharray:none;stroke-opacity:1"
       d="M 161.15625 6.1875 L 116.3125 30.6875 L 112.96875 32.5 L 116 34.8125 C 143.19221 55.438611 158.33488 79.892943 168.375 106.15625 C 170.12274 106.20725 171.85593 106.1847 173.59375 106.09375 C 163.64537 79.530345 148.64788 54.433145 121.9375 33.21875 L 163.5 10.53125 L 161.15625 6.1875 z M 180.5 127.28125 C 178.95504 127.85124 177.39139 128.3682 175.8125 128.8125 C 177.56915 134.99893 179.17614 141.23667 180.6875 147.53125 L 180.9375 148.5 L 181.78125 149.03125 C 206.55336 164.44119 219.28786 185.70526 228.375 196.84375 L 188.4375 288.875 L 187.1875 288.875 L 187.1875 292.1875 L 191.90625 293.1875 L 233.4375 197.46875 L 234.0625 196.0625 L 233.0625 194.875 C 224.75505 185.0568 211.34236 162.00115 185.25 145.4375 C 183.78216 139.36283 182.21949 133.30208 180.5 127.28125 z "
       id="path2396" />
  </g>
</svg>
