<?xml version="1.0" encoding="utf-8"?>
<!-- Generator: Adobe Illustrator 14.0.0, SVG Export Plug-In . SVG Version: 6.00 Build 43363)  -->
<!DOCTYPE svg PUBLIC "-//W3C//DTD SVG 1.1//EN" "http://www.w3.org/Graphics/SVG/1.1/DTD/svg11.dtd">
<svg version="1.1" id="Layer_1" xmlns="http://www.w3.org/2000/svg" xmlns:xlink="http://www.w3.org/1999/xlink" x="0px" y="0px"
	 width="300px" height="300px" viewBox="0 0 300 300" enable-background="new 0 0 300 300" xml:space="preserve">
<path d="M261.579,240.817c-4.78-0.393-10.013,0.772-14.536-0.537c-20.197-25.245-40.188-50.668-60.314-75.973
	c-6.524-8.813-11.047-18.889-16.664-28.27c-9.157-16.408-17.666-33.268-28.522-48.647c-3.377-5.076-9.514-7.742-15.542-6.765
	c-2.059,1.621-4.43,3.207-5.238,5.853c-1.313,4.119-0.548,8.695,1.139,12.599c5.699,12.774,14.955,23.542,24.165,33.908
	c9.702,10.607,20.274,20.361,30.506,30.448c7.804,6.963,13.691,15.666,20.291,23.702c14.272,17.853,28.244,35.96,42.725,53.637
	c-5.452,0.081-10.904,0.044-16.355,0.039c-0.074,3.333-0.063,6.668-0.047,10.006c12.811,0.004,25.621,0.006,38.432-0.001
	C261.623,247.481,261.635,244.148,261.579,240.817z"/>
<path d="M154.752,164.267c-11.689-9.428-24.18-18.104-37.911-24.297c-3.066-1.381-6.342-2.439-9.717-2.613
	c-3.252,1.246-7.119,2.48-8.567,6c-2.399,5.042,0.391,10.655,3.435,14.733c3.778,3.315,8.29,5.661,12.45,8.458
	c11.357,7.223,24.263,11.811,34.92,20.157c9.631,7.556,18.908,15.655,27.001,24.864c8.664,10.417,14.975,22.484,22.232,33.861
	c1.496,2.296,2.481,5.002,4.67,6.778l0.092-1.659c-3.284-12.946-6.711-25.899-11.645-38.338
	C185.534,192.38,170.229,177.31,154.752,164.267z"/>
<path d="M90.178,142.723c-2.076-2.199-5.085-4.339-8.266-3.385c-3.583,1.117-7.345,2.926-9.195,6.379
	c-2.386,4.329-2.269,9.566-1.064,14.236c2.848,11.829,9.906,21.977,16.357,32.086c2.254,3.582,4.777,7.381,4.783,11.778
	c0.14,1.897-1.733,2.854-2.946,3.938c-13.909,10.419-27.709,20.985-41.226,31.908c-4.383,3.226-8.432,6.937-12.029,11.019
	c0.601,0.043,1.804,0.129,2.406,0.173c5.116-1.544,10.026-3.735,14.958-5.788c18.076-6.627,36.322-13.717,52.004-25.12
	c4.896-4.156,5.566-11.044,5.78-17.044c-0.452-15.874-5.391-31.29-12.094-45.567C97.278,152.004,94.071,147.063,90.178,142.723z"/>
<path d="M154.729,227.927c-1.363-3.729-3.106-7.982-7.242-9.313c-6.655-2.229-13.865-1.793-20.787-1.725
	c-1.736,0.323-4.115,0.088-4.991,1.978c-0.515,1.364-0.237,2.525,0.834,3.482c2.545,1.691,5.611,0.21,8.397,0.438
	c4.598,0.146,9.321,0.189,13.759,1.542c1.551,0.236,2.491,1.487,3.208,2.773c-7.347,0.121-14.695-0.033-22.041,0.067
	c-4.683,0.127-10.294,1.962-11.758,6.94c-1.132,4.972-1.473,11.36,2.687,15.073c2.141,2.071,5.259,2.586,8.125,2.685
	c8.376,0,16.753-0.031,25.13,0.014c2.437-0.024,5.007-0.303,7.138-1.578C165.141,245.324,163.549,231.148,154.729,227.927z"/>
<circle cx="166.365" cy="68.373" r="21.6"/>
</svg>
