<?xml version="1.0" encoding="UTF-8" standalone="no"?>
<svg xmlns="http://www.w3.org/2000/svg" width="300" height="300" version="1.0" viewBox="0 0 225 225">
  <path d="M71.81822 19.672852c-6.887358.05411-13.483083.513093-19.686035 1.519042l.09228.719239c.598071 4.618197 1.583941 10.434356.429199 10.753418-1.039356.215668-1.148653.330289-2.206054.446777-1.154184.129316-3.187917-.293872-2.772949 1.483887l.09228 1.091308 3.137696-.08642c7.174898-.19902 28.045424-.986966 33.165526-1.230469l7.026855-.333985.03518-1.069336c.0102-1.651404-1.01955-1.170317-2.89746-1.271484-1.55289-.05922-3.640845-.06604-3.663577-.08496-.328478-3.881418-.597855-5.728276-.05272-11.387695l-.01027-.240235c-4.320202-.228685-8.557535-.341555-12.689951-.309087Zm13.073727 15.752929-.729487.03515c-4.771396.22692-22.609243.891712-30.90674 1.146972-.202127 1.03392-.401024 2.070909-.408691 3.175782-.0285 4.827219 1.448533 8.531115 4.772461 11.935546 6.38772 6.542435 16.512782 6.429181 23.233887-.219726 2.694293-2.659491 4.801778-7.724391 4.877933-11.644043.01373-1.145194-.352238-2.802671-.839363-4.429688zm91.722663 89.397949c2.73305 3.2418 7.12374 8.37169 9.7749 11.44483l4.76953 5.54736 3.37646-1.25684c7.33798-2.77945 15.15052-6.03979 15.36915-6.37939.16039-.23631-.0643-2.22681-.43067-4.4751-.89394-5.63558-10.89157-63.03861-11.29248-64.911621-.17791-.855741-.23893-1.277409-.99316-1.5-.75423-.222591-2.20092-.24573-5.1504-.301758-35.70645 3.157674-38.17935 9.784056-51.48925 28.702146-4.09553 5.57385-6.91719 10.204383-10.26709 14.449223-.94641-.20071-2.64017-.43102-5.66016-.79102-12.5568-2.14666-23.79875-3.11452-34.199705-9.074705-3.6-2.0625-7.5375-6.1875-9.1875-9.5625-1.5-3-2.100293-5.399708-3.300293-13.012207-.7875-5.025-1.162208-6.525292-2.137208-8.362792-1.575-2.925-2.8125-3.788087-5.8125-3.975587-.525-.03281-1.06805-.03924-1.620117-.01611l.000002-.000003c-3.864468.161898-8.184375 1.763965-10.054688 5.76709-2.707666 8.922466 3.202322 18.858436 8.562012 26.124024 3.4875 4.6125 7.124414 7.61338 12.149414 10.08838 7.150995 3.55625 13.69968 4.38851 21.451173 5.25l14.21191-.375c7.91786-.19795 12.22532-.38754 14.48584-.68848-1.35062 1.61425-2.80836 3.18039-4.48242 4.72852-6.64766 5.65386-14.79237 8.18217-23.75684 10.07519l-1.489743-.95068c-3.7125-2.4-8.887792-4.83721-16.050292-7.57471-6.862499-2.625-9.187792-3.22558-12.300292-3.22558-3.375 0-5.063086.5622-6.975586 2.3247-2.3625 2.175-3.607284 5.10128-3.673828 8.28809l-.06006 2.84765c-14.472894.38952-29.140963-1.7048-43.394531-4.24658-.8625-.15-1.049708-.0372-1.387208 1.05029-.975 3.075-.974707 3.07413 2.550293 3.78663 12.502903 1.96384 22.07697 3.59066 30.295899 4.11767 4.868382.31216 7.621774.15469 13.253906-.16845.23518.4037.741217.57895 1.010742.94775 4.616994 6.31758 13.977268 7.65552 17.970705 8.896 6.503595 1.56173 13.561207 4.82418 19.249515 8.25732 2.76734 1.71608 3.06931 7.00949 1.05907 17.76562-1.124605 6.04687-5.00827 23.35374-7.551258 33.84961-.79974 3.32847-1.386652 6.19436-1.258305 6.42335.60504 1.07949 3.730883-3.46796 12.914063-18.76026 6.86285-11.45547 8.83306-15.61098 10.89697-22.74316 2.04953-7.08114 2.85185-12.47504 2.53857-17.3291-1.32546-9.75648-4.18371-10.83894-8.11669-15.15821-1.37172-1.63291-2.79783-3.32502-3.72803-4.74463 2.16864-.92396 4.01325-1.35102 6.28857-2.14306 2.92846-1.02029 4.84067-1.75452 6.47901-2.54004 8.27926-3.10764 13.98225-10.80715 18.32226-16.92041 8.79536-12.78517 15.99557-26.530203 29.77296-32.676272 3.91014-1.648563 8.96261-2.884638 13.93065-3.487793 5.12244-.611427 10.5791-.776979 11.75831-.357422.61158.194939 1.20062 2.867502 3.64453 16.86328 5.29928 30.401387 7.86961 45.721117 7.77685 46.199707-.0928.4786-7.50415 3.62649-10.66113 4.54248l-1.6582.48047-3.27978-3.76904c-1.77734-2.06342-7.48692-8.66879-12.65625-14.71289-11.93078-13.92474-11.39089-13.36206-12.69141-13.15577-.55108.0842-1.21929.37506-1.5044.66358-1.00858 1.06504-.4037 2.48022 2.58106 6l2.89306 3.58301zm-1.97409 28.97674c-.0131 3.0394-.0899 6.42165-.21732 10.28253l1.16748.47462c.63772.25921 1.42823.43668 1.7622.38818.4799-.0697.79495-.20757.88477-1.22168.52733-9.75827.75578-37.08122.64297-41.77637h-4.2401z" paint-order="markers stroke fill"/>
</svg>