<?xml version="1.0" standalone="no"?>
<svg xmlns="http://www.w3.org/2000/svg" width="1024pt" height="1024pt" version="1.0" viewBox="0 0 1024 1024">
  <path fill="#0b0b0b" d="M372 817c-38-3-74-24-99-58-13-17-19-31-23-58-3-26 2-60 13-82 7-13 21-31 32-41 17-14 37-25 59-30 13-3 41-4 54-1 49 11 87 45 102 92 5 16 6 28 6 47-1 22-4 36-13 55-11 23-33 47-56 60-15 8-36 15-52 16h-12c-1 1-7 0-11 0Zm30-9c4-1 11-2 17-4 47-15 79-53 88-102 2-15 1-38-2-52-7-25-18-44-35-61-23-22-50-34-82-36-27-1-52 6-75 22-10 6-28 24-35 34-15 23-23 56-20 85 1 16 6 35 10 44 10 20 32 42 52 54 26 15 51 20 82 16ZM0 799c0-5 0-5 7-9 28-19 47-48 55-83 2-12 2-38 0-50-4-17-11-33-20-47-7-11-25-29-35-35-7-4-7-4-7-9v-5l5 3c25 15 45 38 57 65 18 45 11 98-18 137-9 12-26 27-39 34l-5 3v-4Zm0-18c0-4 0-5 3-7 1-1 5-3 7-5l5-4-7-8c-8-8-8-8-8-13v-6l10 10 10 11 2-2c1-2 4-5 7-8 11-17 20-43 20-62v-6H0v-8l3-1h25l21 1v-2c0-4-4-22-7-29-5-13-13-26-22-37l-4-4-8 7-8 8v-5c0-5 0-6 5-11l5-5-5-4c-5-3-5-3-5-8v-5l6 4c4 3 11 9 16 14 23 23 35 52 35 86 0 32-11 62-33 84-5 5-19 17-23 19l-1 1v-5Zm82-98c0-1-1-7-2-14-1-14-3-22-7-34-10-33-34-63-64-80-9-5-9-5-9-17v-11h36c20 0 46-1 57-1h21l-6-2c-13-5-22-10-40-25-29-23-38-33-43-48-4-11-1-25 7-30 5-3 13-3 22 2 8 3 12 8 34 34 11 13 23 26 31 32 9 8 26 16 42 21 17 6 22 7 35 8s18 3 17 7v1h21c11-1 52-1 91-1 71 0 71 0 73 2 1 1 4 2 10 3 29 5 59 20 82 44 11 11 17 21 17 24v3h-3c-2 0-4-1-10-9-32-42-84-63-135-54-15 3-25 6-39 13-15 7-26 16-39 29-24 24-37 54-41 92 0 6-1 7-2 9-2 1-14 1-76 1-46 0-74 0-75 1 0 1-4 1-5 0Zm435-35c-6-4-7-12-1-15 3-2 6-2 113-24 53-11 115-24 136-28 22-4 40-8 41-8 6 0 11 6 9 11s-5 7-29 11c-12 3-68 14-123 26-115 23-140 28-143 28-1 0-2-1-3-1Zm377-11c-6-2-6 2-6-61v-58h-8c-30 3-49 3-85 3-22-1-47-1-54-2-14-1-14-1-28 4-7 3-18 6-24 8-6 1-11 3-12 3-4 2-14 3-27 5-18 1-67 3-76 2h-7v-15h18c21 0 50-1 70-4 15-1 20-2 29-5l6-1-17-2c-14-1-25-2-51-1h-41c-4 1-8 1-9 0l-1-1 1-4c1-3 1-5 1-6-1 0-14-2-30-5-47-8-99-19-149-31-17-4-22-6-26-8-3-2-6-4-8-4-2-1-23 4-26 6 0 1-5 7-11 13-17 22-19 24-24 19-3-3-2-7 7-18 5-6 9-11 9-11l1-1h-17c-26 0-44-2-58-9-12-5-47-27-56-34-2-2-6-5-8-6-3-1-8-5-12-9-5-6-7-9-9-13-4-9-2-17 4-22 4-4 8-5 17-5 11 0 22 3 27 8 2 1 28 14 38 18 15 7 34 11 51 11 8 0 28-2 37-5 4 0 10-2 15-4 9-4 20-5 25-4 4 1 5 1 6-1 1-1 20-24 42-51 77-95 125-156 142-177 10-11 27-33 39-47 13-16 23-27 24-28 2-1 3-1 5 0 4 3 4 5 2 10-2 3-2 3 0 7 2 3 2 4 2 14-1 14-5 27-19 56-19 37-25 53-29 76-2 17-1 41 2 54 10 36 37 63 69 67 13 2 25-2 35-10 5-5 7-6 9-4s1 5-4 10c-23 22-62 15-91-15-9-9-13-14-19-26-8-19-12-41-10-64 3-29 8-46 27-85 17-35 21-47 21-59v-10h-1l-23 28c-23 28-68 84-133 163-16 21-40 51-53 67l-24 29 2 1c1 1 11 3 23 6 119 29 218 45 321 52 32 3 30 3 36-3 5-6 12-15 32-45 27-38 36-50 51-64 18-16 40-28 65-35 8-3 31-7 37-7h5l7 18c14 37 21 54 31 82 28 71 25 62 25 84 0 20 0 20-4 23l-4 2c0 1 1 3 2 7 1 3 2 6 2 7s-2 3-5 5c-10 7-43 28-45 28-1 0-7-5-37-29-8-7-15-12-15-12h-1v46c-1 47-1 50-5 51-1 1-6-1-8-3l-2-1v13c-1 18-2 21-8 19Zm87-107c10-6 21-14 21-15l-1 1h-1v-1s0-1 1-2-7-24-18-51c-1-4-6-16-10-27-29-76-36-94-36-95-1-1-23 4-34 8-25 8-41 17-58 34-14 14-19 20-47 62-26 36-29 41-37 49-4 5-10 10-13 13l-6 3 1 1c1 1 17 1 37 2 35 1 73 0 94-2 6-1 11-1 12-1h2v-10c0-11 0-11-9-19-10-8-13-11-13-14s5-6 8-5c1 0 8 5 15 10 13 10 69 54 77 61 2 1 4 3 5 3 0 0 5-2 10-5Zm-259-26c10-5 18-10 21-14l3-2h-2c-1 1-5 3-10 5-11 4-21 7-32 10-5 1-9 2-10 3h-1l4 1c2 0 7 1 11 1 7 0 9 0 16-4Zm-82-8c42-2 55-5 79-13 15-5 26-11 33-16l6-4-1-1c-1-1-4-1-7-1-7 0-39-3-68-6-83-8-184-26-274-49-25-6-25-6-27-3-2 1-9 11-17 21l-15 18h7c3 0 7 1 8 1l2 1v2c0 1-2 2-4 4l-3 2h1c0 1 4 1 9 1 7 0 12 1 25 4 35 9 98 22 140 29 25 5 64 11 71 11 10 1 12 1 35-1Zm376-8 2-1-3-8c-9-24-17-45-25-67-6-14-13-32-16-40-3-9-7-19-8-23-2-5-6-15-9-23l-5-14h-5c-12 2-40 11-53 17-9 5-22 13-24 16l-1 1h1c1-1 6-3 15-7 12-6 40-12 54-14h8l1 5c1 2 5 12 9 22s9 24 12 32c10 26 14 36 21 55 4 9 10 25 14 35l6 18 2-1c2-1 3-2 4-3Zm-665-69 18-22-3-2-3-1-3 3c-4 5-27 18-41 23-12 4-26 9-33 10l-3 1 2 2c7 3 35 9 43 9 4 0 5-1 23-23Zm-281-6c-12-4-23-13-28-22-4-7-7-17-7-24 0-29 26-52 54-47 32 5 50 38 37 66-6 13-16 22-29 26-7 2-21 3-27 1Zm138-51c-9-2-17-7-23-14-9-9-12-19-12-31-1-16 6-29 18-38 9-7 15-9 29-9 13-1 20 2 29 9 25 20 24 58-3 77-11 7-26 10-38 6Zm162 440c-26-3-52-15-68-30-8-8-19-24-26-36-4-10-10-26-11-36-2-12-1-37 2-47 6-22 15-40 29-55 11-13 28-24 42-30 15-6 25-7 46-7 16 0 18 0 27 2 48 13 82 52 90 100 3 25-1 49-12 73-17 33-46 56-82 64-12 2-27 3-37 2Zm33-10c10-1 23-6 32-11 7-4 18-11 22-15l2-3-37-38-38-38v8c-1 5-1 29-1 54v46l6-1c3 0 9-1 14-2Zm-27-52v-54h-1l-37 37-37 36 3 3c7 9 21 18 37 24 9 4 25 8 31 8h4v-54Zm95 10c7-9 13-21 17-33 3-10 6-25 6-33v-4h-91l-14 1 38 38c20 21 38 38 38 38s3-3 6-7Zm-103-70s-22 0-49 1h-48l1 10c1 20 8 37 20 55l4 7 36-36 36-36v-1Zm-1-8h2l-34-34-33-34-1 1c-7 5-19 26-23 40-3 8-6 21-6 25v3l47-1h48Zm126-4c0-11-7-32-15-45-4-7-15-21-17-22l-1-1-36 36-35 36h104v-4Zm-117-51v-49h-5c-25 4-43 12-58 25l-5 5 34 34c18 19 34 35 34 35v-50Zm75-25c-15-13-38-22-60-24h-7v97l35-35 36-35-4-3Z"/>
  <path fill="#353535" d="M357 815c-33-7-62-26-84-56-13-17-19-31-23-58-3-26 2-60 13-82 7-13 21-31 32-41 17-14 37-25 59-30 13-3 41-4 54-1 49 11 87 45 102 92 5 16 6 28 6 47-1 22-4 36-13 55s-26 40-44 52c-13 10-36 20-49 21l-3 1 9-3c22-6 35-14 52-28 10-8 16-14 24-26 10-16 17-32 21-50 1-7 1-13 1-27 0-18 0-20-2-30-7-28-19-50-39-68-26-25-55-36-91-36-34 0-61 10-87 33-9 8-22 23-27 32-5 8-11 24-14 38-2 10-2 12-2 32s0 21 3 35c5 25 13 38 32 57 23 23 46 35 73 40 5 1 10 2 13 2l4 1h-5c-3 0-10-1-15-2Zm32 1h6l4 1h-13l3-1Zm12-1h4l2 1h-8l2-1Zm-30-5c-14-1-31-6-43-12-24-12-51-39-61-62-5-8-10-33-11-48-1-25 5-53 17-73 14-22 34-41 56-51 9-4 19-7 20-7v1l-6 1c-7 3-22 10-30 16-10 6-28 24-35 34-15 23-23 56-20 85 2 17 6 36 11 45 8 16 26 36 42 47 21 15 47 23 72 23 15 0 23-1 36-5 47-15 79-53 88-102 2-15 1-38-2-52-7-25-18-44-35-61-12-12-31-24-43-28l-4-1v-1h1l9 3c4 2 12 6 17 9 11 7 28 24 37 37 36 53 29 120-16 166-17 17-40 30-63 34-8 2-30 3-37 2ZM0 802v-1h1c3 0 21-14 30-23 12-12 19-21 25-35 11-21 14-36 14-61s-3-40-14-62c-10-19-27-39-46-51-5-4-10-7-10-8l5 3c25 15 45 38 57 65 18 45 11 98-18 137-9 12-26 27-39 34l-5 3v-1Zm370 0c-26-3-52-15-68-30-8-8-19-24-26-36-4-10-10-26-11-36-2-12-1-37 2-47 1-5 2-9 3-9 0 1-1 5-2 10-2 7-2 11-2 28 0 18 0 20 2 29 8 28 27 56 47 70 32 21 73 26 108 13 27-10 52-32 64-56 9-19 13-37 13-57 0-23-6-45-18-65l-3-5 2 3c4 4 12 21 15 31 7 22 8 47 1 71-3 10-13 30-19 38-10 14-25 27-39 34-20 11-47 17-69 14Zm-6-8c-22-3-44-14-58-28l-7-6 38-38 38-38 1 1-37 37-38 37 3 3c7 9 21 18 37 24 8 4 26 8 32 8h3l-1-32v-32c1 0 1 15 1 33v33h-2c-1 0-5-1-10-2Zm18-53c0-31 0-55 1-55l1-1 38 39c21 21 38 39 38 40s-14 12-22 17c-14 8-32 14-48 15h-8v-55Zm21 51c10-1 23-6 32-11 7-4 18-11 22-15l2-3-37-38-38-38v8c-1 5-1 29-1 54v46l6-1c3 0 9-1 14-2ZM0 795c0-1 3-3 7-5 25-17 44-43 53-74l2-8-1 4c-1 6-7 24-11 32-9 17-22 31-38 43-6 4-11 8-11 8H0Zm0-10s2-2 5-4c20-13 37-36 45-62 8-24 8-54-1-78-8-23-25-46-43-58-4-2-6-4-6-4v-1l6 4c4 3 11 9 16 14 23 23 35 52 35 86 0 32-11 62-33 84-5 5-19 17-23 19l-1 1v-1Zm2-10c1 0 4-3 7-6l6-4-8-8-7-8 1-1 7 8 8 9-7 6-8 6H0l2-2Zm8-26c-6-5-10-10-10-10v-1l10 10 10 11 2-2c1-2 4-5 7-8 11-17 20-43 20-62v-6H0v-2h23c13 0 25 0 26-1h2v10c-2 18-6 34-15 50-4 9-13 21-15 21-1 0-6-4-11-10Zm416-29-39-40h1c0-1 23-1 51-2 28 0 52 0 53-1h3v7c0 13-4 32-11 46-4 10-15 26-18 28l-2 1-38-39Zm45 30c7-9 13-21 17-33 3-10 6-25 6-33v-4h-91l-14 1 38 38c20 21 38 38 38 38s3-3 6-7Zm-181-4c-9-13-16-32-17-44l-1-5 2 8c3 14 9 28 18 41l4 7 36-36c20-19 36-36 36-36v-1l-49 1h-48v-1c1 0 17-1 50-1h49v1c0 1-73 74-74 74 0 0-3-3-6-8ZM62 705v-3l1 1v3l-1 2v-3Zm1-7v-4l1 2v4l-1 2v-4Zm208-9v-7l1 3v8l-1 4v-8Zm-207-7v-11l1 5v12l-1 6v-12Zm18 1c0-1-1-7-2-14-2-19-5-34-13-51l-4-8h1c0 1 3 6 5 12 7 14 11 30 12 46 1 8 2 13 3 14l1 1 1-1c1 0 26-1 76-1 50-1 76-1 76-2s1-5 1-10c4-43 28-85 63-109 34-23 73-31 113-22 31 8 61 27 81 54 4 5 7 8 8 8l1-1 1-1c0-3-11-17-21-28-20-19-49-34-77-39-7-1-10-2-11-3-2-2-2-2-95-2l-93 1 1-1c0-1 1-2 1-3v-1l-3-1c-2-1-9-1-16-2-11-1-18-2-36-8-26-9-47-24-67-50-18-22-28-33-34-36-18-9-30-3-30 15 0 15 11 31 34 50 5 4 12 10 17 14s11 8 13 10c6 3 20 9 29 11l7 1-3 1c-2 0-30 1-63 1H0l54-1c30-1 56-1 57-1h3l-6-2c-13-5-22-10-40-25-29-23-38-33-43-48-4-11-1-25 7-30 5-3 13-3 22 2 8 3 12 8 34 34 11 13 23 26 31 32 9 8 26 16 42 21 17 6 22 7 35 8s18 3 17 7v1h21c11-1 52-1 91-1 71 0 71 0 73 2 1 1 4 2 10 3 29 5 59 20 82 44 11 11 17 21 17 24v3h-3c-2 0-4-1-10-9-32-42-84-63-135-54-15 3-25 6-39 13-15 7-26 16-39 29-24 24-37 54-41 92 0 6-1 7-2 9-2 1-14 1-76 1-46 0-74 0-75 1 0 1-4 1-5 0ZM2 673c1-1 12-1 25-1l22 1v-2c0-4-4-22-7-29-5-13-13-26-22-37l-4-4-8 8-8 8 7-9c4-4 8-8 9-8s11 12 17 20c8 14 15 32 17 47l1 7H0l2-1Zm269 0v-4l1-2v3c0 1 1 3 1 3l2 1h-3l-1-1Zm10 0s20-1 44-1h44l-34-34-33-34-1 1c-4 3-12 15-16 23-5 10-9 22-11 32l-2 7v-3c0-4 5-21 9-31 4-9 10-19 17-27l4-4 28 29c16 16 31 31 34 35l6 6c0 1-21 1-45 1l-45 1 1-1Zm212 0H388v-1c0-2 71-73 72-73 2 0 4 3 12 13 11 14 18 32 21 50 1 5 2 10 2 11v1h-1s-1 0-1-1Zm0-5c0-11-7-32-15-45-4-7-15-21-17-22l-1-1-36 36-35 36h104v-4Zm-217 4h2v1h-3l1-1Zm-213-5v-4l1 2v4l-1 2v-4Zm278-34-35-35 5-5c7-7 21-16 30-19 11-4 34-8 35-6l1 1h-5c-8 0-25 4-32 7-10 4-20 11-27 17l-5 5 25 26 35 35 9 9h-1l-35-35Zm42 33c-1-1-1-56 0-80v-19h9c12 1 26 5 37 9 8 4 22 13 25 17l2 2-28 28-36 36-9 8v-1Zm68-74c-15-13-38-22-60-24h-7v97l35-35 36-35-4-3ZM62 660v-3l1 1v3l-1 2v-3Zm-2-11c-8-29-29-59-53-74-4-2-7-5-7-5v-1l4 2c7 5 20 15 26 22 9 9 20 26 24 35 3 9 8 25 8 27l-1 1-1-7Zm457-1c-6-4-7-12-1-15 4-2 49-12 50-11v1l-16 3c-32 6-37 8-37 14 0 4 2 7 6 7 1 1 11-1 23-3s21-4 22-4v1l-21 4c-24 4-24 4-26 3Zm-245-10c1-4 10-21 14-27 12-19 33-36 52-43 8-3 25-7 30-7h3l-8 2c-14 2-20 4-30 9-11 5-19 11-30 21s-19 21-26 35l-6 13 1-3Zm294 1h2l2 1h-5l1-1Zm4 0c1-1 42-9 43-9v1l-21 4c-11 2-21 4-21 4h-1Zm320-4-2-2h1c0 1 2 2 4 3l3 1h-2c-1 0-3-1-4-2Zm9 1c1-5 2-23 2-79v-59h2v53c0 54 0 54 2 55 1 1 4 2 5 2l2 1 2-3c1-3 1-12 1-49 0-30 0-46 1-47h1l7 6c5 3 8 7 9 7v1l-6-4c-3-3-7-6-7-7-1 0-2-1-2-1h-1v46c-1 47-1 50-5 51-1 1-6-1-8-3l-2-1v8c0 11-2 22-3 23l-1 2 1-2Zm-523-23v-21l1 10v22l-1 11v-22Zm239 16h2l2 1h-5l1-1Zm4 0c1-1 47-10 48-10v1l-23 4c-13 3-24 5-24 5h-1Zm-51-8h2l2 1h-5l1-1Zm5-1h2l2 1h-5l1-1Zm4 0c1-1 37-8 38-8v1l-18 3c-10 2-19 4-19 4h-1Zm92-2h2l2 1h-5l1-1Zm5-1c2 0 89-18 90-18l1 1-45 9c-25 5-46 9-46 9h-1l1-1Zm-57-6h2l2 1h-5l1-1Zm4 0c1-1 42-9 43-9v1l-21 4c-11 2-21 4-21 4h-1Zm-152-11c-15-16-30-26-49-33l-7-3h1c3 0 23 9 32 14 8 5 26 22 31 29l2 3-10-10Zm-413 0c-11-18-29-35-47-45-5-3-9-5-9-6l6 3c23 13 44 33 54 52l3 5s-3-4-7-9Zm-56 6s2-3 5-6l5-5-5-4-5-3v-1h1l5 4c3 2 5 4 5 5 0 0-2 3-5 6l-6 5v-1Zm666-5h2l2 1h-5l1-1Zm5-1h2l2 1h-5l1-1Zm4 0c1-1 47-10 48-10v1l-23 4c-13 3-24 5-24 5h-1Zm92-2h2l2 1h-5l1-1Zm4 0c0-1 8-2 17-4 23-5 26-6 26-13 0-3-4-7-7-7-2 0-19 3-40 8-20 4-37 7-37 7l-1-1 38-7c20-5 38-8 39-8 6 0 11 6 9 11s-5 7-24 10c-10 2-19 4-19 4h-1Zm-46-9h2l2 1h-5l1-1Zm-319-26-2-1h2c1 0 3 1 4 1l3 1h-2c-2 0-4-1-5-1Zm-8-2h4l2 1h-7l1-1Zm-21-1h13l7 1h-26l6-1Zm32-4c-4-1-14-2-23-3l-15-1 15 1c11 0 18 0 24 2 5 1 9 2 9 3h-1c-1 0-5-1-9-2Zm-58 0h2v1h-3l1-1Zm5-1c1 0 4-1 5-1h3l-3 1c-2 0-4 1-5 1h-2l2-1Zm9-2h4l2 1h-7l1-1Zm597-6c-5-3-8-6-8-7l5 3c2 2 6 5 8 7l4 2 9-6c5-3 10-5 11-6h1l-1 1c-2 1-19 12-20 12s-5-3-9-6Zm-390-6h-5v-15h18c16 0 35-1 62-2l8-1-4 1c-7 2-34 3-57 3-15 0-23 0-24 1v12h54v1h-38c-4 1-11 1-14 0Zm53-1c0-1 7-1 16-2s18-2 22-2c15-4 27-6 35-9 4-1 8-2 9-2v1l-9 2c-5 2-11 3-13 4-3 1-6 2-7 2-6 2-34 6-47 6h-6Zm367-1c1 0 7-5 14-9 11-7 13-9 13-11l1-2v2c0 3-1 4-13 11-7 5-13 9-14 9l-1 1v-1Zm-49-7c-5-4-9-7-9-8l8 6c4 3 8 6 9 7l1 2s-4-3-9-7Zm22 1c-8-7-22-18-42-34-33-26-37-29-44-34-6-4-6-4-9-3-3 2-4 5-1 10l3 4-3-4c-2-2-3-4-3-6 0-3 5-6 8-5 3 0 15 9 54 40 13 11 29 24 33 27l9 7 6-3c4-2 11-6 16-9l9-6-1-1v-1l1-2 2-2v3c0 2-1 3-11 10-12 8-20 12-21 12s-3-2-6-3Zm-621 0v-1h2v2h-2v-1Zm313-11h4l2 1h-8l2-1Zm8-1h4l2 1h-8l2-1Zm54-1c2-1 4-2 5-2h2l-4 2c-3 1-5 2-5 2h-1l3-2Zm-46 0h2v1h-3l1-1Zm119 0h36l19 1h-73l18-1Zm-110-2c4-1 8-2 10-3h3-1c-1 1-15 5-17 5h-1l6-2Zm73 1h10l6 1h-21l5-1Zm99 0h8l4 1h-16l4-1Zm-118-1h8l4 1h-16l4-1Zm133 0h6l3 1h-12l3-1Zm11-1h6l3 1h-11l2-1Zm-199-3h5l3 1h-10l2-1Zm-109-1-1-1 1-4 1-5-1-1c-1-1-3-1-4-1h-3v-1h6l4 1v4c-1 2-1 5-2 5v2h41l42-1-11 1c-6 0-22 1-36 1-15 0-28 0-31 1-2 0-5 0-6-1Zm98 0h5l3 1h-10l2-1Zm-10-1h4l3 1h-9l2-1Zm118 0h19l10 1h-38l9-1Zm49 0h16l9 1h-33l8-1Zm189-2c-2-4-2-4 6-9l3-1-3 2c-1 1-3 2-4 3l-2 2 1 2c1 2 1 3 1 4h-1l-1-3Zm-265 1h10l5 1h-20l5-1Zm105 0h8l4 1h-15l3-1Zm-115-2c9-6 18-14 25-23 5-6 9-10 9-10l-3 5c-6 7-18 20-24 25l-6 3 1 1 2 1h-6l2-2Zm130 1h6l3 1h-12l3-1Zm11-1h4l3 1h-9l2-1Zm112-20c-5-11-8-20-8-21h1l2 6c5 13 13 35 13 36h-1l-7-21Zm-291 19h8l4 1h-15l3-1Zm-17-1-2-1h3c7-2 31-8 38-11 5-2 8-3 9-3v1l-7 2c-8 3-17 6-26 8-4 1-8 2-9 3h-1l4 1 4 1h-5c-3 0-7-1-8-1Zm37-3c9-5 17-10 20-13l2-3c-1 0-2 0-3 1l-2 1c0-1 6-4 7-4h1l-1 1c-2 4-13 12-20 16-5 2-9 4-10 4l6-3Zm-163-5h3l2 1h-6l1-1Zm-6-1h3l2 1h-6l1-1Zm51 0-5-1 8 1c9 0 49-2 68-5 7 0 13-1 13 0-1 0-7 1-15 2-23 3-57 5-69 3Zm-57-1h3l2 1h-6l1-1Zm-6-1h3l2 1h-6l1-1Zm50 0h4l2 1h-7l1-1Zm-56-1h3l2 1h-6l1-1Zm49 0h4l2 1h-7l1-1Zm-58-1-3-1h2c1 0 4 1 6 1l3 1h-3c-1 0-4-1-5-1Zm52 0h3l2 1h-6l1-1Zm-280-2c-3-3-2-7 7-18 5-6 9-11 9-11l1-1h-17c-26 0-44-2-58-9-12-5-47-27-56-34-2-2-6-5-8-6-3-1-8-5-12-9-5-6-7-9-9-13-4-9-2-17 4-22 4-4 8-5 17-5 11 0 22 3 27 8 2 1 28 14 38 18 15 7 34 11 51 11 8 0 28-2 37-5 4 0 10-2 15-4 9-4 20-5 25-4 4 1 5 1 6-1 1-1 20-24 42-51 77-95 125-156 142-177 10-11 27-33 39-47 13-16 23-27 24-28 2-1 3-1 5 0 4 3 4 5 2 10-2 3-2 3 0 6 1 2 2 5 2 8v4l-1-5c0-3-2-6-3-8l-2-3 2-2c3-4 2-8-2-9-2 0-4 1-7 5-4 4-54 66-60 74-1 1-8 9-11 13-1 1-2 3-2 3-1 1-4 5-11 13-4 5-34 42-37 47-3 2-6 6-7 9-2 2-5 5-7 8-2 2-4 5-5 6s-6 7-11 13c-3 5-29 36-30 37-5 6-51 64-53 67l-7 7c-3 3-3 3-8 2-3-1-5-1-7 0-1 1-3 1-5 1s-7 1-11 3c-10 4-13 5-24 6-10 2-34 4-36 4-1-1-5-1-9-1-10-1-15-2-26-6-15-5-36-15-46-22s-24-10-35-8c-7 1-10 3-14 8-2 3-2 4-1 8 1 11 8 20 20 28 4 3 9 6 11 8 5 5 25 18 31 21 2 1 7 4 10 6 9 6 20 10 36 14 7 1 13 2 31 2h23c0 1-11 15-17 22-1 1-2 3-2 4 0 4 4 6 6 5 1-1 8-8 15-17 7-8 13-16 14-16 2-1 7-3 13-4 9-3 17-6 17-9v-1l-3-1c-1-1-5-1-8-1l-6 1v-1c0-1 24-32 30-38 2-2 3-4 3-4v-1h2c0-1 4 0 8 1l6 1v1c-1 0-4-1-7-1-6-2-6-2-8 1-2 1-9 11-17 21l-15 18h7c3 0 7 1 8 1l2 1v2c0 1-2 2-4 4l-3 2 1 1h8l6-1-3 1c-3 1-8 2-11 1-2-1-23 4-26 6 0 1-5 7-11 13-17 22-19 24-24 19Zm273 1h4l2 1h-7l1-1Zm-56-1-3-1h2c1 0 4 1 6 1l3 1h-3c-1 0-4-1-5-1Zm50 0h3l2 1h-6l1-1Zm444 0c-2-2-6-14-6-15h1l2 7 3 8 2-1 2-1c0 1-1 1-2 2l-2 1v-1Zm-455-1-3-1h2c1 0 4 0 7 1l4 1h-3c-2 0-5-1-7-1Zm136 0h2v1h-3l1-1Zm45 0c1-1 2-1 3-1h1l-2 1c-1 1-2 1-2 1h-1l1-1Zm-227-1h2l2 1h-5l1-1Zm186 0h2l2 1h-5l1-1Zm-195-1-3-1h2c1 0 4 1 6 1l3 1h-3c-1 0-4-1-5-1Zm41 0-6-2h2c1 0 4 1 8 1l7 2h-3c-1 0-5-1-8-1Zm474 1c0-1 1-1 2-2l2-1-2 1c-1 1-1 2-2 2Zm-312-2h2v1h-3l1-1Zm-210-1h2l2 1h-5l1-1Zm225-3c6-3 14-6 16-7l5-2v1c0 1-29 12-32 12h-1l12-4Zm162-2c-4-3-7-6-7-7l6 5c3 2 7 5 8 6l1 2-8-6Zm-392 4h2l2 1h-5l1-1Zm42 0h3l2 1h-6l1-1Zm-47-1h2l2 1h-5l1-1Zm38 0-3-1h2c1 0 4 1 6 1l3 1h-3c-1 0-4-1-5-1Zm-43-1h2l2 1h-5l1-1Zm-5-1h2l2 1h-5l1-1Zm41 0h2l2 1h-5l1-1Zm-49-1-2-1h2c1 0 3 1 4 1l3 1h-2c-2 0-4-1-5-1Zm40 0-3-1h2c1 0 4 1 6 1l3 1h-3c-1 0-4-1-5-1Zm511 0s0-2-1-3v-1l1 1c1 1 1 3 1 3l-1 2v-2Zm-557-2h2l2 1h-5l1-1Zm39 0h2l2 1h-5l1-1Zm-49-1-5-2h2c1 0 4 1 7 1l5 2h-2c-2 0-5-1-7-1Zm44 0h2l2 1h-5l1-1Zm-5-1h2l2 1h-5l1-1Zm-5-1h2l2 1h-5l1-1Zm-46-1-2-1h2c1 0 3 1 4 1l3 1h-2c-2 0-4-1-5-1Zm41 0h2l2 1h-5l1-1Zm531-14c-4-8-6-15-6-16h1l3 8c5 12 8 22 8 23h-1l-5-15Zm-536 13h2l2 1h-5l1-1Zm-47-1-4-2h1c1 0 4 1 7 1l5 2h-2c-2 0-5-1-7-1Zm37 0-5-2h2c1 0 4 1 7 1l5 2h-2c-2 0-5-1-7-1Zm277 1v-1h2l1-1-1 1c0 1-1 1-1 1h-1Zm36-2c1-2 4-6 7-10 2-4 9-13 14-20 19-28 21-31 28-40 9-12 29-31 39-38 12-8 34-18 36-17v1l-4 1c-18 6-36 17-51 32-15 14-18 19-49 64-15 22-19 27-20 29l-1 1 1-3Zm-31-1c1-1 5-3 8-5l5-4-1-1-1-1h5l-5 4c-2 2-6 5-8 6l-4 2 1-1Zm-332-1-4-2h1c1 0 4 1 7 1l5 2h-2c-2 0-5-1-7-1Zm36 0-5-2h2c1 0 4 1 7 1l5 2h-2c-2 0-5-1-7-1Zm546-16c-3-8-6-17-6-18l-1-2 1 1c1 2 13 34 13 35h-1l-6-16Zm-589 13h2v1h-3l1-1Zm31 0-2-1h2c1 0 3 1 4 1l3 1h-2c-2 0-4-1-5-1Zm-43-2-6-2h1c1 0 5 1 9 2l7 2h-2c-2 0-5-1-9-2Zm32 0-4-2h1c1 0 4 1 7 1l5 2h-2c-2 0-5-1-7-1Zm-41-3h2v1h-3l1-1Zm30 0-2-1h2c1 0 3 1 4 1l3 1h-2c-2 0-4-1-5-1Zm-34-1h2v1h-3l1-1Zm-4-1h2v1h-3l1-1Zm33 0h2v1h-3l1-1Zm567-15c-3-8-6-17-6-18l-1-2 1 1c1 2 13 34 13 35h-1l-6-16Zm44 9c-2-4-3-7-3-8h1l2 7c2 4 3 7 3 8h-1l-2-7Zm-652 3-4-2 1-1 2 1c1 1 3 2 5 3l3 2h-2s-2-1-5-3Zm37 2h2v1h-3l1-1Zm337 0h7l4 1h-14l3-1Zm-355-4-13-3h2c1 0 7 2 15 3l13 4h-2c-2 0-8-2-15-4Zm341 3h6l4 1h-13l3-1Zm-13-1h6l3 1h-11l2-1Zm-11-1h5l3 1h-10l2-1Zm-11-1h5l3 1h-10l2-1Zm-10-1h5l3 1h-10l2-1Zm-10-1h4l3 1h-9l2-1Zm-9-1h4l3 1h-9l2-1Zm94 0c7 0 7 0 12-5 5-6 12-15 32-45 9-12 16-22 17-23l1-1-1 3c-1 1-5 6-8 11-3 4-8 10-10 14-13 19-23 33-29 39-6 8-6 8-13 8h-7l6-1Zm-103-1h4l3 1h-9l2-1Zm84 0h7l4 1h-14l3-1Zm-92-1h4l2 1h-8l2-1Zm79 0h6l4 1h-13l3-1Zm-87-1h4l2 1h-8l2-1Zm74 0h6l3 1h-11l2-1Zm-82-1h4l2 1h-7l1-1Zm71 0h5l3 1h-10l2-1Zm-78-1h4l2 1h-8l2-1Zm67 0h5l3 1h-10l2-1Zm-75-1h4l2 1h-7l1-1Zm65 0h5l3 1h-10l2-1Zm-72-1h4l2 1h-7l1-1Zm63 0h4l3 1h-9l2-1Zm-70-1h4l2 1h-7l1-1Zm61 0h4l3 1h-9l2-1Zm353 1s-3-10-8-20c-4-11-7-20-7-21h1l2 7c2 3 5 13 8 20s5 14 5 14h-1Zm-425-2-3-1h2c1 0 4 0 7 1l4 1h-3c-2 0-5-1-7-1Zm63 0h4l3 1h-9l2-1Zm-340-2c-8-2-19-4-25-7l-11-3v-2l3-1c16-3 42-12 54-19 12-6 22-13 24-15l1-3 4 2c2 1 4 2 5 2v1l-3 4c-3 4-5 7-13 17-2 2-5 6-7 8-13 16-15 18-18 18-1 0-7-1-14-2Zm36-23 18-22-3-2-3-1-3 3c-4 5-27 18-41 23-12 4-26 9-33 10l-3 1 2 2c7 3 35 9 43 9 4 0 5-1 23-23Zm296 24h4l2 1h-8l2-1Zm-63-1h3l2 1h-6l1-1Zm55 0h4l2 1h-8l2-1Zm-61-1h3l2 1h-6l1-1Zm53 0h4l2 1h-7l1-1Zm-59-1h3l2 1h-6l1-1Zm52 0h4l2 1h-8l2-1Zm-58-1h3l2 1h-6l1-1Zm50 0h4l2 1h-7l1-1Zm-56-1h3l2 1h-6l1-1Zm50 0h3l2 1h-6l1-1Zm-59-1-3-1h2c1 0 4 1 6 1l3 1h-3c-1 0-4-1-5-1Zm52 0h4l2 1h-7l1-1Zm-7-1h4l2 1h-7l1-1Zm402-3c-2-5-11-29-12-32l-1-2 1 2c2 4 14 35 14 36h-1l-1-4Zm-458 2-3-1h2c1 0 4 1 6 1l3 1h-3c-1 0-4-1-5-1Zm50 0h3l2 1h-6l1-1Zm-7-1h4l2 1h-7l1-1Zm-50-1h2l2 1h-5l1-1Zm44 0h3l2 1h-6l1-1Zm-53-1-3-1h2c1 0 4 1 6 1l3 1h-3c-1 0-4-1-5-1Zm48 0h2l2 1h-5l1-1Zm-6-1h3l2 1h-6l1-1Zm-52-1-3-1h2c1 0 4 1 5 1l3 1h-2c-2 0-4-1-5-1Zm46 0h3l2 1h-6l1-1Zm-6-1h3l2 1h-6l1-1Zm-47-1h2l2 1h-5l1-1Zm42 0h2l2 1h-5l1-1Zm-47-1h2l2 1h-5l1-1Zm41 0h3l2 1h-6l1-1Zm-51-1-5-2h2c1 0 4 1 7 1l5 2h-2c-2 0-5-1-7-1Zm46 0h2l2 1h-5l1-1Zm-9-1-3-1h2c1 0 4 1 6 1l3 1h-3c-1 0-4-1-5-1Zm454-3c-5-11-11-28-11-29h1l2 6c5 12 10 26 10 27h-1l-1-4Zm-500 1h2l2 1h-5l1-1Zm39 0h2l2 1h-5l1-1Zm-49-1-5-2h2c1 0 4 1 7 1l5 2h-2c-2 0-5-1-7-1Zm44 0h2l2 1h-5l1-1Zm-5-1h2l2 1h-5l1-1Zm-5-1h2l2 1h-5l1-1Zm-42-1h2v1h-3l1-1Zm37 0h2l2 1h-5l1-1Zm465 1s-3-8-6-18c-4-9-7-17-7-18l1 1c2 3 13 34 13 35h-1Zm-507-2h2l2 1h-5l1-1Zm37 0h2l2 1h-5l1-1Zm-45-1-2-1h2c1 0 3 1 4 1l3 1h-2c-2 0-4-1-5-1Zm35 0-5-2h2c1 0 4 1 7 1l5 2h-2c-2 0-5-1-7-1Zm-40-2h2v1h-3l1-1Zm-10-1-4-2h1c1 0 4 1 7 1l5 2h-2c-2 0-5-1-7-1Zm38 0-2-1h2c1 0 3 1 4 1l3 1h-2c-2 0-4-1-5-1Zm-405-1c-12-4-23-13-28-22-6-10-9-25-6-33l1-2-1 7c-2 32 28 57 59 48 29-8 43-42 27-68-9-16-28-25-47-22-16 3-31 15-36 31l-1 4-1-2c0-1 2-5 4-9 9-18 29-28 48-25 32 5 50 38 37 66-6 13-16 22-29 26-7 2-21 3-27 1Zm399-1h2l2 1h-5l1-1Zm-39-1h2v1h-3l1-1Zm31 0-2-1h2c1 0 3 1 4 1l3 1h-2c-2 0-4-1-5-1Zm-45-2-8-3h1c1 0 6 1 11 2l9 3h-2c-2 0-6-1-11-2Zm34 0-4-2h1c1 0 4 1 7 1l5 2h-2c-2 0-5-1-7-1Zm-11-3-2-1h2c1 0 3 1 4 1l3 1h-2c-2 0-4-1-5-1Zm-38-2-4-1 3 1c2 0 4 1 6 1l2 1h-2c-1 0-3-1-5-2Zm33 0h2v1h-3l1-1Zm-4-1h2v1h-3l1-1Zm571 1s-3-10-8-20c-4-11-7-20-7-21h1l1 3c0 1 4 10 7 20 4 9 7 18 7 18h-1Zm-585-3-8-3h1c1 0 6 1 11 2l9 3h-2c-2 0-6-1-11-2Zm-11-4h2v1h-3l1-1Zm-11-2c-3 0-6-2-6-2l-1-1 1-1s2-3 4-5 4-5 4-6c1 0 3-2 5-5 4-5 12-15 13-17 7-7 64-78 67-81 1-3 4-6 6-8 2-3 5-6 7-8 1-3 4-6 6-8 1-2 4-5 6-8 1-2 14-17 28-34 29-37 26-32 35-43 4-5 8-10 9-11 1-2 2-4 4-6 1-1 4-4 5-6s4-5 5-6c5-6 6-8 20-24 5-7 10-13 11-13h1v3h-1c-1 0-12 12-24 28-26 31-85 105-133 163-16 21-40 51-53 67l-24 29v1c1 0 4 1 8 2l7 2h-2c-2 0-5-1-8-2Zm588-4c-3-8-12-31-12-32l1 1c1 3 13 34 13 35h-1l-1-4Zm-15-11c-4-8-11-28-11-29l1 1c2 3 12 31 12 32h-1l-1-4Zm-14 1c-1 0-1-1-1-2l1 1 1 2v1h-1v-2Zm-132-3c0-1 1-1 2-2l2-1-2 1c-1 1-1 2-2 2Zm126-11c-2-6-5-14-7-19l-3-8h-5c-2 1-6 1-7 2h-2l2-1c1-1 5-1 7-2h6v2c1 1 4 9 7 19 4 9 7 17 7 18h-1l-4-11Zm-284 9c4 0 10-1 13-2 10-3 24-14 23-18l-1-1-1-1c-1 0-4 2-7 5-7 5-14 9-21 10h-5l5-1c7-1 15-5 21-10 5-5 7-6 9-4s1 5-4 10c-9 8-22 13-34 13h-5l7-1Zm-19-2c-24-7-46-25-57-49-4-8-9-21-9-23v-1l3 8c11 33 37 59 68 65l7 2h-3c-2 0-6-1-9-2Zm183-4c10-14 30-34 40-41l5-3-2 1c-1 1-5 5-10 8-9 8-20 19-28 30-3 4-7 8-7 9h-1l3-4Zm-166-1h2v1h-3l1-1Zm-14-1c-6-2-19-8-25-12-12-9-24-23-31-38-3-8-8-24-8-29v-2l2 9c4 17 10 29 20 43 12 14 32 26 49 29l6 1h-4c-3 0-7-1-9-1Zm-439-6c-9-2-17-7-23-14-5-5-10-14-10-16v-1l3 5c8 16 20 24 37 26s37-8 45-22l3-5v1c0 1-5 9-9 13-12 12-30 18-46 13Zm776-5c-3-7-11-27-11-28l1 1c2 3 11 28 11 29h-1v-2Zm-18-8c-2-5-11-29-12-32l-1-2 1 2c2 3 14 35 14 36h-1l-1-4Zm-102 0s1-1 1-2l2-1v1l1 1v-3l3-3c6-5 13-9 25-15s36-14 38-13l2 1h-4c-8 2-30 10-38 14-9 4-22 13-24 15v1l2-1h3-1s-3 2-5 3l-5 3v-1Zm39-2c1 0 2-1 3-1h1l-2 1c-1 1-2 1-3 1h-1l2-1Zm5-2h2v1h-3l1-1Zm-32-2 1-1h1v1h-2l-1 1 1-1Zm43-1h2l2 1h-5l1-1Zm-35-2c7-4 33-12 35-11v1l-7 1c-4 1-12 4-18 6-7 2-12 4-13 4l-2 1 5-2Zm66-3c0-1-1-4-3-7l-2-5h2c0 1 1 4 2 7l3 7h-1l-1-2Zm-687-3 2-6c2-11 1-23-4-33l-2-4 1 1c1 2 3 5 4 8 3 7 3 25 1 31l-2 4v-1Zm658-6h2l2 1h-5l1-1Zm5-1h2v1h-3l1-1Zm46-1c-1 0-1-2-1-2v-1l1 2 1 2v1h-1v-2Zm-799-1v-2l1 1v2l-1 2v-3Zm758 1h3l2 1h-6l1-1Zm-59 0c0-2 22-14 25-14h1l-10 5c-5 3-11 6-13 7l-3 2Zm66-1h3l2 1h-6l1-1Zm-766-9v-4l1 2v4l-1 3v-5Zm793-7-5-11h-4c-7 0-30 5-40 8-6 2-10 3-11 3v-1l8-2c10-3 35-9 43-9h5l5 11c2 6 4 11 4 12h-1l-4-11Zm-28 4h2l2 1h-5l1-1Zm15 0v-1h-5l2-1c1 0 3 0 3 1l1 1v1h-1v-1Zm-10-1h2l2 1h-5l1-1Zm-769-4v-2l1 1v2l-1 2v-3Zm2-5c1-9 9-20 18-26 19-12 43-11 59 5l6 5-5-3c-11-10-21-14-34-14-19 0-36 12-44 32l-1 4 1-3Zm402-6c-2-11-3-26-2-38 2-29 8-46 27-85 16-32 21-46 22-59l1-9v9c-1 12-5 25-21 58-18 37-23 49-27 73-2 12-2 36 0 46 1 4 1 7 1 8h-1v-3Zm5-26v-16l1 8v16l-1 8v-16Zm1-19c0-1 1-5 1-9l1-6h1c0 1-1 4-1 9l-2 9v-3Zm3-17c0-2 5-18 8-27 2-4 9-19 16-34 13-27 19-42 21-54l1-6-1 6c0 10-6 27-18 51-14 28-19 40-24 54l-3 12v-2Z"/>
  <path fill="#6f6f6f" d="M367 816h3l2 1h-6l1-1Zm26 0h4l2 1h-7l1-1Zm-32-1h2v1h-3l1-1Zm43 0h2v1h-3l1-1Zm-32-6h4l3 1h-9l2-1Zm14 0h6l3 1h-12l3-1Zm-22-1h2l2 1h-5l1-1Zm35 0h4l2 1h-7l1-1Zm-41-1h2l2 1h-5l1-1Zm49 0h2v1h-3l1-1Zm-82-3c-3-2-6-3-6-4l6 3c4 2 7 3 7 4h-1s-3-1-6-3Zm29 2h2v1h-3l1-1Zm57 0h2v1h-3l1-1Zm-61-1h2v1h-3l1-1Zm86 1c0-1 3-2 7-4l6-3c0 1-12 7-13 7Zm-14-3c1 0 2-1 3-1h1l-2 1c-1 1-2 1-3 1h-1l2-1ZM0 803c0-1 1-2 3-2l3-2c0 1-1 2-3 3l-3 1Zm380-1h7l4 1h-14l3-1Zm-45-1-2-2h1s2 1 3 2l3 1h-1c-1 0-3-1-4-1Zm33 0h4l2 1h-7l1-1Zm26 0h4l2 1h-7l1-1Zm-33-1h3l2 1h-6l1-1Zm40 0h3l2 1h-6l1-1Zm30 0c1-1 3-2 4-2h1l-3 2c-1 0-3 1-3 1h-1l2-1Zm-75-1h2l2 1h-5l1-1Zm51 0h2v1h-3l1-1ZM7 799c0-1 2-2 4-4l5-2-2 1c0 1-2 2-4 3l-3 2Zm303-4c-3-1-5-3-5-4l6 4c3 2 5 3 5 4l-6-4Zm42 3h2v1h-3l1-1Zm60 0c1 0 3-1 4-1h2l-2 1c-2 0-3 1-4 1h-2l2-1Zm38 1c0-1 3-2 6-4l6-4-3 2c-2 2-4 3-6 4l-3 2Zm-122-2-1-1 1 1h2v1h-1s-1 0-1-1Zm15-1-1-1h1s1 1 3 1l2 1h-2c-1 0-2 0-3-1Zm-22-3c-2 0-3-1-3-2l3 2c2 0 3 1 3 2 0 0-2-1-3-2Zm50 1h4l2 1h-8l2-1Zm18 0h5l3 1h-10l2-1Zm36 0c1-1 2-1 3-1h1l-2 1c-1 1-2 1-2 1h-1l1-1ZM3 792c1 0 2-2 4-2l2-1-2 2c-2 0-3 2-4 2l-2 1 2-2Zm331 1-2-2h1s2 1 3 2l3 1h-1c-1 0-3-1-4-1Zm22-1-6-1v-1l10 2 9 2h-3c-2 0-6-1-10-2Zm42 1h3l2 1h-6l1-1Zm46 1c0-1 1-1 2-2l2-1c0 1-1 1-2 2l-2 1Zm-428-1c0-1 1-1 2-2l2-1-2 1c-1 1-1 2-2 2Zm359-31v-32l1 16v32l-1 16v-32Zm29 30h2l2 1h-5l1-1Zm25 1c0-1 3-2 7-4l6-3c0 1-12 7-13 7Zm-20-2h2v1h-3l1-1Zm-112-6-5-5 6 5 6 6c-1 0-3-3-7-6Zm29 4c-2-1-4-2-4-3l4 2c3 1 5 2 5 3h-1l-4-2Zm88 1c1 0 2-1 3-1h2l-2 1c-2 0-3 1-4 1h-1l2-1Zm48 1 6-6 6-4-2 2c-2 1-4 4-6 5l-4 3Zm-440-3c1-2 3-3 3-3l-2 3c-1 1-3 2-3 2l2-2Zm-13 1c0-1 1-1 2-2l2-1-2 1c-1 1-1 2-2 2Zm411-1c1 0 3-1 4-1l3-1-2 1c-1 0-3 1-4 1l-2 1 1-1Zm-80-1-1-1h1s1 0 2 1l2 1h-1c-1 0-2 0-3-1Zm-31-2-1-1 1 1c1 1 2 1 2 2-1 0-1-1-2-2Zm146 2c0-1 1-1 2-2l2-1-2 1c-1 1-1 2-2 2ZM0 786c0-1 1-2 3-2l2-2v1c-1 0-2 1-3 2l-2 1Zm13 0c0-1 1-1 2-2l2-1-2 1c-1 1-1 2-2 2Zm305-2-1-1 2 1c1 1 2 1 2 2 0 0-1-1-3-2Zm16 1-2-2h1s2 1 3 2l3 1h-1c-1 0-3-1-4-1Zm109 1c0-1 2-2 4-4l5-2-2 1c0 1-2 2-4 3l-3 2Zm-411-7 6-6-5 6c-4 3-7 6-7 6l6-6Zm397 6c0-1 2-1 3-2l3-1-2 1c-2 1-3 2-3 2h-1Zm-134-12-11-10 10 8 11 11 2 2c-1 0-6-5-12-11Zm166 9c0-1 2-2 2-2l-1 2c-1 1-3 2-3 2l2-2Zm-441-2 4-4-3 4c-2 1-4 3-4 3l3-3Zm304-1-1-1 2 1c1 1 2 1 2 2 0 0-1-1-3-2Zm113 2c0-1 1-1 2-2l2-1c0 1-1 1-2 2l-2 1Zm15-1c0-1 1-1 2-2l2-1-2 1c-1 1-1 2-2 2Zm18-6 7-7-6 7c-4 3-7 6-7 6l6-6Zm-460 5c0-1 1-1 2-2l2-1-2 1c-1 1-1 2-2 2Zm276-3-2-3 3 2c2 2 3 4 3 4s-2-1-4-3Zm21 0-2-2 2 2c2 1 3 2 3 3-1 0-2-1-3-3Zm12 0-1-1 2 1c1 1 2 1 2 2 0 0-1-1-3-2Zm139-1c1-2 3-3 3-3l-2 3c-1 1-3 2-3 2l2-2Zm-13 1c0-1 1-1 2-2l2-1-2 1c-1 1-1 2-2 2Zm-423-8c3-4 7-7 7-7l-6 7c-4 4-8 7-8 7l7-7Zm277 2-3-4 4 3c2 3 4 5 4 5s-2-2-5-4Zm183 2c1-2 3-3 3-3l-2 3c-1 1-3 2-3 2l2-2Zm-33 1c0-1 1-1 2-2l2-1-2 1c-1 1-1 2-2 2ZM9 770c0-1 2-2 2-2l-1 2c-1 1-3 2-3 2l2-2Zm31 0c0-1 2-2 2-2l-1 2c-1 1-3 2-3 2l2-2Zm-11 1s1-2 3-4l4-2-3 3c-2 2-4 3-4 3Zm280-3-2-2 2 2c2 1 3 2 3 3-1 0-2-1-3-3Zm156 1c1-2 3-3 3-3l-2 3c-1 1-3 2-3 2l2-2Zm-186-2-2-2 2 2c2 1 3 2 3 3-1 0-2-1-3-3Zm177 0 3-3-10-10-9-10 10 9 10 10-3 4c-2 2-4 3-4 3l3-3Zm-412-3c2-2 3-4 4-4l-2 3c-1 2-3 3-3 4h-1l2-3Zm442 3c0-1 1-1 2-2l2-1-2 1c-1 1-1 2-2 2Zm-193-4-1-2 2 1c1 1 2 2 2 3-1 0-2-1-3-2Zm187 0c0-1 2-2 2-2l-1 2c-1 1-3 2-3 2l2-2ZM7 757l-7-8s4 3 8 8l7 7s-4-3-8-7Zm30 4c2-2 3-4 4-4l-2 3c-1 2-3 3-3 4h-1l2-3Zm265 1-2-3 37-37c20-20 37-37 38-37h1l-38 37-37 37 2 3 2 2s-2-1-3-2Zm-28-1-1-1 1 1c1 1 2 1 2 2-1 0-1-1-2-2Zm217-1c1-2 2-3 3-3l-2 3c-1 2-2 3-3 3l2-3Zm-18 0c0-1 2-2 2-2l-1 2c-1 1-3 2-3 2l2-2Zm-192-1-1-2 2 1c1 1 2 2 2 3-1 0-2-1-3-2Zm-250-1c0-1 2-2 2-2l-1 2c-1 1-3 2-3 2l2-2Zm451 2c0-1 1-1 2-2l2-1-2 1c-1 1-1 2-2 2Zm-464-2v-1h1l1 1 3-3 4-2-3 3c-4 3-4 4-6 2Zm253-1-1-1 1 1c1 1 2 1 2 2-1 0-1-1-2-2Zm170-22-22-23 23 22 23 23 2-1 2-1-2 1-2 2s-11-10-24-23ZM43 754c0-2 1-3 2-3l-1 2c-1 1-2 2-2 3h-1l2-2Zm8 0c1-1 1-2 2-2l-1 2c-1 1-1 2-2 2l1-2Zm227 0-1-1 1 1c1 1 2 1 2 2-1 0-1-1-2-2Zm198 2c0-1 1-1 2-2l2-1-2 1c-1 1-1 2-2 2Zm19-2c1-1 1-2 2-2l-1 2c-1 1-1 2-2 2l1-2Zm-458-5c2-3 4-7 5-7l-2 4c-1 2-3 5-5 7l-2 3 4-7Zm433 3c0-1 2-2 2-2l-1 2c-1 1-3 2-3 2l2-2Zm-177-3c-2-2-3-5-4-6l-2-3c1 0 2 2 7 10l2 3c-1 0-2-2-3-4Zm40-32 36-36-36 36-36 37 36-37ZM26 752c0-1 1-1 2-2l2-1-2 1c-1 1-1 2-2 2Zm30-7 3-7h1v1l-3 6c-2 3-3 6-4 6l3-6Zm445-1 3-8h1v1l-3 7c-2 4-4 7-5 7l4-7Zm-455 4c1-1 1-2 2-2l-1 2c-1 1-1 2-2 2l1-2Zm444 0c1-1 1-2 2-2l-1 2c-1 1-1 2-2 2l1-2Zm-226-1-1-2c1 0 1 1 2 2l1 2c-1 0-1-1-2-2Zm208 2c0-1 1-1 2-2l2-1-2 1c-1 1-1 2-2 2ZM2 741l-2-3 3 2c2 2 3 4 3 4s-2-1-4-3Zm410-26-27-27 27 27c16 15 28 28 28 28s-13-12-28-28Zm82 26c1-1 1-3 2-3v1s-1 1-2 3l-1 2 1-3Zm-457-8 5-9v1l-4 8c-2 5-4 9-4 9h-1l4-9Zm230 5-1-3v-1h1l1 4 2 3c-1 0-2-1-3-3Zm212 0c1-1 1-2 2-2l-1 2c-1 1-1 2-2 2l1-2Zm-220-2c-1 0-1-1-1-2l1 1 1 2v1h-1v-2Zm24-2-1-3v-1h1l1 4 2 3c-1 0-2-1-3-3Zm-230 1c0-1 0-2 1-3l1-1v1s0 1-1 2l-1 2v-1Zm444 0c0-1 1-3 2-4l1-2v1s-1 2-1 3l-2 3v-1Zm8 0c0-1 0-2 1-3l1-1v1s0 1-1 2l-1 2v-1Zm-459-2c0-1 0-2 1-3l1-1v1s0 1-1 2l-1 2v-1Zm228-3c-1 0-1-1-1-2l1 1 1 2v1h-1v-2Zm217 1c0-1 0-2 1-3l1-1v1s0 1-1 2l-1 2v-1Zm-235-3v-1l1 1v2h-1v-2Zm252 0c0-1 1-4 2-6l1-3-1 2c0 2-1 5-2 6l-1 4 1-3Zm-460 0c0-1 0-2 1-3l1-1v1s0 1-1 2l-1 2v-1Zm452 0c0-1 1-3 2-5l1-3v1c0 1-1 3-1 5l-2 3v-1Zm-245-4v-1l1 1v2h-1v-2Zm239 0c0-1 1-4 2-6l1-3-1 2c0 2-1 5-2 6l-1 4 1-3Zm-232-2v-1l1 1v2h-1v-2Zm-219-1c0-1 1-4 2-6l1-3-1 2c0 2-1 5-2 6l-1 4 1-3Zm211-1v-2l1 1v2l-1 2v-3Zm7-3v-1l1 1v2h-1v-2Zm250-1v-1l1 1v2h-1v-2Zm-459-1v-1l1 1v2h-1v-2Zm201 0v-1l1 1v2h-1v-2Zm251-1v-1l1 1v2h-1v-2Zm-244-1v-1l1 1v2h-1v-2Zm237-1v-1l1 1v2h-1v-2Zm15 0v-1l1 1v2h-1v-2Zm-459-1v-1l1 1v2h-1v-2Zm199 0v-2l1 1v2l-1 2v-3Zm15 0v-1l1 1v2h-1v-2Zm116-2v-4l1 2v4l-1 2v-4Zm107 1v-1l1 1v2h-1v-2Zm15 1c0-2 1-4 1-5l1-3v2c0 1-1 4-1 5l-1 3v-2Zm-459-2v-1l1 1v2h-1v-2Zm213-1v-1l1 1v2h-1v-2Zm239 0v-1l1 1v2h-1v-2Zm15 0v-2l1 1v2l-1 2v-3Zm-459-1v-1l1 1v2h-1v-2Zm212 0v-1l1 1v2h-1v-2Zm-197-1v-1l1 1v2h-1v-2Zm182 0v-3l1 1v3l-1 2v-3Zm240 0v-1l1 1v2h-1v-2Zm-444-2v-1l1 1v2h-1v-2Zm226 0v-1l1 1v2h-1v-2Zm226 0v-2l1 1v2l-1 2v-3Zm-437-1v-1l1 1v2h-1v-2Zm196 0v-2l1 1v2l-1 2v-3Zm-203-1v-2l1 1v2l-1 2v-3Zm210 0v-2l1 1v2l-1 2v-3Zm249 0v-2l1 1v2l-1 2v-3Zm-444-1v-3l1 1v3l-1 2v-3Zm422 0v-2l1 1v2l-1 2v-3Zm-242-2v-3l1 1v4l-1 2v-4Zm149-8-11-11h1c1-1 25-1 54-1h52v8l-1-4v-4h-2c0 1-24 1-52 1h-51l11 11 10 11-11-11Zm108 8v-3l1 1v4l-1 2v-4Zm-459 0v-3l1 1v3l-1 2v-3Zm224-1v-1l1 1v2h-1v-2Zm111-5v-7h2l-1 5v8l-1 2v-8Zm117 4v-3l1 1v4l-1 2v-4Zm-437 0v-3l1 1v3l-1 2v-3Zm194-1v-4l1 2v4l-1 2v-4Zm-201-2v-3l1 1v4l-1 2v-4Zm208 0v-3l1 1v4l-1 2v-4Zm229 0v-3l1 1v4l-1 2v-4Zm22 0v-4l1 2v4l-1 2v-4Zm-7-12v-14l1 7v14l-1 7v-14Zm-459 4v-7h1v15h-1v-8Zm22-4v-12l1 6v12l-1 7v-13Zm178 0v-12l1 6v12l-1 7v-13Zm22 5v-5l1 2v6l-1 3v-6Zm230-6v-11l1 5v12l-1 6v-12Zm-437 1v-4l1 2v4l-1 3v-5Zm192 0v-5l1 2v5l-1 3v-5Zm-174 1c0-1-1-2-1-2v-1l1 1c1 2 5 3 6 1 0-1 1-1 1-1h1l-2 1c-2 2-4 2-6 1Zm13-1h2v1h-3l1-1Zm58-1h56l28 1H126l27-1Zm-141-1h24l12 1H0l12-1Zm226 0c0-1 1-5 2-9l1-7-1 7c0 5-1 8-2 9l-1 2 1-2Zm48 0h30l15 1h-60l15-1Zm-237-8v-2l1 1c0 1 0 2-1 2l-1 1 1-2Zm31-3v-6l1 3v6l-1 3v-6Zm-66 3h22l12 1H3l11-1Zm42-2v-3l1 1v4l-1 2v-4Zm215 1v-1l1 1v2h-1v-2Zm5 1h2v1h-3l1-1Zm31 0h42l21 1h-84l21-1Zm82 0-1-1 36-36 36-36 3 3 3 2-3-2-3-2-35 36-36 36h3l4 1h-4c-1 0-3 0-3-1Zm104-3v-4h1v8h-2l1-4Zm22 0v-4l1 2v4l-1 3v-5Zm-258 0v-4l1 2v4l-1 2v-4Zm7 0v-3l1 1v4l-1 2v-4Zm215 2h8l5 1h-17l4-1Zm-132-22-21-21 21 21 22 22-22-22ZM63 668v-2l1 1v2l-1 2v-3Zm-15-2v-3l1 1v3l-1 2v-3Zm202-1v-4l1 2v4l-1 2v-4Zm250 0v-3l1 1v4l-1 2v-4Zm-135-8-9-9 9 9c6 5 10 10 10 10s-5-4-10-10Zm-295 7v-2l1 1v2l-1 2v-3Zm202 0v-1l1 1v2h-1v-2Zm111-47 1-49 3-1h4l-3 1h-4v97l35-34c19-20 35-36 35-36 0-1-3-3-6-6-4-2-7-4-7-5l3 2c1 1 5 3 7 5l5 4-36 35-36 36h-1v-49Zm124 46v-3l1 1v4l-1 2v-4Zm-452-1v-1l1 1v2h-1v-2Zm203-1v-3l1 1v3l-1 2v-3Zm7 0v-2l1 1v2l-1 2v-3Zm227 0v-2l1 1v2l-1 2v-3Zm22 0v-3l1 1v3l-1 2v-3Zm-467-1v-2l1 1v2l-1 2v-3Zm15 0v-1l1 1v2h-1v-2Zm179 0v-3l1 1v3l-1 2v-3Zm-162-1v-3l1 1v3l-1 2v-3Zm420-2c-1-2-1-4-1-5h1l1 4v5h-1v-4Zm-248 1v-3l1 1v3l-1 2v-3Zm22 0v-1l1 1v2h-1v-2Zm-204-1v-1l1 1v2h-1v-2Zm437 0v-2l1 1v2l-1 2v-3Zm-452-1v-1l1 1v2h-1v-2Zm437 0v-1l1 1v2h-1v-2Zm-445-2c-1-2-1-4-1-4h1l1 3v4h-1v-3Zm467 1v-2l1 1v2l-1 2v-3Zm-271-1v-3l1 1v3l-1 2v-3Zm17 0v-1l1 1v2h-1v-2Zm-206-2v-1l1 1v2h-1v-2Zm15 0v-1l1 1v2h-1v-2Zm10 0v-1l1 1v2h-1v-2Zm174 0v-2l1 1v2l-1 2v-3Zm252-5c-1-3-2-6-2-7h1l2 6c1 4 1 7 1 7l-1 1-1-7Zm-237 4v-1l1 1v2h-1v-2Zm245-1v-2l1 1v2l-1 2v-3Zm-252-1v-1l1 1v2h-1v-2Zm237 0v-1l1 1v2h-1v-2Zm-254-1v-1l1 1v2h-1v-2Zm-200-3c0-2-1-4-1-4h1l1 4c1 1 1 3 1 4h-1l-1-4Zm210 3c0-2 1-3 1-4l1-2v1c0 1-1 3-1 4l-1 3v-2Zm266 0h4l2 1h-7l1-1Zm-4-1-1-1h1s1 0 2 1v1s-1 0-2-1Zm12 0h2v1h-3l1-1Zm-266-2v-1l1 1v2h-1v-2Zm250 0c-1-2-1-3-1-4h1v4l1-2 1-2v2l1 2-1-1h-1v2l-1 2v-3Zm22 1h2v1h-3l1-1Zm-289-2v-1l1 1v2h-1v-2Zm93-15-16-17 17 16c9 10 17 18 17 18s-8-8-18-17Zm201 16h2v1h-3l1-1Zm5-1h2v1h-3l1-1Zm5-1h2v1h-3l1-1Zm5-1h2v1h-3l1-1Zm-308-2v-1l1 1v2h-1v-2Zm313 1h2v1h-3l1-1Zm-303-2v-1l1 1v2h-1v-2Zm-214-1c-1 0-1-1-1-2l1 1 1 2v1h-1v-2Zm459-2c-1-2-1-3-1-4h1l1 3c1 2 1 3 1 4h-1l-1-3Zm-7 0c-1 0-1-1-1-2l1 1 1 2v1h-1v-2Zm-213 1c0-1 0-2 1-3l1-1v1s0 1-1 2l-1 2v-1Zm619-1v-2h1v1l-1 1-1 2 1-2Zm-386 0c0-1 1-1 2-2l2-1-2 1c-1 1-1 2-2 2Zm376-2-1-1 1 1c1 1 2 1 2 2-1 0-1-1-2-2Zm-845-7-4-7c1 0 3 3 5 7l3 7v1h-1l-3-8Zm548 7h2v1h-3l1-1Zm-86-4-2-4v-1h1l1 4 2 4v1h-1l-1-4Zm91 3h2v1h-3l1-1Zm-560-4-2-3c1 0 2 1 3 3l1 3v1h-1l-1-4Zm565 3h2v1h-3l1-1Zm-82-1h2v1h-3l1-1Zm87 0h2v1h-3l1-1Zm-554-2c-1 0-1-1-1-2l1 1 1 2v1h-1v-2Zm205 2c0-1 0-2 1-3l1-1v1s0 1-1 2l-1 2v-1Zm230-6-3-5c1 0 2 2 4 5l2 5v1h-1l-2-6Zm9 3c0-1-1-2-1-3l2 2 1 3v1h-1l-1-3Zm-248 1c0-1 0-2 1-3l1-1v1s0 1-1 2l-1 2v-1Zm284-1h2v1h-3l1-1Zm5-1h2v1h-3l1-1Zm5-1h2v1h-3l1-1Zm-283 0c0-1 0-2 1-3l1-1v1s0 1-1 2l-1 2v-1Zm27-3c0-2 1-3 2-3l-1 3c-1 2-2 3-3 3l2-3Zm261 2h2v1h-3l1-1Zm88 0h2v1h-3l1-1Zm-603-2-1-2c1 0 1 1 2 2l1 2c-1 0-1-1-2-2Zm520 1h2v1h-3l1-1Zm88 0h2v1h-3l1-1Zm-584-4-2-3c1 0 2 1 3 3l1 3v1h-1l-1-4Zm194 4c0-1 1-3 2-4l1-2v1s-1 2-1 3l-2 3v-1Zm250-5-2-4c1 0 2 2 3 4l2 4v1h-1l-2-5Zm145 4h2v1h-3l1-1Zm255-61c0-40 0-62 1-62l1-1v53c0 48 0 52 2 54l2 3-3-2-2-2v10l-1 10v-63Zm-250 60h2v1h-3l1-1Zm5-1h2v1h-3l1-1Zm5-1h2v1h-3l1-1Zm-614-2-1-2c1 0 1 1 2 2l1 2c-1 0-1-1-2-2Zm268-1-2-2 2 2c2 1 3 2 3 3-1 0-2-1-3-3Zm177 1-1-2c1 0 1 1 2 2l1 2c-1 0-1-1-2-2Zm-454-1-1-2c1 0 1 1 2 2l1 2c-1 0-1-1-2-2Zm544 1h2v1h-3l1-1Zm5-1h2v1h-3l1-1Zm5-1h2v1h-3l1-1Zm-298-4c2-3 4-6 6-7l2-2 2 2 2 1-2-1-2-1-3 3c-1 1-4 4-5 6l-3 4 3-5Zm303 3h2v1h-3l1-1Zm-553-2-1-2c1 0 1 1 2 2l1 2c-1 0-1-1-2-2Zm646 1h2v1h-3l1-1Zm-664-2-1-1 1 1c1 1 2 1 2 2-1 0-1-1-2-2Zm8-1-2-3c1 0 2 1 3 3l2 3c-1 0-2-1-3-3Zm437 1-1-1 1 1c1 1 2 1 2 2-1 0-1-1-2-2Zm224 1h2v1h-3l1-1Zm-411 0c0-1 1-1 2-2l2-1-2 1c-1 1-1 2-2 2Zm416-1h2v1h-3l1-1Zm-204-2-1-2c1 0 1 1 2 2l1 2c-1 0-1-1-2-2Zm209 1h2v1h-3l1-1Zm5-1h2v1h-3l1-1Zm-673-7c-3-4-9-11-14-16l-9-8 4 3c5 4 18 18 22 23l3 5c-1 0-3-3-6-7Zm430 4-2-2 2 2c2 1 3 2 3 3-1 0-2-1-3-3Zm159 2h2v1h-3l1-1Zm89 0h2v1h-3l1-1Zm-694-3-2-2 2 2c2 1 3 2 3 3-1 0-2-1-3-3Zm26-1-2-4 1 1c1 0 2 2 3 4l2 3c-1 0-2-2-4-4Zm242 1 4-4 1-1-3 4-4 4 2-3Zm342 2h2v1h-3l1-1Zm283 0c0-2 1-4 1-6l1-3v3c0 1-1 4-2 5l-1 3 1-2Zm-278-1h2v1h-3l1-1Zm-607-2-1-2 2 1c1 1 2 2 2 3-1 0-2-1-3-2Zm250 2c0-1 1-1 2-2l2-1-2 1c-1 1-1 2-2 2Zm196-2-1-1 1 1c1 1 2 1 2 2-1 0-1-1-2-2Zm166 1h2v1h-3l1-1ZM5 601l5-6-2-2-1-1 2 1 2 2-5 6c-3 3-6 5-6 5l5-5Zm641 4h2v1h-3l1-1Zm88 0h2v1h-3l1-1Zm-83-1h2v1h-3l1-1Zm88 0h2v1h-3l1-1Zm-257-2-1-1 1 1c1 1 2 1 2 2-1 0-1-1-2-2Zm8-1-2-3c1 0 2 1 3 3l2 3c-1 0-2-1-3-3Zm254 2h2v1h-3l1-1Zm-460-2c1-2 3-3 3-3l-2 3c-1 1-3 2-3 2l2-2Zm465 1h2v1h-3l1-1Zm-284-7-11-11-4-3 3 2c2 1 7 6 12 11l9 8h-1s-4-3-8-7Zm289 6h2v1h-3l1-1Zm-733-6-5-5 5 5 6 6-6-6Zm479 4-1-1 1 1c1 1 2 1 2 2-1 0-1-1-2-2Zm5 1 2-2v2c-1 1-2 1-2 1h-1l1-1Zm254 0h2v1h-3l1-1Zm-716-2-1-1 1 1c1 1 2 1 2 2-1 0-1-1-2-2Zm234 0c0-1 2-2 2-2l-1 2c-1 1-3 2-3 2l2-2Zm25-6c4-4 10-9 12-11l5-3c0 1-3 3-6 5s-8 7-12 10l-7 7 8-8Zm5 7v-1l2-3c1-1 4-4 7-5l4-3-6 5-6 5v2l1 1c-1 0-1 0-2-1Zm169-3-2-3 3 2c2 2 3 4 3 4s-2-1-4-3Zm204 2h2v1h-3l1-1Zm5-1h2v1h-3l1-1Zm-393-5c3-4 8-8 11-10l5-4-2 2c-2 1-6 5-11 10l-8 7 5-5Zm193 3-1-2 2 1c1 1 2 2 2 3-1 0-2-1-3-2Zm9-4-5-6 2 1c1 1 3 4 5 7l3 4s-3-3-5-6Zm9 0c-2-3-6-8-10-12l-6-7 6 6c4 4 8 9 10 12l4 6v1l-4-6Zm187 5h2v1h-3l1-1ZM31 585l-10-10 6 5c3 3 8 7 10 10l5 6-11-11Zm664 10h2v1h-3l1-1Zm-643-2-1-1 1 1c1 1 2 1 2 2-1 0-1-1-2-2Zm227 2s1-2 3-4l4-2-3 3c-2 2-4 3-4 3Zm421-1h2v1h-3l1-1Zm88 0h2v1h-3l1-1Zm5-1h2v1h-3l1-1Zm5-1h2v1h-3l1-1ZM3 589l-3-2 3 2c2 1 3 2 3 3 0 0-2-1-3-3Zm800 2h2v1h-3l1-1ZM40 579l-11-11 8 8c4 4 10 9 11 11l3 4s-5-5-11-12Zm230 12c0-1 1-1 2-2l2-1-2 1c-1 1-1 2-2 2Zm203-9-9-9 5 4c2 2 7 6 9 9l5 5s-5-4-10-9Zm-463 4c-3-2-6-5-8-6l-2-2 6 4c3 2 7 5 8 6l1 2s-3-2-5-4Zm802 1 3-3v1l-2 3-3 3 2-4Zm104-37v-39h2l-1 26v39l-1 14v-40Zm-625 32c3-3 7-7 10-8l4-3-2 1c-1 1-5 5-10 9l-8 7 6-6Zm443 5h2v1h-3l1-1Zm-270-4-3-3 3 3 4 4-4-4Zm275 3h2v1h-3l1-1Zm-456-9c4-5 9-9 9-9l-8 9c-5 5-10 9-10 9l9-9Zm461 8h2v1h-3l1-1Zm5-1h2v1h-3l1-1Zm-312-2-1-1 2 1c1 1 2 1 2 2 0 0-1-1-3-2Zm45-5-6-6 6 6 7 7-7-7Zm-156 6c0-1 1-1 2-2l2-1c0 1-1 1-2 2l-2 1Zm132-5-1-1 1 1c1 1 2 1 2 2-1 0-1-1-2-2Zm-447-1-1-1 1 1c1 1 2 1 2 2-1 0-1-1-2-2Zm432 0-1-1 2 1c1 1 2 1 2 2 0 0-1-1-3-2Zm335 1h2v1h-3l1-1Zm-470 0c0-1 1-1 2-2l2-1-2 1c-1 1-1 2-2 2Zm12 0c0-1 1-1 2-2l2-1c0 1-1 1-2 2l-2 1Zm463-1h2v1h-3l1-1Zm-444-1c1-1 3-2 4-2h1l-3 2c-1 0-3 1-3 1h-1l2-1Zm85 0-1-1h1s1 0 2 1l2 1h-1c-1 0-2 0-3-1Zm27-2c-3-2-5-4-6-5l3 2c2 1 4 2 6 4l3 2h-1s-3-2-5-3Zm337 2h2v1h-3l1-1Zm-353-3-5-3c1 0 11 5 11 6 0 0-3-1-6-3Zm358 2h2v1h-3l1-1Zm-775-2-1-1 1 1c1 1 2 1 2 2-1 0-1-1-2-2Zm307 2c0-1 2-2 5-4l5-2h1v1l-6 2-5 3Zm473-1h2v1h-3l1-1Zm6-1h4l2 1h-8l2-1Zm-489 0c0-1 1-1 2-2l2-1c0 1-1 1-2 2l-2 1Zm33-1h2v1h-3l1-1Zm113-1-1-1 1 1c1 1 2 1 2 2-1 0-1-1-2-2ZM1 571l-1-1h1s1 0 2 1v1s-1 0-2-1Zm13-1-1-1 1 1c1 1 2 1 2 2-1 0-1-1-2-2Zm338 1h2v1h-3l1-1Zm-47-1c1 0 2-1 3-2l2-1c0 1-1 2-3 2l-2 2v-1Zm51 0h2l2 1h-5l1-1Zm51 0h2v1h-3l1-1Zm-46-1h2l2 1h-5l1-1Zm41 0h2l2 1h-5l1-1Zm69-1-1-2 2 1c1 1 2 2 2 3-1 0-2-1-3-2Zm10-2-3-3 3 3 4 4-4-4Zm-159 3c0-1 1-2 3-2l3-2c0 1-1 2-3 3l-3 1Zm45-1h3l2 1h-6l1-1Zm28 0h3l2 1h-6l1-1Zm-370-2-1-2 2 1c1 1 2 2 2 3-1 0-2-1-3-2Zm270 0c0-1 2-2 2-2l-1 2c-1 1-3 2-3 2l2-2Zm172-2-1-1 1 1c1 1 2 1 2 2-1 0-1-1-2-2Zm-153 1c0-1 1-1 2-2l2-1c0 1-1 1-2 2l-2 1Zm16-1c1-1 2-1 3-1h1l-2 1c-1 1-2 1-2 1h-1l1-1Zm19 0h2v1h-3l1-1Zm-51 0c0-1 1-1 2-2l2-1-2 1c-1 1-1 2-2 2Zm56-1h2v1h-3l1-1Zm5-1h2v1h-3l1-1Zm5-1h2l2 1h-5l1-1Zm37 0h2v1h-3l1-1Zm73-1-1-1 1 1c1 1 2 1 2 2-1 0-1-1-2-2Zm-102 0h4l2 1h-7l1-1Zm19 0h4l2 1h-8l2-1Zm-35-5h2v1h-3l1-1Zm53 0h2v1h-3l1-1Zm-48-1h2v1h-3l1-1Zm43 0h2v1h-3l1-1Zm46-1-1-1 2 1c1 1 2 1 2 2 0 0-1-1-3-2Zm-83 0h2l2 1h-5l1-1Zm29 0h3l2 1h-6l1-1Zm-17-1h8l4 1h-16l4-1Zm596-2c1 0 2-2 4-2l2-1-2 2c-2 0-3 2-4 2l-2 1 2-2Zm-630 0h2v1h-3l1-1Zm74 0h2v1h-3l1-1Zm544-3-4-3 4 3c2 2 4 3 4 4l-4-4Zm-552 1h2v1h-3l1-1Zm-54-1h2v1h-3l1-1Zm49 0h2l2 1h-5l1-1Zm31 0-1-1h1s1 0 2 1l2 1h-1c-1 0-2 0-3-1Zm-109-1c1-1 2-1 3-1h1l-2 1c-1 1-2 1-2 1h-1l1-1Zm34 0h3l2 1h-6l1-1Zm37 0h3l2 1h-6l1-1Zm49-2-5-3c1 0 11 5 11 6 0 0-3-1-6-3Zm-73 1h14l8 1h-29l7-1Zm-42-1c1-1 2-1 3-1h1l-2 1c-1 1-2 1-2 1h-1l1-1Zm651 1c0-1 1-1 2-2l2-1c0 1-1 1-2 2l-2 1Zm-28-3-1-1 1 1c1 1 2 1 2 2-1 0-1-1-2-2Zm-615-1h2v1h-3l1-1Zm239 0h6l4 1h-13l3-1Zm-161-1h2v1h-3l1-1Zm148-6v-8h5l-2 1h-2v7l-1 8v-8Zm29 6h8l4 1h-16l4-1Zm18 0h7l4 1h-14l3-1Zm-266-1h2v1h-3l1-1Zm67 0h2v1h-3l1-1Zm22 0-1-1h1s1 0 2 1l2 1h-1c-1 0-2 0-3-1Zm197 0h4l2 1h-7l1-1Zm-282-1h2l2 1h-5l1-1Zm58 0h2l2 1h-5l1-1Zm237 0h4l2 1h-8l2-1Zm-290-1h3l2 1h-6l1-1Zm48 0h2l2 1h-5l1-1Zm26 0c-1-1-6-2-11-4l-8-2h1c2 0 19 5 21 6l2 1h-1c-1 0-3-1-4-1Zm227 0h4l2 1h-8l2-1Zm-295-1h4l2 1h-7l1-1Zm35 0h4l2 1h-8l2-1Zm267 0c1-1 2-1 3-1h2c0 1-2 1-3 1l-3 1 1-1Zm-289-1h12l7 1h-25l6-1Zm570-1-1-1 1 1c1 1 2 1 2 2-1 0-1-1-2-2Zm24 2c0-1 2-1 4-2l3-2c0 1-6 4-7 4Zm-296-2c1 0 2 0 4-1s19-5 20-5v1l-9 2c-5 1-10 3-11 3-1 1-3 1-4 1h-2l2-1Zm328-1c1-1 4-3 5-3l4-2-3 2c-1 1-4 3-5 3l-3 2 2-2Zm-36-1-1-1 1 1c1 1 2 1 2 2-1 0-1-1-2-2Zm-25-1-1-2 2 1c1 1 2 2 2 3-1 0-2-1-3-2Zm37 1c0-1 1-1 2-2l2-1c0 1-1 1-2 2l-2 1Zm-571-2h3l2 1h-6l1-1Zm555-1-1-1 1 1c1 1 2 1 2 2-1 0-1-1-2-2Zm-561 0h3l2 1h-6l1-1Zm535-2-1-2 2 1c1 1 2 2 2 3-1 0-2-1-3-2Zm-926 0h21l11 1H0l10-1Zm948-1-1-1 1 1c1 1 2 1 2 2-1 0-1-1-2-2Zm-863 0h19l-6-2c-12-4-22-10-38-23-22-18-31-26-36-33s-9-14-9-16v-1l3 7c6 12 14 20 41 41 18 14 27 19 42 25l10 3H77l18-1Zm503 0h7l4 1h-14l3-1Zm-386-2v-2l-3-1c-1-1-8-2-14-2-6-1-12-1-12-2h8c15 2 18 2 20 4l3 2-1 2v1h-2l1-2Zm47 1h46l23 1h-92l23-1Zm355 0h8l4 1h-16l4-1Zm-248-1h5l3 1h-10l2-1Zm21 0h5l3 1h-10l2-1Zm246 0h4l3 1h-9l2-1Zm13-1h3l2 1h-6l1-1Zm285-1-1-1 1 1c1 1 2 1 2 2-1 0-1-1-2-2Zm86 2c0-1 1-1 2-2l2-1-2 1c-1 1-1 2-2 2Zm-361-2h3l2 1h-6l1-1Zm8-1h2l2 1h-5l1-1Zm330 1c0-1 2-2 3-3l4-2-1-1v-2h1l1-1 1 1v1l-1 2c-1 1-3 2-5 3l-3 2Zm-216-2h9l5 1h-18l4-1Zm58 0h7l4 1h-14l3-1Zm88-4-5-4 5 4c3 2 5 4 5 5 0 0-3-2-5-5Zm-247 3h2v1h-3l1-1Zm75 0h6l3 1h-11l2-1Zm107 0h4l3 1h-9l2-1Zm86-3c-3-2-6-5-7-6l-1-1 6 5c3 2 6 5 7 5v1s-3-2-5-4Zm-260 1 6-2h1l-1 1c0 1-9 3-11 3l5-2Zm49 1h4l3 1h-9l2-1Zm138 0h4l2 1h-7l1-1Zm12-1h3l2 1h-6l1-1Zm-718-4-14-4v-1h1s2 0 4 1c1 1 8 3 14 5l12 3h-2c-2 0-8-2-15-4Zm514 1h3l2 1h-6l1-1Zm-108-1-1-1 1-4 1-5-1-1-1-1h3v4c-1 2-1 4-1 5v2l3 1 4 1h-3c-2 0-4 0-5-1Zm97 0h3l2 1h-6l1-1Zm-87-1h5l3 1h-10l2-1Zm24 0h5l3 1h-10l2-1Zm16 0h11l6 1h-22l5-1Zm37 0h2l2 1h-5l1-1Zm128 0h13l7 1h-26l6-1Zm38 0h12l6 1h-24l6-1Zm-182-1h6l3 1h-12l3-1Zm114 0h6l3 1h-11l2-1Zm98 0h4l3 1h-9l2-1Zm-116 0 2-2 2-1v1l-1 1h1l2 1h-6Zm130-1h4l2 1h-7l1-1Zm12-1h3l2 1h-6l1-1Zm-173-1h4l2 1h-8l2-1Zm-570-6c-20-10-30-18-55-49-8-10-17-20-19-22-9-10-25-14-32-9-2 1-5 5-6 7l-2 4v-1c0-3 4-9 8-11 5-3 13-3 22 2 8 3 12 8 34 34 11 13 23 26 31 32 4 4 16 11 25 15l8 4h-2l-12-6Zm556 5h3l2 1h-6l1-1Zm239-1-1-1 1 1c1 1 2 1 2 2-1 0-1-1-2-2Zm-246 1v-1h2l3-1-1 1c0 1-1 1-2 1h-2Zm60-1c0-1 1-1 2-2l2-1-2 1c-1 1-1 2-2 2Zm-25-2c1-1 2-1 3-1h1l-2 1c-1 1-2 1-2 1h-1l1-1Zm206-1-1-2 2 1c1 1 2 2 2 3-1 0-2-1-3-2Zm-229 0h2v1h-3l1-1Zm27 0c0-1 1-1 2-2l2-1c0 1-1 1-2 2l-2 1Zm32-7c3-4 7-7 7-7l-6 7c-4 4-8 7-8 7l7-7Zm-50 5c1 0 2-1 3-1h2l-2 1c-2 0-3 1-4 1h-1l2-1Zm290-1c-1 0-1-1-1-2l1 1 1 2v1h-1v-2Zm-432 0h2v1h-3l1-1Zm357-1-1-2 2 1c1 1 2 2 2 3-1 0-2-1-3-2Zm-363 0h2v1h-3l1-1Zm171 1c0-1 1-1 2-2l2-1c0 1-1 1-2 2l-2 1Zm-177-2h2v1h-3l1-1Zm65 0c3 0 9-1 13-1h7c0 1-6 1-13 1l-13 1 6-1Zm100 0c2-1 4-2 5-2h1l-3 2c-2 0-4 1-5 1h-1l3-1Zm-171-1h2v1h-3l1-1Zm56 0h4l2 1h-8l2-1Zm-62-1h2v1h-3l1-1Zm53 0h2v1h-3l1-1Zm48 0h8l4 1h-15l3-1Zm93 1c0-1 1-1 2-2l2-1-2 1c-1 1-1 2-2 2Zm182-2-1-2 2 1c1 1 2 2 2 3-1 0-2-1-3-2Zm77-1c-1-2-1-3-1-4h1l1 3c1 2 1 3 1 4h-1l-1-3Zm-459 1h2v1h-3l1-1Zm52 0h2v1h-3l1-1Zm69 0h6l3 1h-11l2-1Zm-127-1h2v1h-3l1-1Zm51 0h2v1h-3l1-1Zm87 0h3l2 1h-6l1-1Zm-369-2c-1-1-2-3-2-4v-2l1 3c1 3 5 5 8 3 1 0 7-7 13-15 14-17 17-20 20-20h3l-4 1c-3 1-6 4-13 13-19 24-21 26-26 21Zm276 1h2v1h-3l1-1Zm101 0h4l2 1h-7l1-1Zm66-2 3-3h-1v-1h3l-3 4c-2 1-4 3-4 3l2-3Zm-223 1h2v1h-3l1-1Zm49 0h2v1h-3l1-1Zm345-1-1-2 2 1c1 1 2 2 2 3-1 0-2-1-3-2Zm-351 0h2v1h-3l1-1Zm-6-1h2v1h-3l1-1Zm-53-1h2v1h-3l1-1Zm-5-1h2v1h-3l1-1Zm46 0h2v1h-3l1-1Zm361-3c-3-3-6-5-6-6l-1-1 6 4c3 3 6 5 7 6v1l-6-4Zm87 1c-1-2-1-3-1-4h1l1 3c1 2 1 3 1 4h-1l-1-3Zm-454 1h2v1h-3l1-1Zm229-1c1-2 3-3 3-3l-2 3c-1 1-3 2-3 2l2-2Zm119 0-1-1 1 1c1 1 2 1 2 2-1 0-1-1-2-2Zm-354 0h2v1h-3l1-1Zm-234-2s16-20 18-22l1-1-1 1c0 1-4 6-9 12l-9 11v-1Zm223 0h2v1h-3l1-1Zm360-1-1-2 2 1c1 1 2 2 2 3-1 0-2-1-3-2Zm-162 0c1 0 3-1 4-1l3-1-2 1c-1 0-3 1-4 1l-2 1 1-1Zm-251-1h2v1h-3l1-1Zm42 0h2v1h-3l1-1Zm-5-1h2v1h-3l1-1Zm265 1c0-1 1-1 2-2l2-1-2 1c-1 1-1 2-2 2Zm106-3-1-2 2 1c1 1 2 2 2 3-1 0-2-1-3-2Zm-427-1h2v1h-3l1-1Zm283 0c1-1 2-1 3-1h1l-2 1c-1 1-2 1-2 1h-1l1-1Zm163-2-1-1 1 1c1 1 2 1 2 2-1 0-1-1-2-2Zm-464-2h2v1h-3l1-1Zm438-1-1-2 2 1c1 1 2 2 2 3-1 0-2-1-3-2Zm-404 0h2v1h-3l1-1Zm425-1-1-1 1 1c1 1 2 1 2 2-1 0-1-1-2-2Zm-146 1c0-1 1-1 2-2l2-1c0 1-1 1-2 2l-2 1Zm267-4c-1-2-1-3-1-4h1l1 3c1 2 1 3 1 4h-1l-1-3Zm-560 1h2v1h-3l1-1Zm433-3-4-3 4 3c2 2 4 3 4 4l-4-4Zm-17 2c-2-1-1-5 1-7l3-1-2 2c-2 1-2 3-2 4l1 3c-1 0-1 0-1-1Zm-86-3c1-2 2-3 3-3l-2 3c-1 2-2 3-3 3l2-3Zm-27 0c0-1 2-2 2-2l-1 2c-1 1-3 2-3 2l2-2Zm123-4-2-1h1l2 2 1 1-2-2Zm131-1-1-3h1l1 3c1 1 1 2 1 3h-1l-1-3Zm-730 0h4l3 1h-9l2-1Zm27 0h5l3 1h-10l2-1Zm452 0h2v1h-3l1-1Zm27 1c0-1 1-1 2-2l2-1-2 1c-1 1-1 2-2 2Zm-516-2h3l2 1h-6l1-1Zm474 0h4l2 1h-8l2-1Zm-480-1h2l2 1h-5l1-1Zm466 0h4l2 1h-8l2-1Zm-473-1-2-1h1c1 0 3 1 4 1l3 1h-2c-2 0-3-1-4-1Zm460 0h3l2 1h-6l1-1Zm-11-1h3l2 1h-6l1-1Zm-461-3-6-2v-1h1l7 3 8 3h-2c-1 0-4-1-8-3Zm101 2c1 0 3-1 5-1l4-1-2 1c-2 0-4 1-6 1l-3 1 2-1Zm349 0h3l2 1h-6l1-1Zm288-1c-1 0-1-1-1-2l1 1 1 2v1h-1v-2Zm15 0c-1 0-1-1-1-2l1 1 1 2v1h-1v-2Zm-313 0h2l2 1h-5l1-1Zm-10-1h3l2 1h-6l1-1Zm-319-1c1 0 2-1 3-1l2-1 1 1 1 2h-8l1-1Zm12 0h2v1h-3l1-1Zm298 0h2l2 1h-5l1-1Zm97 0h4l2 1h-8l2-1Zm-390-1h2v1h-3l1-1Zm284 0h3l2 1h-6l1-1Zm90 0h4l2 1h-8l2-1Zm-98-1h2l2 1h-5l1-1Zm84 0h4l2 1h-7l1-1Zm39-2 4-4-3 4c-2 1-4 3-4 3l3-3Zm208 0c-1-2-1-3-1-4h1l1 3c1 2 1 3 1 4h-1l-1-3Zm15 0c-1-2-1-3-1-4h1l1 3c1 2 1 3 1 4h-1l-1-3Zm-760 0c-2 0-3-1-3-2l3 2c2 0 3 1 3 2 0 0-2-1-3-2Zm406 1h2l2 1h-5l1-1Zm79 0h3l2 1h-6l1-1Zm-694-2c-1-1-1-5-1-8v-6l1 8c0 4 1 8 0 8v-2Zm339 0 2-2-1-2c-2 0-5-1-9-1h-7v-1c0-1 8-10 17-21l17-21v1l-16 20-17 21h7c10 1 12 3 8 7l-2 2 1-3Zm269 1h2v1h-3l1-1Zm74 0h3l2 1h-6l1-1Zm-82-1h2l2 1h-5l1-1Zm71 0h3l2 1h-6l1-1Zm-78-1h2v1h-3l1-1Zm68 0h3l2 1h-6l1-1Zm-462-3c-3-2-5-4-6-5l4 2c2 1 5 3 6 4l3 2h-1s-3-2-6-3Zm387 2h2v1h-3l1-1Zm66 0h2l2 1h-5l1-1Zm-73-1h2v1h-3l1-1Zm63 0h3l2 1h-6l1-1Zm132-3c2-3 3-5 4-5l-3 5c-2 2-3 4-4 4l3-4Zm-202 2h2l2 1h-5l1-1Zm62 0h2l2 1h-5l1-1Zm-68-1h2v1h-3l1-1Zm59 0h2l2 1h-5l1-1Zm327-1c-1 0-1-1-1-2l1 1 1 2v1h-1v-2Zm15 0c-1 0-1-1-1-2l1 1 1 2v1h-1v-2Zm-670 0-3-1h7c7 1 7 1 25-21 10-12 18-23 19-23l1-1-4 6c-3 3-11 13-19 23-14 17-15 18-19 18-2 0-5-1-7-1Zm263 0h2v1h-3l1-1Zm57 0h2l2 1h-5l1-1Zm-63-1h2v1h-3l1-1Zm56 0h2v1h-3l1-1Zm142 1c0-1 1-1 2-2l2-1-2 1c-1 1-1 2-2 2Zm-462-2h2l2 1h-5l1-1Zm258 0h2v1h-3l1-1Zm54 0h2l2 1h-5l1-1Zm-318-1h2l2 1h-5l1-1Zm258 0h2v1h-3l1-1Zm53 0h2v1h-3l1-1Zm-406-2-1-1 2 1c1 1 2 1 2 2 0 0-1-1-3-2Zm347 1h2v1h-3l1-1Zm52 0h2v1h-3l1-1Zm-313-1h2v1h-3l1-1Zm255 0h2v1h-3l1-1Zm51 0h2l2 1h-5l1-1Zm176-2c1-2 2-3 3-3l-2 3c-1 2-2 3-3 3l2-3Zm-486 1h2v1h-3l1-1Zm304 0h2v1h-3l1-1Zm-56-1h2v1h-3l1-1Zm49 0h2v1h-3l1-1Zm-395-7c-6-5-11-9-13-10l-1-2 4 3c2 2 8 6 13 9l8 6 1 1s-6-3-12-7Zm389 6h2v1h-3l1-1Zm410-5c-1-3-2-5-2-6h1l2 6c1 3 2 5 2 6h-1l-2-6Zm-713 4-2-2v-1l8-1c4-1 13-4 20-7 7-2 12-4 13-4v1l-8 3c-9 3-23 7-28 8l-3 1 2 2 3 1h-1c-1 0-3-1-4-1Zm244-1h2v1h-3l1-1Zm-5-1h2v1h-3l1-1Zm46 0h2v1h-3l1-1Zm444-1c-1 0-1-1-1-2l1 1 1 2v1h-1v-2Zm-450 0h2v1h-3l1-1Zm222 1c0-1 1-1 2-2l2-1-2 1c-1 1-1 2-2 2Zm-228-2h2v1h-3l1-1Zm-11-2h2v1h-3l1-1Zm465-2c-1 0-1-1-1-2l1 1 1 2v1h-1v-2Zm-518 0h2v1h-3l1-1Zm42 0h2v1h-3l1-1Zm-5-1h2v1h-3l1-1Zm285-5c2-3 3-5 4-5l-3 5c-2 2-3 4-4 4l3-4Zm-341 2h2v1h-3l1-1Zm519-2c-1-2-1-3-1-4h1l1 3c1 2 1 3 1 4h-1l-1-3Zm-663-4c11-5 25-14 29-18l4-4 2 1 2 1h-2l-2-1-2 3c-3 4-28 19-35 20l-2 1 6-3Zm126 2h2v1h-3l1-1Zm341-3c2-3 3-5 4-5l-3 5c-2 2-3 4-4 4l3-4Zm-307 2h2v1h-3l1-1Zm-312-3c-6-4-17-14-19-18-1-1-2-4-2-5l-1-2 2 3c3 6 11 15 18 20 4 2 7 4 7 5 0 0-3-2-5-3Zm788 0c-1 0-1-1-1-2l1 1 1 2v1h-1v-2Zm13-4c-1-3-2-5-2-6h1l2 6c1 3 2 5 2 6h-1l-2-6Zm-909 3-5-1v-1s2 0 4 1c1 1 5 2 8 2l5 1h-4c-2 0-6-1-8-2Zm17 1h4l3 1h-9l2-1Zm389 0h2v1h-3l1-1Zm-379-1c2-1 4-2 5-2h1l-3 2c-2 0-4 1-5 1h-1l3-1Zm6-2v-1h2l1-1-1 1c0 1-1 1-1 1h-1Zm860-3c-1-2-1-3-1-4h1l1 3c1 2 1 3 1 4h-1l-1-3Zm-906-1-2-2 2 2c2 0 3 1 3 2-1 0-2-1-3-2Zm50 2c0-1 1-2 3-2l2-2v1c-1 0-2 1-3 2l-2 1Zm697-4c2-3 3-5 4-5l-3 5c-2 2-3 4-4 4l3-4Zm21 1c0-1 1-1 2-2l2-1-2 1c-1 1-1 2-2 2Zm-708-6 6-6 1-1-2 3-6 6-3 4 4-6Zm-68 1-2-3 3 2c2 2 3 4 3 4s-2-1-4-3Zm231 1c-7 0-16-2-22-4l-7-2v-1c1 0 5 1 10 3 13 3 31 5 45 3 6-1 13-1 16-2h5-1c-1 1-7 2-13 2-11 2-24 2-33 1Zm681-1c-1 0-1-1-1-2l1 1 1 2v1h-1v-2Zm15 0c-1 0-1-1-1-2l1 1 1 2v1h-1v-2Zm-145-3c1-2 4-5 6-6l2-2-5 6-6 6 3-4Zm-497-1c3-1 9-3 13-4 6-3 21-6 22-5v1l-6 1c-7 0-8 1-21 5-6 2-12 4-13 4h-2l7-2Zm-289-2-1-1 1 1c1 1 2 1 2 2-1 0-1-1-2-2Zm199-2c-8-3-31-15-33-16l-2-2 14 7c7 4 16 8 20 9 4 2 7 3 7 4h-1s-3-1-5-2Zm146 1-1-1 26-32c14-17 38-47 53-65 14-18 28-35 29-36l3-3-2 2c0 1-19 24-41 52-22 27-47 57-54 66l-13 16 1 1 2 1h-2s-1 0-1-1Zm-350-6c-1-3-2-6-2-7v-1l1 3c1 2 3 5 3 7l2 3h-1s-1-2-3-5Zm774 2c1-2 2-3 3-3l-2 3c-1 2-2 3-3 3l2-3Zm-690 1s0-1 1-1l1-1-1 1v2h-1v-1Zm259-10c8-10 33-41 119-147 61-75 63-78 64-78l-21 26c-11 14-33 41-48 60-16 19-49 60-74 91-26 32-47 57-47 58h-1l8-10Zm598 6c-1-2-2-4-2-5l2 4 2 4v1h-1l-1-4Zm-826-4v-6l1 3v6l-1 3v-6Zm689 1c0-1 2-2 2-2l-1 2c-1 1-3 2-3 2l2-2Zm150-1c-1-2-1-3-1-4h1l1 3c1 2 1 3 1 4h-1l-1-3Zm-865-2c0-2 0-4 1-4v2c0 1 0 2-1 3l-1 2 1-3Zm690 2c0-1 1-1 2-2l2-1-2 1c-1 1-1 2-2 2Zm158-5c-1-2-1-3-1-4h1l1 3c1 2 1 3 1 4h-1l-1-3Zm-940-1v-1l1 1v2h-1v-2Zm815 0c1-2 3-3 3-3l-2 3c-1 1-3 2-3 2l2-2Zm-192 0h6l4 1h-13l3-1Zm332-1c-1 0-1-1-1-2l1 1 1 2v1h-1v-2Zm-341 0h2v1h-3l1-1Zm-521-8v-8l1 4v8l-1 5v-9Zm27 7c1-4 6-8 10-9 2 0 7-1 12-1h10l-11 1c-12 1-15 2-19 7l-3 4 1-2Zm-121-7v-7l1 3v8l-1 4v-8Zm926-4c-2-5-4-9-4-10h1l3 10c2 5 4 9 4 10h-1l-3-10Zm-135 8c0-1 1-1 2-2l2-1-2 1c-1 1-1 2-2 2Zm31 0c0-1 1-1 2-2l2-1-2 1c-1 1-1 2-2 2Zm-662-4-3-1h1c1 0 3 1 4 2l3 1h-1c-1 0-3-1-4-2Zm460 1h3l2 1h-6l1-1Zm10 0h3l2 1h-6l1-1Zm-40-2-1-1 2 1c1 1 2 1 2 2 0 0-1-1-3-2Zm47 1h2v1h-3l1-1Zm20-1c0-1 2-2 2-2l-1 2c-1 1-3 2-3 2l2-2Zm170 1c0-1 2-2 4-3l3-2c0 1-2 2-4 4l-4 2 1-1Zm84-2c-1-2-1-3-1-4h1l1 3c1 2 1 3 1 4h-1l-1-3Zm-115 0c0-1 2-2 2-2l-1 2c-1 1-3 2-3 2l2-2Zm-642 0h2v1h-3l1-1Zm28-2h6l4 1h-13l3-1Zm-7-1h2l2 1h-5l1-1Zm18 0h2l2 1h-5l1-1Zm-22-1h2v1h-3l1-1Zm479 1c0-1 1-1 2-2l2-1-2 1c-1 1-1 2-2 2Zm150-2c0-1 2-2 2-2l-1 2c-1 1-3 2-3 2l2-2Zm-634 0-1-1h1s1 0 2 1l2 1h-1c-1 0-2 0-3-1Zm498-3v-2l1 1c0 1 0 3-1 3l-1 1 1-3Zm245 1c-1 0-1-1-1-2l1 1 1 2v1h-1v-2Zm-908-1v-1l1 1v2h-1v-2Zm204 2v-1h2l1-1-1 1c0 1-1 1-1 1h-1Zm370-3-1-2 2 1c1 1 2 2 2 3-1 0-2-1-3-2Zm-482-1v-1l1 1v2h-1v-2Zm714-3c2-3 5-6 5-6l1-1-2 3c-1 1-3 4-5 6l-3 3 4-5Zm41 3c1-1 3-2 4-2h1l-3 2c-1 0-3 1-3 1h-1l2-1Zm-636 0c0-1 1-1 2-2l2-1-2 1c-1 1-1 2-2 2Zm-210-2c0-1 1-3 2-4l1-2s-1 2-1 4l-2 4v-2Zm579-2-1-2 2 1c1 1 2 2 2 3-1 0-2-1-3-2Zm272 2v-1l6-2c3-1 5-2 6-2v1l-4 1c-3 1-5 2-6 3h-2Zm-704-5-2-3 3 2c2 2 3 4 3 4s-2-1-4-3Zm681 0v-1h1c1 0 2-1 4-3l2-2-1 1-1 2 1 1h1-2l-1-1v1l-2 2-2 1v-1Zm37-1h2v1h-3l1-1Zm62-3c-1-2-2-4-2-5l2 4 2 4v1h-1l-1-4Zm16 2c-1 0-1-1-1-2l1 1 1 2v1h-1v-2Zm-723-1c0-1 2-2 2-2l-1 2c-1 1-3 2-3 2l2-2Zm342 0-1-2 2 1c1 1 2 2 2 3-1 0-2-1-3-2Zm-475-1-1-1 1 1 1 1v1h-1v-2Zm-81-3c1-2 4-5 7-8l5-5-5 6c-3 3-6 7-7 8l-2 3 2-4Zm137 2c0-1-1-2-1-3l-1-1c1 0 2 1 2 3l2 2c-1 0-1-1-2-1Zm740-1h2v1h-3l1-1Zm57-2c-1-2-1-3-1-4h1l1 3c1 2 1 3 1 4h-1l-1-3Zm-861-5-9-9-2-1 3 1c3 2 12 11 14 14l1 2s-4-3-7-7Zm740 3 4-4-3 4c-3 2-5 4-5 4l4-4Zm81 3v-1h-2l-1-1h1c1 0 2 0 3 1v2h-1v-1Zm-342-2-1-1 1 1c1 1 2 1 2 2-1 0-1-1-2-2Zm9 0-1-2 2 1c1 1 2 2 2 3-1 0-2-1-3-2Zm274-1c0-1 2-2 4-3l3-2c0 1-2 2-4 4l-4 2 1-1Zm13-1c1-1 4-2 6-2l3-1-4 1c-2 1-5 2-6 2l-2 1 3-1Zm69-2c-1-2-1-3-1-4h1l1 3c1 2 1 3 1 4h-1l-1-3Zm-784-1c-1 0-1-1-1-2l1 1 1 2v1h-1v-2Zm425 0-1-1 1 1c1 1 2 1 2 2-1 0-1-1-2-2Zm374-1c-1 0-1-1-1-2l1 1 1 2v1h-1v-2Zm-112-1c0-1 2-2 2-2l-1 2c-1 1-3 2-3 2l2-2Zm42 0c1 0 2-1 3-1h2l-2 1c-2 0-3 1-4 1h-1l2-1Zm-17 0c0-1 1-2 3-3l3-1h1v1l-4 1-3 2Zm28-3h2v1h-3l1-1Zm15-3h2l2 1h-5l1-1Zm7-1h2v1h-3l1-1Zm-838-1-2-2h1s2 1 3 2l3 1h-1c-1 0-3-1-4-1Zm166-1v-3l1 1v3l-1 2v-3Zm-202 0c1-1 2-1 3-1h1l-2 1c-1 1-2 1-2 1h-1l1-1Zm6-2c1 0 2-1 4-1h2l-3 1c-1 0-3 1-4 1h-1l2-1Zm22 0-2-1h2c1 0 2 1 4 1l2 1h-2c-1 0-3-1-4-1Zm786 1c0-1 1-2 3-2l3-2c0 1-1 2-3 3l-3 1Zm32 0v-1l7-2c3-1 6-2 7-2v1l-5 1c-3 1-7 2-7 3h-2Zm-830-3h6l3 1H77l3-1Zm92-3v-4l1 2v4l-1 3v-5Zm714 1 1-1h1v1h-2l-1 1 1-1Zm40-1h2v1h-3l1-1Zm4-1h2v1h-3l1-1Zm8-2h2v1h-3l1-1Zm-672-2v-3l1 1v3l-1 2v-3Zm684 0h2v1h-3l1-1Zm-39-5c1 0 18-5 20-5h2l-11 3c-6 2-11 3-11 3v-1Zm53-2c-1 0-1-1-1-2l1 1 1 2v1h-1v-2Zm-379-5v-1l1 1v2h-1v-2Zm349 1h2l2 1h-5l1-1Zm28-1c-1-1-2-2-3-2l-1-1h1c1 0 2 1 3 2l1 2v1h-1v-2Zm-23 0h2v1h-3l1-1Zm6-1h2v1h-3l1-1Zm5-1h3l2 1h-6l1-1Zm-773-2s0-1 1-1l1-1-1 1v2h-1v-1Zm399-1v-2l1 1v2l-1 2v-3Zm8 0v-1l1 1v2h-1v-2Zm-404-4c1-1 2-2 2-3h1l-2 2c0 2-1 3-2 3l1-2Zm403-2v-1l1 1v2h-1v-2Zm-8-1v-2l1 1v2l-1 2v-3Zm-323-4-3-4 4 3c2 3 4 5 4 5s-2-2-5-4Zm-69 3s1-2 3-4l4-2-3 3c-2 2-4 3-4 3Zm399-15v-12l1 6v12l-1 6v-12Zm-8 1v-8l1 4v8l-1 4v-8Zm-380 5c0-1 1-1 2-2l2-1c0 1-1 1-2 2l-2 1Zm47-2-2-2h1s1 1 3 1l2 2h-1s-2-1-3-1Zm-41-2c1-1 2-1 3-1h1l-2 1c-1 1-2 1-2 1h-1l1-1Zm33-1-3-2h1c1 0 3 1 5 1l3 2h-1c-1 0-3-1-5-1Zm-25-2h2v1h-3l1-1Zm4-1h4l2 1h-7l1-1Zm11 0h4l2 1h-7l1-1Zm352-14v-3l1 1v3l-1 2v-3Zm-72-5c2-2 24-29 48-60 25-30 45-55 46-55l-12 15c-53 65-85 105-86 105l4-5Zm80 2v-2l1 1v2l-1 2v-3Zm-7-6v-1l1 1v2h-1v-2Zm8-1v-1l1 1v2h-1v-2Zm-7-5v-1l1 1v2h-1v-2Zm1-5v-1l1 1v2h-1v-2Zm4-102c9-11 21-27 28-34 11-15 14-17 18-15 3 2 4 5 3 8l-1 2 1-3c1-5-4-8-8-6-2 1-15 17-30 35-15 19-27 34-28 34l17-21Zm18-3c2-2 8-10 13-16l9-11h1s1 0 1 1v1h-1l-1-1-10 12c-5 7-11 14-12 15l-3 4 3-5Zm23-9v-1l1 1v2h-1v-2Zm8-1v-1l1 1v2h-1v-2Zm-7-7v-5l1 2v5l-1 3v-5Zm7-9v-1l1 1v2h-1v-2Zm-4-7 2-2 2-1-2 2-2 2v-1Z"/>
  <path fill="#a3a3a3" d="M374 809h3l2 1h-6l1-1Zm11 0h4l2 1h-8l2-1Zm14-1h2v1h-3l1-1Zm-19-6h7l4 1h-14l3-1Zm17-1h2v1h-3l1-1Zm-23-7h2v1h-3l1-1Zm14 0h4l2 1h-7l1-1Zm-22-1h2v1h-3l1-1Zm32 0h2v1h-3l1-1Zm-23-31v-32l1 16v32l-1 16v-32Zm-77 24-1-1 1 1c1 1 2 1 2 2-1 0-1-1-2-2Zm168 2c0-1 1-1 2-2l2-1-2 1c-1 1-1 2-2 2Zm-434-9 6-6-5 6c-4 3-7 6-7 6l6-6Zm271 1-1-1 1 1c1 1 2 1 2 2-1 0-1-1-2-2Zm-281-2c0-1 2-2 2-2l-1 2c-1 1-3 2-3 2l2-2Zm264-2-2-3 3 2c2 2 3 4 3 4s-2-1-4-3Zm6-5-4-5 5 4c3 3 5 6 5 6s-3-2-6-5Zm-277 4c0-1 1-1 2-2l2-1-2 1c-1 1-1 2-2 2Zm284-5-3-4 4 3c2 3 4 5 4 5s-2-2-5-4Zm-268-1c0-1 2-2 2-2l-1 2c-1 1-3 2-3 2l2-2Zm434 0c1-2 3-3 3-3l-2 3c-1 1-3 2-3 2l2-2Zm-157-2-1-1 1 1c1 1 2 1 2 2-1 0-1-1-2-2Zm-281-4c0-1 2-2 2-2l-1 2c-1 1-3 2-3 2l2-2Zm275-1-1-2 2 1c1 1 2 2 2 3-1 0-2-1-3-2Zm147-9-9-9 9 9c6 5 10 10 10 10s-5-4-10-10Zm-429 6c0-1 1-1 2-2l2-1-2 1c-1 1-1 2-2 2Zm434-12-10-10 10 10 11 11-11-11ZM1 751l-1-2 2 1c1 1 2 2 2 3-1 0-2-1-3-2Zm1-10-2-3 3 2c2 2 3 4 3 4s-2-1-4-3Zm381-32v-4l1 2v4l-1 2v-4Zm14-9-12-12s6 5 13 12l11 12s-6-5-12-12Zm-147 0v-1l1 1v2h-1v-2Zm149-9-10-10 10 10 11 11-11-11Zm-16 3v-7l1 3v7l-1 4v-7Zm-335 3v-1l1 1v2h-1v-2Zm459 0v-1l1 1v2h-1v-2Zm-451-2v-1l1 1v2h-1v-2Zm7 0v-1l1 1v2h-1v-2Zm452 0v-1l1 1v2h-1v-2Zm-258-1v-2l1 1v2l-1 2v-3Zm-186-2v-1l1 1v2h-1v-2Zm178-1v-4l1 2v4l-1 2v-4Zm244 1v-1l1 1v2h-1v-2Zm8-2v-3l1 1v3l-1 2v-3Zm-452-6v-5 1c1 0 1 3 1 5l-1 5v-6Zm222 2v-4l1 2v4l-1 2v-4Zm237-5v-8l1 4v8l-1 5v-9Zm-413 1h2v1h-3l1-1Zm108-1h22l12 1h-44l10-1Zm-191-1h24l12 1H0l12-1Zm261 0h2v1h-3l1-1Zm17 0h27l14 1h-54l13-1Zm181-1h14l8 1h-29l7-1Zm-222-5v-4l1 2v4l-1 2v-4Zm252-1v-3l1 1v4l-1 2v-4Zm-421-3v-4l1 2v4l-1 3v-5Zm-66 2h22l12 1H3l11-1Zm57-1v-1l1 1v2h-1v-2Zm169 0v-3l1 1v3l-1 2v-3Zm36 1h2v1h-3l1-1Zm22 0h25l13 1h-50l12-1Zm-41-2v-2l1 1v2l-1 2v-3Zm222 1h8l5 1h-17l4-1Zm14-1v-2l1 1v2l-1 2v-3Zm-437-2v-1l1 1v2h-1v-2Zm459-2v-1l1 1v2h-1v-2Zm-132-37v-37l1 18v38l-1 19v-38Zm124 35v-1l1 1v2h-1v-2Zm-7-1v-1l1 1v2h-1v-2Zm-250-1v-1l1 1v2h-1v-2Zm8-1v-1l1 1v2h-1v-2Zm-17-1v-1l1 1v2h-1v-2Zm1-6v-1l1 1v2h-1v-2Zm96-13-12-13 13 12c7 8 13 14 13 14s-6-6-14-13Zm2-10-15-15s7 7 16 15l14 15-15-15Zm171 14s0-1 1-1l1-1-1 1v2h-1v-1Zm390-26v-5l1 2v6l-1 3v-6Zm-586-2-2-2 2 2c2 1 3 2 3 3-1 0-2-1-3-3Zm151-11-1-1 1 1c1 1 2 1 2 2-1 0-1-1-2-2Zm-446-1-1-1 1 1c1 1 2 1 2 2-1 0-1-1-2-2Zm279 1c0-1 1-1 2-2l2-1-2 1c-1 1-1 2-2 2Zm603-53v-53l1 26v53l-1 27v-53ZM35 600l-1-1 1 1c1 1 2 1 2 2-1 0-1-1-2-2Zm436 0-1-1 1 1c1 1 2 1 2 2-1 0-1-1-2-2Zm-450-5-5-5 5 5 6 6-6-6Zm-13 3c0-1 2-2 2-2l-1 2c-1 1-3 2-3 2l2-2Zm288 0c0-1 2-2 2-2l-1 2c-1 1-3 2-3 2l2-2Zm13-2c1-2 3-3 3-3l-2 3c-1 1-3 2-3 2l2-2Zm166-1-1-2 2 1c1 1 2 2 2 3-1 0-2-1-3-2Zm-450-5-4-5 5 4c3 3 5 6 5 6s-3-2-6-5Zm428 3-1-1 1 1c1 1 2 1 2 2-1 0-1-1-2-2Zm-159-3 4-4-3 4c-3 2-5 4-5 4l4-4Zm10 0c1-2 3-3 3-3l-2 3c-1 1-3 2-3 2l2-2Zm176-2-2-2 2 2c2 1 3 2 3 3-1 0-2-1-3-3Zm-449-3-4-5 5 4c3 3 5 6 5 6s-3-2-6-5Zm428 3-1-1 1 1c1 1 2 1 2 2-1 0-1-1-2-2Zm457-37c0-21 0-39 1-39l1-1-1 26v39l-1 14v-39Zm-627 33 4-4-3 4c-3 2-5 4-5 4l4-4Zm201 2-1-1 1 1c1 1 2 1 2 2-1 0-1-1-2-2Zm-25-1-1-2 2 1c1 1 2 2 2 3-1 0-2-1-3-2Zm-449-4-1-1 1 1c1 1 2 1 2 2-1 0-1-1-2-2Zm21-4-5-6 6 5c3 4 6 7 6 7s-3-3-7-6Zm245 1c3-4 6-6 6-6l-5 6c-3 3-6 5-6 5l5-5Zm20 5c0-1 1-1 2-2l2-1-2 1c-1 1-1 2-2 2Zm169-3-2-3 3 2c2 2 3 4 3 4s-2-1-4-3Zm24 0-1-1 1 1c1 1 2 1 2 2-1 0-1-1-2-2Zm-198-3c0-1 1-1 2-2l2-1-2 1c-1 1-1 2-2 2Zm72-9h2v1h-3l1-1Zm0-23h3l2 1h-6l1-1Zm24 0h2l2 1h-5l1-1Zm187-4h6l4 1h-13l3-1Zm18-1h5l3 1h-10l2-1Zm21 0h4l2 1h-7l1-1Zm18-1h2v1h-3l1-1Zm13-1h2v1h-3l1-1Zm-291-1h2v1h-3l1-1Zm300 0h3l2 1h-6l1-1Zm-293-1h2v1h-3l1-1Zm31 0h2l2 1h-5l1-1Zm-18-1h6l3 1h-11l2-1Zm296 0v-1h2l1-1-1 1c0 1-1 1-1 1h-1Zm18-6h2v1h-3l1-1Zm-126-2v-1l1 1v2h-1v-2Zm370 0-1-1 1 1c1 1 2 1 2 2-1 0-1-1-2-2Zm-856-1h34v1H77l4-1Zm131-1c1-1 0-2-1-3l-1-2 2 1 2 2-1 2v1h-1v-1Zm38 0h29l15 1h-58l14-1Zm362 0h4l3 1h-9l2-1Zm-246-1h5l3 1h-10l2-1Zm21 0h5l3 1h-10l2-1Zm245 0h2v1h-3l1-1Zm14-1h2v1h-3l1-1Zm130-3h4l3 1h-9l2-1Zm65 0h4l2 1h-7l1-1Zm-744-1-1-1 1 1h2v1h-1s-1 0-1-1Zm654 0h3l2 1h-6l1-1Zm111 0h2l2 1h-5l1-1Zm-661-1h2l2 1h-5l1-1Zm532 0h2l2 1h-5l1-1Zm142 0h2v1h-3l1-1Zm-784-2-1-1 2 1c1 1 2 1 2 2 0 0-1-1-3-2Zm95 1h2l2 1h-5l1-1Zm498 0h2v1h-3l1-1Zm202 0h2v1h-3l1-1Zm114-1v-2l1 1v1l1-1 1-1v1s-1 1-1 2l-2 1v-2Zm-312 0c1-1 2-1 3-1h1l-2 1c-1 1-2 1-2 1h-1l1-1Zm-114-3h4l2 1h-7l1-1Zm34-1h4l2 1h-7l1-1Zm10 0h2l2 1h-5l1-1Zm12 0h6l3 1h-11l2-1Zm164 0h8l5 1h-17l4-1Zm28 0h8l4 1h-15l3-1Zm-61-1h3l2 1h-6l1-1Zm93 0h2l2 1h-5l1-1Zm-113-1v-1l2 1h1v1h-3v-1Zm128 0h2v1h-3l1-1Zm12-1h2v1h-3l1-1Zm-803-2-1-1 1 1c1 1 2 1 2 2-1 0-1-1-2-2Zm632 1h2v1h-3l1-1Zm-638-5-1-2 2 1c1 1 2 2 2 3-1 0-2-1-3-2Zm500-1-1-1h1s1 0 2 1v2l-2-2Zm-504-3-1-1 1 1c1 1 2 1 2 2-1 0-1-1-2-2Zm537-2h3l2 1h-6l1-1Zm19 0h2l2 1h-5l1-1Zm18-1h4l2 1h-8l2-1Zm14-1h2v1h-3l1-1Zm12-1h2v1h-3l1-1Zm8-1h2v1h-3l1-1Zm86-1c1-2 3-3 3-3l-2 3c-1 1-3 2-3 2l2-2Zm-644-3-1-1 1 1c1 1 2 1 2 2-1 0-1-1-2-2Zm179-1v-2l1 1v2l-1 2v-3Zm448 1v-2h1v1l-1 1-1 2 1-2Zm-693-3-2-2 2 2c2 1 3 2 3 3-1 0-2-1-3-3Zm259 2c0-1 1-1 2-2l2-1-2 1c-1 1-1 2-2 2Zm-201-5-4-5s3 2 5 5l4 4s-3-2-5-4Zm797 2-1-1 1 1c1 1 2 1 2 2-1 0-1-1-2-2Zm-140 1c0-1 1-1 2-2l2-1-2 1c-1 1-1 2-2 2ZM41 476l-5-5 5 5 6 6-6-6Zm261 3c0-1 1-1 2-2l2-1-2 1c-1 1-1 2-2 2Zm-202-6-3-4 4 3c2 3 4 5 4 5s-2-2-5-4Zm769 0-1-2 2 1c1 1 2 2 2 3-1 0-2-1-3-2Zm-563 1c0-1 1-1 2-2l2-1-2 1c-1 1-1 2-2 2Zm17-1c0-1 1-1 2-2l2-1-2 1c-1 1-1 2-2 2Zm-230-9-2-2 2 2c2 1 3 2 3 3-1 0-2-1-3-3Zm184-3h2v1h-3l1-1Zm32 0h2l2 1h-5l1-1Zm23 1c0-1 1-1 2-2l2-1-2 1c-1 1-1 2-2 2Zm409-2h2v1h-3l1-1Zm-653-2-1-1 1 1c1 1 2 1 2 2-1 0-1-1-2-2Zm639 1h2l2 1h-5l1-1Zm-12-1h2v1h-3l1-1Zm-632-6-1-1 1 1c1 1 2 1 2 2-1 0-1-1-2-2Zm275 0h2v1h-3l1-1Zm13 0h2v1h-3l1-1Zm377 0h2v1h-3l1-1Zm-14-1h2v1h-3l1-1Zm35-1c0-1 2-2 2-2l-1 2c-1 1-3 2-3 2l2-2Zm-691-3-1-2 2 1c1 1 2 2 2 3-1 0-2-1-3-2Zm609 0h2v1h-3l1-1Zm-664-2v-1l1 1v2h-1v-2Zm342 0v-1l1 1v2h-1v-2Zm-292-4-1-2 2 1c1 1 2 2 2 3-1 0-2-1-3-2Zm256 1c1 0 3-1 4-1l2-1-2 1c-1 1-2 2-4 2h-2l2-1Zm31 0h2v1h-3l1-1Zm-38-1h2v1h-3l1-1Zm27 0c0-1 1-1 2-2l2-1-2 1c-1 1-1 2-2 2Zm-13-4c0-1 1-1 2-2l2-1-2 1c-1 1-1 2-2 2Zm17-1c0-1 1-1 2-2l2-1-2 1c-1 1-1 2-2 2Zm-289-5-4-5s3 2 5 5l4 4s-3-2-5-4Zm219 0 1-1h1v1h-2l-1 1 1-1Zm74 0c0-1 1-1 2-2l2-1-2 1c-1 1-1 2-2 2Zm-330-6c0-1 1-1 2-2l2-1-2 1c-1 1-1 2-2 2Zm335 0c0-1 1-1 2-2l2-1-2 1c-1 1-1 2-2 2Zm-176-6-1-1 1 1c1 1 2 1 2 2-1 0-1-1-2-2Zm163 2c0-1 1-1 2-2l2-1-2 1c-1 1-1 2-2 2Zm-314-2h2v1h-3l1-1Zm331 1c0-1 1-1 2-2l2-1-2 1c-1 1-1 2-2 2Zm-13-4c0-1 1-1 2-2l2-1-2 1c-1 1-1 2-2 2Zm-22-1v-1h2l1-1-1 1c0 1-1 1-1 1h-1Zm-257-2h2v1h-3l1-1Zm95-5-1-2 2 1c1 1 2 2 2 3-1 0-2-1-3-2Zm210-4c0-1 1-1 2-2l2-1-2 1c-1 1-1 2-2 2Zm-329-3-1-1 1 1c1 1 2 1 2 2-1 0-1-1-2-2Zm304 1c0-1 1-2 3-2l2-2v1c-1 0-2 1-3 2l-2 1Zm-76-2h4l2 1h-7l1-1Zm26 0h2v1h-3l1-1Zm-145-2-1-2 2 1c1 1 2 2 2 3-1 0-2-1-3-2Zm111 1h2l2 1h-5l1-1Zm42 0h2v1h-3l1-1Zm-194-1c0-1 1-1 2-2l2-1-2 1c-1 1-1 2-2 2Zm213-2h2v1h-3l1-1Zm28 1c0-1 1-1 2-2l1-1-1 1v2h-2Zm477-6c0-1 2-2 2-2l-1 2c-1 1-3 2-3 2l2-2Zm-480-3h2v1h-3l1-1Zm22-3c0-1 1-1 2-2l2-1-2 1c-1 1-1 2-2 2Zm-159-4-6-4c1 0 13 6 13 7 0 0-3-2-7-3Zm177 2c0-1 1-1 2-2l2-1-2 1c-1 1-1 2-2 2Zm-14-3c0-1 1-1 2-2l2-1-2 1c-1 1-1 2-2 2Zm18-2c0-1 1-1 2-2l2-1-2 1c-1 1-1 2-2 2Zm449 0c0-1 1-1 2-2l2-1-2 1c-1 1-1 2-2 2Zm-192-2h2v1h-3l1-1Zm8 0h2l2 1h-5l1-1Zm-536-3v-1l1 1v2h-1v-2Zm-94-1v-2l1 1v2l-1 2v-3Zm369 1c0-1 1-1 2-2l2-1-2 1c-1 1-1 2-2 2Zm-13-4c0-1 1-1 2-2l2-1-2 1c-1 1-1 2-2 2Zm266-1h2v1h-3l1-1Zm8 0h2v1h-3l1-1Zm-503-1 1-1h1v1h-2l-1 1 1-1Zm246 1c0-1 1-1 2-2l2-1-2 1c-1 1-1 2-2 2Zm-373-5v-3l1 1v4l-1 2v-4Zm134 1h2l2 1h-5l1-1Zm46-1h4l2 1h-7l1-1Zm7 0h3l2 1h-6l1-1Zm173 1c0-1 1-1 2-2l2-1-2 1c-1 1-1 2-2 2Zm17-1c0-1 1-1 2-2l2-1-2 1c-1 1-1 2-2 2Zm421-1c0-1 1-1 2-2l2-1-2 1c-1 1-1 2-2 2Zm-434-3c0-1 1-1 2-2l2-1-2 1c-1 1-1 2-2 2Zm439-3c0-1 1-1 2-2l2-1-2 1c-1 1-1 2-2 2Zm7-8c0-1 1-1 2-2l2-1-2 1c-1 1-1 2-2 2Zm-420-1c0-1 1-1 2-2l2-1-2 1c-1 1-1 2-2 2Zm443-1s0-1 1-1l1-1 1 1v1h-1l-1-1v1l-1 2v-2Zm96-2c-1 0-1-1-1-2l1 1 1 2v1h-1v-2Zm-552-1c0-1 1-1 2-2l2-1-2 1c-1 1-1 2-2 2Zm17-1c0-1 1-1 2-2l2-1-2 1c-1 1-1 2-2 2Zm-13-4c0-1 1-1 2-2l2-1-2 1c-1 1-1 2-2 2Zm442-2c0-1 2-2 2-2l-1 2c-1 1-3 2-3 2l2-2Zm-743-4-1-1 1 1c1 1 2 1 2 2-1 0-1-1-2-2Zm310-5c0-1 1-1 2-2l2-1-2 1c-1 1-1 2-2 2Zm17-1c0-1 1-1 2-2l2-1-2 1c-1 1-1 2-2 2Zm-13-4c0-1 1-1 2-2l2-1-2 1c-1 1-1 2-2 2Zm17-1c0-1 1-1 2-2l2-1-2 1c-1 1-1 2-2 2Zm-366-2h6l3 1H77l3-1Zm92-3v-4l1 2v4l-1 3v-5Zm270-10c0-1 1-1 2-2l2-1-2 1c-1 1-1 2-2 2Zm17-1c0-1 1-1 2-2l2-1-2 1c-1 1-1 2-2 2Zm462-2h2v1h-3l1-1Zm39-6-2-1h1c1 0 2 0 3 1v1s-1-1-2-1Zm-510-1c0-1 1-1 2-2l2-1-2 1c-1 1-1 2-2 2Zm22-7c0-1 1-1 2-2l2-1-2 1c-1 1-1 2-2 2Zm-289-3s1-2 3-4l4-2-3 3c-2 2-4 3-4 3Zm293-2c0-1 1-1 2-2l2-1-2 1c-1 1-1 2-2 2Zm98-12v-8l1 4v8l-1 4v-8Zm8-1v-8l1 4v8l-1 5v-9Zm-115 4c0-1 1-1 2-2l2-1-2 1c-1 1-1 2-2 2Zm18-2c0-1 1-1 2-2l2-1-2 1c-1 1-1 2-2 2Zm-273-4h2v1h-3l1-1Zm14 0h2v1h-3l1-1Zm245 1c0-1 1-1 2-2l2-1-2 1c-1 1-1 2-2 2Zm18-2c0-1 1-1 2-2l2-1-2 1c-1 1-1 2-2 2Zm-14-3c0-1 1-1 2-2l2-1-2 1c-1 1-1 2-2 2Zm18-2c0-1 1-1 2-2l2-1-2 1c-1 1-1 2-2 2Zm-9-9c0-1 1-1 2-2l2-1-2 1c-1 1-1 2-2 2Zm4-5c0-1 1-1 2-2l2-1-2 1c-1 1-1 2-2 2Zm17-1c0-1 1-1 2-2l2-1-2 1c-1 1-1 2-2 2Zm-4-15c0-1 1-1 2-2l2-1-2 1c-1 1-1 2-2 2Zm17-1c0-1 1-1 2-2l2-1-2 1c-1 1-1 2-2 2Zm-13-4c0-1 1-1 2-2l2-1-2 1c-1 1-1 2-2 2Zm17-1c0-1 1-1 2-2l2-1-2 1c-1 1-1 2-2 2Zm-8-10c0-1 1-1 2-2l2-1-2 1c-1 1-1 2-2 2Zm17-1c0-1 1-1 2-2l2-1-2 1c-1 1-1 2-2 2Zm-13-4c0-1 1-1 2-2l2-1-2 1c-1 1-1 2-2 2Zm17-1c0-1 1-1 2-2l2-1-2 1c-1 1-1 2-2 2Zm-13-4c0-1 1-1 2-2l2-1-2 1c-1 1-1 2-2 2Zm26-12c0-1 1-1 2-2l2-1-2 1c-1 1-1 2-2 2Zm-13-4c0-1 1-1 2-2l2-1-2 1c-1 1-1 2-2 2Zm17-1c0-1 1-1 2-2l2-1-2 1c-1 1-1 2-2 2Zm-9-9c0-1 1-1 2-2l2-1-2 1c-1 1-1 2-2 2Zm4-5c0-1 1-1 2-2l2-1-2 1c-1 1-1 2-2 2Zm18-2c0-1 1-1 2-2l2-1-2 1c-1 1-1 2-2 2Zm-14-3c0-1 1-1 2-2l2-1-2 1c-1 1-1 2-2 2Zm5-6c0-1 1-1 2-2l2-1-2 1c-1 1-1 2-2 2Zm18-2c0-1 1-1 2-2l2-1-2 1c-1 1-1 2-2 2Zm-14-3c0-1 1-1 2-2l2-1-2 1c-1 1-1 2-2 2Zm18-2c0-1 1-1 2-2l2-1-2 1c-1 1-1 2-2 2Zm4-5c0-1 1-1 2-2l2-1-2 1c-1 1-1 2-2 2Zm-9-9c0-1 1-1 2-2l2-1-2 1c-1 1-1 2-2 2Zm4-5c0-1 1-1 2-2l2-1-2 1c-1 1-1 2-2 2Zm4-5c0-1 1-1 2-2l2-1-2 1c-1 1-1 2-2 2Zm18-2c0-1 1-1 2-2l2-1-2 1c-1 1-1 2-2 2Zm-9-9c0-1 1-1 2-2l2-1-2 1c-1 1-1 2-2 2Zm17-1c0-1 1-1 2-2l2-1-2 1c-1 1-1 2-2 2Zm-13-4c0-1 1-1 2-2l2-1-2 1c-1 1-1 2-2 2Zm17-1c0-1 1-1 2-2l2-1-2 1c-1 1-1 2-2 2Zm-13-4c0-1 1-1 2-2l2-1-2 1c-1 1-1 2-2 2Zm22-7c0-1 1-1 1-2l2-1 1 1v2-1l-1-1-2 1-1 1Zm-13-4c0-1 1-1 2-2l2-1-2 1c-1 1-1 2-2 2Zm4-5c0-1 1-1 2-2l2-1-2 1c-1 1-1 2-2 2Zm20-8v-1l1 1v2h-1v-2Zm-6-6h2v1h-3l1-1Z"/>
  <path fill="#cbcbcb" d="m441 745-1-1 1 1c1 1 2 1 2 2-1 0-1-1-2-2Zm-66-14v-1l1 1v2h-1v-2Zm8-22v-4l1 2v4l-1 2v-4ZM95 682h2v1h-3l1-1Zm230-2h4l2 1h-7l1-1ZM4 672h4l2 1H3l1-1Zm473-1h4l2 1h-8l2-1Zm-124-27-1-1 1 1c1 1 2 1 2 2-1 0-1-1-2-2Zm225-103h2v1h-3l1-1ZM79 526h4l2 1h-8l2-1Zm158-1h2v1h-3l1-1Zm149-1h3l2 1h-6l1-1Zm417-12h2l2 1h-5l1-1Zm17 0h2l2 1h-5l1-1Z"/>
</svg>