<?xml version="1.0" encoding="UTF-8" standalone="no"?>
<svg
   version="1.0"
   width="300"
   height="300"
   viewBox="0 0 225 225"
   preserveAspectRatio="xMidYMid meet"
   id="svg12"
   sodipodi:docname="Equestrian_Jumping_pictogram.svg"
   inkscape:version="1.1 (c68e22c387, 2021-05-23)"
   xmlns:inkscape="http://www.inkscape.org/namespaces/inkscape"
   xmlns:sodipodi="http://sodipodi.sourceforge.net/DTD/sodipodi-0.dtd"
   xmlns="http://www.w3.org/2000/svg"
   xmlns:svg="http://www.w3.org/2000/svg">
  <defs
     id="defs16" />
  <sodipodi:namedview
     id="namedview14"
     pagecolor="#ffffff"
     bordercolor="#666666"
     borderopacity="1.0"
     inkscape:pageshadow="2"
     inkscape:pageopacity="0.0"
     inkscape:pagecheckerboard="0"
     inkscape:document-units="pt"
     showgrid="false"
     fit-margin-top="0"
     fit-margin-left="0"
     fit-margin-right="0"
     fit-margin-bottom="0"
     units="px"
     inkscape:zoom="2.61"
     inkscape:cx="149.80843"
     inkscape:cy="150"
     inkscape:window-width="1920"
     inkscape:window-height="1001"
     inkscape:window-x="-9"
     inkscape:window-y="-9"
     inkscape:window-maximized="1"
     inkscape:current-layer="svg12"
     inkscape:snap-nodes="true"
     inkscape:snap-bbox="false" />
  <metadata
     id="metadata2">
Created by potrace 1.14, written by Peter Selinger 2001-2017
</metadata>
  <path
     id="path843"
     style="fill:#000000;stroke-width:0.855057;stroke-linejoin:bevel;paint-order:markers stroke fill"
     d="M 202.17383 29.341797 C 202.01756 29.343097 201.55281 29.582552 201.125 29.820312 C 199.37491 30.810627 195.83709 33.220855 192.38086 35.826172 C 173.27755 51.187481 162.27528 71.253188 151.62305 92.513672 C 147.14681 104.41087 142.0221 115.84232 136.33008 126.26172 C 120.06621 129.33468 112.61013 130.33832 108.33203 129.72852 C 102.86856 129.22288 103.58991 124.57441 104.14062 120.43359 C 104.76313 115.92038 106.50451 112.01618 109.89648 103.35156 C 110.34648 99.306333 109.16008 94.716267 105.33789 92.585938 C 102.47241 90.770458 98.673789 90.563324 95.662109 92.154297 C 90.090092 94.115416 87.396812 100.01934 86.658203 105.49805 C 85.886891 110.94757 85.502076 116.44343 84.623047 121.87891 C 84.003516 129.04012 83.641772 137.02696 87.837891 143.25391 C 90.722165 147.47343 96.338706 148.29687 101.02148 147.29688 C 110.63984 146.00509 119.76909 143.02041 128.57227 139.16602 C 124.68056 145.0856 120.59633 150.55883 116.27734 155.31055 C 107.77405 164.13147 101.83694 169.97995 95.875 175.04297 C 92.367713 172.2544 88.831685 169.6751 85.783203 167.18164 C 74.50681 158.23539 62.246225 149.74681 48.363281 145.57031 C 36.377445 143.89234 27.388862 160.54306 37.177734 168.76758 C 48.227863 179.47128 63.821321 181.78216 76.191406 189.29297 C 73.59138 190.95586 70.794453 192.71053 67.636719 194.6582 L 64.777344 196.49023 C 59.275325 200.06479 52.372324 204.16705 42.195312 209.87891 C 41.63127 210.21151 38.669831 211.78756 35.679688 213.41016 C 28.439405 217.27121 28.4777 217.26242 28.771484 218.51758 C 29.091972 219.88682 30.35432 222.19997 30.873047 222.35938 C 31.438716 222.54791 42.517214 216.74523 51.720703 211.50195 C 57.025275 208.45502 67.297734 202.11981 71.519531 199.24609 C 75.275374 197.18894 78.586325 195.22355 81.740234 193.25781 C 83.531648 194.77783 85.21151 196.48381 86.742188 198.4375 C 92.804961 211.46969 89.96133 226.32497 90.802734 240.23828 C 90.849734 251.017 90.833432 261.79654 90.664062 272.57422 C 91.413949 271.24007 92.377018 270.0054 92.914062 268.57227 C 105.60636 234.70231 115.58337 201.36806 108.54883 187.79102 C 106.39048 184.62336 103.68526 181.77566 100.77344 179.14844 C 106.60537 174.04571 112.70357 168.06318 120.32617 160.26172 C 120.36667 160.09177 122.13239 157.87239 124.30273 155.31836 C 131.07016 146.83341 135.63412 140.39284 139.50781 133.9082 C 144.93167 131.0876 150.25198 128.05398 155.50391 125.00781 C 157.43383 123.76406 162.90379 121.26698 161.92969 119.71484 C 158.73002 120.09382 150.49979 123.60405 146.18945 124.36523 C 145.608 124.47897 145.13656 124.56778 144.57227 124.67773 C 149.3747 115.11498 154.01371 103.72634 162.16992 85.029297 C 170.45709 68.954265 180.70857 52.770431 193.60547 42.496094 C 198.5359 38.590103 200.90752 37.088759 201.49609 37.435547 C 202.94779 38.244503 262.39187 96.724602 262.39648 97.310547 C 262.40148 98.052718 255.80473 108.72949 253.94727 110.9707 L 252.82617 112.34766 L 244.6875 110.37891 C 240.18655 109.2814 228.48417 106.40375 218.69922 103.98047 C 208.91427 101.55715 200.26393 99.593178 199.44336 99.560547 C 195.84909 99.510627 194.98323 103.66055 198.27539 105.04102 C 199.09816 105.34705 201.76049 106.10754 204.26562 106.75195 C 206.73139 107.35763 208.96466 108.04122 209.24023 108.3125 C 213.27468 123.8978 216.36148 138.31421 221.81445 157.8457 C 222.51728 158.69998 223.76174 158.83639 225.23633 158.24023 C 226.07258 157.89923 227.03824 157.95118 227.01758 156.55859 C 222.74454 140.06745 219.64394 124.11798 216.66602 109.81641 L 223.71875 111.44141 C 236.75315 114.77671 255.61454 119.19899 256.08203 119.03906 C 256.58836 118.83988 269.0939 99.523952 269.90039 97.759766 C 270.13076 97.25012 270.2033 96.428767 270.08203 95.921875 C 269.9215 95.376227 266.06246 91.342868 261.45703 86.886719 C 256.8516 82.430516 241.69507 67.666452 227.75977 54.064453 C 213.82449 40.462468 202.33004 29.34056 202.17383 29.341797 z M 127.28906 41.210938 C 124.01631 41.257338 120.71563 42.028433 117.64062 43.587891 C 114.38855 45.203651 111.48711 47.857337 109.47266 50.966797 C 105.95805 56.526677 105.07731 61.96532 106.72461 68.277344 C 108.42123 74.77835 111.02312 78.255912 116.61914 81.599609 C 119.34566 83.22956 121.01088 83.885497 123.43164 84.34375 C 137.15898 86.978338 149.57738 76.551225 149.46094 62.492188 C 149.45427 59.062474 147.74958 53.613367 145.78711 50.734375 C 141.55417 44.511766 134.48912 41.108856 127.28906 41.210938 z M 258.77734 190.20117 C 251.8502 190.20152 246.23472 195.81699 246.23438 202.74414 C 246.23971 208.43405 250.07303 213.40807 255.57422 214.86133 L 255.57422 223.24023 C 250.07374 224.6933 246.23998 229.6663 246.23438 235.35547 C 246.23837 241.0461 250.07233 246.02117 255.57422 247.47461 L 255.57422 294.01758 C 256.44445 295.2601 257.56466 295.58321 258.57422 295.59961 C 259.55683 295.61561 260.59603 295.32539 261.55078 294.11523 L 261.55078 247.58789 C 267.26511 246.29302 271.32179 241.21468 271.32227 235.35547 C 271.32093 229.57348 267.36743 224.54152 261.75 223.17188 L 261.81836 214.91211 C 267.40299 213.51722 271.32147 208.50033 271.32227 202.74414 C 271.32192 195.81623 265.70525 190.20043 258.77734 190.20117 z M 258.77734 195.63867 C 262.70237 195.63754 265.88479 198.81911 265.88477 202.74414 C 265.88481 206.66917 262.70237 209.85074 258.77734 209.84961 C 254.85309 209.84964 251.67184 206.66839 251.67188 202.74414 C 251.67185 198.8199 254.8531 195.63865 258.77734 195.63867 z M 258.77734 228.25195 C 262.70237 228.25082 265.88481 231.4324 265.88477 235.35742 C 265.88373 239.28169 262.70161 242.46207 258.77734 242.46094 C 254.85386 242.46096 251.67292 239.2809 251.67188 235.35742 C 251.67183 231.43317 254.85309 228.25193 258.77734 228.25195 z "
     transform="scale(0.75)" />
</svg>
