<?xml version="1.0" encoding="UTF-8" standalone="no"?>
<svg
   version="1.0"
   width="300"
   height="300"
   viewBox="0 0 225 225"
   preserveAspectRatio="xMidYMid meet"
   id="svg12"
   sodipodi:docname="Equestrian_Eventing_pictogram.svg"
   inkscape:version="1.1 (c68e22c387, 2021-05-23)"
   xmlns:inkscape="http://www.inkscape.org/namespaces/inkscape"
   xmlns:sodipodi="http://sodipodi.sourceforge.net/DTD/sodipodi-0.dtd"
   xmlns="http://www.w3.org/2000/svg"
   xmlns:svg="http://www.w3.org/2000/svg">
  <defs
     id="defs16" />
  <sodipodi:namedview
     id="namedview14"
     pagecolor="#ffffff"
     bordercolor="#666666"
     borderopacity="1.0"
     inkscape:pageshadow="2"
     inkscape:pageopacity="0.0"
     inkscape:pagecheckerboard="0"
     inkscape:document-units="pt"
     showgrid="false"
     units="px"
     fit-margin-top="0"
     fit-margin-left="0"
     fit-margin-right="0"
     fit-margin-bottom="0"
     inkscape:zoom="1.235"
     inkscape:cx="343.31984"
     inkscape:cy="196.35628"
     inkscape:window-width="1920"
     inkscape:window-height="1001"
     inkscape:window-x="-9"
     inkscape:window-y="-9"
     inkscape:window-maximized="1"
     inkscape:current-layer="svg12"
     inkscape:snap-nodes="false" />
  <metadata
     id="metadata2">
Created by potrace 1.14, written by Peter Selinger 2001-2017
</metadata>
  <path
     id="path851"
     style="fill:#000000;stroke-width:0.299084"
     d="M 98.107422 5.1289062 C 96.754254 5.1578645 95.389098 5.3098305 94.025391 5.5957031 C 90.428603 6.3188618 86.902326 8.1491026 84.121094 10.654297 C 79.233315 15.15663 76.945408 20.229809 76.896484 26.820312 C 76.846098 33.60813 78.474201 37.68551 83.056641 42.416016 C 85.289099 44.72163 86.740869 45.798639 88.982422 46.880859 C 101.6842 53.052955 116.53626 46.137805 120.11133 32.390625 C 121.00443 29.042617 120.77066 23.278851 119.61133 19.955078 C 116.43308 10.814776 107.57959 4.9261982 98.107422 5.1289062 z M 101.14844 54.195312 C 100.22451 54.215634 99.289091 54.365906 98.353516 54.667969 C 94.421272 55.697346 91.137363 58.856899 90.072266 62.796875 C 87.240384 69.283946 90.215949 76.467222 94.416016 81.589844 C 98.563824 86.717286 103.06774 91.545437 107.11523 96.755859 C 114.89632 106.62204 124.31848 116.91903 133.20703 123.89258 C 143.35215 131.80066 154.66194 138.23982 166.13867 144.19336 C 160.73297 149.13225 154.76875 151.32607 147.97852 151.69727 C 145.70787 151.81175 143.02636 151.67384 140.11523 151.35547 C 139.76104 150.88201 139.38715 150.36357 139.03906 149.90234 C 130.12841 138.45426 120.14479 127.21867 107.54492 119.82031 C 99.255445 116.53045 90.210861 123.21808 88.921875 131.11133 C 84.013421 127.2922 80.466291 124.89544 69.908203 115.61914 L 57.384766 106.56055 C 51.611752 103.44256 48.441392 99.307912 37.291016 95.863281 C 36.6614 95.683407 33.479951 94.620709 30.244141 93.570312 C 25.377942 91.951455 23.564698 91.352835 22.716797 91.394531 C 22.208057 91.419558 22.046634 91.676033 21.78125 92.080078 C 21.009262 93.255474 19.516119 97.951621 19.757812 98.4375 C 20.010723 98.977473 32.383846 101.37132 42.019531 106.00195 C 47.234805 109.1993 56.361966 114.41775 60.345703 117.61328 C 69.679592 125.41 79.354781 133.60908 86.738281 139.20703 C 89.25382 141.11423 91.508374 142.7074 93.935547 144.20508 C 103.30751 157.75616 110.87318 161.93645 133.7168 184.58398 C 138.93888 198.09628 135.08383 212.8447 134.99609 226.89258 C 134.31989 237.73496 133.57932 248.5736 132.68555 259.40039 C 133.52916 258.1091 134.58054 256.9325 135.2168 255.52734 C 150.25369 222.31922 162.52403 189.46914 156.36133 175.34375 C 152.82357 169.32603 148.77256 163.32876 144.80078 157.77148 C 151.17745 157.7536 156.74624 156.91084 161.38867 155.1543 C 165.16849 152.9895 168.78941 150.13822 172.17969 147.28516 C 173.33072 147.86646 174.48289 148.44958 175.63281 149.02539 C 178.14787 150.14058 184.24602 153.97892 185.16016 151.98242 C 183.60174 150.12793 179.55016 147.11097 175.82617 144.16992 C 177.44679 142.76946 179.00584 141.42819 180.45898 140.25391 C 194.00925 129.38913 208.46566 118.15797 223.98633 112.13477 C 229.88074 109.93889 232.59965 109.24232 233.05273 109.75391 C 234.18436 110.97098 272.70554 184.92947 272.5293 185.48828 C 272.30603 186.19609 262.73914 194.31749 260.28125 195.87695 L 258.78906 196.8418 L 251.65234 192.45898 C 247.70894 190.02742 237.46374 183.68299 228.90234 178.36133 C 220.34096 173.03965 212.71783 168.50667 211.94727 168.22266 C 208.54344 167.06718 206.44216 170.7461 209.14844 173.07422 C 209.8368 173.61901 212.13388 175.16355 214.31836 176.54883 C 216.47733 177.88513 218.38984 179.22339 218.56836 179.56641 C 218.50623 179.92117 210.42981 186.93421 200.3125 197.01562 C 193.67693 203.543 187.76622 216.68707 187.51562 217.99023 C 187.2971 219.07463 187.97761 220.12768 189.37109 220.89453 C 190.92009 221.74097 193.41026 220.23702 195.21094 215.65039 C 198.4273 207.45783 208.95225 196.25612 219.63867 186.57617 C 220.94546 185.56724 223.99553 184.73191 225.74609 184.30469 L 231.37695 187.00781 C 242.74839 194.19879 259.33019 204.22092 259.82422 204.21289 C 260.36729 204.17956 278.21824 189.65817 279.5293 188.22852 C 279.90555 187.8147 280.22853 187.0547 280.26953 186.53516 C 280.285 185.9666 277.8551 180.94009 274.84766 175.28125 C 271.84023 169.62237 261.97374 150.90528 252.91016 133.66992 C 243.8466 116.43455 236.34041 102.31261 236.19141 102.26562 C 236.04239 102.21863 235.52522 102.30022 235.04492 102.39453 C 233.07478 102.79713 228.96799 104.00106 224.87695 105.41406 C 201.60217 113.28296 187.1984 126.64839 170.93359 140.0293 C 170.67206 139.77729 170.37366 139.5123 170.15039 139.27539 C 150.16638 118.83624 136.24453 103.8024 133.63477 98.25 C 125.40805 83.783345 117.22048 71.363605 111.51562 59.462891 C 108.93266 56.457699 105.15211 54.107254 101.14844 54.195312 z M 8.2832031 189.09375 L 8.3046875 198.17383 L 57.521484 226.23633 L 57.189453 294.87695 L 64.486328 294.87695 L 64.322266 222.42773 L 8.2832031 189.09375 z M 192.01562 276.64453 C 191.92029 276.65481 190.99768 277.53948 189.9668 278.60938 C 187.85626 280.79983 184.26649 283.0981 178.56055 285.91406 C 170.08684 290.09593 169.6509 290.20467 165.45703 289.18945 C 159.62808 287.77843 153.72184 284.51614 147.64258 279.34766 L 145.36133 277.4082 L 142.20117 280.17188 C 138.91088 283.04752 135.68007 285.11223 129.82422 288.08594 C 126.36781 289.84111 126.36777 289.84221 124.38477 289.67578 C 118.10863 289.14891 109.1162 284.44405 103.57227 278.78516 C 101.4796 276.64908 101.37753 276.64908 100.16797 278.78125 C 98.620403 281.50925 93.398172 285.07581 85.761719 288.62109 C 83.737719 289.56077 81.829484 290.59338 81.521484 290.91602 C 80.463503 292.02427 81.082689 293.95598 82.675781 294.51758 C 83.845489 294.92994 84.148104 294.84648 88.291016 292.95898 C 93.009565 290.80924 97.663735 288.15176 100.21289 286.15234 C 101.20909 285.37098 102.09883 284.73242 102.19141 284.73242 C 102.28398 284.73242 103.26964 285.42748 104.38086 286.27734 C 108.2176 289.21169 113.66522 292.05532 117.92188 293.3457 C 120.69592 294.18664 125.34827 294.88053 126.82812 294.67383 C 129.07316 294.36023 139.33567 289.01308 143.04102 286.22656 C 145.72171 284.21062 145.31607 284.22701 147.74023 286.02344 C 154.60818 291.11293 163.03462 294.465 169.28125 294.5918 C 171.53468 294.63753 171.84652 294.56543 174.40039 293.42383 C 180.04628 290.90015 186.50084 287.55242 189.83203 285.41797 L 191.02148 284.65625 L 192.92188 286.19336 C 197.63417 290.00443 204.15496 292.83477 211.48047 294.25 C 215.91508 295.10669 216.15535 295.06737 220.99219 292.70898 C 226.12633 290.20562 230.27771 287.79867 232.56641 285.99805 L 234.25195 284.67188 L 235.71094 285.75 C 238.81242 288.04248 243.01461 290.5409 245.8457 291.77344 C 249.51681 293.37162 252.31495 294.13399 256.05273 294.55273 L 258.95312 294.87695 L 262.26562 293.41406 C 269.33006 290.29317 277.72502 284.93344 279.79297 282.22461 C 281.02406 280.61198 279.72833 278.58203 277.4668 278.58203 C 276.4732 278.58203 276.03958 278.8149 274.55078 280.13867 C 270.30209 283.91638 259.75049 289.76367 257.18359 289.76367 C 255.27378 289.76367 251.35885 288.72007 248.44141 287.43359 C 244.12763 285.53133 241.16243 283.58484 237.18945 280.04883 C 235.20251 278.28043 233.53274 276.88159 233.48047 276.93945 C 233.42815 276.99745 232.91556 277.77664 232.33984 278.66992 C 231.76411 279.56322 230.6092 280.88883 229.77539 281.61719 C 227.88408 283.26933 222.59846 286.41966 218.45703 288.36133 C 215.47664 289.75869 215.2215 289.82589 213.60742 289.66016 C 209.23133 289.21089 201.96415 286.4049 197.94531 283.61133 C 195.52875 281.93153 194.50082 280.7938 193.08008 278.23242 C 192.58973 277.34838 192.11096 276.63386 192.01562 276.64453 z "
     transform="scale(0.75)" />
</svg>
