<?xml version="1.0" encoding="utf-8"?>
<!-- Generator: Adobe Illustrator 24.3.0, SVG Export Plug-In . SVG Version: 6.00 Build 0)  -->
<svg version="1.1" id="Ebene_1" xmlns="http://www.w3.org/2000/svg" xmlns:xlink="http://www.w3.org/1999/xlink" x="0px" y="0px"
	 width="300px" height="300px" viewBox="0 0 300 300" style="enable-background:new 0 0 300 300;" xml:space="preserve">
<style type="text/css">
	.st0{fill:none;stroke:#000000;stroke-width:6;stroke-linecap:round;stroke-miterlimit:10;}
</style>
<g id="Athlete">
	<circle cx="91" cy="54" r="18"/>
	<g>
		<path d="M86.8,141.5c-0.9-1.2-3.1-4.2-6.9-4.9c-3.4-0.6-6.2,0.9-7,1.4c-3.8,2.7-5.6,8.2-6.4,16.6c-0.6,7.1-0.3,13.5-0.1,35.4
			c0.1,28.5-1.3,54.7,2.5,55.5s13.1-47.1,19.7-81C89.1,161.8,92.4,149,86.8,141.5z"/>
		<path d="M96.1,141.5c0.9-1.2,3.1-4.2,6.9-4.9c3.4-0.6,6.2,0.9,7,1.4c3.8,2.7,5.6,8.2,6.4,16.6c0.6,7.1,0.3,13.5,0.1,35.4
			c-0.1,28.5,1.3,54.7-2.5,55.5s-13.1-47.1-19.7-81C93.8,161.8,90.4,149,96.1,141.5z"/>
		<path d="M63.4,91.6c-7.3-1.5-11.9-10.8-13.1-12.8C36.6,55.3,17.3,22,20,20.5c2.6-1.5,15.5,14.8,30.4,31.6
			c11.4,12.9,15,16.5,18.3,21c3.9,5.4,5.7,9.6,4.8,13.2c-0.2,0.7-1.1,3.1-3.4,4.5C67.5,92.5,64.5,91.9,63.4,91.6z"/>
		<path d="M114.1,91.9c7.4,0.5,14.4-7.2,16-8.8c19.5-19,47-45.9,44.8-48.1c-2.1-2.2-18.8,10.1-37.7,22.3
			c-14.5,9.4-18.9,11.9-23.3,15.4c-5.2,4.2-8.1,7.7-8.2,11.5c0,0.7,0.2,3.3,2.1,5.2C109.9,91.7,112.9,91.8,114.1,91.9z"/>
	</g>
</g>
<g id="Horse">
	<g id="Animal">
		<line class="st0" x1="228.9" y1="212.4" x2="228.9" y2="278.7"/>
		<path class="st0" d="M17.7,227.7c93.7,18.4,133.6,1.5,152.2-19.5c15.5-17.6,27.2-50.6,61.9-62.5c6.4-2.2,12.6-3.4,18.1-3.9
			l32.4,85.1l-19.2,12.4l-45.2-35.6"/>
	</g>
	<polyline id="Saddle" class="st0" points="48.3,232.7 48.3,267.6 133.3,267.6 133.3,230 	"/>
</g>
</svg>
