<svg id="a6422114-81d2-4a3c-9d8e-25f94749037b" data-name="Layer 1" xmlns="http://www.w3.org/2000/svg" width="300" height="300" viewBox="0 0 300 300">
  <defs>
    <style>
      .adba57fe-2d3c-4c25-9a01-bc34e38382de {
        fill: none;
        stroke: #000;
        stroke-linecap: round;
        stroke-miterlimit: 10;
        stroke-width: 6px;
      }
    </style>
  </defs>
  <circle cx="222.442" cy="51.928" r="21.5"/>
  <circle class="adba57fe-2d3c-4c25-9a01-bc34e38382de" cx="55.761" cy="230.696" r="20"/>
  <path d="M91.317,268.37c16.877-32.665,35.639-64.323,58.218-93.454A198.558,198.558,0,0,1,175.2,147.788a12.794,12.794,0,0,1,18.04,1.4c4.49,5.175,3.7,12.31-.282,17.294a152.976,152.976,0,0,1-10.579,14.07C171.606,193.66,158,206.913,146.2,219.258c-11.637,12.078-26.107,27.176-38.048,38.846-4.253,4.183-8.942,8.7-13.4,12.669A2.125,2.125,0,0,1,91.317,268.37Z"/>
  <path d="M111.661,173.722c7.306-15.072,16.9-29.736,29.823-40.558,3.009-2.517,7.587-4.64,11.16-6.365,13.644-6.375,25.145,11.43,13.95,21.264-13.756,11.662-25.477,25.225-36.4,39.531C120.318,199.07,103.961,186.674,111.661,173.722Z"/>
  <path d="M176.151,83.621c-17.605,1.529-35.193-.947-52.7-2.623-13.061-1.379-26.5-2.945-39.527-4.852-4.392-.638-8.783-1.248-13.175-2a1.473,1.473,0,0,1,0-2.921c6.321-.823,13.392-1.527,19.763-2.236,14.98-1.466,31.062-2.821,46.115-3.881,13.151-1.041,26.345-1.871,39.527-.894C188.052,65.3,188,82.563,176.151,83.621Z"/>
  <path d="M250.876,86.729c12.076,14.133,27.973,41.751,7.043,55.262-11.271,6.889-24.92,8.278-37.684,9.862-3.519.324-8.652.9-12.153,1.049a1.6,1.6,0,0,1-.8-3.057c3.687-1.615,7.393-3.124,11.06-4.7,9.763-4.435,20.446-8.209,28.721-15.044,1.678-1.525,3.041-3.137,2.423-5.12a30.293,30.293,0,0,0-3.54-7.155c-4.063-6.358-8.621-12.481-12.336-19.141C227.656,87.526,242.633,77.283,250.876,86.729Z"/>
</svg>
