<svg id="a6554567-50cf-4868-93ed-77126fb2afaa" data-name="Ebene 1" xmlns="http://www.w3.org/2000/svg" width="300" height="300" viewBox="0 0 300 300">
  <defs>
    <style>
      .a72de86e-2923-414a-b3a5-c2b967a8170c {
        fill: none;
        stroke: #000;
        stroke-miterlimit: 10;
        stroke-width: 4px;
      }
    </style>
  </defs>
  <path d="M104.5,110.389C88.463,105.105,70.586,92.3,71.367,73.525,72.4,58.774,80.689,46.5,88.387,34.619c2.2-3.282,4.43-6.526,6.785-9.7a1.484,1.484,0,0,1,2.6,1.312C93.689,40.247,87.449,54.78,86.921,69.384c-.2,7.559,4.486,11.63,10.307,15.03,4.978,2.96,10.019,5.308,15.178,8.249C122.452,98.62,115.539,113.894,104.5,110.389Z"/>
  <line class="a72de86e-2923-414a-b3a5-c2b967a8170c" x1="228.219" y1="168.641" x2="300" y2="168.641"/>
  <path d="M217,153.677v11.247c-10.775-2.253-21.853-4.98-31.281-9.191-16.632-7.268-16.128-15.366-26.032-27.8-7.683-8.526-21.28.914-15.841,11.139,1.5,2.724,3.065,5.843,5.312,9.584,12.106,21.519,39.787,24.332,61.854,23.168,1.935-.12,3.951-.271,5.988-.448v12.231a14.964,14.964,0,0,0,0-29.928Z"/>
  <g>
    <path d="M156,63.8v41.269A21.485,21.485,0,0,0,156,63.8Z"/>
    <path d="M150,62.938a21.5,21.5,0,0,0,0,43Z"/>
  </g>
  <path d="M148.856,191.307c-12.213-19.8-52.489-31.342-74.629-33.043a14.469,14.469,0,0,0-13.693,6.66c-3.789,4.578-7.509,9.2-11.3,13.812C32.218,199.238,14.81,220.108,0,242.561v20.284c7.856-7.045,16.031-14.329,24.007-21.185,17.887-16.2,39.045-31.206,52.418-51.645,9.033,2.667,19.44,5.36,27.391,7.486,8.186,2.159,16.506,4.454,23.895,8.11,2.738,4.637-4.112,23.862-5.421,30.455a308.127,308.127,0,0,0-7.757,37.727,2.134,2.134,0,0,0,4.012,1.216c5.409-9.739,13.18-23.417,18.688-32.934C145.4,227.045,158.99,208.715,148.856,191.307Z"/>
</svg>
