<?xml version="1.0" encoding="utf-8"?>
<!-- Generator: Adobe Illustrator 13.0.0, SVG Export Plug-In . SVG Version: 6.00 Build 14948)  -->
<!DOCTYPE svg PUBLIC "-//W3C//DTD SVG 1.1//EN" "http://www.w3.org/Graphics/SVG/1.1/DTD/svg11.dtd">
<svg version="1.1" id="Layer_1" xmlns="http://www.w3.org/2000/svg" xmlns:xlink="http://www.w3.org/1999/xlink" x="0px" y="0px"
	 width="300px" height="300px" viewBox="0 0 300 300" enable-background="new 0 0 300 300" xml:space="preserve">
<g>
	<defs>
		<rect id="SVGID_1_" width="300" height="300"/>
	</defs>
	<clipPath id="SVGID_2_">
		<use xlink:href="#SVGID_1_"  overflow="visible"/>
	</clipPath>
	<g id="surface0" clip-path="url(#SVGID_2_)">
		<path fill="none" stroke="#000000" stroke-width="0.1" stroke-miterlimit="10" d="M151.033,0h7.277
			c8.556,13.551,16.864,27.26,25.395,40.829c1.855-2.449,3.942-4.719,6.332-6.659c-1.753,3.047-3.102,6.333-3.883,9.763
			c0,1.31,0.947,2.33,1.524,3.432c13.347,21.464,26.715,42.917,39.923,64.467c-1.668,0.998-3.329,2.004-4.983,3.02
			c-13.427-20.808-26.083-42.115-39.431-62.976c-2.902,9.088-5.224,18.334-7.459,27.607c-4.361,15.5-7.539,31.382-8.856,47.443
			c-0.874,11.749,0.815,23.684-1.667,35.303c-0.787,3.985-1.846,8.178-4.633,11.274c-3.086,3.354-8.143,2.377-12.152,1.873
			c-3.608-2.266-6.003-6.342-6.439-10.592c-1.149,2.784-2.141,5.752-4.08,8.103c-4.638,5.049-13.908,2.751-16.366-3.44
			c-5.038-11.455-3.013-24.32-1.649-36.332c2.39-14.363,5.727-28.631,10.928-42.252c6.425-14.899,13.589-29.641,23.408-42.636
			c4.223-5.212,8.438-10.456,13.123-15.264c-3.793,8.967-6.354,18.38-9.43,27.602c-4.758,19.546-10.739,38.898-12.679,59.006
			c1.613-8.866,4.35-17.462,7.175-26c2.168-6.009,5.285-11.602,7.959-17.387c5.055-10.898,11.531-21.071,19.055-30.428
			C170.059,30.445,160.529,15.231,151.033,0z"/>
		<path d="M151.033,0h7.277c8.556,13.551,16.864,27.26,25.395,40.829c1.855-2.449,3.942-4.719,6.332-6.659
			c-1.753,3.047-3.102,6.333-3.883,9.763c0,1.31,0.947,2.33,1.524,3.432c13.347,21.464,26.715,42.917,39.923,64.467
			c-1.668,0.998-3.329,2.004-4.983,3.02c-13.427-20.808-26.083-42.115-39.431-62.976c-2.902,9.088-5.224,18.334-7.459,27.607
			c-4.361,15.5-7.539,31.382-8.856,47.443c-0.874,11.749,0.815,23.684-1.667,35.303c-0.787,3.985-1.846,8.178-4.633,11.274
			c-3.086,3.354-8.143,2.377-12.152,1.873c-3.608-2.266-6.003-6.342-6.439-10.592c-1.149,2.784-2.141,5.752-4.08,8.103
			c-4.638,5.049-13.908,2.751-16.366-3.44c-5.038-11.455-3.013-24.32-1.649-36.332c2.39-14.363,5.727-28.631,10.928-42.252
			c6.425-14.899,13.589-29.641,23.408-42.636c4.223-5.212,8.438-10.456,13.123-15.264c-3.793,8.967-6.354,18.38-9.43,27.602
			c-4.758,19.546-10.739,38.898-12.679,59.006c1.613-8.866,4.35-17.462,7.175-26c2.168-6.009,5.285-11.602,7.959-17.387
			c5.055-10.898,11.531-21.071,19.055-30.428C170.059,30.445,160.529,15.231,151.033,0z"/>
		<path fill="none" stroke="#000000" stroke-width="0.1" stroke-miterlimit="10" d="M169.071,0h7.679
			c24.066,35.334,48.428,70.473,72.338,105.909c-1.716,1.051-3.43,2.107-5.149,3.147C218.93,72.741,194.126,36.281,169.071,0z"/>
		<path d="M169.071,0h7.679c24.066,35.334,48.428,70.473,72.338,105.909c-1.716,1.051-3.43,2.107-5.149,3.147
			C218.93,72.741,194.126,36.281,169.071,0z"/>
		<path fill="none" stroke="#000000" stroke-width="0.1" stroke-miterlimit="10" d="M176.521,227.758
			c4.09-0.84,8.32-0.641,12.469-0.42c16.365,1.736,32.393,6.754,46.809,14.698c5.223,3.387,10.624,6.694,14.847,11.344
			c5.081,5.585,10.437,11.081,14.122,17.734c-5.393-1.808-9.258-6.348-14.527-8.407c-8.522-3.686-16.693-8.247-25.611-10.953
			c-9.604-2.947-19.604-4.569-29.623-5.104c-6.927,0.432-14.093,1.361-20.854-0.735c-3.801-1.232-7.484-4.51-6.964-8.871
			C168.165,232.455,172.343,229.328,176.521,227.758z"/>
		<path d="M176.521,227.758c4.09-0.84,8.32-0.641,12.469-0.42c16.365,1.736,32.393,6.754,46.809,14.698
			c5.223,3.387,10.624,6.694,14.847,11.344c5.081,5.585,10.437,11.081,14.122,17.734c-5.393-1.808-9.258-6.348-14.527-8.407
			c-8.522-3.686-16.693-8.247-25.611-10.953c-9.604-2.947-19.604-4.569-29.623-5.104c-6.927,0.432-14.093,1.361-20.854-0.735
			c-3.801-1.232-7.484-4.51-6.964-8.871C168.165,232.455,172.343,229.328,176.521,227.758z"/>
		<path fill="none" stroke="#000000" stroke-width="0.1" stroke-miterlimit="10" d="M70.829,236.605
			c12.625-4.111,25.878-7.253,39.254-6.287c4.41,0.297,9.062,2.055,11.552,5.903c1.868,2.94,2.878,7.038,0.625,10.063
			c-2.792,2.477-6.473,4.292-10.277,4.119c-7.648,0.303-15.151-2.164-22.805-1.512c-9.46,1.205-19.111,2.131-28.051,5.683
			c-5.36,2.146-10.698,4.351-16.061,6.493c-4.772,1.846-8.465,5.987-13.604,6.972c4.493-6.267,9.826-11.862,15.083-17.48
			C53.453,244.131,62.22,240.209,70.829,236.605z"/>
		<path d="M70.829,236.605c12.625-4.111,25.878-7.253,39.254-6.287c4.41,0.297,9.062,2.055,11.552,5.903
			c1.868,2.94,2.878,7.038,0.625,10.063c-2.792,2.477-6.473,4.292-10.277,4.119c-7.648,0.303-15.151-2.164-22.805-1.512
			c-9.46,1.205-19.111,2.131-28.051,5.683c-5.36,2.146-10.698,4.351-16.061,6.493c-4.772,1.846-8.465,5.987-13.604,6.972
			c4.493-6.267,9.826-11.862,15.083-17.48C53.453,244.131,62.22,240.209,70.829,236.605z"/>
		<path fill="none" stroke="#000000" stroke-width="0.1" stroke-miterlimit="10" d="M142.16,249.172
			c11.313-3.586,24.23,4.068,27.232,15.361c2.478,8.521-1.238,18.479-8.859,23.111c-9.318,6.445-23.685,4.271-30.151-5.209
			c-5.427-6.926-5.813-17.368-0.663-24.551C132.843,253.82,137.103,250.402,142.16,249.172z"/>
		<path d="M142.16,249.172c11.313-3.586,24.23,4.068,27.232,15.361c2.478,8.521-1.238,18.479-8.859,23.111
			c-9.318,6.445-23.685,4.271-30.151-5.209c-5.427-6.926-5.813-17.368-0.663-24.551C132.843,253.82,137.103,250.402,142.16,249.172z
			"/>
	</g>
</g>
</svg>
