<svg id="e21a83ac-1b8f-4cb3-9ce4-40f92da1a22c" data-name="Ebene 1" xmlns="http://www.w3.org/2000/svg" width="300" height="300" viewBox="0 0 300 300">
  <defs>
    <style>
      .a827bf63-1abf-407e-a196-b58f8264dc9f, .adbe857f-1f86-4e78-9eba-544667734ed2 {
        stroke: #000;
        stroke-miterlimit: 10;
        stroke-width: 6px;
      }

      .a827bf63-1abf-407e-a196-b58f8264dc9f {
        fill: none;
        stroke-linecap: round;
      }
    </style>
  </defs>
  <g>
    <circle cx="128.07" cy="42.391" r="21.5"/>
    <circle cx="128.07" cy="272.109" r="7"/>
    <path d="M84.384,277.442c-3.155-22.751-3.182-46.045,1.048-68.674,4.34-22.98,13.563-45.978,28.217-64.34A11.854,11.854,0,0,1,130.3,142.5c5.061,3.981,5.474,10.482,2.847,15.817-9.174,21.53-22.327,41.292-29.855,63.566A358.648,358.648,0,0,0,92.1,261c-1.319,5.408-2.457,11.021-3.819,16.434A1.97,1.97,0,0,1,84.384,277.442Z"/>
    <path d="M195.086,278.683c-9.231-7.045-18.308-14.12-27.283-21.511-11.772-10.009-24.359-20.34-30.767-35.258-5.879-13.939-4.917-29.426-2.587-43.991a190.409,190.409,0,0,1,4.751-21.468,12.361,12.361,0,0,1,15.292-8.476c6.276,1.758,9.508,7.818,8.975,13.887.071,11.072-1.956,22.246-3.42,32.809-1.244,9.385-2.282,16.911,1.311,25.419,4.191,9.705,10.747,18.113,16.941,26.871,6.673,9.334,13.524,18.829,19.669,28.883C199.332,277.648,196.868,280.11,195.086,278.683Z"/>
    <path d="M145.906,93.081c-24.525,5.788-70.178,1.862-83.739-22.621-3.773-7.115-3.156-15.783.722-22.686A49.484,49.484,0,0,1,76.047,33.256a1.474,1.474,0,0,1,2.116,2.014,56.9,56.9,0,0,0-7.023,12.2c-3.107,7.882-2.428,15.483,5.319,20.193,19.521,10.671,44.69,4.925,65.93,3.273C156.3,69.983,159.391,89.712,145.906,93.081Z"/>
    <g>
      <path class="adbe857f-1f86-4e78-9eba-544667734ed2" d="M240.121,81.952a10.959,10.959,0,0,1-5.594,7.417,1.875,1.875,0,0,1-2.68-1.194,42.622,42.622,0,0,1-.189-19.255A10.988,10.988,0,0,1,240.121,81.952Z"/>
      <line class="a827bf63-1abf-407e-a196-b58f8264dc9f" x1="231.658" y1="68.92" x2="74.938" y2="35.608"/>
    </g>
  </g>
</svg>
