<?xml version="1.0" encoding="utf-8"?>
<!-- Generator: Adobe Illustrator 24.3.0, SVG Export Plug-In . SVG Version: 6.00 Build 0)  -->
<svg version="1.1" id="Ebene_1" xmlns="http://www.w3.org/2000/svg" xmlns:xlink="http://www.w3.org/1999/xlink" x="0px" y="0px" width="300px" height="300px" 
	 viewBox="0 0 300 300" style="enable-background:new 0 0 300 300;" xml:space="preserve">
<style type="text/css">
	.st0{fill:none;stroke:#000000;stroke-width:6;stroke-miterlimit:10;}
</style>
<path d="M156.1,105.2c-7.4-0.2-13.7,4.6-20.3,7.3c-19.3,7.7-41,8.8-61.1,3.6c-6.4-3.3-12.7-7-18.7-11c0.4-3,1.7-6,1.1-9
	C55.2,82,41,71,26.9,72.3c-5.8,0.2-11.3,3.4-14.6,8.2c-2.9,5.4-2.7,12-0.4,17.6c4.8,10.3,15.7,17.5,27.1,17.2
	c4.9,0.1,9.6-1.9,13.3-4.9c3.8,1.9,7,4.7,10.7,6.8c7.3,3.9,14.4,8.2,21.4,12.5c2.6,1.8,5.6,3.6,8.7,1.8c0-0.8,0.1-2.5,0.1-3.4
	c11,2.4,22.3,2.1,33.5,1.8c5.1-0.5,10-1.7,15.1-2.5c6.6-1.3,13.9-2.6,18.6-7.8C164.7,115.1,162.8,105.7,156.1,105.2z M44.2,108.1
	c-9.4,3.1-20.2-2-25.3-10.1c-2.9-4.3-3.4-10.1-1-14.7c1.9-2.4,4.6-4,7.6-4.6c11.9-2.3,24.6,7.3,25.6,19.4
	C50.9,102.3,48.5,106.7,44.2,108.1z"/>
<path d="M214.1,101.4c5.6-2.3,12-2.6,18-1.8c10.5,2,20.9,5.4,29.6,11.6c5,3.9,9.8,8.7,11.1,15.1c3.1,14.5-2.6,30.2-13.9,39.7
	c-2.8,2-4.9,5.9-8.7,5.7c6.9-9,10.3-20.4,10.3-31.7c0-5.2-2.6-10.3-7-13.1c-10.7-7.3-24.4-6.5-36.2-10.9c-3.7-1.2-6.3-4.3-7.4-7.9
	C208.9,104.9,211.6,102.4,214.1,101.4z"/>
<path d="M206.6,160.9c3.6-7.1,14.8-6.4,18.9-0.3c3.5,4.7,3.9,10.8,4.5,16.5c1,13.4,0.1,27.3,5,40.1c4.2,9.9,13.8,16,23.1,20.5
	c10.7,5.4,22.5,8,33.7,12.2c-2.4,2.9-6.6,1.4-9.8,1.1c-11.4-2.6-22.8-5.1-34.1-7.7c-10.1-2.5-20.6-6.7-26.7-15.6
	c-8.2-15.1-13.8-31.6-16.4-48.6C204.4,173,203.7,166.4,206.6,160.9z"/>
<path d="M184,158.7c4.4-1.5,9.7-2.3,13.8,0.3c2.7,1.5,3.8,4.6,4.8,7.3c1.6,5-1.4,10.1-5.3,13.1c-5.4,4.1-11.5,7.3-17.5,10.7
	c-33.6,19.2-67.9,37.3-101.8,56.2c-5.8,3.3-12,6-18.3,8.1c-0.5-0.4-0.9-0.8-1.4-1.1c2.1-1.1,4.2-2.2,6.1-3.6
	c29.3-23.4,58.7-46.6,88.1-70C162.6,171.9,172.3,163.5,184,158.7z"/>
<circle class="st0" cx="40" cy="144" r="7.5"/>
<circle cx="175" cy="71" r="21.5"/>
</svg>
