<?xml version="1.0" standalone="no"?>
<!DOCTYPE svg PUBLIC "-//W3C//DTD SVG 20010904//EN"
 "http://www.w3.org/TR/2001/REC-SVG-20010904/DTD/svg10.dtd">
<svg version="1.0" xmlns="http://www.w3.org/2000/svg"
 width="240.000000pt" height="240.000000pt" viewBox="0 0 240.000000 240.000000"
 preserveAspectRatio="xMidYMid meet">
<metadata>
Created by potrace 1.14, written by Peter Selinger 2001-2017
</metadata>
<g transform="translate(0.000000,240.000000) scale(0.100000,-0.100000)"
fill="#000000" stroke="none">
<path d="M2108 1990 c-115 -61 -114 -218 2 -278 84 -44 179 -13 221 71 69 135
-86 279 -223 207z"/>
<path d="M637 1870 c-76 -14 -127 -78 -127 -161 0 -160 227 -212 300 -68 25
49 25 92 0 145 -32 65 -97 97 -173 84z"/>
<path d="M1353 1711 c-61 -3 -114 -9 -117 -12 -9 -9 492 -108 585 -115 56 -4
98 -3 122 5 60 20 62 77 4 109 -28 15 -63 17 -257 18 -124 1 -275 -2 -337 -5z"/>
<path d="M2272 1659 c-12 -5 -26 -20 -32 -33 -8 -22 -40 -216 -40 -245 0 -17
-27 -14 -165 19 -155 37 -165 37 -139 9 64 -71 246 -168 315 -169 30 0 43 7
69 37 90 102 122 288 62 356 -25 28 -45 36 -70 26z"/>
<path d="M807 1506 c-20 -8 -44 -19 -52 -26 -21 -17 -19 -64 4 -84 34 -31 75
-35 209 -21 150 16 504 63 547 72 27 6 24 8 -25 14 -55 8 -458 45 -580 53 -40
3 -79 0 -103 -8z"/>
<path d="M423 1476 c-111 -64 -232 -165 -259 -218 -57 -110 40 -177 326 -222
52 -8 95 -14 97 -12 1 1 -34 17 -80 35 -156 63 -231 121 -213 166 3 9 62 42
130 75 102 48 128 64 141 90 14 27 15 37 4 61 -22 55 -77 64 -146 25z"/>
<path d="M1035 1289 c-137 -5 -261 -11 -275 -15 l-25 -7 30 -8 c17 -4 192 -38
390 -74 287 -53 388 -68 496 -72 146 -6 183 0 233 41 28 21 29 25 17 53 -15
38 -69 68 -145 82 -66 12 -341 12 -721 0z"/>
<path d="M1962 1138 c-51 -55 -56 -138 -22 -378 23 -167 83 -540 102 -630 12
-61 28 -88 28 -49 0 14 9 171 21 349 23 362 21 575 -6 650 -27 76 -81 101
-123 58z"/>
<path d="M879 1036 c-97 -26 -161 -84 -143 -132 24 -69 111 -87 284 -60 57 9
105 15 107 12 2 -2 11 -107 20 -232 9 -126 18 -231 20 -233 7 -9 15 14 69 200
49 173 55 202 51 265 -6 114 -47 165 -146 184 -72 13 -205 12 -262 -4z"/>
<path d="M523 970 c-59 -29 -236 -166 -426 -328 l-97 -84 0 -49 0 -49 143 71
c321 161 501 268 530 317 31 55 21 114 -24 137 -40 21 -58 19 -126 -15z"/>
</g>
</svg>
