<?xml version="1.0" encoding="UTF-8" standalone="no"?>
<!-- Created with Inkscape (http://www.inkscape.org/) -->
<svg
   xmlns:svg="http://www.w3.org/2000/svg"
   xmlns="http://www.w3.org/2000/svg"
   version="1.0"
   width="300"
   height="300"
   viewBox="0 0 300 300"
   id="svg2"
   xml:space="preserve"><defs
   id="defs51">
	
	
	
	
	
	
	
	
	
	

		
		
		
		
		
		
		
		
		
	</defs>

<path
   d="M 233.85,51.805 C 233.85,51.805 197.777,136.522 179.625,178.828 C 178.698,181.734 175.502,181.487 173.334,180.141 C 173.157,177.27 174.395,174.675 175.502,172.115 C 162.998,166.145 153.412,155.586 145.494,144.472 C 143.24,143.266 140.687,142.769 138.324,141.823 C 123.946,136.57 111.914,126.369 102.242,114.709 C 97.674,109.386 92.972,103.794 90.879,96.977 C 89.405,92.718 91.39,87.658 95.149,85.298 C 98.16,84.228 101.711,83.816 104.495,85.736 C 113.493,90.568 115.992,101.371 122.554,108.532 C 127.541,113.662 132.556,118.769 137.502,123.942 C 135.995,116.06 135.081,108.038 135.151,100.007 C 135.501,95.572 136.322,90.035 140.729,87.792 C 145.178,84.934 150.908,89.034 152.297,93.539 C 154.36,101.144 153.566,109.117 154.553,116.871 C 155.276,122.327 156.082,127.772 156.777,133.232 C 157.063,134.421 156.869,136.147 158.336,136.608 C 167.629,140.375 177.484,142.484 187.197,144.87 C 199.921,114.957 212.686,85.063 225.434,55.162 C 226.259,53.164 227.828,49.128 227.828,49.128 L 233.85,51.805 z"
   id="path9"
   style="fill:none;stroke:#000000;stroke-width:0.1;stroke-miterlimit:10" /><path
   d="M 227.8125,49.125 C 227.8125,49.125 226.26249,53.158251 225.4375,55.15625 C 212.6895,85.05725 199.91149,114.962 187.1875,144.875 C 177.4745,142.489 167.63675,140.36075 158.34375,136.59375 C 156.87675,136.13275 157.06626,134.40776 156.78125,133.21875 C 156.08625,127.75875 155.28551,122.331 154.5625,116.875 C 153.5755,109.121 154.34425,101.13625 152.28125,93.53125 C 150.89225,89.02625 145.16774,84.92325 140.71875,87.78125 C 136.31175,90.02425 135.50625,95.564996 135.15625,100 C 135.08625,108.031 135.993,116.0555 137.5,123.9375 C 132.554,118.7645 127.5495,113.66125 122.5625,108.53125 C 116.0005,101.37025 113.498,90.582 104.5,85.75 C 101.716,83.83 98.167247,84.242503 95.15625,85.3125 C 91.39725,87.6725 89.401001,92.709753 90.875,96.96875 C 92.968,103.78575 97.682002,109.39575 102.25,114.71875 C 111.922,126.37875 123.93449,136.5595 138.3125,141.8125 C 140.6755,142.7585 143.246,143.26275 145.5,144.46875 C 153.418,155.58275 162.996,166.15499 175.5,172.125 C 174.393,174.685 173.16675,177.28524 173.34375,180.15625 C 175.51175,181.50225 178.698,181.7185 179.625,178.8125 C 197.777,136.5065 233.84374,51.8125 233.84375,51.8125 L 230.78125,50.4375 L 227.8125,49.125 z M 161.0625,147.46875 C 169.16951,149.10776 177.51575,149.2755 185.71875,148.3125 C 182.78076,155.2515 179.76,162.161 176.875,169.125 C 170.668,162.65299 164.9605,155.59875 161.0625,147.46875 z"
   id="path11" /><path
   d="M 127.681,41.948 C 133.296,41.192 139.102,43.009 143.616,46.351 C 148.812,50.26 151.553,56.675 152.15,63.021 C 151.836,69.216 149.321,75.511 144.556,79.621 C 138.764,84.607 130.231,86.38 123.044,83.579 C 112.628,80.081 106.155,67.559 109.806,57.098 C 112.181,49.107 119.426,43.033 127.681,41.948 z"
   id="path13"
   style="fill:none;stroke:#000000;stroke-width:0.1;stroke-miterlimit:10" /><path
   d="M 127.681,41.948 C 133.296,41.192 139.102,43.009 143.616,46.351 C 148.812,50.26 151.553,56.675 152.15,63.021 C 151.836,69.216 149.321,75.511 144.556,79.621 C 138.764,84.607 130.231,86.38 123.044,83.579 C 112.628,80.081 106.155,67.559 109.806,57.098 C 112.181,49.107 119.426,43.033 127.681,41.948 z"
   id="path15" /><path
   d="M 85.116,163.889 C 85.411,159.516 88.239,155.807 91.902,153.596 C 97.33,154.3 101.516,158.233 104.16,162.799 C 108.751,170.74 110.687,179.888 111.797,188.904 C 112.727,198.58 113.012,208.549 110.075,217.937 C 108.156,224.917 102.453,230.379 95.891,233.125 C 90.569,235.356 84.666,234.793 79.048,234.563 C 66.547,233.438 53.302,230.95 43.4,222.684 C 41.65,221.358 39.585,220.225 38.66,218.121 C 44.259,218.901 49.507,221.255 55.127,221.927 C 63.72,223.205 72.566,222.277 80.837,219.695 C 84.803,218.27 88.87,216.299 91.389,212.786 C 93.111,208.62 91.065,204.107 90.7,199.859 C 89.074,187.844 83.599,176.202 85.116,163.889 z"
   id="path19"
   style="fill:none;stroke:#000000;stroke-width:0.1;stroke-miterlimit:10" /><path
   d="M 85.116,163.889 C 85.411,159.516 88.239,155.807 91.902,153.596 C 97.33,154.3 101.516,158.233 104.16,162.799 C 108.751,170.74 110.687,179.888 111.797,188.904 C 112.727,198.58 113.012,208.549 110.075,217.937 C 108.156,224.917 102.453,230.379 95.891,233.125 C 90.569,235.356 84.666,234.793 79.048,234.563 C 66.547,233.438 53.302,230.95 43.4,222.684 C 41.65,221.358 39.585,220.225 38.66,218.121 C 44.259,218.901 49.507,221.255 55.127,221.927 C 63.72,223.205 72.566,222.277 80.837,219.695 C 84.803,218.27 88.87,216.299 91.389,212.786 C 93.111,208.62 91.065,204.107 90.7,199.859 C 89.074,187.844 83.599,176.202 85.116,163.889 z"
   id="path21" /><path
   d="M 107.618,163.932 C 106.736,158.682 111.581,153.274 116.911,153.828 C 125.051,153.87 131.255,160.291 135.494,166.584 C 142.536,177.879 147.501,190.379 151.341,203.088 C 156.179,219.997 151.778,237.568 147.17,253.992 C 143.938,263.645 137.968,272.036 132.05,280.206 C 128.693,284.742 126.241,290.072 121.697,293.617 C 121.673,293.294 121.625,292.645 121.601,292.322 C 125.473,286.962 127.079,280.422 129.679,274.426 C 134.678,259.164 140.049,243.238 137.916,226.949 C 135.904,216.029 133.012,204.805 125.894,195.994 C 118.428,186.299 108.73,176.788 107.618,163.932 z"
   id="path23"
   style="fill:none;stroke:#000000;stroke-width:0.1;stroke-miterlimit:10" /><path
   d="M 107.618,163.932 C 106.736,158.682 111.581,153.274 116.911,153.828 C 125.051,153.87 131.255,160.291 135.494,166.584 C 142.536,177.879 147.501,190.379 151.341,203.088 C 156.179,219.997 151.778,237.568 147.17,253.992 C 143.938,263.645 137.968,272.036 132.05,280.206 C 128.693,284.742 126.241,290.072 121.697,293.617 C 121.673,293.294 121.625,292.645 121.601,292.322 C 125.473,286.962 127.079,280.422 129.679,274.426 C 134.678,259.164 140.049,243.238 137.916,226.949 C 135.904,216.029 133.012,204.805 125.894,195.994 C 118.428,186.299 108.73,176.788 107.618,163.932 z"
   id="path25" /><g
   id="XMLID_1_">
		<g
   id="g28">
			<path
   d="M 247.813,11.486 C 248.631,11.836 249.463,12.2 250.316,12.544 C 255.973,15.29 260.315,19.587 259.223,25.472 C 258.848,28.208 256.567,31.06 254.252,33.019 C 251.903,34.923 248.395,35.374 247.058,38.394 C 244.997,44.12 240.624,50.679 233.738,50.148 C 232.994,50.104 232.288,49.901 231.655,49.641"
   id="path30"
   style="fill:none;stroke:#000000;stroke-width:4.5;stroke-miterlimit:100" />
			<path
   d="M 231.653,49.642 C 231.587,49.614 231.529,49.589 231.463,49.561 L 231.455,49.558 C 230.821,49.278 230.184,48.909 229.639,48.402 C 224.497,43.802 226.205,36.106 228.911,30.655 C 230.166,27.599 228.054,24.751 227.809,21.742 C 227.622,18.717 228.101,15.095 229.817,12.931 C 233.308,8.07 239.416,8.229 245.305,10.409 C 246.152,10.789 246.991,11.138 247.81,11.487"
   id="path32"
   style="fill:none;stroke:#000000;stroke-width:4.5;stroke-miterlimit:100" />
		</g>
	</g><line
   style="fill:none;stroke:#000000;stroke-miterlimit:100"
   id="line34"
   y2="51.681999"
   x2="230.688"
   y1="9.448"
   x1="248.69701"
   stroke-miterlimit="100" /><line
   style="fill:none;stroke:#000000;stroke-miterlimit:100"
   id="line36"
   y2="42.633999"
   x2="225.799"
   y1="9.217"
   x1="240.048"
   stroke-miterlimit="100" /><line
   style="fill:none;stroke:#000000;stroke-miterlimit:100"
   id="line38"
   y2="48.412998"
   x2="240.84"
   y1="15.579"
   x1="254.841"
   stroke-miterlimit="100" /><polyline
   style="fill:#ffffff;stroke:#000000;stroke-miterlimit:100"
   id="polyline40"
   points="248.41,36.395 239.024,32.392 229.381,28.278  "
   stroke-miterlimit="100" /><polyline
   style="fill:#ffffff;stroke:#000000;stroke-miterlimit:100"
   id="polyline42"
   points="256.513,31.099 242.183,24.987 227.71,18.814  "
   stroke-miterlimit="100" /><polyline
   style="fill:#ffffff;stroke:#000000;stroke-miterlimit:100"
   id="polyline44"
   points="244.619,43.529 235.866,39.796 226.798,35.928  "
   stroke-miterlimit="100" /><polyline
   style="fill:#ffffff;stroke:#000000;stroke-miterlimit:100"
   id="polyline46"
   points="238.414,49.635 232.707,47.201 226.342,44.485  "
   stroke-miterlimit="100" /><polyline
   style="fill:#ffffff;stroke:#000000;stroke-miterlimit:100"
   id="polyline48"
   points="259.671,23.694 245.341,17.582 230.869,11.409  "
   stroke-miterlimit="100" />
</svg>