<?xml version="1.0" encoding="UTF-8" standalone="no"?>
<!-- Generator: Adobe Illustrator 14.0.0, SVG Export Plug-In . SVG Version: 6.00 Build 43363)  -->

<svg
   version="1.1"
   id="Layer_1"
   x="0px"
   y="0px"
   width="300px"
   height="300px"
   viewBox="0 0 300 300"
   enable-background="new 0 0 300 300"
   xml:space="preserve"
   sodipodi:docname="Nordic combined pictogram.svg"
   inkscape:version="1.1 (c68e22c387, 2021-05-23)"
   xmlns:inkscape="http://www.inkscape.org/namespaces/inkscape"
   xmlns:sodipodi="http://sodipodi.sourceforge.net/DTD/sodipodi-0.dtd"
   xmlns:xlink="http://www.w3.org/1999/xlink"
   xmlns="http://www.w3.org/2000/svg"
   xmlns:svg="http://www.w3.org/2000/svg"><defs
   id="defs15"><clipPath
     id="SVGID_2_"><use
       xlink:href="#SVGID_1_"
       overflow="visible"
       id="use5"
       x="0"
       y="0"
       width="100%"
       height="100%" /></clipPath><rect
     id="SVGID_1_"
     width="300"
     height="300"
     x="0"
     y="0" /><defs
     id="defs3"><rect
       id="rect1402"
       width="300"
       height="300"
       x="0"
       y="0" /></defs><clipPath
     id="clipPath869"><use
       xlink:href="#SVGID_1_"
       overflow="visible"
       id="use867"
       x="0"
       y="0"
       width="100%"
       height="100%" /></clipPath></defs><sodipodi:namedview
   id="namedview13"
   pagecolor="#ffffff"
   bordercolor="#666666"
   borderopacity="1.0"
   inkscape:pageshadow="2"
   inkscape:pageopacity="0.0"
   inkscape:pagecheckerboard="0"
   showgrid="false"
   inkscape:zoom="1.4142136"
   inkscape:cx="74.953319"
   inkscape:cy="162.98811"
   inkscape:window-width="1920"
   inkscape:window-height="1001"
   inkscape:window-x="-9"
   inkscape:window-y="-9"
   inkscape:window-maximized="1"
   inkscape:current-layer="Layer_1" />





<path
   id="path1602"
   style="stroke-width:0.762431"
   d="M 151.32422 5.125 A 16.450001 16.450001 0 0 0 134.875 21.574219 A 16.450001 16.450001 0 0 0 151.32422 38.025391 A 16.450001 16.450001 0 0 0 167.77539 21.574219 A 16.450001 16.450001 0 0 0 151.32422 5.125 z M 126.21094 30.320312 C 115.69653 32.046785 109.76093 41.826035 102.7168 48.746094 C 92.719327 59.380982 83.27887 70.519484 73.505859 81.357422 C 93.013099 71.358225 111.52465 59.362783 128.75 45.833984 C 133.55079 41.550624 134.93268 30.717993 126.21094 30.320312 z M 186.33008 65.953125 C 185.28672 65.921507 184.49177 66.309018 183.80664 67.033203 C 183.04999 73.826217 177.65392 76.399728 172.46875 79.1875 C 107.95337 113.04858 43.511681 147.05306 -21.058594 180.80664 C -20.453224 182.27127 -19.74243 183.68684 -18.960938 185.06836 C 46.211659 150.90383 111.36723 116.70707 176.53906 82.541016 C 182.61643 79.663226 190.31551 72.599414 187.46094 66.126953 C 187.05261 66.019943 186.67786 65.963664 186.33008 65.953125 z M 95.802734 72.287109 C 95.441829 72.299083 95.068412 72.323 94.681641 72.361328 C 78.518216 77.916867 71.167641 94.736731 59.935547 106.25977 C 48.285652 120.62746 37.192578 135.43472 26.208984 150.31445 C 51.304113 131.05906 77.875764 113.20022 99.630859 90.070312 C 105.8671 83.91414 106.9908 71.915922 95.802734 72.287109 z M 214.0293 113.06641 A 16.450001 16.450001 0 0 0 197.58008 129.51758 A 16.450001 16.450001 0 0 0 214.0293 145.9668 A 16.450001 16.450001 0 0 0 230.48047 129.51758 A 16.450001 16.450001 0 0 0 214.0293 113.06641 z M 175.56641 136.52344 C 151.24841 139.27639 140.84005 150.08167 127.75195 166.32227 C 127.44671 166.79869 126.79286 167.74887 126.04297 168.87109 L 69.935547 142.92578 L 64.96875 145.92383 L 123.46289 172.97266 C 122.49903 174.65877 121.81605 176.15749 122.03125 176.77539 C 123.00727 175.74257 124.03039 174.72705 125.07812 173.7207 L 133.84375 177.77344 L 135.86133 173.41211 L 128.95117 170.2168 C 141.93094 159.08749 158.87121 150.72229 174.26953 152.04688 C 179.25699 152.42926 185.28464 151.94436 188.42578 147.49023 C 191.058 138.91851 181.54084 136.50769 175.56641 136.52344 z M 285.12109 138.33789 L 280.44141 139.42773 L 283.21289 151.32227 C 265.79342 157.55801 252.8262 158.35942 237.59375 151.4082 C 228.15005 146.1667 215.44009 152.59188 224.07422 161.16406 C 240.99874 174.96952 269.3295 165.31978 283.97266 154.58398 L 318.70508 303.69922 L 323.38672 302.60938 L 288.1582 151.38086 C 289.16567 150.43689 290.03165 149.30198 289.60352 148.89062 C 288.973 149.14513 288.36669 149.37471 287.74805 149.61719 L 285.12109 138.33789 z M 175.93555 193.69531 C 172.54256 193.75725 169.57631 195.27103 167.84766 199.63672 C 165.71056 204.95696 168.13986 211.00722 172.30273 214.60742 C 155.06769 238.32406 138.899 263.25932 124.3125 286.18359 C 148.2909 264.4374 170.69476 247.32433 190.10352 225.54883 C 194.90836 228.64582 200.21434 230.8581 205.05273 233.89258 C 206.97863 235.04233 207.34945 237.50341 207.24805 239.55664 C 204.6442 256.13184 201.1368 271.90557 199.05273 287.42188 C 208.67315 273.86131 215.11223 257.99789 221.29102 243.98047 C 228.19935 220.74814 217.39851 219.72645 202.87891 206.81445 C 202.86071 203.75344 202.4136 201.22527 200.09375 199.33594 C 197.01134 196.468 192.90786 197.21216 189.4082 197.67383 C 185.36526 195.93547 180.29796 193.61568 175.93555 193.69531 z M 277.0332 283.6875 C 276.73329 283.68665 276.44058 283.72889 276.1582 283.82031 C 272.32935 289.48225 266.35555 289.24993 260.46875 289.30664 C 252.37887 289.30364 247.14048 289.3115 239.75195 289.3125 C 240.92669 288.05327 241.69032 286.53131 241.81445 284.7168 C 240.55401 284.0791 239.27203 283.65111 238.1582 283.82031 C 234.32935 289.48225 228.35555 289.23431 222.46875 289.29102 L 73.820312 289.29102 L 73.820312 294.0957 L 262.51172 294.0957 C 269.23025 294.37421 279.33166 291.77429 279.81445 284.7168 C 278.89476 284.08269 277.93295 283.69005 277.0332 283.6875 z " /></svg>
