<?xml version="1.0" encoding="utf-8"?>
<!-- Generator: Adobe Illustrator 24.3.0, SVG Export Plug-In . SVG Version: 6.00 Build 0)  -->
<svg version="1.1" id="Layer_1" xmlns="http://www.w3.org/2000/svg" xmlns:xlink="http://www.w3.org/1999/xlink" x="0px" y="0px"
	 width="300px" height="300px" viewBox="0 0 300 300" style="enable-background:new 0 0 300 300;" xml:space="preserve">
<style type="text/css">
	.st0{display:none;fill:#00B900;}
	.st1{fill:none;stroke:#000000;stroke-width:6;stroke-miterlimit:10;}
	.st2{fill:none;stroke:#000000;stroke-width:6;stroke-linecap:round;stroke-miterlimit:10;}
</style>
<path class="st0" d="M274.2,154.7c-6.2-2.1-12-5.7-16.1-10.7c-4.5-5.8-4-13.5-5.6-20.3c-1.5-6.5-10.7-9.6-15.5-4.7
	c-3.8,2.5-2.8,7.5-2.1,11.3c2.9,10.7,10.1,19.8,18.8,26.3c-53.8-0.3-107.7,0.2-161.5-0.2c0-2.1,0.1-4.2,0.1-6.2
	c15.3-1.4,30.5-3,45.7-4.6c1.9,0,2.9-1.6,3.7-3c-0.4-0.7-1.3-2.2-1.8-2.9c-6.4,0-12.6,1.2-19,1.5c5.4-10,15.6-16.1,25.9-19.9
	c4.9-1.7,10-2.9,15.2-2.6c7.2,0.1,14.7,2.1,21.6-0.8c3.6-1.5,7-6.6,3.9-10.1c-3.4-5-9.9-5.8-15.5-6c-12.5,0-25.1,3.2-36,9.5
	c-11.2,6-17.2,18.5-19.2,30.5c-8.6,0.9-17.3,1.7-25.9,2.7c-2.4-3.4-5-8.4-9.9-7.8c-15.4,0-30.8,0-46.1,0c-4.6-0.5-7.5,3.8-10,7
	c-2.8,3.6-2.1,8.3-2.2,12.6c0.1,5.1-0.3,10.2,0.2,15.3c1.1,3.9,3.9,7.1,7,9.7c2.3,2.1,5.5,1.3,8.4,1.5c0,9.3,0,18.5,0,27.8
	c-5.7-1.8-11.7-2.8-17.6-1.4c-7.4,1.8-14.1,5.4-20.8,8.8v7c8.3-4.1,16.5-9.4,26-10.3c12.8-0.2,22.7,9.2,34.2,13.3
	c8.1,3.8,17.8,3.3,25.7-0.7c7.2-3,12.8-9.1,20.1-11.8c2.6-1,5.2-1.9,7.5-3.4c-5.8-16.4-11.1-32.9-16.9-49.3c67.8,0,135.6,0,203.4,0
	v-6.1C291.4,155.9,282.5,157.4,274.2,154.7z M33.8,176.3c-2-1.6-3.9-3.8-4.6-6.3c-0.2-6.3,0-12.7-0.1-19c-0.5-3.4,2.3-5.7,4-8.2
	c16.3-0.1,32.7,0,49,0c1.5,2.2,3.8,4.4,3.6,7.3c0,5.7,0,11.5,0,17.2c0.1,3.5-2.3,6.4-4.1,9.3C65.8,176.3,49.8,176.5,33.8,176.3z
	 M56.3,218.9c-3.8-2.1-7.7-4.1-11.6-6c-0.1-10.2,0-20.3-0.1-30.5c8.8,0,17.7,0,26.5,0C66.1,194.5,61.3,206.8,56.3,218.9z
	 M105.7,208.2c-10.6,3.8-18.4,13.2-29.6,15.5c-4.7,1.3-9.5-0.2-14-1.7c5.1-13.3,10.6-26.4,15.9-39.6c1.9,0,3.8,0,5.6,0
	c4.6-3.5,7.8-8.8,8.4-14.6C96.4,181.4,101.1,194.8,105.7,208.2z"/>
<g>
	<path d="M260,142.4c-3.8-6.3-4.5-13.1-7.5-19.4c-3.8-7.8-11.4-7.1-15.5-4.7s-3.4,7.6-2.1,11.3c3.7,11.1,10.1,19.8,21,29.4h34
		C268.6,153.2,264.1,149.3,260,142.4z"/>
	<circle cx="218.5" cy="90.5" r="21.5"/>
	<path class="st1" d="M300.1,210.7c-25,0-25,20-50,20s-25-20-50-20c-25,0-25,20-50,20c-25,0-25-20-50-20c-25,0-25,20-50,20
		c-25,0-25-20-50-20"/>
	<polyline class="st1" points="299.9,159 92.4,159 110.5,212.1 	"/>
	<path class="st1" d="M28.3,178.7h46.2c4.4,0,7.9-3.6,7.9-7.9v-23.9c0-4.4-3.6-7.9-7.9-7.9H28.3c-4.4,0-7.9,3.6-7.9,7.9v23.9
		C20.4,175.2,24,178.7,28.3,178.7z"/>
	<g>
		<polyline class="st1" points="33.7,226.8 33.7,178.7 69.2,178.7 46.9,230.6 		"/>
	</g>
	<line class="st2" x1="82.4" y1="148.1" x2="144.9" y2="137.7"/>
	<path d="M120.6,141.8c5.8-11.4,15.9-17.4,26.2-21.2c4.9-1.7,10-2.9,15.2-2.6c7.2,0.1,14.7,2.1,21.6-0.8c3.6-1.5,6.2-4.9,3.9-10.1
		c-2.3-5.2-9.9-5.8-15.5-6c-12.5,0-25.1,3.2-36,9.5c-10.8,5.8-18.3,17.3-19.3,31.8L120.6,141.8z"/>
</g>
</svg>
