<?xml version="1.0" encoding="utf-8"?>
<svg enable-background="new 0 0 300 300" height="300" version="1.1" viewBox="0 0 300 300" width="300" xmlns="http://www.w3.org/2000/svg">
	<g transform="translate(2.56239 1.281196)">
		<path d="m242.569 34.952c.745.961 4.862 33.131-31.424 72.953-2.302 2.049-13.27 17.335-22.66 8.897-1.562-1.403-6.875-7.695 1.725-13.928 29.313-21.247 46.395-37.988 52.359-67.922z"/>
		<path d="m142.373 126.51c-10.93-10.93-86.579 60.607-86.579-56.759 0-22.983 14.589-22.796 21.254-25.09.301-2.202-.526-4.242-1.447-6.187-34.706 1.819-52.614 32.551-21.334 85.085 28.508 47.879 103.244 18.089 88.106 2.951zm-84.159-5.3c-15.287-25.673-19.469-47.74-11.777-62.137 2.902-5.432 7.506-9.612 13.462-12.348-4.791 3.928-8.697 10.705-8.697 23.026 0 26.487 3.708 45.227 11.335 57.289.345.546.699 1.078 1.06 1.596-1.919-2.182-3.728-4.645-5.383-7.426z"/>
		<path d="m156.923 63.051c13.57-.077 21.396 11.069 21.455 21.507.099 17.454-16.316 21.487-21.58 21.517-9.487.054-21.331-7.184-21.411-21.361-.076-13.426 10.58-21.601 21.536-21.663z"/>
		<path d="m175.663 182.694c11.352-11.352 40.437 14.527 40.437 38.192 0 15.963-12.63 42.274-69.509 49.047 36.903-13.751 52.908-31.918 52.908-46.096 0-16.111-39.704-25.274-23.836-41.143z"/>
		<path d="m135.706 230.11c1.727-5.942 12.365-61.955 29.361-44.959 12.879 12.881-10.495 56.93-35.192 81.627-20.576 20.576-40.039 27.541-44.678 27.124 34.192-23.748 45.056-45.03 50.509-63.792z"/>
		<path d="m248.777 3.517c4.418 0 8 3.582 8 8s-3.582 8-8 8-8-3.582-8-8 3.582-8 8-8zm0 6c-2.647 0-2.644 4 0 4 2.648 0 2.644-4 0-4z"/>
	</g>
</svg>
