<?xml version="1.0" encoding="UTF-8" standalone="no"?>
<svg
   xmlns:dc="http://purl.org/dc/elements/1.1/"
   xmlns:cc="http://creativecommons.org/ns#"
   xmlns:rdf="http://www.w3.org/1999/02/22-rdf-syntax-ns#"
   xmlns:svg="http://www.w3.org/2000/svg"
   xmlns="http://www.w3.org/2000/svg"
   xmlns:sodipodi="http://sodipodi.sourceforge.net/DTD/sodipodi-0.dtd"
   xmlns:inkscape="http://www.inkscape.org/namespaces/inkscape"
   inkscape:version="1.0 (4035a4fb49, 2020-05-01)"
   sodipodi:docname="Equestrian_Dressage_pictogram.svg"
   id="svg12"
   preserveAspectRatio="xMidYMid meet"
   viewBox="0 0 225 225"
   height="300"
   width="300"
   version="1.0">
  <defs
     id="defs16" />
  <sodipodi:namedview
     inkscape:current-layer="svg12"
     inkscape:window-maximized="1"
     inkscape:window-y="-8"
     inkscape:window-x="-8"
     inkscape:cy="114.95223"
     inkscape:cx="31.794569"
     inkscape:zoom="0.68500969"
     fit-margin-bottom="0"
     fit-margin-right="0"
     fit-margin-left="0"
     fit-margin-top="0"
     units="px"
     showgrid="false"
     id="namedview14"
     inkscape:window-height="705"
     inkscape:window-width="1366"
     inkscape:pageshadow="2"
     inkscape:pageopacity="0"
     guidetolerance="10"
     gridtolerance="10"
     objecttolerance="10"
     borderopacity="1"
     bordercolor="#666666"
     pagecolor="#ffffff" />
  <metadata
     id="metadata2">
Created by potrace 1.14, written by Peter Selinger 2001-2017
<rdf:RDF>
  <cc:Work
     rdf:about="">
    <dc:format>image/svg+xml</dc:format>
    <dc:type
       rdf:resource="http://purl.org/dc/dcmitype/StillImage" />
    <dc:title></dc:title>
  </cc:Work>
</rdf:RDF>
</metadata>
  <path
     d="m 184.71683,74.566399 c -17.95899,2.871094 -29.20899,9.140627 -39.4336,21.97266 -2.95899,3.691411 -4.27735,5.537111 -12.65625,17.724611 -6.06446,8.81836 -6.5918,9.52149 -8.4961,11.51367 -0.79102,0.84961 -2.16797,2.40235 -3.04687,3.51563 -0.87891,1.08398 -2.51954,2.63672 -3.69141,3.45703 -6.76758,4.77539 -20.507818,9.02344 -31.75782,9.81446 l -2.666016,0.17578 -2.753907,-1.96289 c -3.076172,-2.22657 -6.972657,-4.21875 -13.857424,-7.06055 -8.613283,-3.57422 -11.865236,-4.24805 -15.205081,-3.19336 -1.757812,0.55664 -3.691406,2.31445 -4.306641,3.89648 -0.732422,1.9043 -1.230469,4.45313 -1.201172,6.41602 v 2.13867 h -1.464844 c -3.339844,0 -21.97266,-2.40234 -29.648443,-3.80859 -1.787109,-0.32227 -3.427734,-0.58594 -3.720703,-0.58594 -0.351563,0 -0.585938,0.49805 -0.9082036,2.16797 l -0.4394532,2.16797 0.9082038,0.17578 c 9.462892,1.9043 27.919926,4.27734 35.917974,4.6582 l 1.582032,0.0586 1.640625,2.34375 1.611329,2.31445 3.925782,1.99219 c 4.189453,2.13867 8.115235,3.45703 11.894533,4.01367 1.289063,0.17578 3.808594,0.52735 5.566407,0.76172 1.78711,0.26367 3.750001,0.61523 4.394532,0.76172 2.636719,0.73242 4.921876,2.40234 6.210939,4.57031 0.732422,1.23047 0.761718,1.43555 0.585937,4.27735 -0.08789,1.64062 -0.498047,4.30664 -0.908203,5.91797 -0.791016,3.19336 -8.232423,23.93555 -12.480471,34.77539 -2.578125,6.5625 -2.958985,7.85157 -2.34375,7.85157 0.498047,0 4.423828,-5.50782 11.484377,-16.11329 7.001954,-10.51758 9.521486,-15.05859 11.806642,-21.24023 2.900391,-7.82227 4.04297,-16.08399 2.929688,-21.38673 -0.585937,-2.7832 -2.34375,-6.24023 -4.628907,-9.08203 -1.054688,-1.28906 -1.845703,-2.43164 -1.757813,-2.57813 0.05859,-0.11718 0.84961,-0.20507 1.728516,-0.20507 1.699219,0 9.052736,-1.49414 13.535155,-2.75391 8.75977,-2.46094 16.20118,-6.21094 20.6543,-10.40039 1.99219,-1.875 5.97657,-6.65039 7.00196,-8.40821 0.26367,-0.46875 0.8789,-1.37695 1.34766,-2.02148 0.49804,-0.64453 2.37304,-3.33985 4.18945,-6.00586 11.01563,-16.11328 12.74414,-18.398441 17.66602,-23.29102 4.33594,-4.335938 7.5,-6.621095 12.48047,-9.052736 4.77539,-2.373047 12.27539,-4.658204 18.31055,-5.595704 l 1.17187,-0.175781 5.50782,14.443362 c 3.01758,7.939449 8.11523,21.357419 11.33789,29.794929 3.22266,8.4375 5.85938,15.55664 5.85938,15.82031 0,0.49805 -0.14649,0.61524 -6.50391,4.62891 -3.04688,1.93359 -4.45313,2.66601 -4.83399,2.51953 -0.29297,-0.11719 -7.4414,-5.74219 -15.9082,-12.50977 -8.4668,-6.76758 -15.87891,-12.56836 -16.46485,-12.86133 -0.9375,-0.46875 -1.20117,-0.49805 -1.9043,-0.14648 -0.43945,0.20508 -0.99609,0.76172 -1.20117,1.20117 -0.58594,1.23047 0.17578,2.28516 3.98438,5.33203 l 3.28125,2.60742 v 24.93165 24.96094 l 0.67383,0.58594 c 0.35156,0.35156 1.14257,0.70312 1.72851,0.82031 1.08399,0.20508 1.11328,0.17578 1.69922,-1.05469 0.55664,-1.25976 0.58594,-1.99219 0.58594,-23.93555 v -22.64649 l 4.18945,3.39844 c 6.88477,5.625 19.21876,15.38086 19.45313,15.38086 0.23438,0 15.0586,-9.375 16.46485,-10.40039 0.52734,-0.41016 0.64453,-0.70312 0.49804,-1.31836 -0.0879,-0.43945 -4.13086,-11.2207 -8.99414,-23.90625 -4.83398,-12.71485 -10.45898,-27.480474 -12.48047,-32.783209 -1.99219,-5.332032 -3.7207,-9.755861 -3.83789,-9.843752 -0.11719,-0.08789 -2.05078,0.117188 -4.30664,0.46875 z"
     id="path6"
     style="fill:#000000;stroke:none;stroke-width:0.0292969" />
  <path
     style="fill:#000000;stroke:none;stroke-width:0.113191"
     id="path6-2"
     d="m 70.913815,32.495686 c -11.545566,3.508947 -22.977941,13.58302 -25.241778,21.959215 -3.056179,11.545565 4.980441,27.27923 17.205158,33.391589 6.678318,3.282564 12.33791,3.73533 14.941321,1.131918 3.848523,-3.848522 0.56596,-10.300457 -7.583852,-14.714938 -12.451101,-6.791509 -16.07324,-12.4511 -12.677485,-20.374528 2.263837,-5.5464 6.112359,-9.508114 15.280897,-15.960048 4.074906,-2.829796 7.810236,-5.659592 8.489387,-6.22555 1.584685,-1.358301 -4.98044,-1.018726 -10.413648,0.792342 z" />
  <path
     style="fill:#000000;stroke:none;stroke-width:0.113191"
     id="path8-4"
     d="m 102.38114,57.058313 c -14.714934,7.697044 -10.75322,28.52434 5.65959,30.109026 21.28007,2.037453 24.9022,-28.863916 3.84853,-32.033287 -3.50895,-0.565959 -5.6596,-0.113192 -9.50812,1.924261 z" />
  <path
     sodipodi:nodetypes="ccccccc"
     d="m 52.917862,38.968112 -0.396093,-3.85065 93.763311,-9.644881 41.95298,-4.315457 0.11749,3.87931 -41.67437,4.286797 z"
     style="fill:#000000;stroke-width:0.75;stroke-linejoin:bevel;paint-order:markers stroke fill"
     id="rect882" />
  <path
     d="m 181.82081,8.5223263 8.8565,-0.9110159 3.09943,30.1313316 -8.85649,0.911016 z"
     style="fill:#000000;stroke-width:0.75;stroke-linejoin:bevel;paint-order:markers stroke fill"
     id="rect885" />
  <path
     sodipodi:nodetypes="ccccccccccc"
     d="m 109.68778,102.3817 c -1.86752,-0.20882 -3.81041,0.12186 -5.20467,1.00623 -3.38159,1.98082 -4.3209,5.59096 -4.966648,8.81676 -0.881239,6.59575 1.441378,13.75638 6.847598,19.13502 2.5679,2.58601 5.89588,4.5421 9.54047,5.93096 l 5.2493,-4.63276 c -1.08636,-0.71193 -2.10706,-1.49241 -3.04299,-2.34817 -4.4945,-4.94783 -3.67884,-11.26242 -3.08492,-16.8008 0.20774,-2.91241 0.94604,-6.01064 -0.58967,-8.8633 -1.09539,-1.28752 -2.88096,-2.03503 -4.74848,-2.24381 z"
     id="path2841"
     style="stroke-width:0.672028" />
</svg>
