<?xml version="1.0" encoding="utf-8"?>
<!-- Generator: Adobe Illustrator 13.0.0, SVG Export Plug-In . SVG Version: 6.00 Build 14948)  -->
<!DOCTYPE svg PUBLIC "-//W3C//DTD SVG 1.1//EN" "http://www.w3.org/Graphics/SVG/1.1/DTD/svg11.dtd" [
	<!ENTITY ns_flows "http://ns.adobe.com/Flows/1.0/">
	<!ENTITY ns_extend "http://ns.adobe.com/Extensibility/1.0/">
	<!ENTITY ns_ai "http://ns.adobe.com/AdobeIllustrator/10.0/">
	<!ENTITY ns_graphs "http://ns.adobe.com/Graphs/1.0/">
	<!ENTITY ns_vars "http://ns.adobe.com/Variables/1.0/">
	<!ENTITY ns_imrep "http://ns.adobe.com/ImageReplacement/1.0/">
	<!ENTITY ns_sfw "http://ns.adobe.com/SaveForWeb/1.0/">
	<!ENTITY ns_custom "http://ns.adobe.com/GenericCustomNamespace/1.0/">
	<!ENTITY ns_adobe_xpath "http://ns.adobe.com/XPath/1.0/">
]>
<svg version="1.1"
	 xmlns:x="&ns_extend;" xmlns:i="&ns_ai;" xmlns:graph="&ns_graphs;" i:viewOrigin="156.5 545.5" i:rulerOrigin="0 0" i:pageBounds="0 792 612 0"
	 xmlns="http://www.w3.org/2000/svg" xmlns:xlink="http://www.w3.org/1999/xlink" xmlns:a="http://ns.adobe.com/AdobeSVGViewerExtensions/3.0/"
	 x="0px" y="0px" width="300px" height="300px" viewBox="0 0 300 300" enable-background="new 0 0 300 300" xml:space="preserve">
<metadata><?xpacket begin="﻿" id="W5M0MpCehiHzreSzNTczkc9d"?>
<x:xmpmeta xmlns:x="adobe:ns:meta/" x:xmptk="Adobe XMP Core 4.1-c036 46.277092, Fri Feb 23 2007 14:17:08        ">
   <rdf:RDF xmlns:rdf="http://www.w3.org/1999/02/22-rdf-syntax-ns#">
      <rdf:Description rdf:about=""
            xmlns:xap="http://ns.adobe.com/xap/1.0/"
            xmlns:xapGImg="http://ns.adobe.com/xap/1.0/g/img/">
         <xap:Thumbnails>
            <rdf:Alt>
               <rdf:li rdf:parseType="Resource">
                  <xapGImg:width>168</xapGImg:width>
                  <xapGImg:height>256</xapGImg:height>
                  <xapGImg:format>JPEG</xapGImg:format>
                  <xapGImg:image>/9j/4AAQSkZJRgABAgEASABIAAD/7QAsUGhvdG9zaG9wIDMuMAA4QklNA+0AAAAAABAASAAAAAEA&#xA;AQBIAAAAAQAB/+4ADkFkb2JlAGTAAAAAAf/bAIQABgQEBAUEBgUFBgkGBQYJCwgGBggLDAoKCwoK&#xA;DBAMDAwMDAwQDA4PEA8ODBMTFBQTExwbGxscHx8fHx8fHx8fHwEHBwcNDA0YEBAYGhURFRofHx8f&#xA;Hx8fHx8fHx8fHx8fHx8fHx8fHx8fHx8fHx8fHx8fHx8fHx8fHx8fHx8fHx8f/8AAEQgBAACoAwER&#xA;AAIRAQMRAf/EAaIAAAAHAQEBAQEAAAAAAAAAAAQFAwIGAQAHCAkKCwEAAgIDAQEBAQEAAAAAAAAA&#xA;AQACAwQFBgcICQoLEAACAQMDAgQCBgcDBAIGAnMBAgMRBAAFIRIxQVEGE2EicYEUMpGhBxWxQiPB&#xA;UtHhMxZi8CRygvElQzRTkqKyY3PCNUQnk6OzNhdUZHTD0uIIJoMJChgZhJRFRqS0VtNVKBry4/PE&#xA;1OT0ZXWFlaW1xdXl9WZ2hpamtsbW5vY3R1dnd4eXp7fH1+f3OEhYaHiImKi4yNjo+Ck5SVlpeYmZ&#xA;qbnJ2en5KjpKWmp6ipqqusra6voRAAICAQIDBQUEBQYECAMDbQEAAhEDBCESMUEFURNhIgZxgZEy&#xA;obHwFMHR4SNCFVJicvEzJDRDghaSUyWiY7LCB3PSNeJEgxdUkwgJChgZJjZFGidkdFU38qOzwygp&#xA;0+PzhJSktMTU5PRldYWVpbXF1eX1RlZmdoaWprbG1ub2R1dnd4eXp7fH1+f3OEhYaHiImKi4yNjo&#xA;+DlJWWl5iZmpucnZ6fkqOkpaanqKmqq6ytrq+v/aAAwDAQACEQMRAD8A9U4q7FXYq7FXYq7FXYq7&#xA;FXYq7FXYq7FXYqh9Q1Cx06xnv7+dLaytY2luLiVgqIiCrMxPQAYq+Ofzf/5yy8y61eT6V5HmfR9E&#xA;Rin6SQcby4AP21Y7woabBfi8TvxxV4Ff6lqOozm41C6mvLhiS008jSuSetWck4qm3lfz55y8rXS3&#xA;Pl/WbrTpFIJSGRvSahrR4jWNx7MpGKvrf8hf+cm7bzlcxeWvNaxWPmNwFsrtPggvGH7HE/3cx7L0&#xA;btQ0UqvfsVdirsVdirsVdirsVdirsVdirsVdirsVdirsVdir5h/5zR/MC7s7PS/I9lK0S6gn6Q1U&#xA;Kac4UkKW8Zod1MkbsR4qMVfJOKuxV2KqkE81vPHPA7RTwsJIpENGVlNVYEdCDir9G/yZ88nzv+XG&#xA;j6/MwN9JEYNRA7XMBMchp258eYHg2Ks1xV2KuxV2KuxV2KuxV2KuxV2KuxV2KuxV2KuxV8Jf85c+&#xA;p/yue9514/U7T069OPp9v9lXFXjGKuxV2KuxV9sf84XGU/lTqHOvEa1celX+X6tbdP8AZVxV75ir&#xA;sVdirsVdirsVdirsVdirsVdirsVdirsVdir5a/5zT8hXU8ekeeLSMvFbJ+jdTIH2ELmS3c03pyd1&#xA;J91xV8oYq7FXYqujjklkWONS8jkKiKCWLE0AAHUnFX6Mfkl5FfyR+Wuj6HcKF1DgbnUqf8tNwfUd&#xA;f+eYIj2/lxVnWKuxV2KuxV2KuxV2KuxV2KuxV2KuxV2KuxV2KoTV9J03WNMutL1O3S70+9jaG6t5&#xA;BVXRxQg03+kbjFXxV+bn/OLHnDyveT6h5Wgl17y6zM8aQrzvLddzwkiX4pAo/bQfMDFXh80E0ErQ&#xA;zxtFKho8bgqynwIO4xVH6D5Z8xeYb1bLQ9NudSum/wB1WsTyke7cQeI9zir6z/ID/nGGTy1fWvmz&#xA;zmEk1uA+pp2kqVkjtn/ZllcVV5V6qFqF61J6Kvo7FXYq7FXYq7FXYq7FXYq7FXYq7FXYq7FXYq07&#xA;pGjO7BEQFmZjQADckk4q80f/AJyR/JuPzDJob+YYhNGeJveDmzMgbiUFwAU9+X2P8rFXpME8FxBH&#xA;cW8izQTKskM0bBkdGFVZWFQQQagjFV+KoLUND0TUiDqOn216VFFNxDHLQA1oOYbFURa2lraQiC1h&#xA;jt4VqViiUIoJ3NFUAYqq4qx/zj5/8m+TLJL3zNqsOmwykiEScnkkI6+nFGHkenfippirH/Jv59fl&#xA;X5vvU0/R9bQajIeMVldJJbSOa0Aj9VVVyeyqxPtir0DFXYq7FXYq7FXYq7FXYq7FXYq7FXYq+bv+&#xA;cyfzF1HSNF0zyfpk7QPrKyXGqOhKubWMhEiqP2ZXLcv9WnQnFXx5ir66/wCcLPPF1eaVrHk+7laR&#xA;dNKXumht+EMrFZkB7AScWA/yjir6axV2KuxVjf5h+fNG8i+U73zHqxrDbLxgtwQrzzt/dwpXux+4&#xA;VPbFX53eePO+v+dPMd1r2tzmW6uWJSIE+nDH+zFEpJ4oo/qd8VSJHdHV0Yq6kMrKaEEbggjFX6Lf&#xA;kT5o1TzR+U3l3W9VkM2oTwyRXEzfaka2nkt/Ub/KcRcm98VZ5irsVdirsVdirsVdirsVdirsVdir&#xA;4Y/5y+1WW8/OKa1dqpptha20a+AdTcH8Z8VeJYq+gv8AnCln/wCVn6sorwOiTFh2qLu1p+s4q+0s&#xA;VdirsVfB/wDzk1+bf+OPOTaZps3Py3oTPBZlT8M8/wBma42NCKjjGf5RX9o4q8bxVG6Lo+oa1q9n&#xA;pGmxGe/v5kt7aJf2nkYKPo33OKv0r8jeVbXyn5Q0jy5annFplskBk6c5AKySU7c5CzfTiqeYq7FX&#xA;Yq7FXYq7FXYq7FXYq7FXYq/PT/nI6/a+/OzzTM3H4LiKAcelLe3jhH0/u9/fFXm2KvpT/nCHTZpP&#xA;NfmTUwv7m2sIrZ3r0a4m5qKfK3bFX2BirsVeHf8AOU35uf4P8p/4d0ubh5i1+Nk5L9qCyNUllqDU&#xA;M5+BP9keq4q+HMVdir6y/wCcP/yj9CB/zD1iD99OGg0CNxusZ+Ga5oR+19hD4cvEYq+osVdirsVd&#xA;irsVdirsVdirsVdirsVdir83vzmufrH5tecJP5dXvI/D+6maP/jXFWGYq+0/+cL/AC99S/LrUdZd&#xA;SJdX1BlQ9jDaoEUj/no0mKvoHFWN/mH5+0PyL5Wu/MOsSD0oF429sCBJcTsP3cMdf2mP3CpOwxV+&#xA;dfnXzhrPnDzNfeYdYk9S9vpCxUE8I0GyRRg1oiLsMVSPFXp35C/k/d/mN5tSO4R4/LmnMsusXIqK&#xA;rWqwI388tPoFTir9AbO0tbO0gs7SJYLW2jWGCFBRUjjUKqqOwAFBiqrirsVdirsVdirsVdirsVdi&#xA;rsVdiqyaaKCGSaZxHFEpeR2NAqqKkk+wxV+XOr3xv9Vvb49bueWc1/4sct2+eKoVVLEKoqTsAOpO&#xA;Kv0q/KzysfKn5d+X9AZSs1lZxi6U9riT97P/AMlXbFU81rWtL0TSbvVtVuEtNPso2mubiQ0VUX9Z&#xA;PQDqTsMVfn7+dv5v6n+ZPmlrwl4NCsi0Wj2DH7EZO8rgberJQFvDZa7Yq86xVkv5e+QPMHnvzPbe&#xA;X9Ei5TzHlPcNX0oIV+3NKR0VfvJoBucVfoZ+X3kPQ/Ivla08u6NHSC3HOecgCSedgPUmk/ymp9Ao&#xA;BsBirI8VdirsVdirsVdirsVdirsVdirsVdirEPzf1ldG/K7zTqBryj025SIj/fk0Zij/AOHcYq/N&#xA;rFXo/wDzj55Kbzb+a2i2Tx+pY2Mn6R1CoJX0bUh6NTs8nBP9lir9DHdUUu5CooJZiaAAdSTir4h/&#xA;5yX/AD1bzrqx8taBOf8ACunSfHMhNL24Xb1D/wAVJ0jHf7XhRV4ViqfeSvJHmTzpr8Gh6Batc3kx&#xA;q7biOGOoDSyv+wi13P0DfFX35+UX5S6D+W3lsabYf6RqNxxk1TUmFHnlA7D9mNK/Av8AEnFWdYq7&#xA;FXYq7FXYq7FXYq7FXYq7FXYq7FXYq8X/AOcutYfT/wAm7q2RuP6VvbWzbsSAxuSB/wBI/wB2KvhP&#xA;FX2f/wA4cfl+dI8nXfm68jC3mvv6dkSPiWzt2K167epLyNKdFU4qxv8A5yi/P9GiuPIXlO6DB6x6&#xA;/qULAigNDaRsv/JUj/V/mxV8qYqzr8rPyd83/mNqv1bSIfQ02Fh9e1eYEW8K9wP9+SU6Iu/jQb4q&#xA;+6/yz/K3yt+XmhLpeiQ1mkAN/qMgBnuZBX4nI6AVPFRsPnUlVl+KuxV2KuxV2KuxV2KuxV2KuxV2&#xA;KuxV2KuxV8vf85wa0q6d5W0RZPilmub2aEHoI1SKNiPf1HA+nFXzj+XPku785+cdO8vwOIo7hy97&#xA;dMQFgtYhznmYtQfBGppXqaDFXuf52/8AOR1la6WvkL8spfq2k2cK2dxrMBKkxxKEENowNQoUUaXq&#xA;f2dviKr540Ly9r3mDUk07RLCfUr+Xdbe3RpHoOrHiNgO5OwxV9Kflf8A84bXLSQ6l+YVyscSkMNC&#xA;s35O3X4Z7hfhUe0RNf5hir6j0fRtJ0XTYNM0m0isdPtl4QWsCBEUewHc9Se+KozFXYq7FXYq7FXY&#xA;q7FXYq7FXYq7FXYq7FXYq7FX54/n7+Yf+OfzJ1HUbd+WlWX+gaXvUGCBiPUH/GVyz/IjFUi8i6L5&#xA;98wTXfl/yfa3F1LqKImopbDiDAHBCzzGixw86E8mCkgVrQYq+iPy8/5wvto/SvfPmpGZ9m/RGnMV&#xA;QdDxluGHI+BEYHs2Kvozyx5Q8seVtPGn+XtMt9MtNuSQIFLkVoZHNXc79WJOKpB5w/Or8r/J+o/o&#xA;3zDr8NpfgBntUjmuZEDCo9RbdJSlRv8AFTFU/wDK/m7y15q0pdV8vajDqVgzFPWhP2XHVHU0dG78&#xA;WAOKr/Mfmny55a05tS1/UYNNsl29a4cJyP8AKg+07f5KgnFXnGmf85T/AJM6hrK6YmrSW4d/Tivr&#xA;mCSG1Y1oD6jCqA+Lqo8aYq9aR0kRXRg6OAyspqCDuCCMVbxV2KuxV2KuxV2KuxV2KuxV2KuxV5R/&#xA;zkt+YaeTvyzvY4JeGr64G07T1B+ICRf38v8AsIq7/wAxXFXxH5E8ja/538y2vl/Q4fVu7g8pJG2j&#xA;hiUjnLI3ZVr9PQbnFX6E/lr+XHl/8v8AyzBoejx1KgPe3rACW5np8Ur9f9itaKNsVZVirxn/AJyT&#xA;/OuT8v8AQItL0aQDzTq6sbZiA31a3FVa4IP7Rb4Ywdq1P7NCq+Frm5uLq4lubmVpriZ2kmmkYs7u&#xA;xqzMx3JJ6nFXuP8Azh55pvdN/NE6EshNjrtrMksJJ4+rbI08cgH8yqjr8mOKoL/nKz8w5fM/5kT6&#xA;PA5/RXlovYxJ2a5qPrUhHjzX0/kuKvFsVfYv/OHv5ozavot15I1ScyXukKJ9KZzVmsyQrxe/ouRT&#xA;/JanQYq+j8VdirsVdirsVdirsVdirsVdiqVeafNGieVtBvNd1q4W206yQySuepP7KIP2nY7Ko6nF&#xA;XwX5884+b/zr/MiBLG0d3nf6poelp0hgLV5SGvEEj45XOw/1QMVfZH5MflBo/wCWvllbKLhc61dh&#xA;ZNX1IDeSSn93GSAwiT9kfSdzir0HFXEgAkmgG5J6UxV+bn5ved5vOv5h6zrzOXtZZ2h08GlFtITw&#xA;hAptuo5H3JxVh2KvXP8AnFS39X88NCehPoRXsm3atnLHv/weKvLtWv5dR1W81CUlpbyeS4kZupaV&#xA;y5J3Pc4qhMVZh+UXnFvJ/wCY+g68XKW1vcrHfEUNbaf91Psdj+7cke+Kv0kxV2KuxV2KuxV2KuxV&#xA;2KuxVC6pqmnaVp1zqWpXCWlhaRtNc3Mp4oiIKlicVfCH52fnBrn5r+a4NM0iKb9BQziHRdMUVknl&#xA;c8BNIo6ySV+Ff2Rt4kqvpz/nH78jLL8u9EF/qSRz+br9B9duBRhbxtQ/Vom3FAR8bD7R9gMVeu4q&#xA;7FWAfnz5oPlr8pfMeoo6rcy2xsrWp39S8IgBWn7SiQv9GKvzqxV2Kve/+cMtLF1+ad5etXjp+lzO&#xA;pA29SWWKIA7fys2KvCry2a1vJ7ZvtQSPG3zRiv8ADFVHFXYq/Rv8jvM/+Jfyo8t6ozB5/qi2tya1&#xA;Pq2hNu5bwLGPl9OKs5xV2KuxV2KuxV2KuxVbLLFDE80zrHFGpeSRyFVVUVLMTsABir4i/wCcjfz5&#xA;n896ofLPluR/8LWkoXmlQ1/OpoHIHWIH+7Xv9o70AVexf841fkCPKFnH5r8ywf8AO0XcdbS1cb2M&#xA;LjoQf93OPtfyj4f5sVe+4q7FXYq+cP8AnNrXpLbyf5f0NCAupX0lzJ4lbOMLT5crkE/IYq+OsVdi&#xA;r6s/5we0eP0/NesstZCbSzhfwAEkkg+n4MVeCfnFo66P+afmrT0T0oo9SuJIY99opnMsYFe3BxTF&#xA;WHYq7FX2N/zhNr73Xk3XtDcg/oy+juY/EJeRkcflyt2P04q+jsVdirsVdirsVdirsVfIH/OT3/OQ&#xA;I1eW48jeVLqulRMY9a1GJtrlx1t42H+6lP2mB+M7fZ+0qnn/ADi9/wA4/fV1tfPvmu2/fsBLoOmy&#xA;r9lTut1KrD7R6xDt9rwxV9R4q7FXYq7FXxj/AM5q6utx+YekaYj8lsNMV3Xf4ZLiaQkf8BGhxV88&#xA;4q7FX3f/AM4laFJpf5N2dxIAG1e7ub+g68eQt15fNbcH5Yq8H/5zG8uNp35pRauu8OuWMMrNSn76&#xA;3/0d196RpGfpxV4RirsVe/8A/OGGtrZ/mZf6Y9eOqabII6dPVgkSQV9uHPFX2rirsVdirsVdirsV&#xA;fM3/ADlB/wA5Afo2O58ieVLn/cjIDFrmoRH+4Uje3idTtIekh/ZG32q0VYf/AM4yfkAfMVxB5080&#xA;W3+4C3flpdjKNryVCR6jiv8AdRsOn7Z9gaqvsnFXYq7FXYq7FXwF/wA5R6kl9+duviNucdqLW2U+&#xA;6WsZcdB0dmGKvKMVXxRSSypFGpeSRgqKOpZjQAYq/TjyX5fj8u+UdG0JAoGmWUFs3DoXjjCu3+ya&#xA;pxV4z/zmX5UbU/y6stfiQtNoF4DKfC3vKROf+RqxYq+KsVdir0f/AJx21dtK/OjytOKETXTWjA9C&#xA;LuJ4PwMlRir9DcVdirsVdirsVeE/85Jfn7H5KsH8s+XZw3mu8j/fTKa/UYXAIc7Eeq6n4B2HxHtV&#xA;V4Z/zj1+Rd3+YesnXtfWQeVbOUtcOxYPez1qYkfutf71q+w3NQq+5re3t7a3it7eJIbeFFjhhjUI&#xA;iIgoqqooAABQAYqvxV2KuxV2KuxV+b/50XRuvza84Sn9nVruL/kTM0Xf/UxVheKvRP8AnH7yuPMn&#xA;5u+XbJ0V7a2uBf3KuKqY7MevxYUNQzIFofHFX6IYqkvnXyzbeaPKWr+Xrjj6ep2stuGatEd1Ppyb&#xA;fyPRvoxV+Zl7Z3NleT2V1GYrm2keGeJhQrJGxVlI8QRiqhiqc+TdTk0rzfoepxtwksdQtbhW8DFM&#xA;r9/lir9O8VUL6/sbC2a6vrmK0tkKq087rHGGkYIgLMQKs7BR4k0xVXxV2KvKPz9/PCx/LjQ/q1ky&#xA;XHmvUEP6OtTRlhXobiZa/ZH7A/aPsDir5X/J78qPMX5uecLi91OeY6THN6+vaw55SO7nl6aM32pZ&#xA;P+FG57AqvvPRtG0rRNKtdJ0m2Sz06yjEVtbRCiog/Ek9STuTud8VRmKuxV2KuxV2KuxV+XvmS6+t&#xA;+YtUuq1+sXk8td9+crN3374qluKvqj/nCTykTJ5h82zIaKE0uzcjYk0nuKH2pF9+KvqzFXYq+D/+&#xA;crPJR8u/mrdX0KcbHzCg1GI9vWY8LgdOvqLz/wBlirxvFW1YqQymhG4I6g4q/UXQtQbUtD07UWAD&#xA;XttDcMFBABljD7Akmm/jir4Z/wCchfzr13z15hn0eNJtO8t6XMyW+myq0UskqEqZ7lDQ8+vFD9ge&#xA;9SVXoX/OO3/OTJtvq/lDz3d/6KAsWk65Md46bLBct3Tssh6dG23VV7n+cX5v6H+W/lk6hccbrVrs&#xA;FNJ00NQzPT7bU3ESVqzfQNzir4y8neUvPH52fmJPLc3DzT3Li41rV5F/d28P2QAB8I+EcIox4dgC&#xA;Qq+8/J/lDQfKHl600DQ7cW+n2i0UHd3c/bkkag5O53Y/w2xVOcVdirsVdirsVdiqH1G8Wx0+6vWU&#xA;utrDJMyDYkRqWoPuxV+WjMzMWYlmY1ZjuSTirWKv0T/IPyj/AIW/KfQNPdFS7uIBfXtK1Mt3+9o1&#xA;f2kRlQ/6uKvQcVdirw7/AJy68knXvyzGs28fO98tzfWgR1+rS0juAPl8Dn2XFXw5irsVfpR+Ut9H&#xA;ffld5Sukblz0iyVyAQPUS3RJB8W+zqRirBPz6/5x40rz/ayazoyx2Hm+Fdpj8MV4qiginp0bskn0&#xA;GopxVfD+saNqui6ncaXqtrJZahatwuLaZSro3XcH23B74qifr+oa/qOm2usaswhjENjDeXrySx2t&#xA;sG4jYB2EcYYnioxV+iH5W+QPLHkjyfZ6V5fZLi3lRbifUlIJvJXQVnLKWFGFOIBoFpTFWXYq7FXY&#xA;q7FXYq7FXYqknnqf6v5J8w3FSvo6beSch1HGBzUfdir8xsVZj+UPk5vOH5j6FoJQvbT3KyXwFBS1&#xA;g/ez7nb+7Qge+Kv0jxV2KuxVDanp1pqem3em3iepaXsMlvcxn9qOVSjr9Ktir8zvOflm78r+a9W8&#xA;vXe82mXUluX7OqN8Eg6bOlGHzxVJcVfoZ/zjlcG4/JPyq56i3kj3Ndo7iSMf8RxV6RirzD86vyK8&#xA;v/mTphmXhp/ma2SljqoWvICpENwBu0ZJ69V6juCq+EPNPlXX/Kut3Gia9ZvZajamkkT9Cv7Low2d&#xA;G/ZYbHFXr/8Azj//AM5HXnkd4vLnmRnu/Kcj/uZd3lsS1STGOrREmrJ26r3BVfbFhf2eoWVvfWMy&#xA;XNndRrNbXEZDI8bjkrKR1BBxVXxV2KuxV2KuxV2KsK/OvUf0f+Unm64A3bS7mAb0obiMwggjuPUr&#xA;ir84MVfUv/OE3k0tc675xnj+CNV0uwcgEFmpNcEE9CoEY+k4q+r8VdirsVdir48/5zS8lfUvNGle&#xA;brdAINXhNpekV/3ptR8DN/rwsFH+pir5uxV96f8AOJ199Z/JPSYaKPqVxeQbGpPK5eb4vA/vsVew&#xA;Yq7FWB/m3+T3lr8ydDNnqCi11WAE6bq6IGlgbrxP2ecbftJX3FDvir5v/LH/AJxO80XXne4i86W/&#xA;1by9o8wErqxpqFPiVYGFD6bD7b7EfZ+1Xiq+yLa2t7W2itbaNYbeBFihhQBVREHFVUDYAAUGKqmK&#xA;uxV2KuxV2KuxV5X/AM5Qagln+SPmKrcZLkWtvEN/iL3UXIbf5AY4q/P/ABV+jX5IeTT5Q/K/QtHl&#xA;j9O9MAur8Uo31i5PqurV7pyCf7HFWdYq7FXYq7FXm3/ORPk7/FX5S63axpzvNPj/AElZePqWlXYD&#xA;3aLmg+eKvz0xV9u/84Z3Hq/lLdR1r9X1e5jpTpWGCT/jfFXu+KuxV2KuxV2KuxV2KuxV2KuxV2Kv&#xA;Bv8AnM2+W3/Km0tuQD3mrW6BKipVIZpCaV6AqMVfMH5HeTR5v/NHQtIlXlZrP9bvgagGC1HrOppX&#xA;7fHh9OKv0YxV2KuxV2KuxVp0V1KOAyMCGUioIPUEYq/Nf81PJ7+TvzB1zy8VKw2dyxtCe9tL+9gP&#xA;/It1r74q+lf+cIbx38q+ZbMuSkN9DME5bAzQ8SQvYn0hv3p7Yq+lMVdirsVdirsVdirsVdirsVdi&#xA;rsVfL/8AznFfcdL8pWNf76e8nK/8YkhUH/kriqz/AJwm8mmO117zjOpBnK6VYnb7KcZrg067t6QH&#xA;yOKvqPFXYq7FXYq7FXYq+Sf+c1/Jhh1XQ/OFvF+6u4202+dVNBLFWSAsenJ0Zx8kxVE/84N36Cfz&#xA;hYMTzdbGeMU2ohnR6n/Zrir6txV2KuxV2KuxV2KuxV2KuxV2KuxV8cf85tXZk8+aBYjcw6X6wUdf&#xA;31xIv/MnFX0v+UHk8eUPy20HQmThdQWyyXoIofrM9ZpgfHi7lfkMVZhirsVYT5v/ADq/K7yhf/o/&#xA;zB5ggtb8U52saTXMqVFR6iW6StHUbjlTFUz8m/mL5I8527z+WNYg1IRUM0SFkmQHYF4ZAkqg9iVx&#xA;VkeKuxV57+f3k8ea/wAqNesEQPeWsJv7EmtRNafvaLTu6BkFf5sVfPP/ADhLc8fPmvW3+/NL9Slf&#xA;993Ea9P+emKvsjFXYq7FXYq7FXYq7FXYq7FXYq7FXyp568tnzv8A85e2WkTD1bHSIbSe9U1KiC2i&#xA;F2UIrsJHlVe32sVfVeKuxVhf5zebrzyh+WHmDzBZHje2luEtHIrwmuJEt43p34PKGxV8Zfkl+S9/&#xA;+bOr6vJcav8AUbbThHLf3bobieWa6MhSgZkry9JyzFvvriqC1Ky8x/kl+byxQXa3F3os0UqzxVRL&#xA;q1mRXKOlWKiSNuLKTseh6HFX6GRSJLEkqGqOoZTQioIqNjiq7FXYq+TPyX8vP5H/AOcptf8ALUa+&#xA;nayW15HahqEm1laK8goV2rwVa/Tir6zxV2KuxV2KuxV2KuxV2KuxV2KuxV4/+T/lK7H5lfmP521C&#xA;JllvtUk0vTWfqba0YCRht9lmVFH+ocVewYq7FUi89+UrTzf5P1by3duY4dTt2hEwFTHJs0clNq8J&#xA;FVqe2KvhF4vzi/JHzJd+gbjR55AYGvFiWayuowTxZDKjxSDutRyX2NcVTv8ALD8qfPv5s+eE8weY&#xA;o7h9HlnS51nWbtSguESn7mHZQ7MqhBw+FB9AKr7wxV2KuxV435o8o3Vn/wA5L+TfNlvC5sdUsrzT&#xA;72VKlVuLe1nkQydhzjIC/wCpir//2Q==</xapGImg:image>
               </rdf:li>
            </rdf:Alt>
         </xap:Thumbnails>
         <xap:CreatorTool>Adobe Illustrator CS3</xap:CreatorTool>
         <xap:ModifyDate>2008-01-04T01:13:11-08:00</xap:ModifyDate>
         <xap:MetadataDate>2008-01-04T01:13:11-08:00</xap:MetadataDate>
      </rdf:Description>
      <rdf:Description rdf:about=""
            xmlns:xapTPg="http://ns.adobe.com/xap/1.0/t/pg/"
            xmlns:stDim="http://ns.adobe.com/xap/1.0/sType/Dimensions#"
            xmlns:xapG="http://ns.adobe.com/xap/1.0/g/">
         <xapTPg:MaxPageSize rdf:parseType="Resource">
            <stDim:w>612.000000</stDim:w>
            <stDim:h>792.000000</stDim:h>
            <stDim:unit>Points</stDim:unit>
         </xapTPg:MaxPageSize>
         <xapTPg:NPages>1</xapTPg:NPages>
         <xapTPg:HasVisibleTransparency>False</xapTPg:HasVisibleTransparency>
         <xapTPg:HasVisibleOverprint>False</xapTPg:HasVisibleOverprint>
         <xapTPg:PlateNames>
            <rdf:Seq>
               <rdf:li>Cyan</rdf:li>
               <rdf:li>Magenta</rdf:li>
               <rdf:li>Yellow</rdf:li>
               <rdf:li>Black</rdf:li>
            </rdf:Seq>
         </xapTPg:PlateNames>
         <xapTPg:SwatchGroups>
            <rdf:Seq>
               <rdf:li rdf:parseType="Resource">
                  <xapG:groupName>Default Swatch Group</xapG:groupName>
                  <xapG:groupType>0</xapG:groupType>
               </rdf:li>
            </rdf:Seq>
         </xapTPg:SwatchGroups>
      </rdf:Description>
      <rdf:Description rdf:about=""
            xmlns:dc="http://purl.org/dc/elements/1.1/">
         <dc:format>image/svg+xml</dc:format>
      </rdf:Description>
      <rdf:Description rdf:about=""
            xmlns:xapMM="http://ns.adobe.com/xap/1.0/mm/">
         <xapMM:InstanceID>uuid:D2ABF190A4BADC11828F907C0EB444D3</xapMM:InstanceID>
      </rdf:Description>
   </rdf:RDF>
</x:xmpmeta>
                                                                                                    
                                                                                                    
                                                                                                    
                                                                                                    
                                                                                                    
                                                                                                    
                                                                                                    
                                                                                                    
                                                                                                    
                                                                                                    
                                                                                                    
                                                                                                    
                                                                                                    
                                                                                                    
                                                                                                    
                                                                                                    
                                                                                                    
                                                                                                    
                                                                                                    
                                                                                                    
                           
<?xpacket end="w"?>
	</metadata>
<g id="Layer_1" i:layer="yes" i:dimmedPercent="50" i:rgbTrio="#4F008000FFFF">
	<g>
		<g id="surface0" i:knockout="Off">
			<path fill="none" stroke="#000000" stroke-width="0.1" stroke-miterlimit="10" d="M158.736,13.938
				c9.684-1.25,19.874,4.852,22.897,14.237c4.308,10.428-1.948,23.551-12.515,27.246c-6.574,2.723-14.358,1.577-20.155-2.437
				c-7.29-5.231-11.196-15.295-8.141-23.934C143.212,21.063,150.477,15.003,158.736,13.938z"/>
			<path d="M158.736,13.938c9.684-1.25,19.874,4.852,22.897,14.237c4.308,10.428-1.948,23.551-12.515,27.246
				c-6.574,2.723-14.358,1.577-20.155-2.437c-7.29-5.231-11.196-15.295-8.141-23.934C143.212,21.063,150.477,15.003,158.736,13.938z
				"/>
			<path fill="none" stroke="#000000" stroke-width="0.1" stroke-miterlimit="10" d="M124.149,71.221
				c1.066-4.205,4.467-7.209,8.487-8.537c2.638,0.978,5.781,1.787,7.158,4.52c3.311,6.087,2.554,13.332,1.854,19.96
				c-2.995,17.688-9.292,34.861-18.648,50.182c6.042-3.938,11.218-9.04,16.58-13.825c7.033-8.286,13.827-16.781,20.817-25.108
				c6.69-7.924,11.462-17.193,17.271-25.734c2.457-3.455,4.982-7.193,8.934-9.073c5.612-2.382,12.664,2.357,12.59,8.466
				c-0.918,6.076-4.893,11.037-7.939,16.188c-10.822,16.051-24.125,30.953-40.917,40.907c-7.913,4.273-16.255,7.678-24.329,11.627
				c-3.28,1.645-5.223,4.917-7.684,7.5c-22.954,25.717-45.673,51.651-68.749,77.255c3.637,3.754,7.489,7.303,11.469,10.689
				c-1.996,2.786-4.476,5.173-6.865,7.615c-9.47-8.729-18.998-17.394-28.544-26.037c2.285-2.658,4.738-5.162,7.164-7.688
				c4.057,3.798,8.111,7.6,12.149,11.417c19.928-22.278,39.77-44.63,59.66-66.942c3.595-3.75,5.059-8.844,7.309-13.399
				c1.45-3.371,3.5-6.578,3.963-10.287c1.454-9.026,3.001-18.037,4.504-27.055C122.173,93.048,121.431,81.889,124.149,71.221z"/>
			<path d="M124.149,71.221c1.066-4.205,4.467-7.209,8.487-8.537c2.638,0.978,5.781,1.787,7.158,4.52
				c3.311,6.087,2.554,13.332,1.854,19.96c-2.995,17.688-9.292,34.861-18.648,50.182c6.042-3.938,11.218-9.04,16.58-13.825
				c7.033-8.286,13.827-16.781,20.817-25.108c6.69-7.924,11.462-17.193,17.271-25.734c2.457-3.455,4.982-7.193,8.934-9.073
				c5.612-2.382,12.664,2.357,12.59,8.466c-0.918,6.076-4.893,11.037-7.939,16.188c-10.822,16.051-24.125,30.953-40.917,40.907
				c-7.913,4.273-16.255,7.678-24.329,11.627c-3.28,1.645-5.223,4.917-7.684,7.5c-22.954,25.717-45.673,51.651-68.749,77.255
				c3.637,3.754,7.489,7.303,11.469,10.689c-1.996,2.786-4.476,5.173-6.865,7.615c-9.47-8.729-18.998-17.394-28.544-26.037
				c2.285-2.658,4.738-5.162,7.164-7.688c4.057,3.798,8.111,7.6,12.149,11.417c19.928-22.278,39.77-44.63,59.66-66.942
				c3.595-3.75,5.059-8.844,7.309-13.399c1.45-3.371,3.5-6.578,3.963-10.287c1.454-9.026,3.001-18.037,4.504-27.055
				C122.173,93.048,121.431,81.889,124.149,71.221z"/>
			<path fill="none" stroke="#000000" stroke-width="0.1" stroke-miterlimit="10" d="M167.811,142.317
				c3.023-1.499,6.459-3.5,9.871-1.866c4.33,2.084,6.072,7.032,8.039,11.086c8.83,23.857,11.184,49.428,13.115,74.607
				c1.045,16.703,2.567,33.373,3.753,50.071c0.245,3.928,0.869,7.853,0.573,11.8c-2.84-3.022-2.694-7.438-4.064-11.141
				c-4.232-12.742-8.656-25.423-12.937-38.149c-7.237-20.462-16.272-40.388-21.052-61.636c-1.479-8.225-3.32-16.73-1.364-25.039
				C164.268,148.497,166.336,145.51,167.811,142.317z"/>
			<path d="M167.811,142.317c3.023-1.499,6.459-3.5,9.871-1.866c4.33,2.084,6.072,7.032,8.039,11.086
				c8.83,23.857,11.184,49.428,13.115,74.607c1.045,16.703,2.567,33.373,3.753,50.071c0.245,3.928,0.869,7.853,0.573,11.8
				c-2.84-3.022-2.694-7.438-4.064-11.141c-4.232-12.742-8.656-25.423-12.937-38.149c-7.237-20.462-16.272-40.388-21.052-61.636
				c-1.479-8.225-3.32-16.73-1.364-25.039C164.268,148.497,166.336,145.51,167.811,142.317z"/>
			<path fill="none" stroke="#000000" stroke-width="0.1" stroke-miterlimit="10" d="M149.12,141.243
				c3.049-1.781,7.587-0.935,9.33,2.291c2.45,3.993,2.045,8.998,1.675,13.478c-2.384,28.922-12.445,56.386-21.779,83.625
				c-4.692,13.348-9.154,26.777-13.732,40.166c-0.845,2.411-1.507,4.938-2.93,7.096c-0.837-3.958,0.681-7.873,0.957-11.811
				c2.169-20.361,5.088-40.664,5.87-61.146c1.628-19.323,2.934-38.978,9.144-57.492C139.701,151.045,143.391,144.965,149.12,141.243
				z"/>
			<path d="M149.12,141.243c3.049-1.781,7.587-0.935,9.33,2.291c2.45,3.993,2.045,8.998,1.675,13.478
				c-2.384,28.922-12.445,56.386-21.779,83.625c-4.692,13.348-9.154,26.777-13.732,40.166c-0.845,2.411-1.507,4.938-2.93,7.096
				c-0.837-3.958,0.681-7.873,0.957-11.811c2.169-20.361,5.088-40.664,5.87-61.146c1.628-19.323,2.934-38.978,9.144-57.492
				C139.701,151.045,143.391,144.965,149.12,141.243z"/>
			<path fill="none" stroke="#FFFFFF" stroke-width="0.1" stroke-miterlimit="10" d="M159.545,276.529
				c2.127-2.564,5.29-0.158,5.938,2.378c-0.305,0.587-0.915,1.763-1.221,2.35c-0.588,0.307-1.764,0.919-2.352,1.226
				C159.338,281.863,157.229,278.677,159.545,276.529z"/>
		</g>
	</g>
	<g i:knockout="Off">
		<path i:knockout="Off" d="M161.809,268.862c5.283,0,9.566,4.283,9.566,9.565c0,5.283-4.283,9.566-9.566,9.566
			c-5.282,0-9.565-4.283-9.565-9.566C152.243,273.146,156.526,268.862,161.809,268.862 M161.809,274.862
			c-1.966,0-3.565,1.6-3.565,3.565c0,1.967,1.6,3.566,3.565,3.566c1.967,0,3.566-1.6,3.566-3.566
			C165.375,276.462,163.775,274.862,161.809,274.862L161.809,274.862z"/>
	</g>
</g>
</svg>
