<?xml version="1.0" encoding="utf-8"?>
<!-- Generator: Adobe Illustrator 24.3.0, SVG Export Plug-In . SVG Version: 6.00 Build 0)  -->
<svg version="1.1" id="Layer_1" xmlns="http://www.w3.org/2000/svg" xmlns:xlink="http://www.w3.org/1999/xlink" x="0px" y="0px" width="300px" height="300px" 
	 viewBox="0 0 300 300" style="enable-background:new 0 0 300 300;" xml:space="preserve">
<style type="text/css">
	.st0{fill:none;stroke:#000000;stroke-width:6;stroke-linecap:round;stroke-miterlimit:10;}
</style>
<circle class="st0" cx="18" cy="122" r="6"/>
<g>
	<path d="M216,100.7c5.2-1.5,10.7-1.8,16.1-1.1c10.4,2,20.8,5.4,29.6,11.6c5,3.9,9.9,8.8,11.2,15.2c2.8,13.3-1.7,27.8-11.4,37.2
		c-3.1,2.8-5.9,6-9.6,8.1l-1.6-0.1c6.9-9,10.2-20.4,10.3-31.6c0-5.3-2.7-10.4-7.2-13.2c-10.9-7.4-24.9-6.4-36.8-11.1
		c-3.7-1.3-6-4.8-7-8.5C209.5,103.6,213,101.6,216,100.7z"/>
	<path d="M206.5,160.9c3.6-7.1,14.7-6.3,18.9-0.3c3.6,4.7,3.9,10.8,4.5,16.5c0.9,13.2,0.2,26.9,4.8,39.6c4,10,13.4,16.2,22.7,20.7
		c10.9,5.6,22.9,8.3,34.3,12.5c-2.4,3.1-7,1.4-10.3,1c-11.2-2.5-22.4-5-33.5-7.6c-10.1-2.5-20.7-6.7-26.7-15.7
		c-7.9-14.5-13.3-30.4-16.1-46.7C204.4,174.3,203.4,167,206.5,160.9z"/>
	<path d="M183.4,159.8c4.1-1.9,9-3.3,13.4-1.5c4.6,1.9,6.3,7.4,6.3,11.9c-0.7,6.4-6.4,10.3-11.3,13.6
		c-34.6,21.9-70.1,42.1-105.1,63.3c-4.9,2.6-9.9,5.7-15.6,6.2c1.7-1.7,3.8-2.9,5.6-4.3c28.1-24.6,56.6-48.8,84.9-73.2
		C168.5,169.9,175.3,163.9,183.4,159.8z"/>
	<path d="M157.8,105.6c-5.2-1.4-10.2,1.3-14.8,3.4c-19.2,10.3-42,12.4-63.2,8.4c-2.9-0.4-5.6-1.4-8.1-2.9l-29-24.3
		c3.3-6.7,0.8-16-6.4-22c-3.9-3.3-8.5-5.1-13.1-5.3c-4.9-0.2-9.1,1.5-11.9,4.9c-2.8,3.3-3.8,7.8-2.7,12.6c1,4.5,3.6,8.8,7.5,12
		c3.9,3.3,8.5,5.1,13.1,5.3c0.2,0,0.5,0,0.7,0c3.4,0,6.5-1,9-2.8L84.4,133c0.6,0.5,1.2,0.7,1.9,0.7c0.9,0,1.7-0.4,2.3-1.1
		c1.1-1.3,0.9-3.2-0.4-4.2l-1.8-1.5c14.4,3.3,29.2,3.2,36.4,3.1c6.1,0.2,12-1.5,17.9-2.4c6.7-1.4,14.1-2.4,19.2-7.5
		C164.1,116.2,163.5,107.9,157.8,105.6z M36.6,88.9c-1.6,1.9-4.1,2.9-7.1,2.7c-3.3-0.1-6.6-1.5-9.5-3.9s-4.8-5.5-5.5-8.7
		c-0.6-2.9-0.1-5.6,1.5-7.4c1.5-1.8,3.8-2.7,6.6-2.7c0.2,0,0.3,0,0.5,0c3.3,0.1,6.6,1.5,9.5,3.9C38.2,77.6,40,84.8,36.6,88.9z"/>
	<circle cx="175" cy="71" r="21.5"/>
</g>
</svg>
