<?xml version="1.0" encoding="utf-8"?>
<!-- Generator: Adobe Illustrator 13.0.0, SVG Export Plug-In . SVG Version: 6.00 Build 14948)  -->
<!DOCTYPE svg PUBLIC "-//W3C//DTD SVG 1.1//EN" "http://www.w3.org/Graphics/SVG/1.1/DTD/svg11.dtd" [
	<!ENTITY ns_flows "http://ns.adobe.com/Flows/1.0/">
	<!ENTITY ns_extend "http://ns.adobe.com/Extensibility/1.0/">
	<!ENTITY ns_ai "http://ns.adobe.com/AdobeIllustrator/10.0/">
	<!ENTITY ns_graphs "http://ns.adobe.com/Graphs/1.0/">
	<!ENTITY ns_vars "http://ns.adobe.com/Variables/1.0/">
	<!ENTITY ns_imrep "http://ns.adobe.com/ImageReplacement/1.0/">
	<!ENTITY ns_sfw "http://ns.adobe.com/SaveForWeb/1.0/">
	<!ENTITY ns_custom "http://ns.adobe.com/GenericCustomNamespace/1.0/">
	<!ENTITY ns_adobe_xpath "http://ns.adobe.com/XPath/1.0/">
]>
<svg version="1.1"
	 xmlns:x="&ns_extend;" xmlns:i="&ns_ai;" xmlns:graph="&ns_graphs;" i:viewOrigin="156.5 545.5" i:rulerOrigin="0 0" i:pageBounds="0 792 612 0"
	 xmlns="http://www.w3.org/2000/svg" xmlns:xlink="http://www.w3.org/1999/xlink" xmlns:a="http://ns.adobe.com/AdobeSVGViewerExtensions/3.0/"
	 x="0px" y="0px" width="300px" height="300px" viewBox="0 0 300 300" enable-background="new 0 0 300 300" xml:space="preserve">
<metadata><?xpacket begin="﻿" id="W5M0MpCehiHzreSzNTczkc9d"?>
<x:xmpmeta xmlns:x="adobe:ns:meta/" x:xmptk="Adobe XMP Core 4.1-c036 46.277092, Fri Feb 23 2007 14:17:08        ">
   <rdf:RDF xmlns:rdf="http://www.w3.org/1999/02/22-rdf-syntax-ns#">
      <rdf:Description rdf:about=""
            xmlns:xap="http://ns.adobe.com/xap/1.0/"
            xmlns:xapGImg="http://ns.adobe.com/xap/1.0/g/img/">
         <xap:Thumbnails>
            <rdf:Alt>
               <rdf:li rdf:parseType="Resource">
                  <xapGImg:width>256</xapGImg:width>
                  <xapGImg:height>252</xapGImg:height>
                  <xapGImg:format>JPEG</xapGImg:format>
                  <xapGImg:image>/9j/4AAQSkZJRgABAgEASABIAAD/7QAsUGhvdG9zaG9wIDMuMAA4QklNA+0AAAAAABAASAAAAAEA&#xA;AQBIAAAAAQAB/+4ADkFkb2JlAGTAAAAAAf/bAIQABgQEBAUEBgUFBgkGBQYJCwgGBggLDAoKCwoK&#xA;DBAMDAwMDAwQDA4PEA8ODBMTFBQTExwbGxscHx8fHx8fHx8fHwEHBwcNDA0YEBAYGhURFRofHx8f&#xA;Hx8fHx8fHx8fHx8fHx8fHx8fHx8fHx8fHx8fHx8fHx8fHx8fHx8fHx8fHx8f/8AAEQgA/AEAAwER&#xA;AAIRAQMRAf/EAaIAAAAHAQEBAQEAAAAAAAAAAAQFAwIGAQAHCAkKCwEAAgIDAQEBAQEAAAAAAAAA&#xA;AQACAwQFBgcICQoLEAACAQMDAgQCBgcDBAIGAnMBAgMRBAAFIRIxQVEGE2EicYEUMpGhBxWxQiPB&#xA;UtHhMxZi8CRygvElQzRTkqKyY3PCNUQnk6OzNhdUZHTD0uIIJoMJChgZhJRFRqS0VtNVKBry4/PE&#xA;1OT0ZXWFlaW1xdXl9WZ2hpamtsbW5vY3R1dnd4eXp7fH1+f3OEhYaHiImKi4yNjo+Ck5SVlpeYmZ&#xA;qbnJ2en5KjpKWmp6ipqqusra6voRAAICAQIDBQUEBQYECAMDbQEAAhEDBCESMUEFURNhIgZxgZEy&#xA;obHwFMHR4SNCFVJicvEzJDRDghaSUyWiY7LCB3PSNeJEgxdUkwgJChgZJjZFGidkdFU38qOzwygp&#xA;0+PzhJSktMTU5PRldYWVpbXF1eX1RlZmdoaWprbG1ub2R1dnd4eXp7fH1+f3OEhYaHiImKi4yNjo&#xA;+DlJWWl5iZmpucnZ6fkqOkpaanqKmqq6ytrq+v/aAAwDAQACEQMRAD8A9U4q7FXYq7FXYq7FXYq7&#xA;FXYq7FXYq7FUFrWtaVomlXWratdR2enWcZlubmU0VFH4kk7ADcnYb4q+OfzW/wCctvNeu3M2n+S3&#xA;fQtFUlReAD69OAftc/iEI8AnxeLdsVeE6jq2qancNcaleT3twxJaa4keVyT1JZyxxVFaF5q8zaBc&#xA;rc6Jqt3ps6bh7WZ4voIUgEHwOKvo/wDJ/wD5y8vfrdvov5h8JIJSI4vMEShGQnYG6jWilfF0Ap3B&#xA;64q+ropYpokmhdZIpFDxyIQysrCoZSNiCMVXYq7FXYq7FXYq7FXYq7FXYq7FXYq7FXYq7FXYq7FX&#xA;Yq7FXYq7FXYq7FXYq7FXYq7FXxv/AM5f/mlcap5lXyNp05GlaRxk1NUO0t4w5BWI6rCjDb+YnwGK&#xA;vnPFXYq7FXYq+w/+cOfzMutW0a98kalKZZ9GjFzpbtu31NmCPGT4RSMvH2anbFX0jirsVdirsVdi&#xA;rsVdirsVdirsVdirsVdirsVdirsVdirsVdirsVdirsVdirsVdirsVfmL521K61Pzjrmo3Tcri7v7&#xA;maU/5TzMTT2xVJcVdirsVdir0/8A5xq1uTSfzo8uuoLR3kkllKoNKrcRMi9j9lyrfRir9BcVdirs&#xA;VdirsVdirsVdirsVdirsVdirsVdirsVdirsVdirsVdirsVdirsVdirsVdir81/zX8tT+WvzI8xaN&#xA;KpUW99M0BbYtBM3qwt/so3U4qxPFXYq7FXYq9k/5xO8sy6x+cFje+nztdEgnvrgnYAlDDF9PqSq1&#xA;PbFX3hirsVdirsVdirsVdirsVdirsVdirsVdirsVdirsVdirsVdirsVYr5u/NP8AL3ygrf4h121s&#xA;pl62nP1bjpX+4iDy/wDC4q8p1b/nNH8tLYldP03VL9wR8fpwwxkdyC8pev8AsMVb0j/nND8s7plT&#xA;UdO1TTmLUMnpxTxBfElJOf0BMVexeUvPflDzfZNe+WtVg1OBCBL6TESRk9BJE4WRK/5SjFU9xV2K&#xA;vnX/AJyx/Ji68xafH510C3M2r6ZF6WqWsa1ee0UllkUAVZ4amvin+qAVXxrirsVdiqrbW1xdXEVt&#xA;bRPNcTOscMMalnd2NFVVG5JPQYq+9v8AnHP8om/L3ycZNSRf8SawUn1Km5hRQfStq9/T5EtT9onq&#xA;ADir1nFXYq7FXYq7FXYq7FXYq7FXYq7FXYq7FXYq7FXYq7FXYqwD80/zs8l/lzZg6rMbrVpV5Wmk&#xA;W5Bncdmeu0aV/ab6AcVfIn5hf85Nfmb5vaW3gvDoOkSVUWGnMUZlIIpLcbSvUGhAKqf5cVeTu7Ox&#xA;dyWdiSzE1JJ6knFVuKuxVOPKXmzXfKevWuuaJdPa31q4YFGIV1BBaOQD7SPSjKeuKv0j8m+aLLzV&#xA;5V0vzFZDjb6nbpcLGTUozD44ySFqUeqk07YqnOKuxV4Z+aX/ADij5N82XE+q6BL/AIe1qYl5VjTn&#xA;ZzOaks8IIMbN3ZDTvxJxV4Vq3/OIX5xWdw8dpb2WpxAjjPb3SIGBFfs3HosKd9sVRGg/84d/mvfz&#xA;quptY6Pb9XklnE70r+ykAkBPzYfPFX0Z+VP/ADjr5G/L6RNQjDav5gAp+lLpVHp16/V4RVYqjvVm&#xA;/wAqm2Ks81Dzl5Q02Z4NR1zT7OZDxeK4uoYmVqVoVdgQcVQo/Mf8vCQB5o0gk7AC/tv+qmKolPOn&#xA;k6Rwkeu6c7noq3cBJ+gPiqZ2t5Z3kXrWk8dxCSR6kTq61HUVUkYqrYq7FXYq7FXYq7FXYq7FXYq7&#xA;FXYq7FXYq7FXmn57fnFZflt5X9eLhP5h1DlHpFm245AfHNIAR+7jqPmaDxoq+BNb1vVdc1W61bVr&#xA;p7zUbxzLcXEpqzMf1AdABsBsMVQOKuxV2KuxVVtbW5u7mK2tYnnuZmCQwxqXd2Y0CqoqSTir9HPy&#xA;b8q6h5U/LHy9oOo0F/aWxa6Qb8JJpGmaOvihk4n5YqzPFXYq7FXYq7FXzZ/zlh+dereX2g8k+W7p&#xA;7PULqIXGrX0JKyxwvURwxuN0Z6cmI3pTxOKvkB3Z2LuSzsSWYmpJPUk4qtxV2Kr45ZI3DxuUcdGU&#xA;kH7xiqbaf5y84adIsmn67qFnIn2Ht7qeJhtx2KOOxpirJdP/AD6/OOwdHg826g5QggXEguRt4icS&#xA;BvpxVlmmf85d/nLZurXF1Y6kF6rdWiKG27/Vzbn7sVZjpH/OcGuxv/uY8r2tylKVtLiS3IO29JFu&#xA;K99vxxVmuj/85qfl3cpTVNJ1PT5a/wC61huI6f6wkjb/AITFWb6R/wA5J/krqip6fmSK1kfYx3kU&#xA;1uVP+U0iCP6eVMVZtpfnDylqzqmla3Yag7/YW1uoZi21dhGzVxVN8VdirsVdirsVdirUkkccbSSM&#xA;EjQFndjQADckk9AMVfnL+c/5h3Pn38wNS1oyM2nI5ttIjaoCWkTER/DU0L/bb/KJxVg2KuxVvrir&#xA;OPKn5Ifmp5pWOTSfLt0bWUVS8uVFrAQNiVknMYbp+zXFXrvlv/nCrW2jW582eYrXTYQoZ4bNGnYV&#xA;p8LSS+iikeIDCvjir278uPy0/JbyLKp0GWzuNX3X9I3dzDcXnTcKaqse3X01X3xV6gCGAINQdwR0&#xA;IxV2KuxV2KuxV2Kvhj/nLzQ9SsfzduNSuImWy1a1t5LKb9lvRiWGRa/zKybj3HjirxLFXYq7FXYq&#xA;7FXYq7FXYq7FXYq7FU80nzx500d+ek69qNg1OP8Ao11NECKg0IRhUbDbFWYaR/zkj+dWl1EPmaa4&#xA;Q05JdxwXNaV/amR3HXscVZhpP/OZ35o2icL+y0vURWvqPDLFJ0ApWKVUpt/Jir0zyd/zlf5k1947&#xA;eP8ALrUb+dhVpNLkedaE7NxaEBRv1L4q+jMVdirz3/nIHzE/l/8AJ/zNexSCO4mtvqUNTQlrx1tz&#xA;w/ygkjNt4VxV+duKuxV6F+Tf5N67+Zmuy2lpKLLSrIK+pak6l1jVzRURRTlI1DQVHTFX2Dof5X/k&#xA;1+Uehya5PbwQ/UFDz67qNJ7nkDUemafC5P2VhQE+BOKvCPzI/wCcvvNmtXT6b5DgOkWDN6cd66LN&#xA;fTVNBxUh44uVegDN4MMVYpY/kd/zkF59ZNR1S2vGjlPJbvXLoowr39OZmnA+SYqnMn/OGP5sJAJF&#xA;vNHkc/7oW4uOY+lrdU/4bFWP3vkn/nIX8pw1/Auo6bp8FXku9Pn+sWfEGvKZImdAtf8AfqDFXsP5&#xA;Qf8AOXlnqMsGi/mAsdjdOQkWvRDhbuTsPrEf+6v9dfh8Qo3xV9LxyRyxrJGweNwGR1IKspFQQR1B&#xA;xVdirsVdirHPPn5e+VPPWiNpHmOzFzACWt5lPCaCQinqQyDdW/A9wRir5j80/wDOE/meCaSTyvrl&#xA;rfW1CyQX4e2mH+SGjWWNj7njirEG/wCcSPzoBIFhaEA9RdxUP3nFVq/84l/nUa1021WhIFbyDenf&#xA;Zj1xVcn/ADiP+dDMAbC0UE7sbuKg+4k4qiB/zh/+cRIHp6ePc3X/ADZiqaxf84UfmaSfV1fRUHYp&#xA;Ldt+u2XFUbF/zhH50PH1vMOmpX7fBJ3p8qqlcVTKz/5wb1B1b675whhYH4BDYtMCPctPDTFUzh/5&#xA;wc0oH995undadEskQ1+mZ8VTGy/5wj8kpIpvfMGpTxgHmsKwQkntQsk1PuOKpxb/APOGn5SRU53G&#xA;rT0FP3lzCK+/wQJiqc6f/wA4p/klaVMuiy3rbcTcXdztT2ikiU19wcVT6w/IL8m7F1eHynYOUpQT&#xA;o1wNvFZmkB+nFWTaf5L8naa6Pp2hadZPGQyNb2kERUihBBRFpTiMVTnFXYq7FXiP/OYJcfk7IFJo&#xA;dRtQ9PD4zv8ATTFXwzirsVffv/OMHlu00X8nNGliSlzq3qX93JtVnlcqnTsIkQYq+d/+ckfzB1f8&#xA;wfzMj8naGz3OmaXdLp9haRH4bjUGb0pJCOhIdjGh6UFR9o4q+jfya/ILyt+XlhDdSRR6j5pdAbrV&#xA;ZFDemxWjR2oYfu0FSOX2m7+AVepYq7FXEBgQRUHYg9CMVfHv/OW/5Yfl/wCWBp2vaIo0zV9WuHSX&#xA;SYFAt5EReUlwqVHpFWZFIX4Ty6Deqr1H/nD+LXv+VTm41O6lms5r6YaRDKxZYraIKjCMnopmWT4R&#xA;sKe5xV7jirsVdirsVdirsVdirsVdirsVdirsVdirsVdirsVdirsVdirsVdirzn/nIfy5Jr/5O+ZL&#xA;SGP1Lm3gW+hHcGzkWd+PuY0YfTir88cVdir7n/Krzhc2/wDzi/Bq+kxPe6ppGm3cEVtAhkkFzA8i&#xA;RAoorsODn/J3xV8zf848+afJ3l780rPW/OErpbpHKLW7K+qkd3LRFln6tx4M/wAQBoxB9wq/QCyv&#xA;bO+tIbyynjubS4USQXELB43RtwyspIIPtiqtirsVSHzp558seS9El1nzDepaWkYIjQkGWZ6VEcMf&#xA;V3PgPmaDfFXw/rmq+cPz8/NmGK0iMSTkQ2UG7xWNgjVaSUjw5cnP7TGg/ZGKvuryv5c03y15d07Q&#xA;NNUrY6bAlvBy3YhBQsxHVmNWb3OKppirsVdirsVdirsVdirsVdirsVdirsVdirsVdirsVdirsVdi&#xA;rsVdirUkcckbRyKHjcFXRhUEHYgg9QcVfnn+ev5VXv5e+drm0WFv0Dfu9xotz1UwsamEt/PCTxI8&#xA;KN3xV5xir3D/AJxl/O6DyJrM2ha7KV8savIrGckkWl1QKJqfyOoCyfJT2NVXtf5t/wDOMPlXzyj+&#xA;YvKNxBpWt3aifmnxWF56g5CRvT5cGcGvqR1B6lSTXFXz3FP+ff5J3rIFvdJs2fcMoudNmNaVB/eQ&#xA;cj7Uf5Yqy+2/5zX/ADGSFVn0bSJpBsZFS5SvuR6zb4ql+tf85ifmzqURt9Ph07Smf4Ultbd5Zqnb&#xA;YzvMny+DFUu0L8mPzz/NPVk1PXhdwwPTnq+ttIgWMmtIYX/eMP5QihfcYq+tvyo/J/yr+W2jtZ6S&#xA;huNQuADqOqzAetOw6Db7Ea/soPpqd8VZzirsVdirsVdirsVdirsVdirsVdirsVdirsVdirsVdirs&#xA;VdirsVdirsVdiqQeePI3lzzt5fn0LX7b17Ob4kdaLLDIPsywvQ8XWv8AA1FRir4c/N7/AJx+84fl&#xA;5cSXZjbVPLZb9xq8K7ICdluEFTE2/X7J7Htiry3FXpP5Yfn75+/L7ha6fcrf6ICS+j3lXhFa1MTD&#xA;44jU1+E0J6g4q+g9J/5zT/L27tSutaLqVlMwo8UIgu4SDsRzZ4GP/AYqhbr/AJyK/wCcaDIXbysb&#xA;h23aQaTZEk+5d1NcVYlq/wDzlr5f0yRv8A+RrHT3Bbhe3kccbEHYVhtAlCaCv77FXu35Ea1+Zuve&#xA;Un1zz4scM1/KJNKtVhEDra8dndRv+8Y1XlvTfvir0nFXYq7FXYq7FXYq7FXYq7FXYq7FXYq7FXYq&#xA;7FXYq7FXYq7FXYq7FXYq7FXYq7FVssUUsTxSoskUilZI2AZWVhQgg7EEYq8H/MX/AJxD8j+YZZb/&#xA;AMtTt5b1CSrNBGnq2Tt1/uaq0VT/ACNxH8uKvGNT/wCcOvzbtJmW0bTtQi/ZkhuTHWvisyR0OKoW&#xA;L/nEX85nJDWllFTu93Ga/wDA8sVZTo//ADhH5wknUaz5h0+0gr8bWaT3T09hItsPxxV7R+Xv/OMf&#xA;5ZeTpor57Z9c1aIhkvNR4ukbgHeKBQIx1qCwYg9Dir1rFXYq7FXYq7FXYq7FXYq7FXYq7FXYq7FX&#xA;Yq7FXYq7FXYq7FXYq7FXYq7FXYq7FXYq7FXYq7FXYq07qil3IVFBLMTQADqScVSgec/J5k9Ma7p5&#xA;krx4fW4K18Kc8VTgEEAg1B3BHSmKuxV2KuxV2KuxV2KuxV2KuxV2KuxV2KuxV2KuxV2KuxV2KuxV&#xA;2KuxV2KuxV2KuxV2KuxV2KoTV9UtdJ0m91W8JFpp9vLdXBXciOFDI9Kkfsrir87/AMy/zh86eftV&#xA;uJ9UvpY9LaRjZ6RG5W2hjr8ClFoHYDq7bnFWDYqybyj+ZfnzyjOsvl7W7qxVSC1sshe3fj0DwPyi&#xA;br3XFX0Z+X3/ADmjZPbi1896Y8VwifDqWmrySQqBQSQOwKM1D8SsRX9lRirEvPH/ADmT551K4eLy&#xA;naw6DYg/u55US6u2929QGFf9XgfmcVYLY/8AOSH51Wl0tyvmeeYjrFPHBLGQeoKNHT7sVfUf5B/8&#xA;5DWX5ixto2rxR6f5qtozIYoyRDdRr9qSEMSVZf2o6nb4gaV4qvZsVdirsVdirsVdirsVdirsVdir&#xA;sVdirsVdirsVdirsVdirsVdirsVdirsVdirB/wA8Rdn8ofNwtQ5l/Rlxy4Eg+nx/e9O3p8q+2Kvz&#xA;jxV2KuxV2KuxV2Kpv5S8y6h5Y8zab5g09+F3ptwk8fgwU/Eh/wAl1qrexxV+nuKuxV2KuxV2KuxV&#xA;2KuxV2KuxV2KuxV2KuxV2KuxV2KuxV2KuxV2KuxV2KuxVRvLO2vbOezuoxLa3MbwzxN0eORSrKfm&#xA;DTFX52fnF+Vmrflz5vn0q5UyaZOWm0i+p8M1uTsCe0kf2XHjv0IOKsExV2KuxV2KuxVnf5H+TrPz&#xA;d+Z2iaPezxw2XrfWLkSMFMqW/wC8MKA/aaTjxoO1T2xV+jOKuxV2KuxV2KuxV2KuxV2KuxV2KuxV&#xA;2KuxV2KuxV2KuxV2KuxV2KuxV2KuxV2KpB538i+WPOuhTaL5hs1urSSpjcfDLDJTaWGTqjj7j0II&#xA;qMVfBP50/lU35a+bF0YalFqUFxF9atWX4ZkiZiqrOnRW+E0oaEb7dMVYBirsVdirsVVba5uLW4iu&#xA;baV4biF1khmjYq6OpqrKw3BB6HFX3R/zjn+esPn/AEg6NrDrH5t02MGYdBdwLRfXQV+2P92Dx3Gx&#xA;oFXs+KuxV2KuxV2KuxV2KuxV2KuxV2KuxV2KuxV2KuxV2KuxV2KuxV2KuxV2KuxVjP5jfmBonkPy&#xA;pd+YdWbkkI421qpAkuJ2H7uFK13Y9TTYVPbFX50+bvNWsea/Md/5g1iX1b/UJDJId+KilEjQHoqK&#xA;AqjwGKpPirsVdirsVdiqaeWfMmseWdestd0ec22o2EglgkHTbYqw/aVhVWB6jFX6M/lr590zz35N&#xA;0/zHYUQXKcbu3qC0Nwm0sR+TbrXqpB74qyfFXYq7FXYq7FXYq7FXYq7FXYq7FXYq7FXYq7FXYq7F&#xA;XYq7FXYq7FXYqo317aWFnPe3ky29pbRtLcTyHiiRoOTMxPYAYq/P78+fzfu/zH82NLAzx+XdOLxa&#xA;PattVSaNO6/zy0B9hQYq8yxV2KuxV7T5B/5xd84+cPIVx5njnSwupQH0PT7heP1uNa8mZ6/ug3SM&#xA;kUbqaLRsVeR6xo2q6Lqdxpeq2sllqFq3C4tplKujddwfbcHviqCxV2KvoX/nDnz9NpXna48o3Eh/&#xA;R+vxtJbIT8KXluheor09SJWB8SFxV9n4q7FXYq7FXYq7FXYq7FXYq7FXYq7FXYq7FXYq7FXYq7FX&#xA;Yq7FXYq7FXyN/wA5YfnaNQuZfy/8v3FbG2Yfp+5jO0syGotgR+zGRV/8rb9ndV8yYq7FXYq9w/5x&#xA;v/IeTzzqq+YdehZfKWnybxnb67Mm/or/AMVqf7w/7Eb1IVfcUUUUMSQwoscUahI40AVVVRQKoGwA&#xA;GKvKP+cgvyX0/wDMDyzNeWcCp5r0yJn064UfFMqAsbV6dQ/7Ffst7E4q+BMVdirMfydupbb82PJ8&#xA;kZozazYxH/VluEjb/hXOKv0jxV2KuxV2KuxV2KuxV2KuxV2KuxV2KuxV2KuxV2KuxV2KuxV2KuxV&#xA;4v8A85KfnUvkPy7+htImp5q1iNhbsp+K1tz8LXB8G/Zj96n9ndV8Ku7OxdyWdiSzE1JJ6knFVuKu&#xA;xV6z+RH5Ear+Y+q/XLz1LPynZyAX18BRpmG/1e3rsXI+03RB70BVfeGk6TpukaZbaXplulpp9nGs&#xA;NtbRCiIiigAxVF4qwn86vNtt5V/LDzBqsrAStava2a1ALXFyDFFTx4l+R9gcVfnDirsVejf8486D&#xA;PrX5x+WYIwONpdC/mZuipZgz1+lkCj3IxV+h2KuxV2KuxV2KuxV2KuxV2KuxV2KuxV2KuxV2KuxV&#xA;2KuxV2KuxVi35l/mFo3kHyld+YdUPIRD07O1BAe4uGB9OJfn1Y9lBPbFX52ebvNes+bPMV95g1mY&#xA;z39/IZJDvxVeiRoD0RFoqjwxVJ8Vdir2X8if+ceNY/MG6j1fVxJp/lGJ/juKFZbsr1jtqgjjUUaT&#xA;oOgqeir7i0XRdK0TSrXSdJtY7PTrOMRW1tEKKij8SSdyTuTud8VRuKuxV8Vf85afmxH5l8zR+UtJ&#xA;n9TRtBcm7dCeE19Ti3sRACUB8S3bFXgGKuxV9k/84fflfcaJoN1511OMxXuuRiDTY2FCtirBzIe/&#xA;76RQRX9lQe+KvovFXYq7FXYq7FXYq7FXYq7FXYq7FXYq7FXYq7FXYq7FXYq7FVC/v7PT7K4vr6ZL&#xA;aztY2mubiQhUSNByZmJ6AAYq/P389/zfvPzI82tcQl4vL2nlodHtG2+An4p3X/fktAT4Cg7Yq80x&#xA;V2Kvo/8AIb/nFy71z6t5m88wPbaI1JbLR2qk10vVXmpRo4j2H2m9hQlV9g2trbWltFbWsKW9tCoj&#xA;hgiUIiIooqqq0AAHQDFVTFXYq8S/5yX/ADuTyPoJ0DRLinmzVYzwdD8VnbNVWnJ7SN0j+luwqq+G&#xA;WYsSzGpO5J6k4q1ir6J/5x7/AOcabrzFLa+avONu0Hl5SJbLTJAVkvOhR3H7MB+9/wDV3Kr7Jjjj&#xA;ijWKJQkaAKiKAFVQKAADoBiq7FXYq7FXYq7FXYq7FXYq7FXYq7FXYq7FXYq7FXYq7FXYq7FXyB/z&#xA;ld+d41a7k8g+XrgnTbOT/c7cxn4Z50NRbqR1SJhVvF/9XdV81YqiNP0++1G+gsLC3kur25dYre2h&#xA;UvJI7GiqqrUknFX2H+RP/OLlj5d9DzH52ijvddHGSz0vZ4LQjcNJ1WWUf8Cvudwq+icVdirsVed/&#xA;nR+cmi/lr5da4kKXWvXaldJ0snd26erJTdYk7nv9kb9FXwB5h8wav5i1q71rWLlrvUr6Qy3E79Se&#xA;gAHZVAAUDYDbFUDDDNPKkMKNLNIwSONAWZmJoAoG5JxV9X/kL/zix9Ve180fmBbq1wKTWHl6QBlQ&#xA;7FHux0Ld/S7ftb1UKvqIAAAAUA2AHSmKuxV2KuxV2KuxV2KuxV2KuxV2KuxV2KuxV2KuxV2KuxV2&#xA;KuxV4h/zkx+d48kaH/h/Q7jj5r1WM8ZEPxWls1VM1eztQiPw3bsKqvhtmLEsxqTuSepOKp75L8j+&#xA;ZvOeuRaL5es2u7yTd26RxJWhklfoiCvX7t8Vfc/5M/kL5Y/LexW5ouo+Z5kpeas6/Zr1itlP93H4&#xA;n7Td9qKFXp+KuxV2KvLvzp/Pry5+XFg1shTUfNEyVs9KVvsch8MtyV+xH7fabt3IVfCfmrzXr/mr&#xA;XLjW9evHvdRuTV5X2AUfZRFHwoi9lGwxVO/y+/KPz559u1i8v6a72gbjNqc9YrSLx5SkbkfypVvb&#xA;FX2T+T//ADjr5R/L1ItQmA1fzNx+PU5lASEkbrbRmvDw5GrHxANMVes4q7FXYq7FXYq7FXYq7FXY&#xA;q7FXYq7FXYq7FXYq7FXYq7FXYq7FWF/m1+Z2kfl35Rn1u94y3j1h0yxrRp7gglV8eC9XPYe9MVfn&#xA;l5l8x6x5l1291zWbg3OpX8hluJT0qeiqP2VUfCqjYDbFWYflF+Snmn8ydV9OyU2WiQMBf6xKpMUY&#xA;7pGNvUlp0UH5kYq+6fy9/Lfyr5B0NdI8v2vpI1GuruSjXFxIBTnM9BU77AbDsBirKMVdirsVfPX5&#xA;1/8AOR15ZXVx5P8Ay4gk1TzEpMN9qVvG1wts3Qxwoob1JexP2V9z9lV4l5e/5xq/OrzjfSahqlm2&#xA;m/WpGe51DWZCkrORyZmi/eXBJ8SlK9+uKvevIH/OIXkDQHivPMUr+ZL9KN6Uq+jZq3/GFSzPQ/zs&#xA;Qf5cVe5WdnZ2VtHa2cEdtaxDjFBCixxoPBVUAD6MVVsVdirsVdirsVdirsVdirsVdirsVdirsVdi&#xA;rsVdirsVdirsVdiqX+Ydf0ny9ol5rWrzrbadYRGa5mbso7Ad2Y7KO52xV+en5wfmpq/5j+bZdXu6&#xA;wafBWHSbCtVggr38ZH+07dzt0AAVZ5+RX/ONGq+dTDr/AJlEmneVahoY/s3F6K9I6/Yi8ZD1/Z8Q&#xA;q+0tF0XSdE0u30rSbSOy0+0QR29tCvFFUfrJ7k7k7nFUbirsVdirsVUbSysrKEQWdvHbQA1EUKLG&#xA;gJ/yVAGKq2KuxV2KuxV2KuxV2KuxV2KuxV2KuxV2KuxV2KuxV2KuxV2KuxV2KuxVp3SNGd2CIgLM&#xA;zGgAG5JJxV8Pf85H/nZP5/19PLXl15JPLVhNwiEYJN9dV4erxG5QE0iHfr3oFWf/AJEf84qrb/Vv&#xA;M35g24eaglsvLz7qndXu/Fu/pdv2u64q+okRUUIgCooAVQKAAdABireKuxV2KuxV2KuxV2KuxV2K&#xA;uxV2KuxV2KuxV2KuxV2KuxV2KuxV2KuxV2KuxV2KuxV2KuxV82/85Dfmlr3mHV/+VSfl7HLe6tdk&#xA;xa7NbbkL+1bB+iqBvOxIAHwk/axVlf5Hf8446H5Bih1nWOGp+bWWv1ilYbTkKFLcHq3YyHfwoOqr&#xA;2fFXYq7FXYq7FXYq7FXYq7FXYq7FXYq7FXYq7FXYq7FXYq7FXYq7FXYq7FXYq7FXYq7FXYq7FXYq&#xA;8c/5xs/5VX/hqX/CXP8AT/8A00X1/j+k/Xr8frf8V8/s8fh/2VcVex4q7FXYq7FXYq7FXYq7FXYq&#xA;7FXYq7FXYq7FXYq7FXYq7FXYq7FXYq7FXYq7FXYq7FXYq7FXYq7FXYq//9k=</xapGImg:image>
               </rdf:li>
            </rdf:Alt>
         </xap:Thumbnails>
         <xap:CreatorTool>Adobe Illustrator CS3</xap:CreatorTool>
         <xap:ModifyDate>2008-01-04T01:11:45-08:00</xap:ModifyDate>
         <xap:MetadataDate>2008-01-04T01:11:45-08:00</xap:MetadataDate>
      </rdf:Description>
      <rdf:Description rdf:about=""
            xmlns:xapTPg="http://ns.adobe.com/xap/1.0/t/pg/"
            xmlns:stDim="http://ns.adobe.com/xap/1.0/sType/Dimensions#"
            xmlns:xapG="http://ns.adobe.com/xap/1.0/g/">
         <xapTPg:MaxPageSize rdf:parseType="Resource">
            <stDim:w>612.000000</stDim:w>
            <stDim:h>792.000000</stDim:h>
            <stDim:unit>Points</stDim:unit>
         </xapTPg:MaxPageSize>
         <xapTPg:NPages>1</xapTPg:NPages>
         <xapTPg:HasVisibleTransparency>False</xapTPg:HasVisibleTransparency>
         <xapTPg:HasVisibleOverprint>False</xapTPg:HasVisibleOverprint>
         <xapTPg:PlateNames>
            <rdf:Seq>
               <rdf:li>Cyan</rdf:li>
               <rdf:li>Magenta</rdf:li>
               <rdf:li>Yellow</rdf:li>
               <rdf:li>Black</rdf:li>
            </rdf:Seq>
         </xapTPg:PlateNames>
         <xapTPg:SwatchGroups>
            <rdf:Seq>
               <rdf:li rdf:parseType="Resource">
                  <xapG:groupName>Default Swatch Group</xapG:groupName>
                  <xapG:groupType>0</xapG:groupType>
               </rdf:li>
            </rdf:Seq>
         </xapTPg:SwatchGroups>
      </rdf:Description>
      <rdf:Description rdf:about=""
            xmlns:dc="http://purl.org/dc/elements/1.1/">
         <dc:format>image/svg+xml</dc:format>
      </rdf:Description>
      <rdf:Description rdf:about=""
            xmlns:xapMM="http://ns.adobe.com/xap/1.0/mm/">
         <xapMM:InstanceID>uuid:D0ABF190A4BADC11828F907C0EB444D3</xapMM:InstanceID>
      </rdf:Description>
   </rdf:RDF>
</x:xmpmeta>
                                                                                                    
                                                                                                    
                                                                                                    
                                                                                                    
                                                                                                    
                                                                                                    
                                                                                                    
                                                                                                    
                                                                                                    
                                                                                                    
                                                                                                    
                                                                                                    
                                                                                                    
                                                                                                    
                                                                                                    
                                                                                                    
                                                                                                    
                                                                                                    
                                                                                                    
                                                                                                    
                           
<?xpacket end="w"?>
	</metadata>
<g id="Layer_1" i:layer="yes" i:dimmedPercent="50" i:rgbTrio="#4F008000FFFF">
	<g>
		<g id="surface0" i:knockout="Off">
			<path fill="none" stroke="#000000" stroke-width="0.1" stroke-miterlimit="10" d="M138.709,30.938
				c5.609-0.752,11.406,1.083,15.914,4.42c5.193,3.894,7.9,10.298,8.531,16.621c-0.295,8.417-5.155,16.962-13.223,20.111
				c-7.173,3.311-15.957,1.923-22.096-2.922c-5.224-4.494-8.544-11.351-8.015-18.312C120.559,40.872,128.731,32.145,138.709,30.938z
				"/>
			<path d="M138.709,30.938c5.609-0.752,11.406,1.083,15.914,4.42c5.193,3.894,7.9,10.298,8.531,16.621
				c-0.295,8.417-5.155,16.962-13.223,20.111c-7.173,3.311-15.957,1.923-22.096-2.922c-5.224-4.494-8.544-11.351-8.015-18.312
				C120.559,40.872,128.731,32.145,138.709,30.938z"/>
			<path fill="none" stroke="#000000" stroke-width="0.1" stroke-miterlimit="10" d="M80.708,66.875
				c7.386-2.163,15.97-1.732,22.092,3.353c1.917,2.876,3.946,6.594,2.431,10.088c-1.416,3.29-4.979,4.698-8.044,6.012
				c-7.894,2.683-16.457,3.841-23.707,8.161c-5.154,3.081-6.941,9.597-5.855,15.241c0.5,6.843,5.978,11.954,11.813,14.8
				c4.678,2.798,10.345,2.349,15.574,2.216c4.266-0.208,8.066-2.58,12.318-2.738c-0.103,2.978-2.86,4.734-5.127,6.142
				c-7.209,3.908-15.691,4.301-23.712,3.991c-4.148-0.199-8.006-1.968-11.519-4.065c-5.816-3.631-12.024-7.484-15.131-13.878
				c-5.994-12.084-2.534-27.284,6.337-37.039C64.017,72.554,72.544,69.487,80.708,66.875z"/>
			<path d="M80.708,66.875c7.386-2.163,15.97-1.732,22.092,3.353c1.917,2.876,3.946,6.594,2.431,10.088
				c-1.416,3.29-4.979,4.698-8.044,6.012c-7.894,2.683-16.457,3.841-23.707,8.161c-5.154,3.081-6.941,9.597-5.855,15.241
				c0.5,6.843,5.978,11.954,11.813,14.8c4.678,2.798,10.345,2.349,15.574,2.216c4.266-0.208,8.066-2.58,12.318-2.738
				c-0.103,2.978-2.86,4.734-5.127,6.142c-7.209,3.908-15.691,4.301-23.712,3.991c-4.148-0.199-8.006-1.968-11.519-4.065
				c-5.816-3.631-12.024-7.484-15.131-13.878c-5.994-12.084-2.534-27.284,6.337-37.039C64.017,72.554,72.544,69.487,80.708,66.875z"
				/>
			<path fill="none" stroke="#000000" stroke-width="0.1" stroke-miterlimit="10" d="M157.501,76.707
				c1.079-0.584,2.237-0.912,3.475-0.984c21.44-0.625,42.759,2.389,63.873,5.841c15.21,2.599,30.544,4.428,45.769,6.903
				c0.748,1.864-2.445,1.671-3.57,2.198c-24.506,3.485-49.292,4.094-73.98,5.48c-8.992,0.102-17.988,0.678-26.979,0.191
				c-4.705-0.327-9.841-1.833-12.842-5.695C149.871,85.955,152.674,79.153,157.501,76.707z"/>
			<path d="M157.501,76.707c1.079-0.584,2.237-0.912,3.475-0.984c21.44-0.625,42.759,2.389,63.873,5.841
				c15.21,2.599,30.544,4.428,45.769,6.903c0.748,1.864-2.445,1.671-3.57,2.198c-24.506,3.485-49.292,4.094-73.98,5.48
				c-8.992,0.102-17.988,0.678-26.979,0.191c-4.705-0.327-9.841-1.833-12.842-5.695C149.871,85.955,152.674,79.153,157.501,76.707z"
				/>
			<g>
				<path i:knockout="Off" d="M99.674,90.979c3.651,0,7.299,0.609,10.709,1.822c4.505,1.858,8.272,5.036,12.029,8.062
					c-1.307,9.05-8.023,17.218-16.883,19.755c-3.133,1.32-6.466,1.625-9.815,1.625c-1.865,0-3.734-0.094-5.577-0.16
					c-6.755-1.242-12.693-5.212-17.796-9.649c1.625-4.728,3.091-9.78,6.623-13.492C84.458,93.62,92.072,90.98,99.674,90.979
					 M99.675,95.979C99.674,95.979,99.674,95.979,99.675,95.979c-6.613,0-12.859,2.361-17.157,6.48
					c-2.001,2.14-3.208,5.098-4.33,8.316c4.44,3.448,8.56,5.527,12.518,6.326l0.885,0.033c1.429,0.056,2.779,0.108,4.123,0.108
					c3.424,0,5.852-0.38,7.874-1.232l0.277-0.117l0.289-0.083c5.941-1.702,10.877-6.851,12.719-12.991
					c-2.721-2.169-5.377-4.131-8.282-5.35C105.765,96.481,102.766,95.979,99.675,95.979L99.675,95.979z"/>
			</g>
			<path fill="none" stroke="#000000" stroke-width="0.1" stroke-miterlimit="10" d="M92.555,145.724
				c8.434-4.452,18.034,0.25,25.649,4.312c4.229-2.854,9.524-4.887,14.655-3.598c4.44,1.239,7.31,5.328,8.821,9.456
				c0.998,3.519-1.058,6.729-2.616,9.704c6.281,6.408,12.217,13.459,15.594,21.873c3.68,9.916-0.072,21.463-7.806,28.381
				c-6.924,6.119-13.784,12.48-21.829,17.122c-8.743,4.793-18.221,8.864-28.132,10.144c4.46-4.734,10.246-7.979,14.874-12.548
				c6.003-5.296,11.119-11.508,15.767-18.004c3.385-4.89,6.505-10.239,7.045-16.293c-2.169-4.983-6.929-7.782-10.875-11.178
				c-5.996,7.16-11.934,14.403-18.748,20.815c-11.779,10.943-24.62,20.648-36.96,30.937c-13.131,10.562-26.014,21.44-39.269,31.843
				c-0.993-1.783,0.792-2.996,1.64-4.264c23.061-27.893,44.325-57.189,66.219-85.992c1.433-1.931,2.662-4,3.898-6.059
				c-5.839-3.695-12.259-8.715-12.688-16.207C87.933,152.346,88.416,147.299,92.555,145.724z"/>
			<path d="M92.555,145.724c8.434-4.452,18.034,0.25,25.649,4.312c4.229-2.854,9.524-4.887,14.655-3.598
				c4.44,1.239,7.31,5.328,8.821,9.456c0.998,3.519-1.058,6.729-2.616,9.704c6.281,6.408,12.217,13.459,15.594,21.873
				c3.68,9.916-0.072,21.463-7.806,28.381c-6.924,6.119-13.784,12.48-21.829,17.122c-8.743,4.793-18.221,8.864-28.132,10.144
				c4.46-4.734,10.246-7.979,14.874-12.548c6.003-5.296,11.119-11.508,15.767-18.004c3.385-4.89,6.505-10.239,7.045-16.293
				c-2.169-4.983-6.929-7.782-10.875-11.178c-5.996,7.16-11.934,14.403-18.748,20.815c-11.779,10.943-24.62,20.648-36.96,30.937
				c-13.131,10.562-26.014,21.44-39.269,31.843c-0.993-1.783,0.792-2.996,1.64-4.264c23.061-27.893,44.325-57.189,66.219-85.992
				c1.433-1.931,2.662-4,3.898-6.059c-5.839-3.695-12.259-8.715-12.688-16.207C87.933,152.346,88.416,147.299,92.555,145.724z"/>
		</g>
	</g>
</g>
</svg>
