<?xml version="1.0" encoding="utf-8"?>
<!-- Generator: Adobe Illustrator 13.0.0, SVG Export Plug-In . SVG Version: 6.00 Build 14948)  -->
<!DOCTYPE svg PUBLIC "-//W3C//DTD SVG 1.1//EN" "http://www.w3.org/Graphics/SVG/1.1/DTD/svg11.dtd">
<svg version="1.1" id="Layer_1" xmlns="http://www.w3.org/2000/svg" xmlns:xlink="http://www.w3.org/1999/xlink" x="0px" y="0px"
	 width="300px" height="300px" viewBox="0 0 300 300" enable-background="new 0 0 300 300" xml:space="preserve">
<g>
	<defs>
		<rect id="SVGID_1_" width="300" height="300"/>
	</defs>
	<clipPath id="SVGID_2_">
		<use xlink:href="#SVGID_1_"  overflow="visible"/>
	</clipPath>
	<g id="surface0" clip-path="url(#SVGID_2_)">
		<path fill="none" stroke="#000000" stroke-width="0.1" stroke-miterlimit="10" d="M187.727,35.941
			c10.306-1.429,20.779,5.715,23.398,15.75c2.657,8.732-1.39,18.617-8.835,23.647c-5.605,3.597-12.876,4.701-19.155,2.274
			c-6.892-2.288-12.168-8.365-13.737-15.422c-1.735-5.236-0.133-10.889,2.342-15.604C174.908,40.668,181.212,36.959,187.727,35.941z
			"/>
		<path d="M187.727,35.941c10.306-1.429,20.779,5.715,23.398,15.75c2.657,8.732-1.39,18.617-8.835,23.647
			c-5.605,3.597-12.876,4.701-19.155,2.274c-6.892-2.288-12.168-8.365-13.737-15.422c-1.735-5.236-0.133-10.889,2.342-15.604
			C174.908,40.668,181.212,36.959,187.727,35.941z"/>
		<path fill="none" stroke="#000000" stroke-width="0.1" stroke-miterlimit="10" d="M264.717,81.489
			c4.313-10.387,9.244-20.54,12.246-31.412c1.371,8.266,0.232,16.637,0.406,24.954c0.171,10.066,1.367,21.114-4.111,30.117
			c-1.883,3.512-5.629,5.623-9.479,6.229c-9.98,1.059-20.041-0.609-29.609-3.439c-6.287-1.846-12.707-4.104-17.768-8.41
			c-3.357-2.739-5.105-7.604-3.336-11.727c1.396-3.98,5.922-5.845,9.889-5.636c7.599-0.459,14.634,2.716,21.625,5.191
			c4.52,1.78,8.727,4.246,13.133,6.279C260.043,89.586,262.875,85.806,264.717,81.489z"/>
		<path d="M264.717,81.489c4.313-10.387,9.244-20.54,12.246-31.412c1.371,8.266,0.232,16.637,0.406,24.954
			c0.171,10.066,1.367,21.114-4.111,30.117c-1.883,3.512-5.629,5.623-9.479,6.229c-9.98,1.059-20.041-0.609-29.609-3.439
			c-6.287-1.846-12.707-4.104-17.768-8.41c-3.357-2.739-5.105-7.604-3.336-11.727c1.396-3.98,5.922-5.845,9.889-5.636
			c7.599-0.459,14.634,2.716,21.625,5.191c4.52,1.78,8.727,4.246,13.133,6.279C260.043,89.586,262.875,85.806,264.717,81.489z"/>
		<path fill="none" stroke="#000000" stroke-width="0.1" stroke-miterlimit="10" d="M70.017,74.836
			c18.66,0.774,37.366,2.854,56.032,1.043c11.381-0.479,22.851-2.718,34.201-0.706c5.798,1.542,8.744,9.961,4.422,14.415
			c-2.042,2.517-5.183,4.01-8.389,4.27c-8.281,1.2-16.504-0.884-24.722-1.637c-12.179-2.114-24.102-5.458-36.066-8.526
			C86.571,82.141,78.404,78.066,70.017,74.836z"/>
		<path d="M70.017,74.836c18.66,0.774,37.366,2.854,56.032,1.043c11.381-0.479,22.851-2.718,34.201-0.706
			c5.798,1.542,8.744,9.961,4.422,14.415c-2.042,2.517-5.183,4.01-8.389,4.27c-8.281,1.2-16.504-0.884-24.722-1.637
			c-12.179-2.114-24.102-5.458-36.066-8.526C86.571,82.141,78.404,78.066,70.017,74.836z"/>
		<path fill="none" stroke="#000000" stroke-width="0.1" stroke-miterlimit="10" d="M120.222,109.257
			c9.127-6.066,18.587-12.888,29.872-13.787c5.714-0.673,11.05,2.667,14.38,7.083c6.079,8.943,10.518,18.924,13.583,29.278
			c4.677-4.61,9.81-10.232,16.915-10.206c3.869,0.413,8.172,1.911,10.105,5.571c2.084,3.36,1.537,7.482,1.002,11.192
			c-1.443,7.044-5.213,13.414-10.008,18.698c-9.137,10.065-20.246,18.048-31.493,25.571c-8.929,6.139-18.553,11.172-28.229,16.01
			c5.995-11.563,13.95-22.073,19.648-33.797c-0.933-4.036-3.648-7.492-4.519-11.598c-3.252-10.151-4.748-20.715-6.448-31.205
			c-17.621,4.538-34.6,11.28-52.236,15.779c-4.711,1.213-9.361,2.675-14.132,3.646c4.69-4.577,9.306-9.259,14.312-13.494
			C102.005,121.678,111.213,115.61,120.222,109.257z"/>
		<path d="M120.222,109.257c9.127-6.066,18.587-12.888,29.872-13.787c5.714-0.673,11.05,2.667,14.38,7.083
			c6.079,8.943,10.518,18.924,13.583,29.278c4.677-4.61,9.81-10.232,16.915-10.206c3.869,0.413,8.172,1.911,10.105,5.571
			c2.084,3.36,1.537,7.482,1.002,11.192c-1.443,7.044-5.213,13.414-10.008,18.698c-9.137,10.065-20.246,18.048-31.493,25.571
			c-8.929,6.139-18.553,11.172-28.229,16.01c5.995-11.563,13.95-22.073,19.648-33.797c-0.933-4.036-3.648-7.492-4.519-11.598
			c-3.252-10.151-4.748-20.715-6.448-31.205c-17.621,4.538-34.6,11.28-52.236,15.779c-4.711,1.213-9.361,2.675-14.132,3.646
			c4.69-4.577,9.306-9.259,14.312-13.494C102.005,121.678,111.213,115.61,120.222,109.257z"/>
		<path fill="none" stroke="#000000" stroke-width="0.1" stroke-miterlimit="10" d="M36.17,106.134
			c4.219-1.295,9.018-0.407,12.607,2.141c5.82,4,8.867,10.561,12.956,16.088c12.237,16.824,26.491,32.061,41.324,46.606
			c18.024,17.476,37.297,33.684,57.806,48.17c7.741,6,16.352,10.833,23.773,17.24c3.912,3.045,5.472,8.836,2.986,13.247
			c-3.24,5.282-7.869,9.653-13.121,12.912c-4.609,2.722-10.807,3.032-15.374,0.056c-5.991-3.83-9.658-10.139-14.772-14.928
			c-7.612-7.369-15.454-14.509-22.811-22.137c-20.597-20.127-42.073-39.332-63.032-59.08c-11.12-9.878-24.183-17.702-33.515-29.484
			c-4.75-5.808-5.146-14.714-1.181-21.027C27.064,111.791,31.099,107.882,36.17,106.134z"/>
		<path d="M36.17,106.134c4.219-1.295,9.018-0.407,12.607,2.141c5.82,4,8.867,10.561,12.956,16.088
			c12.237,16.824,26.491,32.061,41.324,46.606c18.024,17.476,37.297,33.684,57.806,48.17c7.741,6,16.352,10.833,23.773,17.24
			c3.912,3.045,5.472,8.836,2.986,13.247c-3.24,5.282-7.869,9.653-13.121,12.912c-4.609,2.722-10.807,3.032-15.374,0.056
			c-5.991-3.83-9.658-10.139-14.772-14.928c-7.612-7.369-15.454-14.509-22.811-22.137c-20.597-20.127-42.073-39.332-63.032-59.08
			c-11.12-9.878-24.183-17.702-33.515-29.484c-4.75-5.808-5.146-14.714-1.181-21.027C27.064,111.791,31.099,107.882,36.17,106.134z"
			/>
		<path fill="none" stroke="#FFFFFF" stroke-width="0.1" stroke-miterlimit="10" d="M28.704,119.886
			c2.511-3.627,6.037-6.73,10.266-8.15c4.151-0.889,7.583,2.314,10.092,5.179c2.922,3.81,5.244,8.046,8.172,11.855
			c20.382,26.963,44.625,50.778,70.311,72.655c14.475,12.062,29.795,23.052,45.272,33.776c3.634,2.697,7.863,4.955,10.187,9.013
			c-2.294,6.292-7.806,11.37-13.911,13.963c-3.953,1.678-7.633-1.21-10.299-3.835c-4.145-4.56-8.151-9.254-12.62-13.504
			c-9.215-8.463-18.004-17.373-26.873-26.195c-17.987-16.98-36.212-33.704-54.288-50.589c-11.23-10.821-25.493-18.427-35.033-30.982
			C26.829,129.519,26.61,124.014,28.704,119.886z"/>
		<path fill="#FFFFFF" d="M28.704,119.886c2.511-3.627,6.037-6.73,10.266-8.15c4.151-0.889,7.583,2.314,10.092,5.179
			c2.922,3.81,5.244,8.046,8.172,11.855c20.382,26.963,44.625,50.778,70.311,72.655c14.475,12.062,29.795,23.052,45.272,33.776
			c3.634,2.697,7.863,4.955,10.187,9.013c-2.294,6.292-7.806,11.37-13.911,13.963c-3.953,1.678-7.633-1.21-10.299-3.835
			c-4.145-4.56-8.151-9.254-12.62-13.504c-9.215-8.463-18.004-17.373-26.873-26.195c-17.987-16.98-36.212-33.704-54.288-50.589
			c-11.23-10.821-25.493-18.427-35.033-30.982C26.829,129.519,26.61,124.014,28.704,119.886z"/>
	</g>
</g>
</svg>
