<?xml version="1.0" encoding="utf-8"?>
<!-- Generator: Adobe Illustrator 13.0.0, SVG Export Plug-In . SVG Version: 6.00 Build 14948)  -->
<!DOCTYPE svg PUBLIC "-//W3C//DTD SVG 1.1//EN" "http://www.w3.org/Graphics/SVG/1.1/DTD/svg11.dtd">
<svg version="1.1" id="Layer_1" xmlns="http://www.w3.org/2000/svg" xmlns:xlink="http://www.w3.org/1999/xlink" x="0px" y="0px"
	 width="300px" height="300px" viewBox="0 0 300 300" enable-background="new 0 0 300 300" xml:space="preserve">
<g>
	<defs>
		<rect id="SVGID_1_" width="300" height="300"/>
	</defs>
	<clipPath id="SVGID_2_">
		<use xlink:href="#SVGID_1_"  overflow="visible"/>
	</clipPath>
	<g id="surface0" clip-path="url(#SVGID_2_)">
		<path fill="none" stroke="#000000" stroke-width="0.1" stroke-miterlimit="10" d="M231.381,33.518
			c12.133-4.462,26.53,4.748,27.827,17.545c2.351,12.363-8.72,24.89-21.215,24.392c-12.23,0.439-22.813-11.345-21.558-23.416
			C217.338,43.637,223.334,36.143,231.381,33.518z"/>
		<path d="M231.381,33.518c12.133-4.462,26.53,4.748,27.827,17.545c2.351,12.363-8.72,24.89-21.215,24.392
			c-12.23,0.439-22.813-11.345-21.558-23.416C217.338,43.637,223.334,36.143,231.381,33.518z"/>
		<path fill="none" stroke="#000000" stroke-width="0.1" stroke-miterlimit="10" d="M191.824,71.802
			c3.432-3.648,8.313-5.893,13.313-6.141c5.77,0.016,11.121,6.406,8.623,11.969c-2.072,5.49-6.672,9.437-11.045,13.111
			c-6.418,4.941-12.725,10.097-19.779,14.124c-13.5,8.271-26.625,17.185-40.526,24.786c-2.21,1.266-4.432,2.553-6.88,3.307
			c10.784-11.397,21.019-23.286,31.236-35.187C174.896,88.901,183.617,80.599,191.824,71.802z"/>
		<path d="M191.824,71.802c3.432-3.648,8.313-5.893,13.313-6.141c5.77,0.016,11.121,6.406,8.623,11.969
			c-2.072,5.49-6.672,9.437-11.045,13.111c-6.418,4.941-12.725,10.097-19.779,14.124c-13.5,8.271-26.625,17.185-40.526,24.786
			c-2.21,1.266-4.432,2.553-6.88,3.307c10.784-11.397,21.019-23.286,31.236-35.187C174.896,88.901,183.617,80.599,191.824,71.802z"
			/>
		<path fill="none" stroke="#000000" stroke-width="0.1" stroke-miterlimit="10" d="M280.68,113.813
			c0.838-1.957,3.136-1.481,4.793-1.188c1.846,3.875,0.289,8.453-1.797,11.915c-3.541,3.902-7.645,7.507-12.529,9.613
			c-85.479,44.812-170.938,89.666-256.418,134.476c-1.025-1.812-1.957-3.671-2.751-5.592c84.69-44.271,169.212-88.87,253.83-133.282
			c4.172-2.256,8.658-4.257,11.963-7.763C279.717,119.678,280.021,116.635,280.68,113.813z"/>
		<path d="M280.68,113.813c0.838-1.957,3.136-1.481,4.793-1.188c1.846,3.875,0.289,8.453-1.797,11.915
			c-3.541,3.902-7.645,7.507-12.529,9.613c-85.479,44.812-170.938,89.666-256.418,134.476c-1.025-1.812-1.957-3.671-2.751-5.592
			c84.69-44.271,169.212-88.87,253.83-133.282c4.172-2.256,8.658-4.257,11.963-7.763
			C279.717,119.678,280.021,116.635,280.68,113.813z"/>
		<path fill="none" stroke="#000000" stroke-width="0.1" stroke-miterlimit="10" d="M143.497,134.48
			c5.671-5.869,12.204-11.604,20.287-13.677c5.672-1.721,11.888,2.399,13.262,7.958c0.663,5.95-3.624,10.814-6.909,15.291
			c-10.832,11.481-22.163,22.577-34.665,32.245c-20.71,15.304-40.558,31.754-61.498,46.748
			c10.983-14.987,22.327-29.731,33.533-44.562C119.474,163.791,131.487,149.135,143.497,134.48z"/>
		<path d="M143.497,134.48c5.671-5.869,12.204-11.604,20.287-13.677c5.672-1.721,11.888,2.399,13.262,7.958
			c0.663,5.95-3.624,10.814-6.909,15.291c-10.832,11.481-22.163,22.577-34.665,32.245c-20.71,15.304-40.558,31.754-61.498,46.748
			c10.983-14.987,22.327-29.731,33.533-44.562C119.474,163.791,131.487,149.135,143.497,134.48z"/>
	</g>
</g>
</svg>
