<?xml version="1.0" encoding="utf-8"?>
<!-- Generator: Adobe Illustrator 13.0.0, SVG Export Plug-In . SVG Version: 6.00 Build 14948)  -->
<!DOCTYPE svg PUBLIC "-//W3C//DTD SVG 1.1//EN" "http://www.w3.org/Graphics/SVG/1.1/DTD/svg11.dtd">
<svg version="1.1" id="Layer_1" xmlns="http://www.w3.org/2000/svg" xmlns:xlink="http://www.w3.org/1999/xlink" x="0px" y="0px"
	 width="300px" height="300px" viewBox="0 0 300 300" enable-background="new 0 0 300 300" xml:space="preserve">
<g>
	<defs>
		<rect id="SVGID_1_" width="300" height="300"/>
	</defs>
	<clipPath id="SVGID_2_">
		<use xlink:href="#SVGID_1_"  overflow="visible"/>
	</clipPath>
	<g id="surface0" clip-path="url(#SVGID_2_)">
		<path fill="none" stroke="#000000" stroke-width="0.1" stroke-miterlimit="10" d="M16.398,97.536
			c32.287,4.624,64.414,10.285,96.608,15.502c9.611,1.961,19.558,2.482,28.854,5.816c4.395,1.73,9.035,4.552,10.183,9.497
			c0.554,4.874-2.268,9.994-6.872,11.866c-3.419,1.479-7.06-0.17-10.601,0.231c3.048,0.969,6.19,1.265,9.373,1.307
			c24.741,3.504,49.423,7.365,74.106,11.263c4.309,0.733,8.729,1.942,12.123,4.84c3.813,2.966,3.879,9.458,0.295,12.612
			c-3.809,3.865-9.838,2.377-14.637,1.949c-29.006-6.891-55.966-19.955-83.67-30.625c-0.837-0.355-1.616-0.81-2.336-1.363
			c-37.438-9.335-72.529-25.704-108.258-39.906C19.756,99.724,17.341,99.555,16.398,97.536z"/>
		<path d="M16.398,97.536c32.287,4.624,64.414,10.285,96.608,15.502c9.611,1.961,19.558,2.482,28.854,5.816
			c4.395,1.73,9.035,4.552,10.183,9.497c0.554,4.874-2.268,9.994-6.872,11.866c-3.419,1.479-7.06-0.17-10.601,0.231
			c3.048,0.969,6.19,1.265,9.373,1.307c24.741,3.504,49.423,7.365,74.106,11.263c4.309,0.733,8.729,1.942,12.123,4.84
			c3.813,2.966,3.879,9.458,0.295,12.612c-3.809,3.865-9.838,2.377-14.637,1.949c-29.006-6.891-55.966-19.955-83.67-30.625
			c-0.837-0.355-1.616-0.81-2.336-1.363c-37.438-9.335-72.529-25.704-108.258-39.906C19.756,99.724,17.341,99.555,16.398,97.536z"/>
		<path fill="none" stroke="#000000" stroke-width="0.1" stroke-miterlimit="10" d="M84.246,130.415
			c1.672-1.236,3.646-0.25,5.392,0.246c49.865,18.7,99.715,37.446,149.572,56.17c3.235,0.708,5.523,4.968,3.196,7.712
			c-1.566,2.975-5.442,2.337-8.02,1.256c-49.205-18.389-98.342-36.964-147.544-55.363c-1.871-0.817-4.236-1.423-4.987-3.576
			C80.553,134.482,82.119,131.661,84.246,130.415z"/>
		<path d="M84.246,130.415c1.672-1.236,3.646-0.25,5.392,0.246c49.865,18.7,99.715,37.446,149.572,56.17
			c3.235,0.708,5.523,4.968,3.196,7.712c-1.566,2.975-5.442,2.337-8.02,1.256c-49.205-18.389-98.342-36.964-147.544-55.363
			c-1.871-0.817-4.236-1.423-4.987-3.576C80.553,134.482,82.119,131.661,84.246,130.415z"/>
		<path fill="none" stroke="#000000" stroke-width="0.1" stroke-miterlimit="10" d="M80.103,148.292
			c0.778-1.993,1.565-3.979,2.381-5.955c45.385,17.34,90.827,34.534,136.223,51.847c3.533,1.423,7.379,2.597,11.184,1.523
			c2.243-0.808,4.393,0.337,5.777,2.088c-0.473,1.128-0.949,2.254-1.431,3.38c-5.456,1.048-11.526,2.117-16.686-0.543
			C171.77,183.101,125.896,165.797,80.103,148.292z"/>
		<path d="M80.103,148.292c0.778-1.993,1.565-3.979,2.381-5.955c45.385,17.34,90.827,34.534,136.223,51.847
			c3.533,1.423,7.379,2.597,11.184,1.523c2.243-0.808,4.393,0.337,5.777,2.088c-0.473,1.128-0.949,2.254-1.431,3.38
			c-5.456,1.048-11.526,2.117-16.686-0.543C171.77,183.101,125.896,165.797,80.103,148.292z"/>
		<path fill="none" stroke="#000000" stroke-width="0.1" stroke-miterlimit="10" d="M258.609,150.889
			c7.232-0.685,14.874,2.288,19.416,8.037c3.188,3.6,4.611,8.385,5.125,13.082c-0.212,7.19-3.871,14.219-9.898,18.225
			c-5.742,3.656-13.18,4.819-19.625,2.408c-9.727-3.016-16.388-13.784-14.537-23.824
			C240.832,159.373,249.063,151.854,258.609,150.889z"/>
		<path d="M258.609,150.889c7.232-0.685,14.874,2.288,19.416,8.037c3.188,3.6,4.611,8.385,5.125,13.082
			c-0.212,7.19-3.871,14.219-9.898,18.225c-5.742,3.656-13.18,4.819-19.625,2.408c-9.727-3.016-16.388-13.784-14.537-23.824
			C240.832,159.373,249.063,151.854,258.609,150.889z"/>
	</g>
</g>
</svg>
