<?xml version="1.0" encoding="utf-8"?>
<!-- Generator: Adobe Illustrator 13.0.0, SVG Export Plug-In . SVG Version: 6.00 Build 14948)  -->
<!DOCTYPE svg PUBLIC "-//W3C//DTD SVG 1.1//EN" "http://www.w3.org/Graphics/SVG/1.1/DTD/svg11.dtd">
<svg version="1.1" id="Layer_1" xmlns="http://www.w3.org/2000/svg" xmlns:xlink="http://www.w3.org/1999/xlink" x="0px" y="0px"
	 width="300px" height="300px" viewBox="0 0 300 300" enable-background="new 0 0 300 300" xml:space="preserve">
<g>
	<defs>
		<rect id="SVGID_1_" width="300" height="300"/>
	</defs>
	<clipPath id="SVGID_2_">
		<use xlink:href="#SVGID_1_"  overflow="visible"/>
	</clipPath>
	<g id="surface0" clip-path="url(#SVGID_2_)">
		<path fill="none" stroke="#000000" stroke-width="0.1" stroke-miterlimit="10" d="M177.674,7.913
			c7.322-0.845,15.018,2.038,19.925,7.555c3.139,3.83,5.17,8.563,5.552,13.52c-0.25,8.892-6.073,17.573-14.627,20.443
			c-7.661,2.973-16.822,1.364-23.079-3.932c-7.173-5.995-10.104-17.092-5.304-25.433C163.332,13.251,170.367,8.939,177.674,7.913z"
			/>
		<path d="M177.674,7.913c7.322-0.845,15.018,2.038,19.925,7.555c3.139,3.83,5.17,8.563,5.552,13.52
			c-0.25,8.892-6.073,17.573-14.627,20.443c-7.661,2.973-16.822,1.364-23.079-3.932c-7.173-5.995-10.104-17.092-5.304-25.433
			C163.332,13.251,170.367,8.939,177.674,7.913z"/>
		<path fill="none" stroke="#000000" stroke-width="0.1" stroke-miterlimit="10" d="M43.813,25.835
			c29.426,2.921,58.877,6.049,88.004,11.274c6.189,0.81,12.321,2.167,18.328,3.837c5.32,1.519,8.843,8.105,6.037,13.135
			c-2.229,4.947-8.131,6.951-13.226,6.274c-11.728-1.084-23.135-4.391-34.396-7.702c-15.777-5.053-31.434-10.632-46.416-17.738
			C56.094,31.776,49.532,29.561,43.813,25.835z"/>
		<path d="M43.813,25.835c29.426,2.921,58.877,6.049,88.004,11.274c6.189,0.81,12.321,2.167,18.328,3.837
			c5.32,1.519,8.843,8.105,6.037,13.135c-2.229,4.947-8.131,6.951-13.226,6.274c-11.728-1.084-23.135-4.391-34.396-7.702
			c-15.777-5.053-31.434-10.632-46.416-17.738C56.094,31.776,49.532,29.561,43.813,25.835z"/>
		<path fill="none" stroke="#000000" stroke-width="0.1" stroke-miterlimit="10" d="M45.751,50.92
			c1.891-2.616,5.073-3.747,8.187-3.945c7.739-0.978,14.65,3.344,21.077,7.01c7.732,3.958,14.192,9.851,21.192,14.906
			c9.005,7.623,17.703,15.611,26.582,23.385c4.475,4.525,9.811,9.857,9.04,16.807c-1.772,9.09-7.403,16.74-12.907,23.949
			c-3.793,5.48-7.801,10.809-11.497,16.356c-3.578,5.332-8.33,9.7-12.639,14.415c-4.703,4.75-9.04,9.905-14.356,14.004
			c7.365-16.395,14.759-32.786,21.974-49.253c2.519-5.946,6.109-11.405,8.159-17.551c-9.063-5.439-19.116-8.976-28.156-14.456
			c-5.871-3.505-12.06-6.445-17.875-10.046c-1.371,7.148-2.181,14.44-4.345,21.412c-1.803,5.677-5.904,11.276-12.127,12.339
			c-15.801,3.577-32.011,4.79-48.058,6.789v-9.974c8.958-3.386,17.901-6.813,26.893-10.109c4.842-1.497,9.743-2.81,14.499-4.576
			C41.387,90.6,41.35,78.817,41.401,67.035C41.63,61.48,42.241,55.467,45.751,50.92z"/>
		<path d="M45.751,50.92c1.891-2.616,5.073-3.747,8.187-3.945c7.739-0.978,14.65,3.344,21.077,7.01
			c7.732,3.958,14.192,9.851,21.192,14.906c9.005,7.623,17.703,15.611,26.582,23.385c4.475,4.525,9.811,9.857,9.04,16.807
			c-1.772,9.09-7.403,16.74-12.907,23.949c-3.793,5.48-7.801,10.809-11.497,16.356c-3.578,5.332-8.33,9.7-12.639,14.415
			c-4.703,4.75-9.04,9.905-14.356,14.004c7.365-16.395,14.759-32.786,21.974-49.253c2.519-5.946,6.109-11.405,8.159-17.551
			c-9.063-5.439-19.116-8.976-28.156-14.456c-5.871-3.505-12.06-6.445-17.875-10.046c-1.371,7.148-2.181,14.44-4.345,21.412
			c-1.803,5.677-5.904,11.276-12.127,12.339c-15.801,3.577-32.011,4.79-48.058,6.789v-9.974c8.958-3.386,17.901-6.813,26.893-10.109
			c4.842-1.497,9.743-2.81,14.499-4.576C41.387,90.6,41.35,78.817,41.401,67.035C41.63,61.48,42.241,55.467,45.751,50.92z"/>
		<path fill="none" stroke="#000000" stroke-width="0.1" stroke-miterlimit="10" d="M267.691,109.908
			c7.31-0.828,14.985,2.04,19.891,7.541c3.33,4.099,5.56,9.26,5.541,14.592c-0.654,6.746-4.172,13.381-9.959,17.073
			c-7.916,5.301-19.038,4.983-26.641-0.758c-7.947-5.78-11.426-17.553-6.37-26.316C253.354,115.232,260.389,110.933,267.691,109.908
			z"/>
		<path d="M267.691,109.908c7.31-0.828,14.985,2.04,19.891,7.541c3.33,4.099,5.56,9.26,5.541,14.592
			c-0.654,6.746-4.172,13.381-9.959,17.073c-7.916,5.301-19.038,4.983-26.641-0.758c-7.947-5.78-11.426-17.553-6.37-26.316
			C253.354,115.232,260.389,110.933,267.691,109.908z"/>
		<path fill="none" stroke="#000000" stroke-width="0.1" stroke-miterlimit="10" d="M133.73,127.862
			c32.258,3.069,64.523,6.753,96.395,12.688c5.19,1.434,11.641,1.372,15.184,6.083c3.413,4.305,1.73,10.91-2.811,13.695
			c-4.848,3.309-10.977,1.904-16.383,1.207c-13.436-2.538-26.635-6.254-39.509-10.847c-13.579-4.617-26.915-9.967-39.795-16.287
			C142.485,132.153,137.781,130.616,133.73,127.862z"/>
		<path d="M133.73,127.862c32.258,3.069,64.523,6.753,96.395,12.688c5.19,1.434,11.641,1.372,15.184,6.083
			c3.413,4.305,1.73,10.91-2.811,13.695c-4.848,3.309-10.977,1.904-16.383,1.207c-13.436-2.538-26.635-6.254-39.509-10.847
			c-13.579-4.617-26.915-9.967-39.795-16.287C142.485,132.153,137.781,130.616,133.73,127.862z"/>
		<path fill="none" stroke="#000000" stroke-width="0.1" stroke-miterlimit="10" d="M138.528,150.43
			c5.431-2.564,11.943-1.797,17.285,0.666c21.877,10.123,38.971,27.549,56.946,43.139c4.476,4.554,9.804,9.845,9.106,16.814
			c-2.239,11.547-10.627,20.245-16.938,29.705c-4.852,6.223-8.634,13.271-14.277,18.861c-6.721,6.715-12.721,14.215-20.199,20.125
			c7.48-16.607,14.957-33.232,22.275-49.92c2.419-5.688,5.963-10.889,7.781-16.822c-9-5.469-19.046-8.939-28.041-14.418
			c-5.865-3.549-12.131-6.395-17.895-10.112c-2.287,9.644-2.021,20.596-8.326,28.772c-2.126,3.138-5.813,4.535-9.365,5.316
			c-15.181,3.323-30.712,4.325-46.065,6.556c-9.258,0.919-18.547,3.031-27.88,1.972c15.811-8.385,32.8-14.119,49.478-20.479
			c6.173-2.541,12.763-3.814,18.982-6.231c0.002-12.104-0.078-24.211,0.035-36.313C131.813,161.738,132.79,154.222,138.528,150.43z"
			/>
		<path d="M138.528,150.43c5.431-2.564,11.943-1.797,17.285,0.666c21.877,10.123,38.971,27.549,56.946,43.139
			c4.476,4.554,9.804,9.845,9.106,16.814c-2.239,11.547-10.627,20.245-16.938,29.705c-4.852,6.223-8.634,13.271-14.277,18.861
			c-6.721,6.715-12.721,14.215-20.199,20.125c7.48-16.607,14.957-33.232,22.275-49.92c2.419-5.688,5.963-10.889,7.781-16.822
			c-9-5.469-19.046-8.939-28.041-14.418c-5.865-3.549-12.131-6.395-17.895-10.112c-2.287,9.644-2.021,20.596-8.326,28.772
			c-2.126,3.138-5.813,4.535-9.365,5.316c-15.181,3.323-30.712,4.325-46.065,6.556c-9.258,0.919-18.547,3.031-27.88,1.972
			c15.811-8.385,32.8-14.119,49.478-20.479c6.173-2.541,12.763-3.814,18.982-6.231c0.002-12.104-0.078-24.211,0.035-36.313
			C131.813,161.738,132.79,154.222,138.528,150.43z"/>
		<path fill="none" stroke="#000000" stroke-width="0.1" stroke-miterlimit="10" d="M63.379,184.381
			c19.081-0.001,38.161-0.001,57.242,0c-0.003,1.998-0.003,3.999-0.006,6.001c-19.076-0.003-38.152-0.003-57.228,0.001
			C63.381,188.38,63.38,186.379,63.379,184.381z"/>
		<path d="M63.379,184.381c19.081-0.001,38.161-0.001,57.242,0c-0.003,1.998-0.003,3.999-0.006,6.001
			c-19.076-0.003-38.152-0.003-57.228,0.001C63.381,188.38,63.38,186.379,63.379,184.381z"/>
		<path fill="none" stroke="#000000" stroke-width="0.1" stroke-miterlimit="10" d="M25.639,202.824
			c2.714-0.006,5.428-0.006,8.142-0.012c0.032,2.332,0.042,4.667,0.043,7.004c-2.737,0.004-5.473,0.003-8.209-0.003
			C25.618,207.481,25.622,205.152,25.639,202.824z"/>
		<path d="M25.639,202.824c2.714-0.006,5.428-0.006,8.142-0.012c0.032,2.332,0.042,4.667,0.043,7.004
			c-2.737,0.004-5.473,0.003-8.209-0.003C25.618,207.481,25.622,205.152,25.639,202.824z"/>
		<path fill="none" stroke="#000000" stroke-width="0.1" stroke-miterlimit="10" d="M61.64,202.822
			c2.709-0.003,5.419-0.004,8.13-0.014c0.042,2.334,0.054,4.67,0.055,7.008c-2.738,0.004-5.475,0.003-8.211-0.004
			C61.617,207.48,61.622,205.15,61.64,202.822z"/>
		<path d="M61.64,202.822c2.709-0.003,5.419-0.004,8.13-0.014c0.042,2.334,0.054,4.67,0.055,7.008
			c-2.738,0.004-5.475,0.003-8.211-0.004C61.617,207.48,61.622,205.15,61.64,202.822z"/>
		<path fill="none" stroke="#000000" stroke-width="0.1" stroke-miterlimit="10" d="M97.639,202.822
			c2.71-0.003,5.42-0.004,8.131-0.014c0.042,2.334,0.054,4.67,0.055,7.008c-2.737,0.004-5.474,0.003-8.21-0.004
			C97.617,207.48,97.621,205.15,97.639,202.822z"/>
		<path d="M97.639,202.822c2.71-0.003,5.42-0.004,8.131-0.014c0.042,2.334,0.054,4.67,0.055,7.008
			c-2.737,0.004-5.474,0.003-8.21-0.004C97.617,207.48,97.621,205.15,97.639,202.822z"/>
		<path fill="none" stroke="#000000" stroke-width="0.1" stroke-miterlimit="10" d="M241.64,202.821
			c2.708-0.002,5.418-0.003,8.13-0.013c0.041,2.334,0.053,4.67,0.055,7.008c-2.738,0.004-5.476,0.003-8.211-0.004
			C241.615,207.479,241.62,205.15,241.64,202.821z"/>
		<path d="M241.64,202.821c2.708-0.002,5.418-0.003,8.13-0.013c0.041,2.334,0.053,4.67,0.055,7.008
			c-2.738,0.004-5.476,0.003-8.211-0.004C241.615,207.479,241.62,205.15,241.64,202.821z"/>
		<path fill="none" stroke="#000000" stroke-width="0.1" stroke-miterlimit="10" d="M277.639,202.822
			c2.711-0.003,5.422-0.004,8.136-0.012c0.036,2.333,0.046,4.668,0.05,7.006c-2.739,0.003-5.475,0.003-8.209-0.004
			C277.615,207.48,277.619,205.15,277.639,202.822z"/>
		<path d="M277.639,202.822c2.711-0.003,5.422-0.004,8.136-0.012c0.036,2.333,0.046,4.668,0.05,7.006
			c-2.739,0.003-5.475,0.003-8.209-0.004C277.615,207.48,277.619,205.15,277.639,202.822z"/>
		<path fill="none" stroke="#000000" stroke-width="0.1" stroke-miterlimit="10" d="M169.641,202.819
			c2.711,0,5.422-0.001,8.137-0.008c0.035,2.333,0.044,4.666,0.049,7.003c-2.74,0.005-5.477,0.006-8.212-0.002
			C169.615,207.479,169.621,205.148,169.641,202.819z"/>
		<path d="M169.641,202.819c2.711,0,5.422-0.001,8.137-0.008c0.035,2.333,0.044,4.666,0.049,7.003
			c-2.74,0.005-5.477,0.006-8.212-0.002C169.615,207.479,169.621,205.148,169.641,202.819z"/>
		<path fill="none" stroke="#000000" stroke-width="0.1" stroke-miterlimit="10" d="M44.144,218.895
			c1.982-0.753,3.959-1.518,5.924-2.312c6.609,17.909,13.199,35.825,19.844,53.722c-1.919,0.771-3.893,1.411-5.933,1.776
			C57.498,254.305,50.661,236.658,44.144,218.895z"/>
		<path d="M44.144,218.895c1.982-0.753,3.959-1.518,5.924-2.312c6.609,17.909,13.199,35.825,19.844,53.722
			c-1.919,0.771-3.893,1.411-5.933,1.776C57.498,254.305,50.661,236.658,44.144,218.895z"/>
		<path fill="none" stroke="#000000" stroke-width="0.1" stroke-miterlimit="10" d="M153.379,286.381c19.08-0.002,38.16,0,57.242,0
			c-0.004,1.997-0.005,3.998-0.006,6.001c-19.077-0.003-38.152-0.003-57.229,0C153.381,290.379,153.379,288.378,153.379,286.381z"/>
		<path d="M153.379,286.381c19.08-0.002,38.16,0,57.242,0c-0.004,1.997-0.005,3.998-0.006,6.001
			c-19.077-0.003-38.152-0.003-57.229,0C153.381,290.379,153.379,288.378,153.379,286.381z"/>
	</g>
</g>
</svg>
