<?xml version="1.0" encoding="utf-8"?>
<!-- Generator: Adobe Illustrator 13.0.0, SVG Export Plug-In . SVG Version: 6.00 Build 14948)  -->
<!DOCTYPE svg PUBLIC "-//W3C//DTD SVG 1.1//EN" "http://www.w3.org/Graphics/SVG/1.1/DTD/svg11.dtd">
<svg version="1.1" id="Layer_1" xmlns="http://www.w3.org/2000/svg" xmlns:xlink="http://www.w3.org/1999/xlink" x="0px" y="0px"
	 width="300px" height="300px" viewBox="0 0 300 300" enable-background="new 0 0 300 300" xml:space="preserve">
<g>
	<defs>
		<rect id="SVGID_1_" width="300" height="300"/>
	</defs>
	<clipPath id="SVGID_2_">
		<use xlink:href="#SVGID_1_"  overflow="visible"/>
	</clipPath>
	<g id="surface0" clip-path="url(#SVGID_2_)">
		<path fill="none" stroke="#000000" stroke-width="0.1" stroke-miterlimit="10" d="M119.148,2.27
			c8.445,2.226,16.314,6.042,24.363,9.351c4.338,1.824,8.778,3.504,12.735,6.096c11.08,7.071,22.334,14.085,31.898,23.184
			c3.485,3.702,7.18,7.425,8.951,12.311c1.695,2.567-0.096,5.455-0.691,8.082c-3.631,2.566-8.404,3.485-12.572,1.703
			c-5.984-2.482-10.459-7.317-15.077-11.674c-8.833-9.848-16.894-20.411-26.455-29.586C134.579,15.251,126.793,8.842,119.148,2.27z"
			/>
		<path d="M119.148,2.27c8.445,2.226,16.314,6.042,24.363,9.351c4.338,1.824,8.778,3.504,12.735,6.096
			c11.08,7.071,22.334,14.085,31.898,23.184c3.485,3.702,7.18,7.425,8.951,12.311c1.695,2.567-0.096,5.455-0.691,8.082
			c-3.631,2.566-8.404,3.485-12.572,1.703c-5.984-2.482-10.459-7.317-15.077-11.674c-8.833-9.848-16.894-20.411-26.455-29.586
			C134.579,15.251,126.793,8.842,119.148,2.27z"/>
		<path fill="none" stroke="#000000" stroke-width="0.1" stroke-miterlimit="10" d="M21.148,11.269
			c9.813,2.646,18.915,7.245,28.32,11.006c7.154,2.765,13.297,7.45,19.741,11.5c10.026,6.745,20.189,13.834,27.455,23.659
			c1.3,2.177,2.405,4.491,3.241,6.887c-0.201,2.055-0.941,4-1.502,5.974c-3.632,2.554-8.396,3.492-12.564,1.704
			c-5.995-2.481-10.475-7.326-15.097-11.691c-8.82-9.834-16.87-20.382-26.415-29.546C36.6,24.264,28.8,17.853,21.148,11.269z"/>
		<path d="M21.148,11.269c9.813,2.646,18.915,7.245,28.32,11.006c7.154,2.765,13.297,7.45,19.741,11.5
			c10.026,6.745,20.189,13.834,27.455,23.659c1.3,2.177,2.405,4.491,3.241,6.887c-0.201,2.055-0.941,4-1.502,5.974
			c-3.632,2.554-8.396,3.492-12.564,1.704c-5.995-2.481-10.475-7.326-15.097-11.691c-8.82-9.834-16.87-20.382-26.415-29.546
			C36.6,24.264,28.8,17.853,21.148,11.269z"/>
		<path fill="none" stroke="#000000" stroke-width="0.1" stroke-miterlimit="10" d="M230.676,36.91
			c7.316-0.842,14.996,2.038,19.907,7.538c3.331,4.108,5.575,9.28,5.536,14.623c-0.652,6.521-3.947,12.96-9.438,16.687
			c-6.486,4.563-15.33,5.444-22.585,2.219c-10.603-4.18-16.746-17.861-11.3-28.24C215.902,42.595,223.098,37.949,230.676,36.91z"/>
		<path d="M230.676,36.91c7.316-0.842,14.996,2.038,19.907,7.538c3.331,4.108,5.575,9.28,5.536,14.623
			c-0.652,6.521-3.947,12.96-9.438,16.687c-6.486,4.563-15.33,5.444-22.585,2.219c-10.603-4.18-16.746-17.861-11.3-28.24
			C215.902,42.595,223.098,37.949,230.676,36.91z"/>
		<path fill="none" stroke="#000000" stroke-width="0.1" stroke-miterlimit="10" d="M132.623,45.916
			c7.333-0.862,15.042,2.018,19.961,7.537c3.329,4.099,5.559,9.257,5.539,14.588c-0.645,6.527-3.938,12.976-9.431,16.709
			c-6.487,4.573-15.343,5.455-22.602,2.223c-10.621-4.187-16.758-17.915-11.263-28.294C117.933,51.581,125.087,46.97,132.623,45.916
			z"/>
		<path d="M132.623,45.916c7.333-0.862,15.042,2.018,19.961,7.537c3.329,4.099,5.559,9.257,5.539,14.588
			c-0.645,6.527-3.938,12.976-9.431,16.709c-6.487,4.573-15.343,5.455-22.602,2.223c-10.621-4.187-16.758-17.915-11.263-28.294
			C117.933,51.581,125.087,46.97,132.623,45.916z"/>
		<path fill="none" stroke="#000000" stroke-width="0.1" stroke-miterlimit="10" d="M192.629,87.918
			c7.336-0.867,15.051,2.023,19.967,7.549c3.324,4.102,5.557,9.263,5.525,14.595c-0.648,6.508-3.93,12.939-9.402,16.668
			c-6.497,4.6-15.383,5.476-22.656,2.23c-10.601-4.197-16.721-17.901-11.242-28.271C177.926,93.587,185.085,88.965,192.629,87.918z"
			/>
		<path d="M192.629,87.918c7.336-0.867,15.051,2.023,19.967,7.549c3.324,4.102,5.557,9.263,5.525,14.595
			c-0.648,6.508-3.93,12.939-9.402,16.668c-6.497,4.6-15.383,5.476-22.656,2.23c-10.601-4.197-16.721-17.901-11.242-28.271
			C177.926,93.587,185.085,88.965,192.629,87.918z"/>
		<path fill="none" stroke="#000000" stroke-width="0.1" stroke-miterlimit="10" d="M244.749,92.454
			c2.521-2.707,6.347-1.43,9.496-0.932c2.193,0.088,3.397,2.139,4.493,3.758c2.078,3.757,2.739,8.081,3.408,12.265
			c1.403,11.721,1.732,23.531,2.723,35.287c1.554,10.186,3.438,20.321,5.063,30.498c0.718,4.751,2.189,9.38,2.46,14.199
			c-0.901-0.718-1.595-1.646-2.052-2.693c-5.062-10.226-10.189-20.419-15.289-30.625c-3.785-7.082-7.422-14.393-9.121-22.293
			c-1.355-6.895-2.799-13.777-3.861-20.725C241.232,105.015,240.459,97.571,244.749,92.454z"/>
		<path d="M244.749,92.454c2.521-2.707,6.347-1.43,9.496-0.932c2.193,0.088,3.397,2.139,4.493,3.758
			c2.078,3.757,2.739,8.081,3.408,12.265c1.403,11.721,1.732,23.531,2.723,35.287c1.554,10.186,3.438,20.321,5.063,30.498
			c0.718,4.751,2.189,9.38,2.46,14.199c-0.901-0.718-1.595-1.646-2.052-2.693c-5.062-10.226-10.189-20.419-15.289-30.625
			c-3.785-7.082-7.422-14.393-9.121-22.293c-1.355-6.895-2.799-13.777-3.861-20.725C241.232,105.015,240.459,97.571,244.749,92.454z
			"/>
		<path fill="none" stroke="#000000" stroke-width="0.1" stroke-miterlimit="10" d="M57.184,96.247
			c5.148-3.367,11.913-2.192,16.983,0.731c1.975,3.948,2.704,8.328,3.142,12.679c2.188,0.399,4.461,0.652,6.474,1.67
			c6.462,2.644,7.41,12.492,2.407,16.976c-5.772,5.494-14.021,6.47-21.324,8.572c-4.876,7.023-9.517,14.306-15.332,20.646
			c-3.238,3.387-5.614,8.025-10.308,9.623C26.478,172.107,13.221,175.594,0,179.035v-12.658c8.736-4.633,18.062-8.367,25.876-14.556
			c2.911-2.295,4.9-5.479,6.983-8.487c-10.908,1.792-21.903,2.952-32.859,4.399v-14.368c12.656-4.635,25.338-9.207,38.163-13.368
			c1.99-0.805,4.664-1.277,5.185-3.736C46.219,108.623,50.352,101.018,57.184,96.247z"/>
		<path d="M57.184,96.247c5.148-3.367,11.913-2.192,16.983,0.731c1.975,3.948,2.704,8.328,3.142,12.679
			c2.188,0.399,4.461,0.652,6.474,1.67c6.462,2.644,7.41,12.492,2.407,16.976c-5.772,5.494-14.021,6.47-21.324,8.572
			c-4.876,7.023-9.517,14.306-15.332,20.646c-3.238,3.387-5.614,8.025-10.308,9.623C26.478,172.107,13.221,175.594,0,179.035
			v-12.658c8.736-4.633,18.062-8.367,25.876-14.556c2.911-2.295,4.9-5.479,6.983-8.487c-10.908,1.792-21.903,2.952-32.859,4.399
			v-14.368c12.656-4.635,25.338-9.207,38.163-13.368c1.99-0.805,4.664-1.277,5.185-3.736
			C46.219,108.623,50.352,101.018,57.184,96.247z"/>
		<path fill="none" stroke="#000000" stroke-width="0.1" stroke-miterlimit="10" d="M114.147,105.268
			c9.825,2.639,18.927,7.257,28.342,11.016c5.116,1.942,9.692,4.971,14.26,7.93c11.311,7.415,22.975,14.865,31.599,25.474
			c1.838,2.083,2.904,4.681,4.033,7.185c1.254,2.413-0.512,5.006-0.979,7.42c-3.619,2.563-8.385,3.483-12.543,1.713
			c-5.999-2.478-10.483-7.321-15.105-11.688c-8.828-9.838-16.881-20.395-26.434-29.564
			C129.595,118.259,121.796,111.851,114.147,105.268z"/>
		<path d="M114.147,105.268c9.825,2.639,18.927,7.257,28.342,11.016c5.116,1.942,9.692,4.971,14.26,7.93
			c11.311,7.415,22.975,14.865,31.599,25.474c1.838,2.083,2.904,4.681,4.033,7.185c1.254,2.413-0.512,5.006-0.979,7.42
			c-3.619,2.563-8.385,3.483-12.543,1.713c-5.999-2.478-10.483-7.321-15.105-11.688c-8.828-9.838-16.881-20.395-26.434-29.564
			C129.595,118.259,121.796,111.851,114.147,105.268z"/>
		<path fill="none" stroke="#000000" stroke-width="0.1" stroke-miterlimit="10" d="M116.588,138.634
			c5.165-3.746,12.337-2.803,17.54,0.374c2.128,3.917,2.698,8.381,3.194,12.743c3.952,0.317,8.573,1.551,10.645,5.265
			c2.342,4.375,1.701,10.352-2.157,13.676c-5.867,5.029-13.732,6.383-21.036,8.015c-5.885,9.835-13.195,18.679-20.741,27.268
			c-2.359,2.74-6.058,3.577-9.277,4.873c-17.6,6.336-35.922,10.202-53.949,15.059c-3.58,0.786-7.225,2.464-10.938,1.55
			c6.435-5.827,14.81-8.672,21.492-14.115c11.043-7.264,23.973-11.276,34.451-19.457c2.956-2.291,4.938-5.525,7.046-8.551
			c-11.9,1.89-23.871,3.311-35.84,4.664c-12.351,0.938-24.587,2.959-36.954,3.73c-4.708,0.189-9.325,1.316-14.034,1.44
			c13.726-6.137,27.997-10.878,42.191-15.768c16.699-5.649,33.144-12.004,49.932-17.401c2-0.807,4.768-1.268,5.23-3.789
			C106.11,150.764,110.172,143.503,116.588,138.634z"/>
		<path d="M116.588,138.634c5.165-3.746,12.337-2.803,17.54,0.374c2.128,3.917,2.698,8.381,3.194,12.743
			c3.952,0.317,8.573,1.551,10.645,5.265c2.342,4.375,1.701,10.352-2.157,13.676c-5.867,5.029-13.732,6.383-21.036,8.015
			c-5.885,9.835-13.195,18.679-20.741,27.268c-2.359,2.74-6.058,3.577-9.277,4.873c-17.6,6.336-35.922,10.202-53.949,15.059
			c-3.58,0.786-7.225,2.464-10.938,1.55c6.435-5.827,14.81-8.672,21.492-14.115c11.043-7.264,23.973-11.276,34.451-19.457
			c2.956-2.291,4.938-5.525,7.046-8.551c-11.9,1.89-23.871,3.311-35.84,4.664c-12.351,0.938-24.587,2.959-36.954,3.73
			c-4.708,0.189-9.325,1.316-14.034,1.44c13.726-6.137,27.997-10.878,42.191-15.768c16.699-5.649,33.144-12.004,49.932-17.401
			c2-0.807,4.768-1.268,5.23-3.789C106.11,150.764,110.172,143.503,116.588,138.634z"/>
		<path fill="none" stroke="#000000" stroke-width="0.1" stroke-miterlimit="10" d="M225.671,139.909
			c7.314-0.838,14.996,2.032,19.907,7.534c3.334,4.109,5.58,9.284,5.541,14.629c-0.65,6.495-3.921,12.914-9.379,16.643
			c-6.482,4.598-15.351,5.494-22.621,2.271c-10.619-4.172-16.773-17.869-11.318-28.256
			C210.907,145.593,218.096,140.951,225.671,139.909z"/>
		<path d="M225.671,139.909c7.314-0.838,14.996,2.032,19.907,7.534c3.334,4.109,5.58,9.284,5.541,14.629
			c-0.65,6.495-3.921,12.914-9.379,16.643c-6.482,4.598-15.351,5.494-22.621,2.271c-10.619-4.172-16.773-17.869-11.318-28.256
			C210.907,145.593,218.096,140.951,225.671,139.909z"/>
		<path fill="none" stroke="#000000" stroke-width="0.1" stroke-miterlimit="10" d="M149.57,190.646
			c5.165-3.762,12.35-2.816,17.559,0.361c2.129,3.918,2.694,8.383,3.194,12.745c3.95,0.315,8.571,1.55,10.642,5.261
			c2.348,4.382,1.7,10.373-2.175,13.691c-5.859,5.016-13.712,6.373-21.006,7.994c-4.812,7.72-10.101,15.167-16.212,21.921
			c-2.716,2.894-4.751,6.77-8.664,8.225c-20.299,8.093-41.835,12.245-62.834,18.039c-2.369,0.579-4.854,1.313-7.265,0.511
			c5.214-4.22,11.067-7.48,16.93-10.671c9.983-8.047,22.34-12.124,33.189-18.759c5.35-3.019,9.839-7.309,12.928-12.635
			c-28.807,4.411-57.869,6.885-86.838,9.836c15.742-7.049,32.212-12.199,48.441-17.952c14.366-4.859,28.496-10.381,42.959-14.967
			c2.198-0.925,5.409-1.261,5.972-4.059C139.115,202.756,143.172,195.514,149.57,190.646z"/>
		<path d="M149.57,190.646c5.165-3.762,12.35-2.816,17.559,0.361c2.129,3.918,2.694,8.383,3.194,12.745
			c3.95,0.315,8.571,1.55,10.642,5.261c2.348,4.382,1.7,10.373-2.175,13.691c-5.859,5.016-13.712,6.373-21.006,7.994
			c-4.812,7.72-10.101,15.167-16.212,21.921c-2.716,2.894-4.751,6.77-8.664,8.225c-20.299,8.093-41.835,12.245-62.834,18.039
			c-2.369,0.579-4.854,1.313-7.265,0.511c5.214-4.22,11.067-7.48,16.93-10.671c9.983-8.047,22.34-12.124,33.189-18.759
			c5.35-3.019,9.839-7.309,12.928-12.635c-28.807,4.411-57.869,6.885-86.838,9.836c15.742-7.049,32.212-12.199,48.441-17.952
			c14.366-4.859,28.496-10.381,42.959-14.967c2.198-0.925,5.409-1.261,5.972-4.059C139.115,202.756,143.172,195.514,149.57,190.646z
			"/>
		<path fill="none" stroke="#000000" stroke-width="0.1" stroke-miterlimit="10" d="M239.729,195.474
			c2.495-2.714,6.312-1.466,9.449-0.966c2.47,0.138,3.788,2.55,4.924,4.432c3.169,6.9,3.3,14.659,4.077,22.084
			c0.565,8.256,1.035,16.519,1.684,24.77c1.555,10.207,3.443,20.361,5.071,30.56c0.72,4.742,2.186,9.364,2.458,14.177
			c-0.908-0.742-1.618-1.683-2.081-2.749c-5.061-10.23-10.192-20.425-15.294-30.634c-3.9-7.287-7.619-14.832-9.254-22.992
			c-1.307-6.827-2.756-13.628-3.781-20.504C236.229,207.645,235.563,200.43,239.729,195.474z"/>
		<path d="M239.729,195.474c2.495-2.714,6.312-1.466,9.449-0.966c2.47,0.138,3.788,2.55,4.924,4.432
			c3.169,6.9,3.3,14.659,4.077,22.084c0.565,8.256,1.035,16.519,1.684,24.77c1.555,10.207,3.443,20.361,5.071,30.56
			c0.72,4.742,2.186,9.364,2.458,14.177c-0.908-0.742-1.618-1.683-2.081-2.749c-5.061-10.23-10.192-20.425-15.294-30.634
			c-3.9-7.287-7.619-14.832-9.254-22.992c-1.307-6.827-2.756-13.628-3.781-20.504C236.229,207.645,235.563,200.43,239.729,195.474z"
			/>
		<path fill="none" stroke="#000000" stroke-width="0.1" stroke-miterlimit="10" d="M13.968,232.905
			c0.846-1.874,2.365-3.301,3.769-4.751c3.69,3.184,7.568,6.145,11.463,9.074c-1.008,1.734-2.181,3.365-3.396,4.963
			C21.608,239.491,17.472,236.417,13.968,232.905z"/>
		<path d="M13.968,232.905c0.846-1.874,2.365-3.301,3.769-4.751c3.69,3.184,7.568,6.145,11.463,9.074
			c-1.008,1.734-2.181,3.365-3.396,4.963C21.608,239.491,17.472,236.417,13.968,232.905z"/>
		<path fill="none" stroke="#000000" stroke-width="0.1" stroke-miterlimit="10" d="M8.083,257.216
			c7.086-2.825,13.969-6.127,20.994-9.098c0.892,1.905,1.732,3.837,2.515,5.796c-7.272,2.807-14.188,6.5-21.556,9.049
			C9.274,261.084,8.542,259.189,8.083,257.216z"/>
		<path d="M8.083,257.216c7.086-2.825,13.969-6.127,20.994-9.098c0.892,1.905,1.732,3.837,2.515,5.796
			c-7.272,2.807-14.188,6.5-21.556,9.049C9.274,261.084,8.542,259.189,8.083,257.216z"/>
		<path fill="none" stroke="#000000" stroke-width="0.1" stroke-miterlimit="10" d="M47.316,285.496
			c-0.583-2.13,2.254-3.723,3.372-5.352c3.731,3.158,7.6,6.152,11.511,9.086c-1.009,1.729-2.176,3.358-3.385,4.956
			C54.671,291.744,51.066,288.481,47.316,285.496z"/>
		<path d="M47.316,285.496c-0.583-2.13,2.254-3.723,3.372-5.352c3.731,3.158,7.6,6.152,11.511,9.086
			c-1.009,1.729-2.176,3.358-3.385,4.956C54.671,291.744,51.066,288.481,47.316,285.496z"/>
	</g>
</g>
</svg>
