<?xml version="1.0" encoding="utf-8"?>
<!-- Generator: Adobe Illustrator 24.3.0, SVG Export Plug-In . SVG Version: 6.00 Build 0)  -->
<svg version="1.1" id="bd7f34a5-2bde-4ac3-958a-4017b9168e51"
	 xmlns="http://www.w3.org/2000/svg" xmlns:xlink="http://www.w3.org/1999/xlink" x="0px" y="0px" width="300px" height="300px"
	 viewBox="0 0 300 300" style="enable-background:new 0 0 300 300;" xml:space="preserve">
<style type="text/css">
	.st0{fill:none;stroke:#000000;stroke-width:7;stroke-miterlimit:10;}
	.st1{fill:none;stroke:#000000;stroke-width:7;stroke-linecap:round;stroke-miterlimit:10;}
</style>
<path d="M218.213,74.072c48.458-0.966,77.863,41.114,33.955,74.953c-1.221,1.033-3.1-0.444-2.355-1.875
	c5.727-12.115,15.203-29.417,3.533-40.748c-10.326-8.39-24.026-9.779-36.734-12.388C205.036,91.689,206.396,74.531,218.213,74.072z"
	/>
<path d="M68.306,258.144c17.454-27.154,38.67-51.962,62.238-73.995c14.553-13.693,30.72-25.993,49.068-34.071
	c13.651-5.727,24.584,12.119,13.212,21.668c-19.645,15.974-40.92,28.711-61.262,43.536c-15.372,10.95-30.311,22.489-45.216,34.112
	c-5.051,3.844-9.953,7.864-15.061,11.691C69.452,262.536,66.836,260.026,68.306,258.144z"/>
<path d="M288.062,243.387c-20.494-1.507-42.014-4.955-59.373-16.666c-17.143-11.526-23.391-32.905-24.844-52.559
	c-0.504-6.425-0.188-13.047,1.415-19.304c1.456-6.97,8.287-11.439,15.256-9.983c4.849,1.013,8.688,4.714,9.878,9.523
	c2.709,10.955,2.772,22.085,3.1,31.465c-0.084,10.292,2.882,20.791,10.904,27.704c6.06,5.752,13.387,10.237,20.717,14.172
	c7.669,4.117,16.123,7.974,24.139,11.469C291.527,240.145,290.517,243.786,288.062,243.387z"/>
<path d="M160.6,111.549c-21.245,20.303-54.58,25.05-81.819,15.406c-3.73-1.263-7.38-2.751-10.93-4.455
	c-0.729-0.326-1.055-1.18-0.729-1.909c0.256-0.571,0.85-0.913,1.472-0.847c1.911,0.205,3.811,0.361,5.682,0.598
	c17.818,1.92,36.413-0.716,52.26-9.352c7.736-4.146,14.639-9.189,22.077-14.173C158.214,90.62,168.637,103.381,160.6,111.549z"/>
<g>
	
		<ellipse transform="matrix(0.7825 -0.6227 0.6227 0.7825 -39.621 37.8864)" class="st0" cx="34.416" cy="75.653" rx="20.434" ry="24.526"/>
	<line class="st1" x1="49.687" y1="94.844" x2="79.149" y2="131.867"/>
	<path class="st0" d="M59.382,107.027c-5.548-6.972-17.872-8.07-22.527-8.4"/>
	<path class="st0" d="M59.382,107.027c-5.548-6.972-3.851-19.228-3.125-23.837"/>
</g>
<circle cx="69.798" cy="49.735" r="9.351"/>
<circle cx="165.53" cy="62.384" r="22"/>
</svg>
