<?xml version="1.0" encoding="utf-8"?>
<!-- Generator: Adobe Illustrator 13.0.0, SVG Export Plug-In . SVG Version: 6.00 Build 14948)  -->
<!DOCTYPE svg PUBLIC "-//W3C//DTD SVG 1.1//EN" "http://www.w3.org/Graphics/SVG/1.1/DTD/svg11.dtd" [
	<!ENTITY ns_flows "http://ns.adobe.com/Flows/1.0/">
	<!ENTITY ns_extend "http://ns.adobe.com/Extensibility/1.0/">
	<!ENTITY ns_ai "http://ns.adobe.com/AdobeIllustrator/10.0/">
	<!ENTITY ns_graphs "http://ns.adobe.com/Graphs/1.0/">
	<!ENTITY ns_vars "http://ns.adobe.com/Variables/1.0/">
	<!ENTITY ns_imrep "http://ns.adobe.com/ImageReplacement/1.0/">
	<!ENTITY ns_sfw "http://ns.adobe.com/SaveForWeb/1.0/">
	<!ENTITY ns_custom "http://ns.adobe.com/GenericCustomNamespace/1.0/">
	<!ENTITY ns_adobe_xpath "http://ns.adobe.com/XPath/1.0/">
]>
<svg version="1.1"
	 xmlns:x="&ns_extend;" xmlns:i="&ns_ai;" xmlns:graph="&ns_graphs;" i:viewOrigin="156.5 545.5" i:rulerOrigin="0 0" i:pageBounds="0 792 612 0"
	 xmlns="http://www.w3.org/2000/svg" xmlns:xlink="http://www.w3.org/1999/xlink" xmlns:a="http://ns.adobe.com/AdobeSVGViewerExtensions/3.0/"
	 x="0px" y="0px" width="300px" height="300px" viewBox="0 0 300 300" enable-background="new 0 0 300 300" xml:space="preserve">
<metadata><?xpacket begin="﻿" id="W5M0MpCehiHzreSzNTczkc9d"?>
<x:xmpmeta xmlns:x="adobe:ns:meta/" x:xmptk="Adobe XMP Core 4.1-c036 46.277092, Fri Feb 23 2007 14:17:08        ">
   <rdf:RDF xmlns:rdf="http://www.w3.org/1999/02/22-rdf-syntax-ns#">
      <rdf:Description rdf:about=""
            xmlns:xap="http://ns.adobe.com/xap/1.0/"
            xmlns:xapGImg="http://ns.adobe.com/xap/1.0/g/img/">
         <xap:Thumbnails>
            <rdf:Alt>
               <rdf:li rdf:parseType="Resource">
                  <xapGImg:width>256</xapGImg:width>
                  <xapGImg:height>200</xapGImg:height>
                  <xapGImg:format>JPEG</xapGImg:format>
                  <xapGImg:image>/9j/4AAQSkZJRgABAgEASABIAAD/7QAsUGhvdG9zaG9wIDMuMAA4QklNA+0AAAAAABAASAAAAAEA&#xA;AQBIAAAAAQAB/+4ADkFkb2JlAGTAAAAAAf/bAIQABgQEBAUEBgUFBgkGBQYJCwgGBggLDAoKCwoK&#xA;DBAMDAwMDAwQDA4PEA8ODBMTFBQTExwbGxscHx8fHx8fHx8fHwEHBwcNDA0YEBAYGhURFRofHx8f&#xA;Hx8fHx8fHx8fHx8fHx8fHx8fHx8fHx8fHx8fHx8fHx8fHx8fHx8fHx8fHx8f/8AAEQgAyAEAAwER&#xA;AAIRAQMRAf/EAaIAAAAHAQEBAQEAAAAAAAAAAAQFAwIGAQAHCAkKCwEAAgIDAQEBAQEAAAAAAAAA&#xA;AQACAwQFBgcICQoLEAACAQMDAgQCBgcDBAIGAnMBAgMRBAAFIRIxQVEGE2EicYEUMpGhBxWxQiPB&#xA;UtHhMxZi8CRygvElQzRTkqKyY3PCNUQnk6OzNhdUZHTD0uIIJoMJChgZhJRFRqS0VtNVKBry4/PE&#xA;1OT0ZXWFlaW1xdXl9WZ2hpamtsbW5vY3R1dnd4eXp7fH1+f3OEhYaHiImKi4yNjo+Ck5SVlpeYmZ&#xA;qbnJ2en5KjpKWmp6ipqqusra6voRAAICAQIDBQUEBQYECAMDbQEAAhEDBCESMUEFURNhIgZxgZEy&#xA;obHwFMHR4SNCFVJicvEzJDRDghaSUyWiY7LCB3PSNeJEgxdUkwgJChgZJjZFGidkdFU38qOzwygp&#xA;0+PzhJSktMTU5PRldYWVpbXF1eX1RlZmdoaWprbG1ub2R1dnd4eXp7fH1+f3OEhYaHiImKi4yNjo&#xA;+DlJWWl5iZmpucnZ6fkqOkpaanqKmqq6ytrq+v/aAAwDAQACEQMRAD8A9U4qp3V1bWltNdXMqw21&#xA;ujSzzSEKiIg5MzMdgABUnFXxv+c3/OV3mLWL+40fyLcvpWhRkxnVIxwu7mh3dHPxQpUfDxo/iRXj&#xA;ir5+vL69vZ2uL24kubhzV5pnaRyfdmJOKsh8n/md588n3KT+X9aubNFKlrXmXt3C9A8D8o26+G3b&#xA;FX2f+Q35/ad+ZNpJp1/Emn+abOMSXFqh/dTx1oZoORLUBpyQ/ZqNzir13FXYq7FXYq7FXYq7FXYq&#xA;7FXYq7FXzt+f/wDzk43lW8m8reTGim16ElNR1J1Ekdo4/wB1Ro1VeUftcqqvShNaKvknX/NPmTzD&#xA;dtd65ql1qVw5qZLmV5KeyhiQo8ANsVW6H5l8xaDdpd6Lqd1ptyhqstrM8R3FDXgRWo2IOKvqb8hf&#xA;+cprnWNRtfK3nt0F7cssOna2qrGskh2WO5UUUMx2V1ABOxHfFX03irsVdirsVdirsVdirsVdirsV&#xA;dirsVfP3/OZHne70byPp/l2zkMUvmKZxdOrUJtbUKzx06/G8iV36Ajvir4sxV2KuxVPfI/m3UfKP&#xA;m3S/MensRcadOspUEgSR9JYmoR8MiEqd++Kv0xsby3vrK3vbZudvdRpNC/SqSKGU7+IOKq2KuxV2&#xA;KuxV2KuxV2KuxV2KsO/N/wA5SeTfy313zDBT63a2/CyqRtcTsIYWoQa8XkDEdwMVfm/NNLNK80zm&#xA;SWRi8kjElmZjUkk9STiqzFXYq2rFSGU0I3BHUHFX6KfkR53n85/lfo2r3cnqajGjWeoOa1ae2Ppl&#xA;2JJq0ihXPucVZ/irsVdirsVdirsVdirsVdirsVdir5L/AOc4bC4XVPKmoUrbSQXcAYdQ6PG5B+Yf&#xA;b6cVfL+KuxV2KuxV+m/kKxuLDyL5csbkEXNppdlBOG2YPHborV2G9R4YqnuKuxV2KuxV2KuxV2Ku&#xA;xV2KvIP+crrC4u/yV1Z4RyFpPaTyjvwE6oSPlzB+WKvgrFXYq7FXYq+4/wDnDq0uIPyhaWVCqXWp&#xA;3U0DEH4kCRREj/ZxsPoxV7jirsVdirsVdirsVdirsVdirsVdirzn8+vyy/5WD+X91ptsq/pqyYXm&#xA;kO1BWaMEGIsRssqEr1py4k9MVfnxe2V3Y3c1neQvb3du7RTwSqUdHQ0ZWU7gg4qoYq7FXq3/ADjt&#xA;+U955788WtxcQN/hvSJUudUnIPByh5JbAilWkIFaHZanwxV9/Yq7FXYq7FXYq7FXYq7FXYq7FUv8&#xA;xaFYa/oOoaJqCc7LUreS2nFASFkUryWoPxLWqnscVfnB+YfkLXPIvmm78v6vEVkgYm2uKER3EBJ9&#xA;OaMnqrD7jUHcYqxrFXYqnXk7yhrnm/zFZ6BosBnvrxwo2PGNP25ZCPsog3JxV+kPkzytYeVPKul+&#xA;XLAlrbTLdIFkIoZGArJIRU0MjksR74qnOKuxV2KuxV2KuxV2KuxV2KuxV2KuxV5f+a//ADj15I/M&#xA;SQ39wG0rXwoUaraqtZANgLiM0WWg2BqG/wAqgpirwXUP+cJfzAjuGXTtc0m4twTwkuDc27lexKJF&#xA;OAfblirIvKH/ADhLwulm83a+stuhqbLTEYFx7zzAcfoj+kYq+lPLPlfQPLGjQaNoVlHYadbikcEQ&#xA;6k9WZj8TM3dmNTiqaYq7FXYq7FXYq7FXYq7FXYq7FXYqxT8w/wAsfJ/n/SRp3mK09X0qm1vIiEuY&#xA;GalWikoaVpuCCp7jFXzd5h/5wj8yR3BPl3zFZ3Nsd1XUElt3X2JhW4DfOg+WKrNB/wCcI/NUlyn6&#xA;f8w2Nrag1f6gs1zIR4D1VtgK+O/yxV9Hflv+U3kv8vdONp5ftCLiUUu9RnIkup6GvxvQAKOyqAvt&#xA;XfFWY4q7FXYq7FXYq7FXYq7FXYq7FXYqg9Z1ew0bSbzVtRlENhYQyXN1Kd+McSl2NO+w6Yq+MvO/&#xA;/OYP5jalqcv+FjDoWlIxFtWGK4uXSuzStOJYwT4Ku3ieuKs5/I//AJyvuNT1KPy/+YUsUc104Wx1&#xA;1VWGPm2wjuVXiign7MgAA/a/mxV9QYq7FXnH59fmlL+XPkV9Vs0jl1i9mWz0yOTdVkdWdpWXqyxq&#xA;hPzoD1xV8br/AM5DfnOuoG/Hmq79UuZPTIjMFSa09Ap6XH/J40xV63+X3/OaGowvHZ+etNW5g+yd&#xA;U09Qko/ypIGPB/8AYFfkcVfTPlLzt5V836YupeXNSh1G1NOZib44ya0WWNqPG23RgMVTvFXYq7FX&#xA;Yq7FXYq7FXyz+df/ADljrGleYLzy55GSBBp8jQXmsToJi00ZKusCE+nxUinJga9hTcqsR/Lz/nL3&#xA;z7p2ux/4zmXW9DnYLccIIILiBSftw+ikSvTur9fEYq+yNG1nStb0q11bSblLzTr2MS21zEaq6H8Q&#xA;R0IO4Ox3xVGYqlnmfX7Py75c1PXbz/eXS7WW7lWoUsIUL8AT+01OI98VfB/mb/nJT83db1iW/h1y&#xA;bSrcsfq9hYkRxRJUlVNBykI7s9SfltirLPI//OYn5haRJHB5lhh8w2IoHkKrbXYUCnwyRARt/so6&#xA;nxxV9P8A5c/nN5B8/wAA/Qd+E1ALyl0m54xXaU6n06nmBTdkLDxxVnGKuxV2KuxV2KuxV2KuxViH&#xA;5vaBda/+WPmbSbMM13cWExt0UVZ5Ix6iRgD+dk4/Tir82yKbHrirWKvrz/nFr8+m1OODyF5ouS2o&#xA;xLx0K+lO80aD/eZ2P+7FX7BP2gKdaVVfTGKvJP8AnJn8ttS88fl2U0iIz6zo84vrS3WvKZAjJNEo&#xA;6Fircl7krQdcVfBEkckUjRyKUkQlXRgQwYGhBB6EYqtxVNPLnmjzD5a1OPVNB1CbTr+L7M0DFaj+&#xA;Vh9l1PdWBGKvqX8rf+cxdOu/R0z8wLcWVyaKut2qk27dgZ4RVoz4slR7KMVfSWm6np2p2MN/pt1F&#xA;e2NwvKC6t3WSJ1rSqupIO4xVE4q7FXYq7FXYq/NH8zdAu/L/AOYPmHSLoN6ltfzhWYEF43cvFJv/&#xA;ADxsrfTirGcVe2f845fnxN5D1UaFrkrSeUdQkHMmrGymcgeuo3/dn/dij/WG4oyr7lgnguII54JF&#xA;lglUPFKhDI6MKqysNiCNwRiqVecvLkPmXynq/l+ZgiapaTWokIrwaVCqvT/IYhsVfmx5o8r655X1&#xA;y60PXLV7PUbN+EsT9CP2XRujIw3VhsRiqVYqq29zcW08dxbSvBPEQ0U0bFHVh0KstCDir6D/ACt/&#xA;5y+8yaJ6Om+don1zTFoo1GOgvox4tWiTgD+ajf5RxV9X+T/PPlPzjpY1Py3qUWoW23qhDSSJm6LL&#xA;G1HjbbowxVPcVdirsVdirsVdirsVfGH/ADk5+Qt15d1S586eXbbn5cvZDJqNvEv+8U8jbtxHSGRj&#xA;sRsp+HYccVfPWKqkE80E0c8DtFNEweKRCVZWU1VlI3BBxV9x/wDOOn5+W3nvTU0DXZUh83WMY3JC&#xA;i+iQbzIP9+KBWRR/rDaoVV7biry/80f+cePIPn/1byaE6VrzjbVrRQGdu3rxmiy/g3+Vir5L/Mb/&#xA;AJx1/MnyTJLPJYtq2jJuuq2CmVAu28sY/eRUrvyHHwJxV5h0xVrFWWeQfzS87+Q776z5c1F4InYN&#xA;cWMn7y1mp2kiO3Q/aFGHYjFX1V+W3/OXvkzXvSsfNkX+HdTai/WSTJYu3j6n2oq/5YoP5sVe8WV9&#xA;ZX1rHd2NxHdWkw5RXEDrJG4rSqupKn6MVVsVdirsVeB/85OfkRcecrJfNXluAP5l0+LhdWiABry3&#xA;SpHGn2po/wBn+Zfh6hRir4pdHR2R1KupKsrChBGxBBxVbir6V/5xh/5yBTRng8j+a7kJpEjcNG1K&#xA;ZqLbOx2gkY9ImJ+FifhPX4fsqvr/ABVi3n78s/JvnzTBYeY7BbjhX6tdp8FzCT3ilG491NVPcHFX&#xA;yZ+ZP/OI/nry88t55YP+JNJG4jjAS+jG32oekm5/3WST14jFXht5ZXllcyWt5BJbXUJ4ywTI0ciM&#xA;OzKwBB+eKqOKpn5e8y6/5c1OPU9Cv59Ov4tluLdyjUPVWpsynup2OKvpj8tv+czR+6sPP9jQ7L+m&#xA;rBf+Gmtv1mM/JMVfSflvzb5Z8z2Av/L+p2+p2pALPbyByvKtBIv2kbbowBxVNsVdirsVdir8uj5g&#xA;14ih1K6IOxHrSUp/wWKtnzDr5VlOpXRV1KOvryUZWFGUjluCOuKpfirsVXxyyRSLJE5SRDVXUkMC&#xA;O4IxVG/4h1//AKud3/yPk/5qxV3+Idf/AOrnd/8AI+T/AJqxV3+Idf8A+rnd/wDI+T/mrFUFLLLN&#xA;I0srtJI55O7EsxJ7knriqzFXYq7FUTa6jqFoCLS6mtw32hFIyV+fEjFVf/EOv/8AVzu/+R8n/NWK&#xA;u/xDr/8A1c7v/kfJ/wA1Yq7/ABDr/wD1c7v/AJHyf81Yq7/EOv8A/Vzu/wDkfJ/zViqClllmkaWV&#xA;2klc1d3JZiT3JPXFVmKuxVFw6vq0NTDezxEih4Suu30HFVX/ABDr/wD1c7v/AJHyf81Yq7/EOv8A&#xA;/Vzu/wDkfJ/zViqGur29u3D3dxJcOo4q0rs5A60BYnFVDFXYq7FVW3ubi2kEtvK8Mg6PGxVvvFMV&#xA;Rf8AiHX/APq53f8AyPk/5qxV3+Idf/6ud3/yPk/5qxV3+Idf/wCrnd/8j5P+asVd/iHX/wDq5XX/&#xA;ACPk/wCasVfoP/yob8nf+pS0/wD5Fn+uKu/5UN+Tv/Upaf8A8iz/AFxV3/Khvyd/6lLT/wDkWf64&#xA;q8m/OH/nEXTdQifVvy8RLG/UfvdEkelvKAOsEjk+k/sx4nxXuq+TdX0fVdH1GfTdVtJbG/tm4T20&#xA;6GORT7q34Yqg8VdirsVdir0L8p/yT83/AJjaki2ELWmiI1L3WplIgQD7Sx9PVk8FX/ZEDfFX2To/&#xA;/OOn5PabplvYt5ctr5oECtd3YMk8jdS7tUbk+Ap4YqjP+VDfk7/1KWn/APIs/wBcVWS/kB+TUoAb&#xA;ynYin8gdP+IsMVSa/wD+cWPyQu0omgvaPUH1Le7ugaDtxeV0/wCFxVJZv+cOPyhk+w+qQ9fsXKH/&#xA;AInE2Kq2l/8AOIf5TaffQ3YbULr0mDG3upYJYXANSrqYBsfY1xVmH/Khvyd/6lLT/wDkWf64q7/l&#xA;Q35O/wDUpaf/AMiz/XFWIfmP/wA4qfl75j0unl22j8t6xCrfV57cE28h6hJ4q9P8pdx/ldMVfHvn&#xA;z8uPN/kXVjpnmOwa2c7wXK/Hbzr/ADQyj4W9x1HcA4qxnFXYq7FXYqnnlDyV5n84avHpPl3T5b+7&#xA;cjnwH7uNSac5ZD8Ma+7HFX2h+W//ADi3+X3l3QEg8x2MHmHW5qPeXcwYxI3++4ENKIK9Tu3XboFW&#xA;V/8AKhvyd/6lLT/+RZ/rirT/AJB/k26lT5TsAD1ojKfvDA4qlt7/AM4y/khdqwbyykTMCA8NzdxF&#xA;TSlQFlC7e4xVILj/AJw9/J6WvBdRgr09O6Bp8uaPiqgv/OGn5TKwYXOrGhrQ3EBG3iDBirNLX8gP&#xA;yggtooZPLNlcvGoVriWNfUcgU5N6YRKnvxUDFXoWKuxV2KuxVivnz8r/ACP56sxb+ZNMjupEUrb3&#xA;q/u7mIbn93MvxAVNeJqviMVfO3mr/nCPUxdM/lTzBBJasSUt9UV45EFdgZoFkD/P01+WKsQl/wCc&#xA;OvzfS4MSnTJEDUE63TcCP5gGjV6f7GuKp/pH/OEfnGWZBrHmLTrSH9trRJ7ph8lkW1H44q9Z8lf8&#xA;4mflb5eeK51KKbzFepuTfEC25VqCLeMBSKbUkLjFXstraWtpbR21pClvbQqEigiUIiKOiqqgAD5Y&#xA;qq4q7FXYq7FXYq7FXYq7FXYql2v+XNC8w6ZLpeuWMOo6fN9u3uEDrUbBhXdWFdmG4xV88eeP+cLN&#xA;Gu5pLrybq7aaWNRp18rTQivZJl/eqB/lK598Vec33/OG35tW8gWCfSrxDU84rmRab9xLDGa/KuKo&#xA;3TP+cK/zInCPf6rpVkrU5IrzzSL41AiRK/J8Vel+Uv8AnC/yLp0iz+Y9TutdkUqfq8YFnbmhqQ4R&#xA;pJSD7SLir3Py95Y8u+XNPXTtB06302zWn7m3jVASBTk5G7t/lNU4qmeKuxV2KuxV2KuxV2KuxV2K&#xA;uxV2KuxV2KuxV2KuxV2KuxV2KuxV2KuxV2KuxV2KuxV2KuxV2KuxV2KuxV2KuxV2KuxV2KuxV2Ku&#xA;xV2KuxV2Kvnj8/v+cnLnydrEvlXynDDPrMCj9IahOPUit2dQyxxoCA8gU1YtsvShNaKvELP/AJyt&#xA;/O+C7WeXW4buIGptZrK0EZFehMUUUlPk+KvpL8mf+ckvLfn2NtP1VY9E8xQRtLJA7gW80ca8nkhk&#xA;cinEAlkbcDepFaKvL/On/OausJq80Hk7RrM6ZCxSO71ISyPMASPUEcUkHpg9gST+oKrfKn/ObWsL&#xA;eonm3QLaWycgPPpRkikjFftCKd5Vk27c1+eKvpPyR+YflDzvpn6R8t6jHexKF9eH7M0LMK8ZYm+J&#xA;T+B7E4qyPFXYq7FXYq7FXYq7FXYq7FXmH56fnbp/5ZaLAY4Fvtf1HkNOsmJCBUpzmmKnkEHKgA3Y&#xA;7DoSFXyvdf8AOVv53zXbTx63FbRE1FrFZWhjArWgMkUklPm+KvXfyg/5y7i1W+g0Tz9FDZTzER2+&#xA;twApAXJoBcISfTr/ADqePiAN8VTj87P+cp08l69N5a8s6fBqeqWoQ3t7cuxtondeXpKkRVnYAjke&#xA;Yp069FXnGl/85tefY7tG1XQtKubMEepFai4tpCO9JJJbhR/wGKvoX8svz48gfmCkcGm3Zs9aK1k0&#xA;e8ok9QKt6ZqUlX/VNabkDFXomKuxV2KuxV2KuxV2KuxV2KuxV2Kvzo/Pexu7L84fNsV0GWR9RlnX&#xA;lWvpz0liO/b03WmKsCxVcrsjckJVvEGh32xVbirsVTTy35n8weWdWh1fQb6XT9RgPwTwtSo7qymq&#xA;up7qwIPfFX2R+SX/ADlBovnAwaF5pMWk+ZWokM9eFrdt2CFj+7kP8hNCfs/y4q94xV2KuxV2KuxV&#xA;2KuxV2Kvjv8A5zcsrpPOfl69ZW+qTac8MT0PEyQzs0gB6VCypXFXzfirsVXM7OxZiWY9STU4qtxV&#xA;UgnmgmSeCRopomDxyoSrKymoZWG4IOKvpr8lv+ctbu0aDQvzDla5tNo7fzAAWmjHQC6VRWRf8sDl&#xA;48uuKvrG0u7W8tYru0mS4tZ0EkE8TB43RhVWRlJDAjoRiqrirsVdirsVdirsVdirsVdir5d/5zG/&#xA;Kya5it/zB0uEu1ui2muIgqfTBpBcGn8pPBj4cfDFXybirsVdiqO1XRNV0l4E1C2e3+swpc2zmhSW&#xA;GVQySRupKupB6qeu3UYqgcVbBINR1xV9KfkR/wA5T3OkC28s+fJnudLFI7LXGq81uOgS46mSMdn+&#xA;0vfkPsqvrq1urW7torq0mS4tp1EkM8TB43RhVWVlJDAjoRiqrirsVdirsVdirsVeYf8AOQ/5YP5+&#xA;/L+e2sYw+u6WxvdK8XZRSSCv/FqbD/KC4q/PySN43aORSkiEq6MKEEbEEHFVuKuxVHNomrLo6a19&#xA;WdtKeZrYXi0aNZkAYxuVrwYqwIDUqOlcVQOKuxV6v+S3/OQPmT8ubpLGfnqflWVq3Gls3xRcjVpL&#xA;Vj9hu5X7Lex+IKvuLyf5z8uecNDg1vy/eJeWMwoSpo8b0qY5U6o69wfn0xVO8VdirsVdirsVdirs&#xA;VdiqjfWVpf2c9leQrcWlzG0VxBIOSPG44srA9iDir4J/Pz8jtR/LnWzd2Svc+VNQkP6Pu6E+ixq3&#xA;1aZunMAHif2lFeoICryfFXYq+hf+cddd8p+c9Mk/Kbz3bLe2rmS58s3Mh4yQSEFpoYZQQyE7yJTY&#xA;/ED2GKpb+a//ADir5w8pmbUvLYk8w6Cu5Ea1vYRv/eQqP3ij+aP6VGKvDMVdir1/8iPz91v8v9Vg&#xA;03UZnvPJ9xIFurNiWNtzO89v1I49WQbNv+1vir7xtrm3ureK5t5Fmt50WSGVCGV0cclZSOoINRiq&#xA;pirsVdirsVdirsVfKX/OUf5ASiW7/MDyvByib97r+mxr8Sn9q7iUdQeso7fa6cqKvljFXYq9J/Iz&#xA;8xbDyn5mk0/X4kvPJ3mBVs9esplWSIKT+7nKt/vonf8AySe9MVet/mt/ziC5EutflxMJoHHqnQp3&#xA;FaEV/wBFnY0YHaiuf9l2xV8y6npepaXfzafqVrLZX1u3Ge1nRo5EalaMrAEbGuKoXFWVfl1+ZXmr&#xA;yBrqatoNyUBIF5ZOSbe5jB+xKld/Zh8S9jir9Bvy78+aP568pWPmTS6rDdKVnt2ILwTptJC9O6no&#xA;e4oe+KskxV2KuxV2KuxV2KuxV2Kpf5g8v6P5h0e60bWbVLzTbxDHcW8gqCD0IPUMDurDcHcYq+Df&#xA;zy/I3WPy21j1Yud55YvHI07USKlCd/QnpsJAOh6MNx3AVeW4qiNO1C902/t9QsZmt720kWa2nQ0Z&#xA;JEPJWHyIxV+iX5M/mbZ/mH5ItNaTjHqUX+j6tar/ALruUHxUH8jj419jTqMVSH81/wDnHHyP58in&#xA;vYIV0bzI4LLqlsoCyP2+sxCiyV7ts3v2xV8SeefIXmbyRr0ui+YLUwXUe8cq1aGZO0kL0HJT946G&#xA;hxVj2Kvvr/nFnXrjV/yZ0hbglpNNknsA5NapE/KP/gY3VfoxV61irsVdirsVdirsVcQCCCKg7EHp&#xA;TFXyF/zkh/zjedJNz5z8mW1dKNZdW0mIb2x6tPAo/wB1d2UfY6j4fsqvmjFXYq+zv+cSvzd/T+gH&#xA;yVq83LWNGj5adI53nsgaBa92gJ4/6vHwOKvV/wAxPyo8k+f9Oa18wWKvcqhW11KIBLuAnvHLQ7V3&#xA;4tVT3GKviX85fyM8yflrqCvM36Q8v3LlbHVY1KitK+nMu/pyfTRuo7gKvNMVfUv/ADhBr9yLrzN5&#xA;edi1qUg1CFamiSAmGQgf5YKf8Dir6vxV2KuxV2KuxV2KuxV2KuxVL/MHl/R/MOj3WjazapeabeIY&#xA;7i3kFQQehB6hgd1Ybg7jFXwb+eX5G6x+W2serFzvPLF45GnaiRUoTv6E9NhIB0PRhuO4Cry3FXpf&#xA;5BfmtN+XnniG5uHP6A1Ljba1EBX93U+nMB/NCzV/1eQ74q/QaGaGeFJoXWSGVQ8ciEMrKwqGBHUE&#xA;Yq+cv+c3I4z5M8vSFR6i6i6h6DkFMDEivgaDFXx3ir71/wCcUdJk0/8AJbSpZPtajPdXYXwUzGJf&#xA;vEXL6cVev4q7FXYq7FXYq7FXYq4gEEEVB2IPSmKvkL/nJD/nG86Sbnzn5Mtq6Uay6tpMQ3tj1aeB&#xA;R/uruyj7HUfD9lV80Yqm3lTzNqvlfzHp/mDSpPSv9OmWaFuxpsyN/kupKt7HFX6O/l/520nzt5S0&#xA;/wAx6Yf3F4lZYSQWhmXaSJ6d0b7xv3xVJPz3ghm/J7zYs0ayKunyuocBgHQclYV7qRUHFX5z4q+o&#xA;P+cHtJkbVPNWrnaOGC1tF/ymld5Gp/q+kPvxV9aYq7FXYq7FXYq7FXYq7FXYq7FUv8weX9H8w6Pd&#xA;aNrNql5pt4hjuLeQVBB6EHqGB3VhuDuMVfBv55fkbrH5bax6sXO88sXjkadqJFShO/oT02EgHQ9G&#xA;G47gKvLcVfYf/OIf5ufpbSG8g6tNXUdLjMujSNWstmD8UVT+1CT8I/k/1TiqG/5zgvo00DyrYFj6&#xA;k93czqtNisEaIxr7euMVfI8cbySLHGpZ3IVFHUkmgAxV+m3kXy+vlzyZoehBAjabYwW8oXcGVIwJ&#xA;Gr/lPU4qnmKuxV2KuxV2KuxV2KuxVxAIIIqDsQelMVfIX/OSH/ON50k3PnPyZbV0o1l1bSYhvbHq&#xA;08Cj/dXdlH2Oo+H7Kr5oxV7f/wA4t/m7/g7zaPL+qTcPLuvyLGzN0gvDRIpfZX2Rz8j0XFX1B/zk&#xA;PfR2X5Lea5pGKq9osAIFfiuJkhUfSZKYq/PDFX3N/wA4heWv0V+UqajIgWbXLya75ftGKMi3jB+m&#xA;JmHzxV7dirsVdirsVdirsVdirsVdirsVdiqX+YPL+j+YdHutG1m1S8028Qx3FvIKgg9CD1DA7qw3&#xA;B3GKvgn88fyU1X8ttfpH6l35avWJ0zUWHTuYJiNhIg/4IbjuAqwPy55h1Xy7rtjrmlS+hqOnzLPb&#xA;ydRyXsw7qw2Ydxir2b/nJz8xdK896V5E1jTTRJbO7kuLck8oZ2kjjliav8rRGh7ih6HFWFfkD5U/&#xA;xP8Am15esHQPa29wL+7DCqmK0HrcWHg7KE+nFX6I4q7FXYq7FXYq7FXYq7FXYq7FXEAggioOxB6U&#xA;xV8cf85H/wDOOUnl+S584+UbcvoTky6npsYJa0YmrSxjvCe4/Y/1eir5yxV9Fav+c3+L/wDnGPUt&#xA;E1Obl5j0uews7ktXlPbCdXhnqT8TUh4v13FT9oYq+e7O0uLy7gtLZDJcXMixQxjqzuwVQPmTir9N&#xA;/J/l6Dy55V0jQYOPp6ZaQ2vJejNEgVn7faYFjiqb4q7FXYq7FXYq7FXYq7FXYq7FXYq7FUr8zeWd&#xA;E8z6JdaJrdql5p14nCaF/wAGU9VZTurDcHFXwT+df5Ka3+Wut8W53nl28c/ozU6de/ozU2WVR9DD&#xA;cdwFXmuKvrL/AJwm8mmO013zlOpDTsNLsW2oUTjNcGnXdvTAPscVfUWKuxV2KuxV2KuxV2KuxV2K&#xA;uxV2KtOiSIyOodHBVlYVBB2IIOKvjj/nI7/nHF/Lz3HnDyfbl9BcmTU9MjFTZk7mSMD/AHR4j9j/&#xA;AFeir5zxV69/ziz5OPmL829PuZIy1loStqc7dAHiotuK+PrMrU8AcVfe2KuxV2KuxV2KuxV2KuxV&#xA;2KuxV2KuxV2KuxVK/M3lnRPM+iXWia3apeadeJwmhf8ABlPVWU7qw3BxV+a3m7SbLR/Nes6TYzm6&#xA;s9Ovri1t7lgAZI4ZWjV9iR8QWuKvpP8A5w9/NqBEf8utVdIiWkudBmOxdmJea3J7nrIn+yH8oxV9&#xA;VYq7FXYq7FXYq7FXYq7FXYq7FXYq7FWnRJEZHUOjgqysKgg7EEHFXwN/zk35I8r+T/zMex8uqYbW&#xA;8tY76ezH93byzSSKY4/BaIHA7VoNsVU/+ccvzXj/AC/88A6gVXQNZCWmqSEbw0YmKcEb0jZjyH8p&#xA;O1aYq+/UdJEV0YOjgMrKagg7ggjFW8VdirsVdirsVdirsVdirsVdirsVdirsVQOvatDo+h6jq8y8&#xA;odOtZruRa0qsEZkIrQ02XFXxR/zjX+VNj+Y/mjWtR8xwtcaLZwSCehKc7u95KnEg1qi85K70YLXF&#xA;WNfmp+Vnmr8o/N9tNDPIbL1hcaDrcXwktEwZQ1PsTRmlR9I2xV9lfkl+aln+Y3kuHVPhi1e1It9Y&#xA;tV/YnA+2o/klHxL9I7Yq9AxV2KuxV2KuxV2KuxV2KuxV2KuxV2KviLz3o0v5nf8AOUt5ocKsLT69&#xA;HZXRUiqW2nxKl01TQA/unp7kDfFUV/zkb/zjq3lF5vNnlWIv5YkYG9shVmsXc0BWu5hZjQfynbpi&#xA;r0f/AJxM/OT9N6QvkTWpi2r6XGW0meRqmezT/dO/7cA6f5H+qcVfRmKuxV2KuxV2KuxV2KuxV2Ku&#xA;xV2KuxV2KvKv+cnvMA0b8mdbCki41Mw6dBTuZ5AZAf8Anij4qjv+cf8A8v8A/BH5Z6bYXEYTVb4f&#xA;X9U2owmnAIjaoBrHGFQ+4OKss85+TPL3nHy9c6Dr1sLmwuR8pIpB9iWJ9+DpXY/QagkYq+Q9Ps/N&#xA;H/OOP5tW8mol7vynqZMMl3EvwXVnyFW41+Ge3LBilfkeLVxV9pWd3a3lpBeWkqz2tzGs0EyGqvHI&#xA;oZWU9wQajFVXFXYq7FXYq7FXYq7FXYq7FXYqhdV1K20vS7zUrokWtjBJczkUqI4ULtStOy4q+d/+&#xA;cQvJ1xcLrv5k6olbzW55YLBm6+mZPUuZASOjy0UGv7JxV9H3Fvb3NvLb3ESTW8yNHNDIodHRxRlZ&#xA;TUEEGhBxV8b/AJ1/kvrP5VeY7X8wvIrMuiW90k6xirtYT8qhHB+3bv8AZBPjwbsWVfUX5ZfmBpfn&#xA;3ybY+Y9P+Azr6d5bVqYLlABLEfkd1PdSD3xVlOKuxV2KuxV2KuxV2KuxV2KuxV2KuxViXnz8vrbz&#xA;ldeX11C546Vot+upz6f6YYXU0SFYFdifhRS7FhQ8umKstxV2KpH508leXPOWgXGh6/aLdWU4+Fth&#xA;JFJT4ZYXoSjr2P0GoJGKpN+U3kbWPI3llvLV7qi6tYWc7nR7koY5UtpKN6Mq/EKpIWoQ3Q9qUxVm&#xA;uKuxV2KuxV2KuxV2KuxV2KuxVIvPfl258y+TdZ0C2uvqU2qWktqtzQkL6q8TUAg0YGh9sVRnlzy/&#xA;pnl3QbDQ9Lj9LT9OhS3t0NK8UFOTEAVZjux7nFUxxVSvLO0vbSazvIUuLW4Rop4JVDo6OKMrKdiC&#xA;MVecfl3+TY/L7zlq975ev+PlLWo+cuhyhi9vco1UaGSp5JxZ1o29KbmmKvTMVdir/9k=</xapGImg:image>
               </rdf:li>
            </rdf:Alt>
         </xap:Thumbnails>
         <xap:CreatorTool>Adobe Illustrator CS3</xap:CreatorTool>
         <xap:ModifyDate>2008-01-04T01:00:07-08:00</xap:ModifyDate>
         <xap:MetadataDate>2008-01-04T01:00:07-08:00</xap:MetadataDate>
      </rdf:Description>
      <rdf:Description rdf:about=""
            xmlns:xapTPg="http://ns.adobe.com/xap/1.0/t/pg/"
            xmlns:stDim="http://ns.adobe.com/xap/1.0/sType/Dimensions#"
            xmlns:xapG="http://ns.adobe.com/xap/1.0/g/">
         <xapTPg:MaxPageSize rdf:parseType="Resource">
            <stDim:w>612.000000</stDim:w>
            <stDim:h>792.000000</stDim:h>
            <stDim:unit>Points</stDim:unit>
         </xapTPg:MaxPageSize>
         <xapTPg:NPages>1</xapTPg:NPages>
         <xapTPg:HasVisibleTransparency>False</xapTPg:HasVisibleTransparency>
         <xapTPg:HasVisibleOverprint>False</xapTPg:HasVisibleOverprint>
         <xapTPg:PlateNames>
            <rdf:Seq>
               <rdf:li>Cyan</rdf:li>
               <rdf:li>Magenta</rdf:li>
               <rdf:li>Yellow</rdf:li>
               <rdf:li>Black</rdf:li>
            </rdf:Seq>
         </xapTPg:PlateNames>
         <xapTPg:SwatchGroups>
            <rdf:Seq>
               <rdf:li rdf:parseType="Resource">
                  <xapG:groupName>Default Swatch Group</xapG:groupName>
                  <xapG:groupType>0</xapG:groupType>
               </rdf:li>
            </rdf:Seq>
         </xapTPg:SwatchGroups>
      </rdf:Description>
      <rdf:Description rdf:about=""
            xmlns:dc="http://purl.org/dc/elements/1.1/">
         <dc:format>image/svg+xml</dc:format>
      </rdf:Description>
      <rdf:Description rdf:about=""
            xmlns:xapMM="http://ns.adobe.com/xap/1.0/mm/">
         <xapMM:InstanceID>uuid:D46227D0A2BADC11828F907C0EB444D3</xapMM:InstanceID>
      </rdf:Description>
   </rdf:RDF>
</x:xmpmeta>
                                                                                                    
                                                                                                    
                                                                                                    
                                                                                                    
                                                                                                    
                                                                                                    
                                                                                                    
                                                                                                    
                                                                                                    
                                                                                                    
                                                                                                    
                                                                                                    
                                                                                                    
                                                                                                    
                                                                                                    
                                                                                                    
                                                                                                    
                                                                                                    
                                                                                                    
                                                                                                    
                           
<?xpacket end="w"?>
	</metadata>
<g id="Layer_1" i:layer="yes" i:dimmedPercent="50" i:rgbTrio="#4F008000FFFF">
	<g>
		<g id="surface0" i:knockout="Off">
			<path fill="none" stroke="#000000" stroke-width="0.1" stroke-miterlimit="10" d="M32.694,64.938
				c5.834-0.757,11.885,1.196,16.454,4.835c4.856,3.925,7.393,10.081,7.998,16.18c-0.279,6.198-2.796,12.498-7.542,16.627
				c-5.806,5.023-14.385,6.814-21.602,3.984c-9.49-3.23-15.719-13.896-13.91-23.745C15.667,73.652,23.435,66.097,32.694,64.938z"/>
			<path d="M32.694,64.938c5.834-0.757,11.885,1.196,16.454,4.835c4.856,3.925,7.393,10.081,7.998,16.18
				c-0.279,6.198-2.796,12.498-7.542,16.627c-5.806,5.023-14.385,6.814-21.602,3.984c-9.49-3.23-15.719-13.896-13.91-23.745
				C15.667,73.652,23.435,66.097,32.694,64.938z"/>
			<path fill="none" stroke="#000000" stroke-width="0.1" stroke-miterlimit="10" d="M175.662,64.944
				c8.21-1.02,17.03,3.072,21.146,10.338c3.035,5.252,4.371,11.771,2.066,17.561c-3.078,11.081-16.123,17.824-26.953,14.033
				c-9.939-2.869-16.662-13.797-14.85-23.957C158.613,73.722,166.379,66.117,175.662,64.944z"/>
			<path d="M175.662,64.944c8.21-1.02,17.03,3.072,21.146,10.338c3.035,5.252,4.371,11.771,2.066,17.561
				c-3.078,11.081-16.123,17.824-26.953,14.033c-9.939-2.869-16.662-13.797-14.85-23.957
				C158.613,73.722,166.379,66.117,175.662,64.944z"/>
			<path fill="none" stroke="#000000" stroke-width="0.1" stroke-miterlimit="10" d="M7.785,122.972
				c-0.186-6.459,7.96-10.28,13.33-8.193c7.511,5.79,12.812,13.878,19.275,20.741c1.968,1.821,3.437,5.163,6.565,4.854
				c10.528,0.1,21.061-0.143,31.587,0.106c-6.334-1.717-12-5.162-17.725-8.262c-4.137-2.261-8.627-5.938-8.205-11.174
				c-0.038-4.385,4.036-8.021,8.369-7.619c5.613,0.699,10.671,3.41,15.601,6.012c11.222,6.166,22.189,12.809,33.693,18.453
				c2.724,1.294,5.588,2.607,8.68,2.496c14.237,0.046,28.478-0.105,42.715,0.069c-5.457-4.678-11.248-10.785-10.838-18.512
				c0.641-5.682,7.066-8.182,12.098-7.751c4.881,2.536,8.084,7.276,11.724,11.249c4.431,4.873,8.36,10.258,13.241,14.689
				c11.17,0.677,22.426-0.063,33.627,0.35c-7.561-2.298-14.563-6.261-21.172-10.523c-4.881-3.01-6.682-10.721-2.029-14.707
				c4.32-3.558,10.08-0.991,14.572,0.829c14.424,7,27.797,16.004,42.371,22.722c2.118,0.972,4.401,1.642,6.758,1.585
				c12.658,0.002,25.318-0.012,37.979-0.005v9.99c-4.183-0.021-8.369,0.169-12.545-0.108c1.557,0.482,3.086,1.029,4.6,1.654
				c-7.694,0.714-15.417,0.004-23.09-0.613c-9.822-1.229-19.762-1.05-29.627-0.782c-2.891,2.376-5.404,5.269-8.739,7.073
				c-10.356,5.758-22.669,8.18-34.396,6.219c-8.994-2.24-16.305-8.252-23.873-13.221c-9.267-0.632-18.604,0.158-27.886-0.346
				c1.56,0.486,3.096,1.038,4.608,1.669c-7.702,0.716-15.432,0.003-23.112-0.615c-9.821-1.225-19.76-1.053-29.624-0.773
				c-2.874,2.393-5.395,5.269-8.728,7.074c-10.348,5.748-22.646,8.169-34.361,6.216c-8.411-2.23-15.656-7.378-22.542-12.506
				c-1.318-1.085-3.09-0.901-4.677-0.957C17.339,150.396,8.669,150.376,0,150.38v-10.001c5.489,0.14,11.007-0.358,16.47,0.352
				l0.833,0.033c0.306-0.098,0.917-0.293,1.223-0.392C13.431,135.816,7.96,130.268,7.785,122.972z"/>
			<path d="M7.785,122.972c-0.186-6.459,7.96-10.28,13.33-8.193c7.511,5.79,12.812,13.878,19.275,20.741
				c1.968,1.821,3.437,5.163,6.565,4.854c10.528,0.1,21.061-0.143,31.587,0.106c-6.334-1.717-12-5.162-17.725-8.262
				c-4.137-2.261-8.627-5.938-8.205-11.174c-0.038-4.385,4.036-8.021,8.369-7.619c5.613,0.699,10.671,3.41,15.601,6.012
				c11.222,6.166,22.189,12.809,33.693,18.453c2.724,1.294,5.588,2.607,8.68,2.496c14.237,0.046,28.478-0.105,42.715,0.069
				c-5.457-4.678-11.248-10.785-10.838-18.512c0.641-5.682,7.066-8.182,12.098-7.751c4.881,2.536,8.084,7.276,11.724,11.249
				c4.431,4.873,8.36,10.258,13.241,14.689c11.17,0.677,22.426-0.063,33.627,0.35c-7.561-2.298-14.563-6.261-21.172-10.523
				c-4.881-3.01-6.682-10.721-2.029-14.707c4.32-3.558,10.08-0.991,14.572,0.829c14.424,7,27.797,16.004,42.371,22.722
				c2.118,0.972,4.401,1.642,6.758,1.585c12.658,0.002,25.318-0.012,37.979-0.005v9.99c-4.183-0.021-8.369,0.169-12.545-0.108
				c1.557,0.482,3.086,1.029,4.6,1.654c-7.694,0.714-15.417,0.004-23.09-0.613c-9.822-1.229-19.762-1.05-29.627-0.782
				c-2.891,2.376-5.404,5.269-8.739,7.073c-10.356,5.758-22.669,8.18-34.396,6.219c-8.994-2.24-16.305-8.252-23.873-13.221
				c-9.267-0.632-18.604,0.158-27.886-0.346c1.56,0.486,3.096,1.038,4.608,1.669c-7.702,0.716-15.432,0.003-23.112-0.615
				c-9.821-1.225-19.76-1.053-29.624-0.773c-2.874,2.393-5.395,5.269-8.728,7.074c-10.348,5.748-22.646,8.169-34.361,6.216
				c-8.411-2.23-15.656-7.378-22.542-12.506c-1.318-1.085-3.09-0.901-4.677-0.957C17.339,150.396,8.669,150.376,0,150.38v-10.001
				c5.489,0.14,11.007-0.358,16.47,0.352l0.833,0.033c0.306-0.098,0.917-0.293,1.223-0.392
				C13.431,135.816,7.96,130.268,7.785,122.972z"/>
			<path fill="none" stroke="#000000" stroke-width="0.1" stroke-miterlimit="10" d="M40.898,183.831
				c3.482-3.958,9.586-5.179,14.403-3.095c3.68,1.478,6.653,4.205,9.211,7.169c0.976-2.042,1.774-4.475,3.931-5.578
				c4.035-2.249,9.083-1.868,13.144,0.122c10.467,4.904,19.307,12.52,28.262,19.69c4.204,3.836,9.645,6.584,12.332,11.839
				c3.248,5.468,2.805,12.13,1.526,18.114c-2.183,10.531-5.455,20.851-9.215,30.919c5.759,8.721,11.78,17.267,17.349,26.111
				c1.227,1.885,2.507,3.781,3.158,5.965c-2.948-0.639-4.914-3.054-7.019-5.002c-5.896-6.018-11.672-12.15-17.631-18.106
				c-3.116,7.252-5.991,14.655-9.68,21.634c-0.386,0.229-1.159,0.686-1.544,0.914c1.618-9.468,4.475-18.694,5.64-28.247
				c-17.202-17.792-34.924-35.085-52.194-52.81c-4.631-4.491-8.53-9.754-11.466-15.496
				C39.139,193.627,37.844,187.992,40.898,183.831z"/>
			<path d="M40.898,183.831c3.482-3.958,9.586-5.179,14.403-3.095c3.68,1.478,6.653,4.205,9.211,7.169
				c0.976-2.042,1.774-4.475,3.931-5.578c4.035-2.249,9.083-1.868,13.144,0.122c10.467,4.904,19.307,12.52,28.262,19.69
				c4.204,3.836,9.645,6.584,12.332,11.839c3.248,5.468,2.805,12.13,1.526,18.114c-2.183,10.531-5.455,20.851-9.215,30.919
				c5.759,8.721,11.78,17.267,17.349,26.111c1.227,1.885,2.507,3.781,3.158,5.965c-2.948-0.639-4.914-3.054-7.019-5.002
				c-5.896-6.018-11.672-12.15-17.631-18.106c-3.116,7.252-5.991,14.655-9.68,21.634c-0.386,0.229-1.159,0.686-1.544,0.914
				c1.618-9.468,4.475-18.694,5.64-28.247c-17.202-17.792-34.924-35.085-52.194-52.81c-4.631-4.491-8.53-9.754-11.466-15.496
				C39.139,193.627,37.844,187.992,40.898,183.831z"/>
			<path fill="none" stroke="#000000" stroke-width="0.1" stroke-miterlimit="10" d="M182.217,187.92
				c0.5-4.764,5.326-7.693,9.725-8.109c6.274-0.686,11.76,3.533,15.543,8.105c0.992-2.033,1.791-4.455,3.933-5.574
				c4.056-2.276,9.142-1.881,13.224,0.131c10.456,4.916,19.292,12.527,28.244,19.697c4.191,3.816,9.604,6.563,12.287,11.792
				c3.252,5.465,2.816,12.127,1.537,18.112c-2.182,10.538-5.456,20.862-9.218,30.937c5.757,8.72,11.777,17.266,17.348,26.108
				c1.224,1.881,2.481,3.777,3.185,5.935c-2.994-0.536-4.921-3.04-7.043-4.966c-5.893-6.02-11.68-12.143-17.622-18.112
				c-3.401,7.667-6.216,15.665-10.501,22.896c-0.803-1.338-0.352-2.838-0.068-4.226c1.811-8.106,3.928-16.161,4.963-24.417
				c-13.824-14.229-27.938-28.179-41.883-42.289c-5.048-5.225-10.388-10.191-15.114-15.715
				C186.355,202.351,181.34,195.697,182.217,187.92z"/>
			<path d="M182.217,187.92c0.5-4.764,5.326-7.693,9.725-8.109c6.274-0.686,11.76,3.533,15.543,8.105
				c0.992-2.033,1.791-4.455,3.933-5.574c4.056-2.276,9.142-1.881,13.224,0.131c10.456,4.916,19.292,12.527,28.244,19.697
				c4.191,3.816,9.604,6.563,12.287,11.792c3.252,5.465,2.816,12.127,1.537,18.112c-2.182,10.538-5.456,20.862-9.218,30.937
				c5.757,8.72,11.777,17.266,17.348,26.108c1.224,1.881,2.481,3.777,3.185,5.935c-2.994-0.536-4.921-3.04-7.043-4.966
				c-5.893-6.02-11.68-12.143-17.622-18.112c-3.401,7.667-6.216,15.665-10.501,22.896c-0.803-1.338-0.352-2.838-0.068-4.226
				c1.811-8.106,3.928-16.161,4.963-24.417c-13.824-14.229-27.938-28.179-41.883-42.289c-5.048-5.225-10.388-10.191-15.114-15.715
				C186.355,202.351,181.34,195.697,182.217,187.92z"/>
			<path fill="none" stroke="#FFFFFF" stroke-width="0.1" stroke-miterlimit="10" d="M75.996,203.452
				c6.911,5.146,14.402,9.428,21.848,13.737c3.891,2.239,7.334,5.16,10.507,8.32c0.018,8.783-0.674,17.557-1.715,26.275
				C96.624,235.554,86.096,219.633,75.996,203.452z"/>
			<path fill="#FFFFFF" d="M75.996,203.452c6.911,5.146,14.402,9.428,21.848,13.737c3.891,2.239,7.334,5.16,10.507,8.32
				c0.018,8.783-0.674,17.557-1.715,26.275C96.624,235.554,86.096,219.633,75.996,203.452z"/>
			<path fill="none" stroke="#FFFFFF" stroke-width="0.1" stroke-miterlimit="10" d="M218.961,203.424
				c6.705,4.988,13.94,9.194,21.182,13.344c4.051,2.462,8.158,5.202,11.107,8.946c0.258,8.708-0.66,17.419-1.614,26.067
				C239.605,235.545,229.097,219.598,218.961,203.424z"/>
			<path fill="#FFFFFF" d="M218.961,203.424c6.705,4.988,13.94,9.194,21.182,13.344c4.051,2.462,8.158,5.202,11.107,8.946
				c0.258,8.708-0.66,17.419-1.614,26.067C239.605,235.545,229.097,219.598,218.961,203.424z"/>
		</g>
	</g>
</g>
</svg>
