<?xml version="1.0" encoding="utf-8"?>
<svg xmlns="http://www.w3.org/2000/svg" width="300" height="300">
  <path d="M116.371 75.388c11.985-10.679 26.72-17.383 41.229-23.866 8.893-4.089 17.825-8.089 26.68-12.256 2.578-1.274 5.676-1.421 7.92-3.35-5.123.103-10.041 1.8-15.064 2.632-23.095 4.322-44.977 13.069-67.032 20.886-8.308 3.248-16.417 7.029-24.1 11.57-1.892 1.161-3.453 2.758-5.007 4.323-26.999.128-53.998.01-80.997.059v5.994c26.362-.006 52.725.014 79.087-.011.112 3.692 2.295 7.376 5.986 8.394 11.264 1.974 19.072-10.357 30.362-8.431-.772 2.067-1.481 4.346-.618 6.513 2.414 6.201 7.81 10.873 13.746 13.614 9.256 3.568 18.589 7.058 28.289 9.234 19.788 4.619 40.249 1.988 60.214.136-.38-.279-1.137-.836-1.514-1.115-5.43-1.42-11.043-1.954-16.579-2.794-15.089-2.902-30.562-5.449-44.277-12.775-7.732-2.9-14.105-8.178-20.81-12.813 55.371.117 110.743.008 166.114.054V75.38c-61.209.006-122.419-.01-183.629.008zm15.577 83.867c-3.7-3.969-7.099-8.355-11.729-11.323-2.61-1.886-5.914-2.117-8.977-2.667-1.951 1.323-4.46 2.281-5.473 4.585-1.598 3.113-.734 6.684-.503 9.991-2.456-.896-3.251-3.509-4.644-5.45-3.406-5.423-8.127-10.623-14.701-11.893-2.903.575-5.997 2.044-7.269 4.895-1.526 3.835-.763 8.05-.232 12.007-26.14-.04-52.281-.017-78.422-.015v5.994c26.772.012 53.543-.023 80.314.02 7.927 20.172 23.751 36.512 29.292 57.738 6.085 19.142 11.167 38.62 15.391 58.225.704-3.401.269-6.88.172-10.313-.446-8.668-.511-17.381-1.828-25.979-1.509-10.099-3.142-20.176-4.694-30.266-2.103-17.095-8.607-33.213-12.275-49.972 2.44 2.052 3.455 5.16 5.114 7.784 7.12 11.814 17.309 21.311 25.387 32.426 8.637 10.543 13.473 23.428 19.475 35.506 3.993 7.779 6.964 16.012 10.36 24.058 1.976 4.995 4.425 9.866 5.447 15.184.352-.03 1.058-.089 1.412-.118-2.281-11.514-4.658-23.027-7.574-34.396-4.506-14.188-9.129-28.342-13.807-42.471-5.466-12.516-11.064-24.979-16.692-37.424 54.836.003 109.671-.009 164.507.006v-6.006c-56.016-.085-112.045.171-168.051-.126z"/>
  <path d="M185.313 53.464c0 11.305 9.163 20.469 20.469 20.469 11.305 0 20.469-9.164 20.469-20.469 0-11.305-9.164-20.469-20.469-20.469s-20.469 9.164-20.469 20.469zm20.468-14.469c7.979 0 14.469 6.491 14.469 14.469s-6.49 14.469-14.469 14.469c-7.979 0-14.469-6.491-14.469-14.469s6.49-14.469 14.469-14.469z"/>
  <circle cx="95.5" cy="40.35" r="21.875"/>
</svg>