<svg id="e14f108e-31ad-4f14-971a-c0f6d583e9b4" data-name="Ebene 1" xmlns="http://www.w3.org/2000/svg" width="300" height="300" viewBox="0 0 300 300">
  <defs>
    <style>
      .a64bfa56-9ec7-489d-9124-845817d8465e {
        stroke: #000;
        stroke-miterlimit: 10;
        stroke-width: 6px;
      }
    </style>
  </defs>
  <g>
    <rect x="22" y="153.749" width="22" height="84" rx="4"/>
    <rect x="256" y="153.749" width="22" height="84" rx="4"/>
    <line class="a64bfa56-9ec7-489d-9124-845817d8465e" x1="33" y1="195.749" x2="267" y2="195.749"/>
    <circle cx="150" cy="83.751" r="21.5"/>
    <path d="M182.715,104.641c14.367,12.514,24.482,28.265,35.3,43.649,10.227,15.028,20.634,30.978,29.984,46.555a1.481,1.481,0,0,1-2.249,1.85c-3.495-3.114-6.851-6.339-10.241-9.534-13.189-12.445-26.488-26.066-39.184-39.017-7.627-7.639-15.724-16.234-22.917-24.6A18.017,18.017,0,0,1,169,110.062c.378-3.712,1.945-7.041,6.772-7.716A9.392,9.392,0,0,1,182.715,104.641Z"/>
    <path d="M116.926,104.641c-14.367,12.514-24.482,28.265-35.3,43.649C71.4,163.318,60.989,179.268,51.639,194.845a1.48,1.48,0,0,0,2.248,1.85c3.5-3.114,6.852-6.339,10.242-9.534,13.189-12.445,26.488-26.066,39.184-39.017,7.627-7.639,15.724-16.234,22.917-24.6a18.017,18.017,0,0,0,4.406-13.479c-.377-3.712-1.945-7.041-6.771-7.716A9.392,9.392,0,0,0,116.926,104.641Z"/>
    <g>
      <path d="M130.874,233.717c-3.757-10.3-5.86-21.116-7.846-31.835-2.493-17.316-6.425-35.132-2.75-52.58l.67-3.024c3.114-13.1,21.9-11.737,23.225,1.514,1.577,17.621.032,35.714-.79,53.341-.65,10.119-1.405,21.55-1.879,31.525C141.194,238.834,132.419,239.633,130.874,233.717Z"/>
      <path d="M154.366,226.624l-.023-53.056c.785-18.835,28.239-17.274,26.862,1.547l-6.115,52.7a10.4,10.4,0,0,1-20.724-1.194Z"/>
    </g>
  </g>
</svg>
