<?xml version="1.0" standalone="no"?>
<!DOCTYPE svg PUBLIC "-//W3C//DTD SVG 20010904//EN"
 "http://www.w3.org/TR/2001/REC-SVG-20010904/DTD/svg10.dtd">
<svg version="1.0" xmlns="http://www.w3.org/2000/svg"
 width="768.000000pt" height="768.000000pt" viewBox="0 0 768.000000 768.000000"
 preserveAspectRatio="xMidYMid meet">
<metadata>
Created by potrace 1.15, written by Peter Selinger 2001-2017
</metadata>
<g transform="translate(0.000000,768.000000) scale(0.100000,-0.100000)"
fill="#000000" stroke="none">
<path d="M3055 6490 c-132 -18 -239 -74 -333 -174 -94 -101 -152 -244 -152
-376 0 -245 176 -474 415 -541 64 -18 226 -18 290 0 149 41 285 151 349 282
114 231 76 472 -103 649 -129 129 -288 183 -466 160z"/>
<path d="M1999 5917 c-150 -42 -243 -168 -280 -377 -18 -106 -16 -315 5 -424
54 -279 163 -487 355 -676 118 -117 213 -177 362 -231 l87 -31 -5 -57 c-14
-149 52 -319 165 -430 108 -106 242 -161 392 -161 282 0 507 196 551 482 6 40
17 77 23 83 7 5 27 30 45 55 l33 45 -44 -49 -45 -50 -6 33 c-4 19 -7 39 -7 46
0 12 57 29 98 30 15 0 42 32 42 49 0 6 -12 11 -28 12 -15 1 -52 4 -83 8 l-56
7 -29 62 c-19 40 -53 86 -99 132 -113 114 -235 165 -397 165 -134 0 -250 -40
-346 -117 l-43 -35 -50 33 c-90 61 -174 189 -218 333 -35 114 -50 237 -61 496
-6 135 -15 275 -20 312 -26 178 -92 251 -238 263 -32 3 -77 -1 -103 -8z"/>
<path d="M1223 4230 c-24 -10 -65 -40 -92 -65 -133 -124 -183 -278 -241 -735
-34 -266 -53 -362 -99 -491 -64 -182 -174 -457 -208 -519 -80 -147 -194 -277
-432 -490 l-151 -135 0 -118 c0 -65 3 -117 8 -115 23 10 318 189 377 228 221
149 509 413 674 620 340 425 551 958 551 1388 -1 246 -61 382 -194 437 -50 21
-142 19 -193 -5z"/>
<path d="M1867 4180 c-66 -12 -146 -59 -181 -108 -38 -53 -47 -158 -21 -248
64 -223 321 -493 714 -751 80 -53 163 -107 183 -121 51 -33 122 -131 107 -146
-2 -3 -61 4 -129 15 -69 10 -174 19 -234 19 l-110 0 29 -30 c29 -30 182 -113
265 -144 25 -9 74 -22 110 -30 76 -15 74 -5 35 -172 -56 -240 -157 -499 -333
-856 -74 -153 -133 -280 -129 -284 14 -14 83 44 198 169 338 364 575 701 690
981 l38 91 93 7 c203 17 348 61 483 150 197 128 407 412 485 658 68 215 80
458 29 570 -55 118 -131 170 -252 170 -160 0 -210 -75 -303 -459 -58 -238
-118 -435 -141 -462 -7 -8 -13 -19 -13 -23 0 -13 -124 -158 -173 -203 -40 -37
-133 -93 -154 -93 -4 0 -16 33 -25 73 -76 317 -501 826 -954 1141 -117 80
-200 104 -307 86z"/>
<path d="M5722 3849 c-13 -5 -34 -21 -48 -37 -13 -15 -33 -38 -44 -52 -48 -56
-63 -108 -58 -201 3 -52 12 -98 21 -115 9 -16 32 -63 51 -104 19 -41 51 -99
71 -128 19 -30 35 -56 35 -58 0 -3 11 -17 25 -32 14 -15 25 -30 25 -34 0 -23
274 -311 350 -368 19 -14 46 -37 62 -52 15 -15 28 -25 28 -23 0 2 30 -18 68
-46 65 -49 295 -189 397 -242 55 -28 107 -48 385 -142 102 -35 209 -66 238
-70 29 -3 76 -10 105 -16 125 -25 208 -39 229 -39 16 0 18 11 18 134 l0 134
-57 18 c-32 9 -62 21 -68 24 -5 4 -26 11 -45 15 -19 4 -41 11 -50 15 -40 21
-90 40 -104 40 -9 0 -16 5 -16 10 0 6 -7 10 -15 10 -39 0 -143 77 -286 210
-69 64 -146 130 -211 177 -66 49 -188 169 -188 185 0 5 -11 21 -25 36 -14 15
-25 32 -25 39 0 7 -4 13 -8 13 -5 0 -17 16 -28 35 -10 19 -22 35 -25 35 -4 0
-10 11 -13 25 -4 14 -11 25 -16 25 -6 0 -10 6 -10 14 0 8 -3 16 -7 18 -5 2
-25 28 -45 58 -20 30 -53 72 -73 93 -19 20 -35 39 -35 42 0 8 -65 80 -162 176
-75 75 -113 105 -170 133 -40 20 -84 39 -98 42 -44 10 -154 12 -178 3z"/>
<path d="M5240 3661 c-34 -9 -99 -39 -116 -54 -79 -66 -130 -132 -136 -177 -2
-14 -6 -29 -9 -35 -4 -5 -9 -27 -13 -48 -4 -21 -11 -35 -16 -32 -6 3 -7 0 -5
-7 3 -8 -10 -79 -29 -158 -44 -187 -46 -199 -61 -409 -34 -483 19 -823 155
-996 53 -66 79 -91 140 -131 22 -15 40 -31 40 -36 0 -5 6 -8 13 -5 6 2 23 -4
37 -13 90 -62 412 -201 524 -225 33 -7 144 -36 246 -64 102 -28 205 -54 230
-57 98 -11 128 -16 200 -30 41 -8 117 -17 168 -20 77 -5 92 -4 92 8 0 8 -21
26 -47 39 -27 13 -49 27 -51 32 -2 4 -10 7 -18 7 -9 0 -13 4 -10 8 2 4 -4 9
-15 9 -26 2 -79 26 -79 35 0 5 -5 8 -10 8 -6 0 -45 17 -88 37 -42 21 -81 39
-87 39 -27 4 -55 17 -55 25 0 5 -7 9 -15 9 -18 0 -219 118 -223 131 -2 5 -10
9 -18 9 -8 0 -14 5 -14 10 0 6 -7 10 -15 10 -8 0 -15 5 -15 10 0 6 -5 10 -10
10 -6 0 -43 21 -83 48 -40 26 -84 54 -99 61 -15 8 -36 21 -46 30 -10 9 -38 32
-62 50 -102 79 -190 165 -225 221 -23 36 -29 58 -31 110 -3 62 18 171 44 233
7 16 12 33 12 38 0 6 4 7 10 4 5 -3 7 0 5 8 -3 7 11 67 31 133 20 65 42 142
50 171 23 90 47 322 48 483 1 154 1 156 -33 240 -18 47 -40 92 -47 101 -8 8
-14 19 -14 23 0 4 -18 24 -39 45 -58 57 -141 81 -211 62z"/>
</g>
</svg>
