<?xml version="1.0" encoding="UTF-8" standalone="no"?>
<!-- Created with Inkscape (http://www.inkscape.org/) -->

<svg
   xmlns:dc="http://purl.org/dc/elements/1.1/"
   xmlns:cc="http://creativecommons.org/ns#"
   xmlns:rdf="http://www.w3.org/1999/02/22-rdf-syntax-ns#"
   xmlns:svg="http://www.w3.org/2000/svg"
   xmlns="http://www.w3.org/2000/svg"
   xmlns:sodipodi="http://sodipodi.sourceforge.net/DTD/sodipodi-0.dtd"
   xmlns:inkscape="http://www.inkscape.org/namespaces/inkscape"
   width="70.342278mm"
   height="76.729164mm"
   viewBox="0 0 70.342278 76.729164"
   version="1.1"
   id="svg8"
   inkscape:version="0.92.4 (5da689c313, 2019-01-14)"
   sodipodi:docname="1976_Winter_Olympics_logo.svg">
  <defs
     id="defs2">
    <style
       id="style70">.cls-1{fill:#c12a21;}.cls-2{fill:#1e1712;}</style>
  </defs>
  <sodipodi:namedview
     id="base"
     pagecolor="#ffffff"
     bordercolor="#666666"
     borderopacity="1.0"
     inkscape:pageopacity="0.0"
     inkscape:pageshadow="2"
     inkscape:zoom="1.979899"
     inkscape:cx="119.93772"
     inkscape:cy="140.0199"
     inkscape:document-units="mm"
     inkscape:current-layer="layer1"
     showgrid="false"
     fit-margin-top="0"
     fit-margin-left="0"
     fit-margin-right="0"
     fit-margin-bottom="0"
     inkscape:window-width="1920"
     inkscape:window-height="1001"
     inkscape:window-x="-9"
     inkscape:window-y="-9"
     inkscape:window-maximized="1" />
  <metadata
     id="metadata5">
    <rdf:RDF>
      <cc:Work
         rdf:about="">
        <dc:format>image/svg+xml</dc:format>
        <dc:type
           rdf:resource="http://purl.org/dc/dcmitype/StillImage" />
        <dc:title></dc:title>
      </cc:Work>
    </rdf:RDF>
  </metadata>
  <g
     inkscape:label="Capa 1"
     inkscape:groupmode="layer"
     id="layer1"
     transform="translate(-62.86534,-156.56711)">
    <g
       data-name="Capa 2"
       id="Capa_2"
       transform="matrix(0.38662285,0,0,0.38662285,62.856783,156.57097)">
      <g
         data-name="Anillos Sementados"
         id="Anillos_Sementados">
        <path
           id="path76"
           d="M 121.9,93.4 A 37.25,37.25 0 0 1 90.71,76.55 37.28,37.28 0 0 1 26.93,74.21 v 40.36 H 48 l 15.15,-15 15.18,15 h 24.69 l 15.15,-15 15.18,15 h 21.1 V 74.21 A 37.24,37.24 0 0 1 121.9,93.4 Z"
           class="cls-1"
           inkscape:connector-curvature="0"
           style="fill:#c12a21" />
        <path
           id="path78"
           d="M 132.4,149.66 H 104.05 V 139.38 H 77.38 v 10.29 H 49 V 139.38 H 27.34 a 38.57,38.57 0 0 0 38.15,33 h 50.45 a 38.56,38.56 0 0 0 38.14,-33 H 132.4 Z"
           class="cls-1"
           inkscape:connector-curvature="0"
           style="fill:#c12a21" />
        <path
           id="path80"
           d="m 90.71,53.86 c -0.75,0 -1.49,0 -2.23,-0.1 l -0.71,-0.08 a 25.45,25.45 0 0 1 -2.9,-0.5 L 84.13,53 A 25.56,25.56 0 0 1 65.47,32 25.25,25.25 0 0 0 62.54,31.47 28.36,28.36 0 0 0 84.33,56 c 0.24,0.06 0.48,0.12 0.71,0.16 a 26.83,26.83 0 0 0 2.83,0.43 l 0.71,0.05 q 1,0.09 2.13,0.09 c 0.72,0 1.44,0 2.14,-0.09 0,-0.16 0,-0.31 0,-0.47 0,-0.8 0,-1.59 0.1,-2.37 -0.74,0.02 -1.48,0.06 -2.24,0.06 z"
           class="cls-2"
           inkscape:connector-curvature="0"
           style="fill:#1e1712" />
        <path
           id="path82"
           d="m 90.71,2.83 a 25.52,25.52 0 0 1 25.5,24.81 c 0,0.23 0,0.47 0,0.71 v 0 a 25.93,25.93 0 0 1 -0.18,2.94 q 0,0.39 -0.09,0.75 A 25.56,25.56 0 0 1 97.3,53 22.3,22.3 0 0 0 97.1,56 28.36,28.36 0 0 0 118.89,31.55 l 0.06,-0.72 c 0.07,-0.81 0.12,-1.62 0.12,-2.44 0,-0.15 0,-0.29 0,-0.43 0,-0.14 0,-0.47 0,-0.7 a 28.35,28.35 0 0 0 -56.65,0 26.43,26.43 0 0 1 2.83,0.42 25.51,25.51 0 0 1 25.46,-24.85 z"
           class="cls-2"
           inkscape:connector-curvature="0"
           style="fill:#1e1712" />
        <path
           id="path84"
           d="m 153.08,0 a 28.36,28.36 0 0 0 -28.33,27.22 26.43,26.43 0 0 1 2.83,0.42 25.51,25.51 0 1 1 25.5,26.22 c -0.76,0 -1.5,0 -2.23,-0.1 l -0.71,-0.08 a 25.25,25.25 0 0 1 -2.91,-0.5 L 146.49,53 A 25.56,25.56 0 0 1 127.83,32 25.25,25.25 0 0 0 124.9,31.47 28.36,28.36 0 0 0 146.69,56 c 0.24,0.06 0.48,0.12 0.72,0.16 a 26.06,26.06 0 0 0 2.83,0.43 l 0.7,0.05 c 0.7,0.06 1.42,0.09 2.14,0.09 a 28.35,28.35 0 1 0 0,-56.69 z"
           class="cls-2"
           inkscape:connector-curvature="0"
           style="fill:#1e1712" />
        <path
           id="path86"
           d="m 121.9,30.61 c 0.75,0 1.49,0 2.23,0.11 l 0.71,0.07 a 25.45,25.45 0 0 1 2.9,0.5 l 0.74,0.19 a 25.53,25.53 0 0 1 18.66,21 25.25,25.25 0 0 0 2.93,0.53 28.37,28.37 0 0 0 -21.79,-24.45 l -0.72,-0.16 c -0.92,-0.19 -1.87,-0.33 -2.82,-0.43 l -0.71,-0.05 c -0.7,-0.05 -1.41,-0.09 -2.13,-0.09 -0.72,0 -1.44,0 -2.14,0.09 0,0.16 0,0.32 0,0.48 0,0.8 0,1.58 -0.11,2.37 0.75,-0.12 1.49,-0.16 2.25,-0.16 z"
           class="cls-2"
           inkscape:connector-curvature="0"
           style="fill:#1e1712" />
        <path
           id="path88"
           d="M 121.9,81.64 A 25.51,25.51 0 0 1 96.4,56.84 c 0,-0.24 0,-0.48 0,-0.71 v 0 a 26.1,26.1 0 0 1 0.18,-3 l 0.09,-0.75 a 25.53,25.53 0 0 1 18.66,-20.95 22.56,22.56 0 0 0 0.2,-3 A 28.37,28.37 0 0 0 93.72,53 c 0,0.24 0,0.48 -0.07,0.72 -0.06,0.81 -0.11,1.62 -0.11,2.45 0,0.14 0,0.28 0,0.42 0,0.14 0,0.47 0,0.7 a 28.35,28.35 0 0 0 56.65,0 c -1,-0.09 -1.9,-0.23 -2.83,-0.41 A 25.51,25.51 0 0 1 121.9,81.64 Z"
           class="cls-2"
           inkscape:connector-curvature="0"
           style="fill:#1e1712" />
        <path
           id="path90"
           d="m 59.53,30.61 c 0.76,0 1.5,0 2.23,0.11 l 0.71,0.07 a 25.25,25.25 0 0 1 2.91,0.5 l 0.73,0.19 a 25.52,25.52 0 0 1 18.66,21 A 26,26 0 0 0 87.7,53 28.35,28.35 0 0 0 65.92,28.51 L 65.2,28.35 c -0.93,-0.19 -1.87,-0.33 -2.83,-0.43 l -0.7,-0.05 c -0.71,-0.05 -1.42,-0.09 -2.14,-0.09 -0.72,0 -1.43,0 -2.14,0.09 0,0.16 0,0.32 0,0.48 0,0.8 0,1.58 -0.11,2.37 0.72,-0.07 1.5,-0.11 2.25,-0.11 z"
           class="cls-2"
           inkscape:connector-curvature="0"
           style="fill:#1e1712" />
        <path
           id="path92"
           d="M 59.53,81.64 A 25.51,25.51 0 0 1 34,56.84 c 0,-0.24 0,-0.48 0,-0.71 v 0 a 23.92,23.92 0 0 1 0.18,-2.94 c 0,-0.25 0.06,-0.5 0.09,-0.75 A 25.53,25.53 0 0 1 53,31.48 26.61,26.61 0 0 0 53.2,28.48 28.37,28.37 0 0 0 31.36,53 c 0,0.24 -0.05,0.48 -0.07,0.72 -0.07,0.81 -0.11,1.62 -0.11,2.45 0,0.14 0,0.28 0,0.42 0,0.14 0,0.47 0,0.7 a 28.35,28.35 0 0 0 56.65,0 C 86.83,57.2 85.93,57.06 85,56.88 A 25.51,25.51 0 0 1 59.53,81.64 Z"
           class="cls-2"
           inkscape:connector-curvature="0"
           style="fill:#1e1712" />
        <path
           id="path94"
           d="m 28.35,53.86 a 25.52,25.52 0 1 1 25.5,-26.22 c 0,0.23 0,0.47 0,0.71 v 0 a 25.94,25.94 0 0 1 -0.17,2.94 c 0,0.26 -0.06,0.51 -0.1,0.75 A 25.54,25.54 0 0 1 34.93,53 26.27,26.27 0 0 0 34.73,56 28.34,28.34 0 0 0 56.52,31.51 c 0,-0.24 0,-0.48 0.07,-0.72 0.07,-0.81 0.11,-1.62 0.11,-2.44 0,-0.15 0,-0.29 0,-0.43 0,-0.14 0,-0.47 0,-0.7 A 28.35,28.35 0 1 0 28.35,56.69 c 0.72,0 1.43,0 2.14,-0.09 0,-0.16 0,-0.31 0,-0.47 0,-0.8 0,-1.59 0.1,-2.37 -0.74,0.06 -1.49,0.1 -2.24,0.1 z"
           class="cls-2"
           inkscape:connector-curvature="0"
           style="fill:#1e1712" />
        <path
           id="path96"
           d="m 163.45,68.1 a 5.61,5.61 0 0 1 1.22,-3.72 4.32,4.32 0 0 1 3.22,-1.55 v 3.54 a 1.61,1.61 0 0 0 -1.27,0.49 1.9,1.9 0 0 0 -0.48,1.36 v 0.15 a 2.48,2.48 0 0 0 1.45,2.38 8.16,8.16 0 0 0 3.29,0.72 4.81,4.81 0 0 1 -1.42,-3.5 5.37,5.37 0 0 1 1.54,-3.97 5.43,5.43 0 0 1 4,-1.55 5.52,5.52 0 0 1 4.22,1.76 6.32,6.32 0 0 1 1.64,4.51 5.45,5.45 0 0 1 -2.14,4.67 10.46,10.46 0 0 1 -6.28,1.6 q -4.56,0 -6.85,-1.77 a 5.61,5.61 0 0 1 -2.15,-4.75 z m 11.63,3.31 a 3.28,3.28 0 0 0 2.22,-0.77 2.44,2.44 0 0 0 0.89,-1.92 2.53,2.53 0 0 0 -0.79,-2 3.44,3.44 0 0 0 -2.32,-0.69 3.05,3.05 0 0 0 -2.13,0.74 2.75,2.75 0 0 0 0,3.9 3.05,3.05 0 0 0 2.13,0.74 z"
           class="cls-2"
           inkscape:connector-curvature="0"
           style="fill:#1e1712" />
        <path
           id="path98"
           d="m 181.16,96.27 a 24.13,24.13 0 0 1 -7.65,-2.09 24.63,24.63 0 0 1 -6.22,-4 v 8.52 h -3 V 86.55 h 2.56 a 23.57,23.57 0 0 0 6.64,4.27 24.18,24.18 0 0 0 7.64,2 z"
           class="cls-2"
           inkscape:connector-curvature="0"
           style="fill:#1e1712" />
        <path
           id="path100"
           d="m 181.13,118.77 a 5.48,5.48 0 0 1 -1.21,3.68 4.27,4.27 0 0 1 -3.19,1.53 v -3.48 a 1.6,1.6 0 0 0 1.27,-0.5 2,2 0 0 0 0.47,-1.36 v -0.17 a 2.46,2.46 0 0 0 -1.42,-2.34 8.44,8.44 0 0 0 -3.29,-0.73 4.79,4.79 0 0 1 1.42,3.48 5.29,5.29 0 0 1 -1.54,3.93 5.37,5.37 0 0 1 -3.95,1.53 5.51,5.51 0 0 1 -4.19,-1.73 6.3,6.3 0 0 1 -1.63,-4.46 5.4,5.4 0 0 1 2.13,-4.62 10.39,10.39 0 0 1 6.23,-1.58 c 3,0 5.27,0.59 6.79,1.75 a 5.53,5.53 0 0 1 2.13,4.69 z m -11.53,-3.29 a 3.2,3.2 0 0 0 -2.2,0.76 2.43,2.43 0 0 0 -0.88,1.92 2.5,2.5 0 0 0 0.78,2 3.4,3.4 0 0 0 2.3,0.68 3,3 0 0 0 2.11,-0.73 2.75,2.75 0 0 0 0,-3.88 3,3 0 0 0 -2.11,-0.75 z"
           class="cls-2"
           inkscape:connector-curvature="0"
           style="fill:#1e1712" />
        <path
           id="path102"
           d="m 168.42,143.78 -0.59,3.95 -2.31,-0.34 a 4.61,4.61 0 0 0 -0.27,-2.81 4.74,4.74 0 0 0 -1.86,-2.14 l 0.39,-2.65 16.45,2.42 -0.23,1.62 -0.24,1.62 z"
           class="cls-2"
           inkscape:connector-curvature="0"
           style="fill:#1e1712" />
        <path
           id="path104"
           d="m 145.2,172.37 1.26,-1.21 1.26,-1.21 4.79,5 -0.17,-9.42 1.66,-1.53 1.61,-1.54 -0.1,9.54 12,2.22 -1.65,1.58 -1.65,1.58 -8.72,-1.83 v 2.43 l 3.88,4 -1.37,1.24 -1.26,1.21 z"
           class="cls-2"
           inkscape:connector-curvature="0"
           style="fill:#1e1712" />
        <path
           id="path106"
           d="m 132.56,190 a 6.89,6.89 0 0 1 -1.8,4.85 7.32,7.32 0 0 1 -4.79,2.22 7.14,7.14 0 0 1 -5.85,-1.78 9.35,9.35 0 0 1 -2.74,-6.16 9.67,9.67 0 0 1 1.41,-6.72 7,7 0 0 1 5.36,-3 7.54,7.54 0 0 1 5.11,1.1 6.5,6.5 0 0 1 2.75,4.13 l -3.5,0.36 a 3.16,3.16 0 0 0 -1.39,-2 4,4 0 0 0 -2.62,-0.54 3.59,3.59 0 0 0 -2.9,1.87 7.38,7.38 0 0 0 -0.66,4.43 7.12,7.12 0 0 0 1.54,4.09 3.57,3.57 0 0 0 3.22,1.2 3.66,3.66 0 0 0 2.44,-1.15 3.62,3.62 0 0 0 0.92,-2.52 z"
           class="cls-2"
           inkscape:connector-curvature="0"
           style="fill:#1e1712" />
        <path
           id="path108"
           d="m 98.22,191.63 c 0,2.42 -0.52,4.15 -1.59,5.22 -1.07,1.07 -2.81,1.6 -5.22,1.6 -2.41,0 -4,-0.55 -5.13,-1.67 -1.13,-1.12 -1.68,-2.78 -1.68,-5.15 v -10.51 h 3.52 v 10.63 a 3.92,3.92 0 0 0 0.82,2.72 3.15,3.15 0 0 0 2.47,0.91 3.28,3.28 0 0 0 2.53,-0.84 4.12,4.12 0 0 0 0.76,-2.79 v -10.63 h 3.52 z"
           class="cls-2"
           inkscape:connector-curvature="0"
           style="fill:#1e1712" />
        <path
           id="path110"
           d="m 52.79,179.61 1.69,0.17 6.52,0.66 a 5.49,5.49 0 0 1 3.63,1.67 4.43,4.43 0 0 1 1.09,3.55 4,4 0 0 1 -1.93,3.4 4.28,4.28 0 0 1 -1,0.41 3.3,3.3 0 0 1 0.52,0.33 3.27,3.27 0 0 1 1.17,3 l -0.19,2.77 a 3.37,3.37 0 0 0 0.06,1.19 1.12,1.12 0 0 0 0.5,0.61 v 0.44 l -3.75,-0.37 a 3.75,3.75 0 0 1 -0.13,-1.16 17.7,17.7 0 0 1 0.07,-1.88 l 0.13,-1.56 a 2,2 0 0 0 -0.49,-1.68 3.39,3.39 0 0 0 -2,-0.69 l -3.39,-0.35 -0.65,6.67 -1.69,-0.17 -1.71,-0.17 z m 2.69,7.72 4,0.4 a 3.12,3.12 0 0 0 2,-0.36 2.1,2.1 0 0 0 0.82,-1.62 2.14,2.14 0 0 0 -0.47,-1.73 2.82,2.82 0 0 0 -1.82,-0.75 l -4.08,-0.41 z"
           class="cls-2"
           inkscape:connector-curvature="0"
           style="fill:#1e1712" />
        <path
           id="path112"
           d="m 28.26,164.42 1.22,1.16 4.72,4.42 a 5.8,5.8 0 0 1 2,3.44 3.84,3.84 0 0 1 -1.15,3.23 3.64,3.64 0 0 1 -3.3,1.33 3.93,3.93 0 0 1 -0.64,-0.15 4.47,4.47 0 0 1 0.39,1.13 3.69,3.69 0 0 1 -1,3.47 4.89,4.89 0 0 1 -3.86,1.77 7.09,7.09 0 0 1 -4.33,-2.23 l -4.34,-4.08 -1.27,-1.21 z m -7.1,12.46 3.12,2.93 a 3,3 0 0 0 1.91,1 2.21,2.21 0 0 0 1.73,-0.84 1.79,1.79 0 0 0 0.57,-1.63 3.58,3.58 0 0 0 -1.18,-1.83 l -3.07,-2.88 z m 5,-5.34 2.94,2.76 a 3.3,3.3 0 0 0 1.77,1 1.8,1.8 0 0 0 1.5,-0.64 1.42,1.42 0 0 0 0.38,-1.41 3.91,3.91 0 0 0 -1.22,-1.74 l -2.83,-2.66 z"
           class="cls-2"
           inkscape:connector-curvature="0"
           style="fill:#1e1712" />
        <path
           id="path114"
           d="m 15.39,151.35 a 2.54,2.54 0 0 0 1.61,-1.54 4.24,4.24 0 0 0 0,-2.65 3.36,3.36 0 0 0 -1.13,-1.91 2,2 0 0 0 -1.82,-0.32 1.31,1.31 0 0 0 -0.94,1.09 15.45,15.45 0 0 0 -0.09,3.51 12.31,12.31 0 0 1 -0.59,5.34 4.36,4.36 0 0 1 -3.02,2.13 4.52,4.52 0 0 1 -4.19,-0.85 8.45,8.45 0 0 1 -2.7,-4.61 7.77,7.77 0 0 1 0.15,-5.31 5.58,5.58 0 0 1 3.63,-3 l 0.89,3.34 a 2.7,2.7 0 0 0 -1.77,1.5 4.06,4.06 0 0 0 0,2.71 5.4,5.4 0 0 0 1.22,2.45 1.7,1.7 0 0 0 1.73,0.53 1.55,1.55 0 0 0 1.2,-1 9.56,9.56 0 0 0 0.17,-3 15.54,15.54 0 0 1 0.5,-5.78 3.93,3.93 0 0 1 2.76,-2.26 4.85,4.85 0 0 1 4.3,0.73 7.57,7.57 0 0 1 2.7,4.35 7.14,7.14 0 0 1 -0.26,4.93 5.7,5.7 0 0 1 -3.45,3 z"
           class="cls-2"
           inkscape:connector-curvature="0"
           style="fill:#1e1712" />
        <path
           id="path116"
           d="M 0.74,115.24 V 112 h 17.19 v 3.69 l -12.07,6.7 h 12.07 v 3.29 H 0.74 v -3.51 l 12.39,-6.93 z"
           class="cls-2"
           inkscape:connector-curvature="0"
           style="fill:#1e1712" />
        <path
           id="path118"
           d="m 0.74,84.94 v -3.28 h 17.19 v 3.68 L 5.86,92.1 h 12.07 v 3.28 H 0.74 v -3.5 l 12.39,-6.94 z"
           class="cls-2"
           inkscape:connector-curvature="0"
           style="fill:#1e1712" />
        <path
           id="path120"
           d="m 17.93,63 v 3.51 H 0.74 V 63 Z"
           class="cls-2"
           inkscape:connector-curvature="0"
           style="fill:#1e1712" />
      </g>
    </g>
  </g>
</svg>
