<?xml version="1.0" encoding="UTF-8" standalone="no"?>
<!DOCTYPE svg PUBLIC "-//W3C//DTD SVG 1.1//EN" "http://www.w3.org/Graphics/SVG/1.1/DTD/svg11.dtd">
<svg width="100%" height="100%" viewBox="0 0 288 290" version="1.1" xmlns="http://www.w3.org/2000/svg" xmlns:xlink="http://www.w3.org/1999/xlink" xml:space="preserve" xmlns:serif="http://www.serif.com/" style="fill-rule:evenodd;clip-rule:evenodd;stroke-linejoin:round;stroke-miterlimit:2;">
    <g transform="matrix(0.219369,0,0,-0.219369,-41.8549,369.637)">
        <g id="Nagano-LOGO" serif:id="Nagano LOGO">
            <g id="SALT-LAKE-LOGO" serif:id="SALT LAKE LOGO">
                <g id="SALT-LAKE-LOGO1" serif:id="SALT LAKE LOGO">
                    <g id="g4854">
                        <g id="g4856">
                            <g id="g4862" transform="matrix(1,0,0,1,1321.96,767.564)">
                                <path id="path4864" d="M0,0C0,28.791 8.721,59.696 39.773,59.696C73.355,59.696 79.939,26.63 79.939,0C79.939,-26.655 73.036,-59.083 39.773,-59.083C4.422,-59.083 0,-24.026 0,0M56.896,0C56.896,14.788 56.896,42.598 39.773,42.598C22.994,42.598 22.994,14.788 22.994,0C22.994,-14.494 22.872,-41.96 39.773,-41.96C57.068,-41.96 56.896,-14.494 56.896,0" style="fill:rgb(0,0,1);fill-rule:nonzero;"/>
                            </g>
                            <g id="g4866" transform="matrix(1,0,0,1,1423.42,710.471)">
                                <path id="path4868" d="M0,0L0,19.26C10.687,29.627 49.698,62.178 49.698,83.256C49.698,93.771 40.289,98.708 30.905,98.708C21.2,98.708 11.988,94.409 4.422,89.471L2.629,108.584C12.996,113.841 25.009,116.789 36.678,116.789C58.566,116.789 72.692,105.759 72.692,83.256C72.692,58.886 48.199,36.506 29.431,18.105L76.328,18.105L76.328,0L0,0" style="fill:rgb(0,0,1);fill-rule:nonzero;"/>
                            </g>
                            <g id="g4870" transform="matrix(1,0,0,1,1021.46,594.763)">
                                <path id="path4872" d="M0,0C-41.615,0 -75.837,-31.863 -79.497,-72.521C-82.371,-72.226 -85.343,-72.054 -88.291,-72.054C-91.288,-72.054 -94.212,-72.226 -97.11,-72.521C-100.796,-31.863 -134.968,0 -176.632,0C-218.249,0 -252.42,-31.863 -256.104,-72.521C-259.004,-72.226 -261.952,-72.054 -264.924,-72.054C-267.897,-72.054 -270.845,-72.226 -273.72,-72.521C-277.429,-31.863 -311.601,0 -353.242,0C-397.338,0 -433.083,-35.72 -433.083,-79.817C-433.083,-123.914 -397.338,-159.658 -353.242,-159.658C-350.268,-159.658 -347.32,-159.486 -344.422,-159.191C-340.762,-199.849 -306.564,-231.736 -264.924,-231.736C-223.284,-231.736 -189.112,-199.849 -185.428,-159.191C-182.528,-159.486 -179.58,-159.658 -176.632,-159.658C-173.635,-159.658 -170.713,-159.486 -167.812,-159.191C-164.129,-199.849 -129.957,-231.736 -88.291,-231.736C-46.676,-231.736 -12.479,-199.849 -8.795,-159.191C-5.92,-159.486 -2.972,-159.658 -0,-159.658C44.098,-159.658 79.842,-123.914 79.842,-79.817C79.842,-35.72 44.098,0 0,0M-416.943,-79.817C-416.943,-44.638 -388.421,-16.141 -353.242,-16.141C-319.339,-16.141 -291.653,-42.574 -289.639,-75.96C-318.873,-85.442 -340.712,-111.435 -344.275,-142.904C-347.173,-143.321 -350.195,-143.518 -353.242,-143.518C-388.421,-143.518 -416.943,-115.021 -416.943,-79.817M-291.063,-93.771C-295.461,-113.547 -309.046,-129.81 -327.078,-137.941C-322.68,-118.19 -309.096,-101.902 -291.063,-93.771M-264.924,-215.596C-298.802,-215.596 -326.513,-189.138 -328.502,-155.752C-299.244,-146.27 -277.429,-120.327 -273.891,-88.809C-270.943,-88.415 -267.971,-88.194 -264.924,-88.194C-261.879,-88.194 -258.881,-88.415 -255.958,-88.809C-252.42,-120.327 -230.582,-146.27 -201.322,-155.752C-203.337,-189.138 -231.022,-215.596 -264.924,-215.596M-238.786,-93.771C-220.73,-101.902 -207.169,-118.19 -202.746,-137.941C-220.804,-129.81 -234.388,-113.547 -238.786,-93.771M-185.599,-142.904C-189.112,-111.435 -210.953,-85.442 -240.21,-75.96C-238.197,-42.574 -210.51,-16.141 -176.632,-16.141C-142.73,-16.141 -115.02,-42.574 -113.029,-75.96C-142.288,-85.442 -164.104,-111.435 -167.642,-142.904C-170.564,-143.321 -173.562,-143.518 -176.632,-143.518C-179.653,-143.518 -182.651,-143.321 -185.599,-142.904M-114.431,-93.771C-118.852,-113.547 -132.413,-129.81 -150.445,-137.941C-146.072,-118.19 -132.486,-101.902 -114.431,-93.771M-88.291,-215.596C-122.169,-215.596 -149.903,-189.138 -151.895,-155.752C-122.635,-146.27 -100.82,-120.327 -97.283,-88.809C-94.359,-88.415 -91.338,-88.194 -88.291,-88.194C-85.27,-88.194 -82.272,-88.415 -79.324,-88.809C-75.812,-120.327 -53.972,-146.27 -24.713,-155.752C-26.728,-189.138 -54.414,-215.596 -88.291,-215.596M-62.153,-93.771C-44.121,-101.902 -30.535,-118.19 -26.113,-137.941C-44.17,-129.81 -57.755,-113.547 -62.153,-93.771M0,-143.518C-3.046,-143.518 -6.019,-143.321 -8.966,-142.904C-12.503,-111.435 -34.318,-85.442 -63.577,-75.96C-61.563,-42.574 -33.877,-16.141 0,-16.141C35.18,-16.141 63.702,-44.638 63.702,-79.817C63.702,-115.021 35.18,-143.518 0,-143.518" style="fill:rgb(0,0,1);fill-rule:nonzero;"/>
                            </g>
                            <g id="g4874" transform="matrix(1,0,0,1,256.315,804.044)">
                                <path id="path4876" d="M0,0C-7.248,3.12 -15.306,4.938 -23.364,4.938C-31.25,4.938 -41.469,1.499 -41.469,-11.006C-41.469,-30.953 8.893,-22.552 8.893,-61.048C8.893,-86.253 -11.006,-95.784 -34.221,-95.784C-46.727,-95.784 -52.327,-94.139 -63.701,-91.362L-61.564,-70.604C-53.654,-74.903 -44.588,-77.679 -35.548,-77.679C-26.828,-77.679 -15.134,-73.232 -15.134,-62.865C-15.134,-40.977 -65.519,-50.042 -65.519,-12.013C-65.519,13.659 -45.596,23.044 -25.354,23.044C-15.477,23.044 -6.241,21.742 2.137,18.941L0,0" style="fill:rgb(0,0,1);fill-rule:nonzero;"/>
                            </g>
                            <g id="g4878" transform="matrix(1,0,0,1,324.782,825.122)">
                                <path id="path4880" d="M0,0L26.016,0L71.12,-114.897L45.596,-114.897L35.719,-88.562L-10.883,-88.562L-20.907,-114.897L-44.785,-114.897L0,0ZM12.676,-23.043L12.333,-23.043L-4.275,-70.456L29.284,-70.456L12.676,-23.043Z" style="fill:rgb(0,0,1);fill-rule:nonzero;"/>
                            </g>
                            <g id="g4882" transform="matrix(1,0,0,1,418.085,825.122)">
                                <path id="path4884" d="M0,0L23.069,0L23.069,-96.792L67.657,-96.792L67.657,-114.897L0,-114.897L0,0Z" style="fill:rgb(0,0,1);fill-rule:nonzero;"/>
                            </g>
                            <g id="g4886" transform="matrix(1,0,0,1,525.073,807.017)">
                                <path id="path4888" d="M0,0L-32.92,0L-32.92,18.105L55.987,18.105L55.987,0L23.043,0L23.043,-96.792L0,-96.792L0,0Z" style="fill:rgb(0,0,1);fill-rule:nonzero;"/>
                            </g>
                            <g id="g4890" transform="matrix(1,0,0,1,644.687,825.122)">
                                <path id="path4892" d="M0,0L23.044,0L23.044,-96.792L67.657,-96.792L67.657,-114.897L0,-114.897L0,0Z" style="fill:rgb(0,0,1);fill-rule:nonzero;"/>
                            </g>
                            <g id="g4894" transform="matrix(1,0,0,1,773.907,825.122)">
                                <path id="path4896" d="M0,0L26.016,0L71.095,-114.897L45.596,-114.897L35.719,-88.562L-10.883,-88.562L-20.907,-114.897L-44.759,-114.897L0,0ZM12.652,-23.043L12.333,-23.043L-4.275,-70.456L29.308,-70.456L12.652,-23.043Z" style="fill:rgb(0,0,1);fill-rule:nonzero;"/>
                            </g>
                            <g id="g4898" transform="matrix(1,0,0,1,867.211,825.122)">
                                <path id="path4900" d="M0,0L23.043,0L23.043,-49.378L64.535,0L92.86,0L45.595,-54.169L94.826,-114.897L64.708,-114.897L23.387,-61.563L23.043,-61.563L23.043,-114.897L0,-114.897L0,0Z" style="fill:rgb(0,0,1);fill-rule:nonzero;"/>
                            </g>
                            <g id="g4902" transform="matrix(1,0,0,1,985.229,825.122)">
                                <path id="path4904" d="M0,0L67.827,0L67.827,-18.105L23.067,-18.105L23.067,-46.431L64.02,-46.431L64.02,-64.512L23.067,-64.512L23.067,-96.792L68.172,-96.792L68.172,-114.897L0,-114.897L0,0Z" style="fill:rgb(0,0,1);fill-rule:nonzero;"/>
                            </g>
                            <g id="g4906" transform="matrix(1,0,0,1,1120.84,710.225)">
                                <path id="path4908" d="M0,0L0,19.26C10.687,29.652 49.698,62.228 49.698,83.306C49.698,93.819 40.29,98.758 30.954,98.758C21.201,98.758 11.988,94.483 4.446,89.545L2.629,108.658C12.995,113.915 25.009,116.863 36.702,116.863C58.592,116.863 72.717,105.833 72.717,83.306C72.717,58.936 48.2,36.53 29.455,18.105L76.353,18.105L76.353,0L0,0" style="fill:rgb(0,0,1);fill-rule:nonzero;"/>
                            </g>
                            <g id="g4910" transform="matrix(1,0,0,1,1218.73,767.367)">
                                <path id="path4912" d="M0,0C0,28.792 8.746,59.722 39.822,59.722C73.404,59.722 80.014,26.655 80.014,0C80.014,-26.703 73.085,-59.106 39.822,-59.106C4.471,-59.106 0,-24.051 0,0M56.97,0C56.97,14.789 56.97,42.599 39.822,42.599C23.044,42.599 23.044,14.789 23.044,0C23.044,-14.494 22.871,-41.984 39.822,-41.984C57.142,-41.984 56.97,-14.494 56.97,0" style="fill:rgb(0,0,1);fill-rule:nonzero;"/>
                            </g>
                            <g id="g4914" transform="matrix(1,0,0,1,1097.99,1132.28)">
                                <path id="path4916" d="M0,0L-182.824,105.563L-182.799,25.132L-253.207,65.74L-323.394,25.132L-323.37,105.784L-506.268,0.197L-506.268,-40.117L-393.703,24.861L-393.703,-56.232L-323.417,-15.649L-323.417,-178.156L-253.207,-137.572L-182.799,-178.156L-182.799,-16.017L-112.49,-56.625L-112.49,24.616L0,-40.313L0,0Z" style="fill:rgb(67,92,200);fill-rule:nonzero;"/>
                            </g>
                            <g id="g4918" transform="matrix(1,0,0,1,703.917,1481.79)">
                                <path id="path4920" d="M0,0L-112.097,64.733L-112.073,24.419L70.678,-81.094L70.678,-121.948L-180.908,23.265L-180.908,-57.903L-0.073,-162.286L-181.005,-266.768L-181.005,-347.911L140.865,-162.286L140.865,-80.824L0,0Z" style="fill:rgb(255,104,29);fill-rule:nonzero;"/>
                            </g>
                            <g id="g4922" transform="matrix(1,0,0,1,985.031,1319.47)">
                                <path id="path4924" d="M0,0L181.497,104.556L181.497,144.279L-34.196,19.727L-70.211,40.51L-140.25,0.025L181.793,-186.116L181.793,-104.948L0,0Z" style="fill:rgb(255,104,29);fill-rule:nonzero;"/>
                            </g>
                            <g id="g4926" transform="matrix(1,0,0,1,844.585,1644.42)">
                                <path id="path4928" d="M0,0L-70.212,40.583L-70.212,-121.801L-140.914,-80.922L-140.889,-162.114L0,-242.963L0,0Z" style="fill:rgb(255,184,29);fill-rule:nonzero;"/>
                            </g>
                            <g id="g4930" transform="matrix(1,0,0,1,914.943,1360.06)">
                                <path id="path4932" d="M0,0L183.094,105.734L183.094,186.877L70.801,122.071L70.801,203.116L0.417,162.483L0.417,324.475L-34.688,303.028L-34.688,61.146L-69.941,40.903L-69.941,-40.559L0.123,-0.074L0,0Z" style="fill:rgb(255,184,29);fill-rule:nonzero;"/>
                            </g>
                            <g id="g4934" transform="matrix(1,0,0,1,824.951,912.184)">
                                <path id="path4936" d="M0,0L-8.915,0L-8.915,3.593L13.013,3.593L13.013,0L4.098,0L4.098,-25.037L0,-25.037L0,0Z" style="fill:rgb(30,18,13);fill-rule:nonzero;"/>
                            </g>
                            <g id="g4938" transform="matrix(1,0,0,1,842.102,915.778)">
                                <path id="path4940" d="M0,0L6.778,0L15.771,-23.793L24.59,0L31.368,0L31.368,-28.63L27.251,-28.63L27.251,-3.846L27.193,-3.846L17.694,-28.63L13.674,-28.63L4.195,-3.846L4.098,-3.846L4.098,-28.63L0,-28.63L0,0Z" style="fill:rgb(30,18,13);fill-rule:nonzero;"/>
                            </g>
                        </g>
                    </g>
                </g>
            </g>
        </g>
    </g>
</svg>
